<?xml version="1.0" encoding="UTF-8" standalone="no"?>
<!-- Generator: Adobe Illustrator 17.0.2, SVG Export Plug-In . SVG Version: 6.00 Build 0)  -->

<svg
   xmlns:dc="http://purl.org/dc/elements/1.1/"
   xmlns:cc="http://creativecommons.org/ns#"
   xmlns:rdf="http://www.w3.org/1999/02/22-rdf-syntax-ns#"
   xmlns:svg="http://www.w3.org/2000/svg"
   xmlns="http://www.w3.org/2000/svg"
   xmlns:sodipodi="http://sodipodi.sourceforge.net/DTD/sodipodi-0.dtd"
   xmlns:inkscape="http://www.inkscape.org/namespaces/inkscape"
   version="1.1"
   id="Capa_1"
   x="0px"
   y="0px"
   width="47.383312"
   height="46.074368"
   viewBox="0 0 47.383312 46.074368"
   xml:space="preserve"
   inkscape:version="0.48.5 r10040"
   sodipodi:docname="sketched13.svg"><metadata
   id="metadata11"><rdf:RDF><cc:Work
       rdf:about=""><dc:format>image/svg+xml</dc:format><dc:type
         rdf:resource="http://purl.org/dc/dcmitype/StillImage" /><dc:title></dc:title></cc:Work></rdf:RDF></metadata><defs
   id="defs9" /><sodipodi:namedview
   pagecolor="#ffffff"
   bordercolor="#666666"
   borderopacity="1"
   objecttolerance="10"
   gridtolerance="10"
   guidetolerance="10"
   inkscape:pageopacity="0"
   inkscape:pageshadow="2"
   inkscape:window-width="1680"
   inkscape:window-height="1027"
   id="namedview7"
   showgrid="false"
   fit-margin-top="0"
   fit-margin-left="0"
   fit-margin-right="0"
   fit-margin-bottom="0"
   inkscape:zoom="3.6875"
   inkscape:cx="23.561182"
   inkscape:cy="22.850303"
   inkscape:window-x="1912"
   inkscape:window-y="-8"
   inkscape:window-maximized="1"
   inkscape:current-layer="Capa_1" />
<g
   id="g3"
   transform="matrix(0,1,-1,0,55.504776,-9.0932914)">
	<path
   style="fill:#010202"
   d="m 11.764,28.691 c -5.515,0 -1.02,4.897 0.488,6.554 5.003,5.495 10.007,10.991 15.01,16.486 1.888,2.075 4.149,5.653 6.953,2.574 6.249,-6.863 12.499,-13.726 18.748,-20.589 0.784,-0.861 3.824,-3.928 1.079,-4.745 C 50.9,28.035 47.03,28.635 43.727,28.682 42.756,27.45 46.885,13.121 47.312,11.22 48.283,6.892 40.015,8.362 37.824,8.362 c -6.29,0 -12.581,0 -18.871,0 -4.823,0 -0.619,10.447 -0.174,12.434 0.587,2.619 1.174,5.238 1.761,7.857 -0.037,-0.16 -7.617,0.038 -8.776,0.038 z m 7.814,11.792 c 2.075,-3.606 4.18,-7.191 6.352,-10.728 2.476,-4.034 5.091,-7.984 7.597,-11.994 0.292,-0.468 0.294,-0.469 0.005,0.002 C 28.88,25.339 24.257,32.933 19.6,40.507 19.593,40.5 19.585,40.491 19.578,40.483 z m 4.125,4.531 c 0.001,-0.003 0.002,-0.005 0.004,-0.008 4.074,-6.161 8.126,-12.337 12.21,-18.493 0.306,-0.461 0.377,-0.423 0.151,0.081 -0.471,1.052 -0.964,2.092 -1.483,3.119 -3.229,5.465 -6.563,10.862 -10.169,16.085 -0.237,-0.261 -0.476,-0.523 -0.713,-0.784 z m 11.866,3.712 c -0.35,0.965 -0.702,1.929 -1.054,2.893 -0.824,1.021 -2.281,2.766 -2.721,2.283 -0.123,-0.135 -0.246,-0.271 -0.369,-0.406 1.354,-1.591 2.656,-3.229 3.895,-4.904 0.328,-0.443 0.438,-0.385 0.249,0.134 z M 34.11,47.611 c -0.32,0.451 -0.377,0.416 -0.122,-0.074 1.36,-2.613 2.737,-5.219 4.16,-7.804 0.427,-0.775 0.856,-1.551 1.284,-2.326 0.268,-0.483 0.339,-0.452 0.156,0.07 -0.361,1.032 -0.728,2.061 -1.095,3.091 -0.185,0.52 -0.573,1.323 -0.869,1.789 -1.113,1.755 -2.282,3.518 -3.514,5.254 z M 51.709,30.184 c 0.596,0 0.913,0.14 1.045,0.366 -0.147,0.132 -0.277,0.305 -0.365,0.49 -0.202,0.426 -0.403,0.851 -0.603,1.277 -0.115,0.245 -0.225,0.494 -0.339,0.739 -0.581,0.636 -1.174,1.195 -1.396,1.439 -1.847,2.027 -3.692,4.055 -5.539,6.083 1.536,-3.192 3.082,-6.38 4.656,-9.552 0.198,-0.4 0.063,-0.728 -0.284,-0.842 0.941,0 1.883,0 2.825,0 z m -7.747,1.113 c 0.031,-0.079 0.062,-0.158 0.093,-0.237 0.166,-0.419 0.123,-0.76 -0.069,-0.876 0.475,0 0.949,0 1.425,0 -0.464,0.114 -0.933,0.435 -1.143,0.828 -0.061,0.114 -0.122,0.228 -0.184,0.341 -0.262,0.486 -0.323,0.458 -0.122,-0.056 z m 2.486,-0.289 c 0.213,-0.391 0.092,-0.71 -0.248,-0.824 0.653,0 1.307,0 1.96,0 -0.462,0.115 -0.922,0.441 -1.121,0.841 -2.388,4.808 -4.714,9.651 -7.03,14.498 -0.632,0.694 -1.263,1.388 -1.894,2.081 0.669,-1.848 1.34,-3.695 2.004,-5.545 0.187,-0.52 0.581,-1.318 0.878,-1.784 1.924,-3.022 3.729,-6.121 5.451,-9.267 z m -3.793,-7.657 c -0.344,1.531 -1.647,4.317 -0.881,5.887 -4.288,7.217 -8.469,14.5 -12.56,21.831 -0.768,-0.845 -1.538,-1.689 -2.307,-2.534 -0.429,-0.471 -0.857,-0.942 -1.286,-1.413 4.182,-5.711 8.172,-11.568 11.321,-17.848 2.394,-4.058 4.748,-8.143 7.123,-12.214 -0.469,2.097 -0.939,4.194 -1.41,6.291 z M 40.214,9.855 c 1.062,0 3.65,-0.498 4.713,0.214 -0.108,0.147 -0.244,0.34 -0.393,0.557 -0.995,1.447 -1.986,2.898 -2.975,4.351 -0.311,0.457 -0.872,0.892 -1.236,1.032 -0.298,0.114 -0.542,0.241 -0.622,0.326 -0.141,0.151 -0.275,0.308 -0.408,0.465 -0.221,0.261 -0.198,0.072 0.054,-0.42 0.968,-1.893 1.932,-3.79 2.893,-5.686 0.25,-0.493 0.005,-0.892 -0.548,-0.892 h -0.117 c -0.553,0 -1.202,0.399 -1.452,0.892 -3.957,7.806 -7.942,15.599 -12.178,23.246 -1.025,1.83 -2.049,3.651 -3.106,5.426 -0.829,1.396 -1.64,2.803 -2.444,4.212 C 21.881,43.014 21.368,42.45 20.854,41.886 27.257,31.487 33.579,21.035 40.009,10.652 40.241,10.277 40.143,9.968 39.817,9.856 39.949,9.855 40.082,9.855 40.214,9.855 z m -1.102,0 c -0.467,0.113 -0.948,0.421 -1.181,0.796 -0.818,1.316 -1.639,2.631 -2.453,3.949 -0.291,0.47 -0.293,0.468 -0.009,-0.005 0.774,-1.293 1.528,-2.598 2.256,-3.916 0.215,-0.39 0.093,-0.71 -0.247,-0.824 0.545,0 1.089,0 1.634,0 z m -5.125,0 c -0.47,0.11 -0.967,0.397 -1.229,0.742 -1.106,1.455 -2.203,2.915 -3.285,4.389 -0.326,0.445 -0.385,0.41 -0.134,-0.081 0.71,-1.394 1.405,-2.794 2.085,-4.201 0.195,-0.403 0.054,-0.732 -0.297,-0.848 0.953,-10e-4 1.907,-10e-4 2.86,-10e-4 z m -10.427,0 c -0.079,0.013 -0.139,0.028 -0.149,0.044 -0.036,0.054 -0.04,0.054 -0.011,0 0.009,-0.016 -0.033,-0.031 -0.098,-0.044 0.087,0 0.173,0 0.258,0 z m -4.854,2.109 c 0.279,-0.441 0.559,-0.883 0.843,-1.323 0.238,-0.37 0.253,-0.674 0.076,-0.786 0.794,0 1.588,0 2.381,0 -0.465,0.114 -0.937,0.433 -1.152,0.821 -0.562,1.01 -1.125,2.019 -1.691,3.027 -0.164,-0.532 -0.346,-1.151 -0.457,-1.739 z m 1.75,6.195 c 1.483,-2.536 2.994,-5.051 4.575,-7.517 0.237,-0.37 0.146,-0.675 -0.175,-0.787 1.375,0 2.751,0 4.126,0 0.473,0 0.944,0 1.416,0 -0.46,0.115 -0.916,0.445 -1.11,0.849 -2.249,4.683 -4.685,9.276 -7.205,13.83 -0.413,-2.107 -1.07,-4.474 -1.627,-6.375 z m 0.767,11.808 c -0.133,0.094 -0.289,0.163 -0.484,0.163 0,0 -0.04,0 -0.1,0 0.199,-0.045 0.392,-0.102 0.584,-0.163 z m 0.112,-0.039 c 0.162,-0.055 0.33,-0.099 0.485,-0.167 0.426,-0.19 0.623,-0.774 0.66,-1.609 3.914,-5.995 8.041,-11.851 12.363,-17.554 0.262,-0.345 0.201,-0.632 -0.101,-0.742 0.674,0 1.347,0 2.021,0 -0.463,0.114 -0.931,0.435 -1.144,0.827 -4.211,7.743 -9.375,14.983 -13.89,22.548 -1.157,1.939 -2.298,3.892 -3.432,5.848 -0.489,-0.539 -0.979,-1.077 -1.47,-1.615 0.985,-1.708 1.972,-3.416 2.952,-5.125 0.511,-0.81 1.039,-1.607 1.556,-2.411 z M 18.447,31 c -0.265,0.465 -0.529,0.931 -0.797,1.395 -0.742,1.181 -1.468,2.373 -2.19,3.565 -1.026,-1.128 -2.054,-2.256 -3.081,-3.385 -0.029,-0.032 -0.053,-0.06 -0.08,-0.091 0.283,-0.494 0.566,-0.989 0.848,-1.485 0.204,-0.36 0.127,-0.669 -0.157,-0.801 0.193,-0.009 0.398,-0.015 0.628,-0.015 1.688,0 3.694,0.27 5.552,0.149 -0.296,0.16 -0.568,0.394 -0.723,0.668 z"
   id="path5"
   inkscape:connector-curvature="0" />
</g>
</svg>