<?xml version="1.0" encoding="UTF-8" standalone="no"?>
<!-- Generator: Adobe Illustrator 17.0.2, SVG Export Plug-In . SVG Version: 6.00 Build 0)  -->

<svg
   xmlns:dc="http://purl.org/dc/elements/1.1/"
   xmlns:cc="http://creativecommons.org/ns#"
   xmlns:rdf="http://www.w3.org/1999/02/22-rdf-syntax-ns#"
   xmlns:svg="http://www.w3.org/2000/svg"
   xmlns="http://www.w3.org/2000/svg"
   xmlns:sodipodi="http://sodipodi.sourceforge.net/DTD/sodipodi-0.dtd"
   xmlns:inkscape="http://www.inkscape.org/namespaces/inkscape"
   version="1.1"
   id="Capa_1"
   x="0px"
   y="0px"
   width="64px"
   height="64px"
   viewBox="0 0 64 64"
   style="enable-background:new 0 0 64 64;"
   xml:space="preserve"
   inkscape:version="0.48.5 r10040"
   sodipodi:docname="CreditsIcon.svg"
   inkscape:export-filename="C:\dev3\simsip-line\Simsip.LineRunner.Content\Content\Images\Icons\CreditsIcon.png"
   inkscape:export-xdpi="112.5"
   inkscape:export-ydpi="112.5"><metadata
   id="metadata23"><rdf:RDF><cc:Work
       rdf:about=""><dc:format>image/svg+xml</dc:format><dc:type
         rdf:resource="http://purl.org/dc/dcmitype/StillImage" /><dc:title></dc:title></cc:Work></rdf:RDF></metadata><defs
   id="defs21" /><sodipodi:namedview
   pagecolor="#ffffff"
   bordercolor="#666666"
   borderopacity="1"
   objecttolerance="10"
   gridtolerance="10"
   guidetolerance="10"
   inkscape:pageopacity="0"
   inkscape:pageshadow="2"
   inkscape:window-width="1680"
   inkscape:window-height="1027"
   id="namedview19"
   showgrid="false"
   inkscape:zoom="3.6875"
   inkscape:cx="32"
   inkscape:cy="32"
   inkscape:window-x="1912"
   inkscape:window-y="-8"
   inkscape:window-maximized="1"
   inkscape:current-layer="Capa_1" />
<g
   id="g3"
   style="fill:#ffffff">
	<path
   d="m 10.76,46.354 c -0.227,0.016 -0.448,0.068 -0.66,0.169 -0.904,0.426 -0.942,1.306 -1.041,2.162 -0.119,1.037 -0.238,2.075 -0.356,3.112 -0.099,0.868 0.062,1.786 1.188,1.692 0.851,-0.071 1.549,-0.68 2.228,-1.143 0.82,-0.559 3.215,-1.731 3.402,-2.942 0.084,-0.546 -0.365,-0.968 -0.43,-1.025 -0.035,-0.031 -0.078,-0.062 -0.128,-0.091 -0.029,-0.017 -0.059,-0.035 -0.089,-0.053 -0.049,-0.03 0.338,0.071 0.875,0.051 0.362,-0.014 0.677,-0.102 0.916,-0.283 2.64,-2.022 4.062,-6.193 5.688,-9.023 1.614,-2.811 3.228,-5.621 4.842,-8.432 1.038,-1.808 4.917,-6.228 4.326,-8.436 -0.391,-1.461 -4.523,-3.684 -5.935,-2.603 -2.543,1.948 -3.882,5.878 -5.455,8.616 -1.688,2.939 -3.375,5.88 -5.063,8.82 -1.039,1.81 -4.932,6.243 -4.34,8.453 0.047,0.175 0.149,0.359 0.293,0.549 0.208,0.276 0.117,0.381 -0.261,0.407 z M 25.519,22.043 c 0.114,-0.199 0.229,-0.398 0.343,-0.598 0.275,-0.479 0.626,-0.781 0.803,-0.699 0.177,0.081 0.008,0.467 -0.377,0.863 -0.19,0.194 -0.38,0.39 -0.569,0.584 -0.386,0.397 -0.475,0.328 -0.2,-0.15 z M 12.783,44.224 c 0.651,-1.133 1.302,-2.267 1.953,-3.399 0.275,-0.478 0.809,-1.188 1.192,-1.585 1.208,-1.248 2.415,-2.493 3.618,-3.723 0.106,-0.109 0.211,-0.218 0.316,-0.326 0.175,-0.18 0.539,-0.715 0.814,-1.193 l 0.811,-1.412 c 0.275,-0.479 0.181,-0.551 -0.211,-0.161 -1.123,1.117 -2.219,2.207 -3.294,3.276 -0.391,0.39 -0.485,0.316 -0.21,-0.162 1.43,-2.49 2.859,-4.982 4.289,-7.472 0.275,-0.479 0.817,-1.182 1.21,-1.569 1.078,-1.065 2.156,-2.129 3.235,-3.191 0.393,-0.388 0.872,-0.98 1.069,-1.323 0.196,-0.342 0.761,-0.42 1.205,-0.091 0.579,0.428 0.96,0.917 0.684,1.399 -1.364,2.376 -2.727,4.753 -4.091,7.129 -2.533,4.411 -5.066,8.822 -7.599,13.234 -0.467,0.812 -0.934,1.625 -1.4,2.438 -0.275,0.479 -0.797,0.671 -1.207,0.477 -0.409,-0.195 -0.811,-0.474 -0.865,-0.625 -0.054,-0.151 -0.127,-0.224 -0.208,-0.148 -0.081,0.075 -0.551,-0.072 -0.955,-0.448 -0.382,-0.356 -0.577,-0.74 -0.356,-1.125 z m -0.989,5.504 c 0.411,-0.369 0.748,-0.716 0.754,-0.771 0.006,-0.057 0.214,0.015 0.464,0.158 0.25,0.144 0.688,0.452 0.509,0.604 -0.097,0.082 -0.256,0.149 -0.361,0.222 -0.421,0.287 -0.843,0.574 -1.264,0.861 -0.182,0.124 -0.408,0.305 -0.651,0.494 -0.355,0.278 -0.625,0.244 -0.586,-0.059 0.039,-0.303 0.402,-0.849 0.813,-1.218 0.107,-0.096 0.215,-0.194 0.322,-0.291 z m -0.458,-1.575 c 0.147,0.085 0.121,0.288 -0.058,0.454 -0.178,0.167 -0.297,0.098 -0.265,-0.152 0.032,-0.251 0.177,-0.386 0.323,-0.302 z"
   id="path5"
   inkscape:connector-curvature="0"
   style="fill:#ffffff" />
	<path
   d="m 51.213,27.891 c -1.464,0 -2.929,0 -4.393,0 -0.017,0 -0.037,0.002 -0.058,0.005 -0.032,0.004 -0.133,0.006 -0.225,0.011 -0.05,0.002 -0.104,0.007 -0.166,0.015 -0.608,0.077 -1.483,0.204 -1.931,0.684 -0.925,0.989 -0.143,1.961 0.402,2.994 0.667,1.266 1.331,2.534 1.996,3.801 0.388,0.738 0.569,1.507 1.38,1.814 1.401,0.532 3.465,0.212 4.935,0.212 1.074,0 3.031,-0.246 3.031,-1.701 0,-1.437 0,-2.873 0,-4.31 0,-1.361 0.431,-3.059 -1.206,-3.498 -1.115,-0.301 -2.625,-0.027 -3.765,-0.027 z m -5.076,1.508 c -0.133,-0.366 0.237,-0.679 0.69,-0.679 0.453,0 0.542,0.299 0.197,0.668 -0.345,0.369 -0.755,0.379 -0.887,0.011 z m 8.257,7.197 c -0.692,0 -1.383,0 -2.074,0 -0.342,0 -0.683,0 -1.024,0 -0.492,0 -0.864,-0.056 -1.164,-0.172 -0.515,-0.2 -0.63,-0.757 -0.441,-0.947 0.189,-0.191 0.291,-0.444 0.228,-0.565 -0.037,-0.071 -0.075,-0.143 -0.115,-0.22 -0.009,-0.018 -0.019,-0.037 -0.03,-0.057 -0.017,-0.032 -0.193,0.109 -0.395,0.316 -0.202,0.206 -0.421,0.276 -0.488,0.154 -0.039,-0.071 -0.079,-0.146 -0.12,-0.224 -0.072,-0.136 -0.282,-0.536 -0.556,-1.07 -0.253,-0.491 -0.291,-1.058 -0.091,-1.261 0.2,-0.204 0.218,-0.641 0.042,-0.977 -0.177,-0.336 -0.477,-0.45 -0.67,-0.256 -0.193,0.194 -0.461,0.124 -0.594,-0.159 -0.133,-0.283 -0.046,-0.71 0.193,-0.951 0.238,-0.24 0.469,-0.704 0.689,-0.916 0.22,-0.211 0.545,-0.333 0.629,-0.418 0.083,-0.084 0.49,-0.153 0.906,-0.153 0.417,0 0.703,0.052 0.64,0.115 -0.063,0.064 0.291,0.114 0.79,0.114 0.5,0 0.955,-0.052 1.018,-0.115 0.063,-0.063 0.56,-0.162 1.112,-0.156 0.681,0.007 1.374,0.16 1.374,0.944 0,1.031 0,2.062 0,3.095 0,1.087 0,2.174 0,3.26 -10e-4,0.499 0.908,0.619 0.141,0.619 z"
   id="path7"
   inkscape:connector-curvature="0"
   style="fill:#ffffff" />
	<path
   d="m 32.836,27.879 c -1.542,0 -3.035,0.445 -4.146,1.467 -0.407,0.374 -0.676,0.771 -0.698,0.801 -0.019,0.025 -0.034,0.037 -0.042,0.052 -0.764,1.331 -4.48,5.89 -2.534,7.065 0.69,0.417 2.278,0.175 3.03,0.175 2.01,0 4.021,0 6.031,0 1.019,0 2.202,0.122 3.144,-0.353 2.189,-1.104 0.276,-3.491 -0.449,-5.068 -0.936,-2.041 -1.731,-4.139 -4.336,-4.139 z m -3.309,2.588 c 0.169,-0.295 0.56,-0.914 0.991,-1.259 0.226,-0.18 0.451,-0.303 0.672,-0.377 0.524,-0.175 0.958,-0.026 0.926,-0.026 h -0.058 c -0.089,0 -0.18,0.007 -0.272,0.018 -0.15,0.018 -0.598,0.35 -1.003,0.726 -0.277,0.257 -0.553,0.514 -0.83,0.77 -0.404,0.375 -0.595,0.442 -0.426,0.148 z m 1.421,6.117 c -1.318,0 -5.31,0.658 -3.909,-1.784 0.004,-0.008 0.009,-0.016 0.014,-0.024 0.008,-0.013 0.342,-0.327 0.747,-0.703 0.723,-0.67 1.444,-1.339 2.167,-2.009 0.405,-0.376 0.777,-0.758 0.832,-0.853 l 0.099,-0.171 c 0.201,-0.35 0.508,-0.676 0.871,-0.948 0.442,-0.332 0.949,-0.58 1.056,-0.68 0.107,-0.099 0.556,0.092 0.914,0.513 0.487,0.572 0.898,1.274 1.193,1.929 0.152,0.335 2.023,4.731 1.917,4.731 -1.968,-10e-4 -3.934,-10e-4 -5.901,-10e-4 z"
   id="path9"
   inkscape:connector-curvature="0"
   style="fill:#ffffff" />
	<path
   d="m 9.633,37.503 c 2.057,0 3.813,-0.159 5.397,-1.652 1.239,-1.168 1.986,-3.238 2.82,-4.692 0.623,-1.084 1.239,-2.282 0.437,-2.925 -0.431,-0.346 -0.998,-0.4 -1.103,-0.411 -0.055,-0.006 -0.118,-0.009 -0.189,-0.009 -3.159,0 -6.616,-0.431 -9.74,0.021 -1.861,0.268 -2.145,1.346 -2.145,2.972 0,1.812 0,3.624 0,5.437 10e-4,1.821 3.501,1.259 4.523,1.259 z M 8.908,29.051 c 0.019,0 0.095,-0.057 0.169,-0.127 0.074,-0.069 0.583,-0.126 1.135,-0.126 0.407,0 0.814,0 1.221,0 0.552,0 0.942,0.057 0.872,0.126 -0.071,0.07 0.319,0.127 0.872,0.127 h 0.146 c 0.552,0 1.055,-0.057 1.123,-0.126 0.068,-0.07 0.455,-0.127 0.864,-0.127 0.409,0 0.786,0.008 0.839,0.022 0.053,0.015 0.051,0.074 -0.003,0.13 -0.054,0.056 0.017,0.101 0.159,0.101 0.142,0 0.508,0.419 0.365,0.953 -0.254,0.953 -1.178,2.186 -1.454,2.667 -0.639,1.112 -1.2,2.473 -2.15,3.368 -1.006,0.948 -3.541,0.479 -4.779,0.479 -0.192,0 -0.353,-0.023 -0.488,-0.064 -0.261,-0.08 -0.316,-0.357 -0.188,-0.49 0.129,-0.133 0.233,-0.688 0.233,-1.24 v -0.396 c 0,-0.553 -0.179,-0.822 -0.4,-0.604 -0.221,0.219 -0.4,-0.053 -0.4,-0.605 0,-0.428 0,-0.857 0,-1.284 0,-0.553 0.179,-1.168 0.4,-1.375 0.221,-0.207 0.385,-0.789 0.701,-1.106 0.187,-0.188 0.444,-0.302 0.729,-0.302 -0.001,-0.001 0.015,-0.001 0.034,-0.001 z m -1.35,-0.253 c 0.243,0 0.486,0 0.729,0 0.058,0 0.116,0 0.174,0 0.096,0 -0.14,0.317 -0.529,0.71 -0.062,0.063 -0.124,0.126 -0.186,0.188 -0.389,0.393 -0.704,0.542 -0.704,0.334 0,-0.126 0,-0.251 0,-0.377 0,-0.125 -0.007,-0.3 -0.03,-0.46 -0.034,-0.252 0.143,-0.395 0.546,-0.395 z"
   id="path11"
   inkscape:connector-curvature="0"
   style="fill:#ffffff" />
	<path
   d="M 47.447,36.699 C 47.402,36.615 47.121,36.174 46.851,35.692 42.945,28.705 39.201,21.647 35.172,14.721 34.163,12.987 32.224,7.831 29.736,7.706 c -2.155,-0.108 -1.524,2.515 -1.191,3.758 2.125,7.926 6.568,16.028 10.087,23.425 1.188,2.497 1.92,5.348 4.785,6.003 2.443,0.559 4.267,-1.958 4.077,-4.03 C 47.49,36.8 47.473,36.746 47.447,36.699 z M 31.139,12.248 c -0.101,0.093 -0.326,-0.257 -0.489,-0.784 -0.021,-0.066 -0.041,-0.132 -0.06,-0.198 -0.161,-0.528 -0.203,-0.765 -0.088,-0.532 0.073,0.146 0.15,0.285 0.233,0.406 0.104,0.153 0.201,0.31 0.298,0.468 0.159,0.26 0.207,0.547 0.106,0.64 z m 0.843,1.779 c -0.183,0.188 -0.42,0.103 -0.526,-0.19 -0.106,-0.293 -0.077,-0.646 0.061,-0.788 0.139,-0.142 0.372,-0.058 0.524,0.19 0.153,0.246 0.123,0.601 -0.059,0.788 z m 13.026,24.196 c -0.581,0.789 -1.079,1.153 -1.493,1.093 -0.547,-0.081 -0.595,-0.792 -0.45,-0.948 0.146,-0.157 0.119,-0.561 -0.061,-0.911 -0.18,-0.351 -0.453,-0.505 -0.614,-0.343 -0.162,0.163 -0.412,0.077 -0.552,-0.196 -0.14,-0.273 -0.117,-0.632 0.049,-0.8 0.166,-0.167 0.253,-0.401 0.193,-0.523 -0.059,-0.121 -0.24,-0.076 -0.406,0.1 -0.166,0.176 -0.469,-0.018 -0.675,-0.435 -0.206,-0.417 -0.231,-0.904 -0.061,-1.087 0.17,-0.182 0.188,-0.586 0.04,-0.903 -0.148,-0.317 -0.411,-0.434 -0.588,-0.259 -0.177,0.176 -0.512,-0.086 -0.746,-0.587 -0.374,-0.8 -0.742,-1.603 -1.106,-2.408 -0.228,-0.504 -0.257,-1.048 -0.068,-1.215 0.189,-0.168 0.332,-0.327 0.319,-0.355 -0.013,-0.027 -0.172,0.094 -0.356,0.271 -0.185,0.179 -0.456,0.048 -0.606,-0.293 -0.15,-0.34 -0.122,-0.758 0.063,-0.935 0.185,-0.177 0.312,-0.372 0.284,-0.436 -0.028,-0.064 -0.199,0.03 -0.383,0.21 -0.184,0.18 -0.189,0.172 -0.007,-0.012 0.183,-0.185 0.328,-0.343 0.321,-0.357 -0.007,-0.014 -0.16,0.119 -0.344,0.299 -0.184,0.18 -0.514,-0.084 -0.738,-0.589 -0.177,-0.399 -0.354,-0.799 -0.53,-1.199 -0.006,-0.014 -0.012,-0.028 -0.019,-0.042 -0.01,-0.023 0.135,-0.185 0.324,-0.36 0.189,-0.177 0.222,-0.599 0.074,-0.942 -0.148,-0.345 -0.425,-0.478 -0.619,-0.299 -0.193,0.18 -0.481,0.036 -0.642,-0.321 -0.162,-0.356 -0.132,-0.795 0.068,-0.979 0.2,-0.185 0.29,-0.496 0.202,-0.696 -0.088,-0.199 -0.323,-0.206 -0.524,-0.017 -0.201,0.19 -0.495,0.056 -0.657,-0.299 -0.162,-0.354 -0.13,-0.804 0.07,-1.005 0.201,-0.2 0.327,-0.443 0.283,-0.543 -0.044,-0.1 -0.242,-0.015 -0.443,0.188 -0.2,0.204 -0.487,0.098 -0.638,-0.237 -0.151,-0.335 -0.11,-0.775 0.093,-0.982 0.203,-0.206 0.337,-0.441 0.3,-0.525 -0.037,-0.084 -0.136,-0.086 -0.222,-0.004 -0.051,0.048 -0.102,0.096 -0.156,0.147 -0.077,0.073 -0.149,0.143 -0.22,0.21 -0.122,0.116 -0.398,-0.188 -0.613,-0.682 -0.215,-0.494 -0.217,-1.06 -0.008,-1.264 0.209,-0.203 0.201,-0.216 -0.009,-0.016 -0.209,0.2 -0.527,0.015 -0.709,-0.422 -0.182,-0.438 -0.159,-0.978 0.044,-1.204 0.203,-0.228 0.338,-0.481 0.306,-0.568 -0.033,-0.086 0.094,0.11 0.283,0.438 0.114,0.197 0.229,0.395 0.343,0.591 1.782,3.055 3.657,6.053 5.389,9.138 2.183,3.886 4.136,7.899 6.281,11.804 0.266,0.484 0.261,1.263 -0.066,1.709 z"
   id="path13"
   inkscape:connector-curvature="0"
   style="fill:#ffffff" />
	<path
   d="m 47.76,40.284 c -0.98,0.031 -1.806,0.544 -2.651,0.98 -0.882,0.455 -1.744,0.969 -1.492,2.112 0.153,0.691 0.887,1.465 1.256,2.048 0.474,0.748 0.82,1.543 1.753,1.772 1.343,0.331 3.879,-0.82 4.292,-2.335 0.146,-0.532 -0.245,-1.383 -0.471,-1.887 -0.567,-1.258 -1.264,-2.735 -2.687,-2.69 z m 1.214,5.086 c -0.155,0.32 -0.499,0.539 -0.912,0.788 -0.032,0.019 -0.064,0.038 -0.095,0.057 -0.053,0.032 -0.139,0.043 -0.189,0.017 -0.05,-0.025 -0.011,-0.128 0.08,-0.22 0.091,-0.093 0.09,-0.287 -0.003,-0.435 -0.093,-0.147 -0.254,-0.181 -0.36,-0.075 -0.106,0.105 -0.293,0.033 -0.417,-0.163 -0.124,-0.196 -0.138,-0.441 -0.033,-0.548 0.106,-0.105 0.104,-0.329 -0.004,-0.5 l -0.195,-0.308 c -0.367,-0.585 -0.181,-1.312 0.418,-1.619 0,0 0.108,-0.056 0.241,-0.124 0.133,-0.069 0.449,0.273 0.705,0.762 0.088,0.17 0.177,0.34 0.266,0.51 0.255,0.49 0.737,1.361 0.498,1.858 z"
   id="path15"
   inkscape:connector-curvature="0"
   style="fill:#ffffff" />
	<path
   d="m 48.183,48.477 c -0.329,0.443 -0.479,0.946 -0.503,1.025 -0.024,0.079 -0.032,0.217 -0.02,0.3 0.012,0.084 0.087,0.601 0.311,1.105 0.673,1.51 2.396,2.344 3.934,2.936 0.718,0.276 1.899,0.231 2.425,-0.422 0.587,-0.728 0.438,-1.613 0.355,-2.488 C 54.53,49.304 53.9,47.051 51.95,46.85 c -1.274,-0.132 -2.935,0.505 -3.767,1.627 z m 2.467,2.386 c 0.134,-0.139 0.218,-0.357 0.201,-0.488 -0.011,-0.082 -0.016,-0.162 -0.014,-0.237 0.008,-0.279 0.143,-0.571 0.358,-0.844 0.318,-0.404 0.968,-0.277 1.157,0.242 0.163,0.445 0.254,0.926 0.328,1.356 0.042,0.241 0.07,0.485 0.091,0.73 0.035,0.406 0.032,0.771 0.021,0.812 -0.011,0.043 -0.149,0.023 -0.312,-0.049 -0.1,-0.044 -0.198,-0.088 -0.295,-0.13 -0.325,-0.14 -0.668,-0.313 -0.995,-0.522 -0.464,-0.297 -0.674,-0.73 -0.54,-0.87 z"
   id="path17"
   inkscape:connector-curvature="0"
   style="fill:#ffffff" />
</g>
</svg>