<?xml version="1.0" encoding="UTF-8" standalone="no"?>
<!-- Generator: Adobe Illustrator 17.0.0, SVG Export Plug-In . SVG Version: 6.00 Build 0)  -->

<svg
   xmlns:dc="http://purl.org/dc/elements/1.1/"
   xmlns:cc="http://creativecommons.org/ns#"
   xmlns:rdf="http://www.w3.org/1999/02/22-rdf-syntax-ns#"
   xmlns:svg="http://www.w3.org/2000/svg"
   xmlns="http://www.w3.org/2000/svg"
   xmlns:sodipodi="http://sodipodi.sourceforge.net/DTD/sodipodi-0.dtd"
   xmlns:inkscape="http://www.inkscape.org/namespaces/inkscape"
   version="1.1"
   id="Capa_1"
   x="0px"
   y="0px"
   width="200px"
   height="200px"
   viewBox="0 0 200 200"
   enable-background="new 0 0 200 200"
   xml:space="preserve"
   inkscape:version="0.48.5 r10040"
   sodipodi:docname="DecreaseIcon.svg"
   inkscape:export-filename="C:\dev3\simsip-line\Simsip.LineRunner.Content\Content\Images\Icons\DecreaseButtonNormal.png"
   inkscape:export-xdpi="27"
   inkscape:export-ydpi="27"><metadata
   id="metadata13"><rdf:RDF><cc:Work
       rdf:about=""><dc:format>image/svg+xml</dc:format><dc:type
         rdf:resource="http://purl.org/dc/dcmitype/StillImage" /><dc:title></dc:title></cc:Work></rdf:RDF></metadata><defs
   id="defs11" /><sodipodi:namedview
   pagecolor="#ffffff"
   bordercolor="#666666"
   borderopacity="1"
   objecttolerance="10"
   gridtolerance="10"
   guidetolerance="10"
   inkscape:pageopacity="0"
   inkscape:pageshadow="2"
   inkscape:window-width="1680"
   inkscape:window-height="1027"
   id="namedview9"
   showgrid="false"
   inkscape:zoom="1.18"
   inkscape:cx="100"
   inkscape:cy="100"
   inkscape:window-x="1912"
   inkscape:window-y="-8"
   inkscape:window-maximized="1"
   inkscape:current-layer="g3" />
<g
   id="g3">
	<path
   d="m 178.0215,132.04898 c 3.066,0.306 4.671,-2.416 4.564,-5.017 1.116,-0.167 2.2,-0.708 2.902,-1.777 2.483,-3.78 1.587,-9.917 1.897,-14.304 0.441,-6.256 0.888,-12.503998 0.836,-18.779994 -0.036,-4.141 -0.555,-8.142 -2.262,-11.091 1.769,-1.073 3.431,-2.266 4.837,-3.731 2.383,-2.484 0.559,-6.17 -2.657,-6.415 -11.139,-0.846 -22.516,2.566 -33.965,2.192 -18.71,-0.61 -37.361,-3.948 -55.872,-6.492 -16.375,-2.25 -33.613,-4.867 -50.602,-4.867 0.006,-0.006 0.012,-0.012 0.017,-0.019 1.494,-1.645 -0.815,-3.975 -2.442,-2.442 -0.864,0.815 -1.752,1.67 -2.65,2.546 -9.427,0.31 -18.745,1.51 -27.757,4.165 -5.644,1.664 -3.724,8.724 1.262,9.197 -3.284,4.916 -1.675,15.86 -1.899,20.830996 -0.395,8.732998 -2.619,18.601998 -1.49,27.209998 0.045,0.347 0.16,0.691 0.312,1.026 0.261,0.879 0.868,1.636 1.83,2.041 0.674,0.392 1.424,0.539 2.152,0.35 53.75,3.086 107.263,0.025 160.987,5.377 z m 1.693,-31.688 c -0.538,5.794 -3.656,15.542 -2.16,22.02 -5.754,-1.22 -11.587,-2.203 -17.471,-3.029 2.473,-3.501 4.569,-7.425 6.849,-10.807 3.994,-5.926 8.449,-11.436998 13.309,-16.651994 -0.084,2.83 -0.267,5.658996 -0.527,8.467994 z m 0.525,-13.630994 c -0.572,-0.083 -1.181,0.061 -1.72,0.601 -5.637,5.656 -10.738,11.787996 -15.63,18.093994 -3.136,4.043 -7.019,8.34 -9.494,13.048 -2.641,-0.312 -5.289,-0.596 -7.946,-0.851 3.733,-5.224 6.699,-11.111 10.485,-16.313 3.94,-5.412998 8.464,-10.405994 13.264,-15.094994 3.787,-0.417 7.388,-1.128 10.665,-2.245 0.153,0.924 0.316,1.847 0.376,2.761 z m -40.227,30.356994 c -4.32,-0.346 -8.66,-0.62 -13.015,-0.826 6.582,-10.469 13.438,-20.656994 21.416,-30.088994 4.571,0.381 9.175,0.575 13.646,0.48 -2.946,2.975 -5.784,6.06 -8.492,9.300996 -5.122,6.134998 -11.071,13.366998 -13.555,21.133998 z m 2.534,-31.478994 c -8,9.572 -15.053,19.884994 -21.837,30.381994 -6.602,-0.216 -13.23,-0.294 -19.867,-0.255 1.801,-5.637 8.282,-13.211 10.266,-15.935998 4.21,-5.778996 8.837,-11.222996 13.45,-16.677996 5.378,0.819 11.57,1.763 17.988,2.487 z m -25.866,-3.618 c 1.038,0.131 2.145,0.284 3.296,0.449 -5.712,6.594 -11.44,13.18 -16.693,20.146994 -2.227,2.952 -6.417,8.323 -7.373,13.221 -6.618,0.091 -13.237,0.252 -19.842,0.517 4.295,-5.993 7.725,-12.628 12.382,-18.469998 4.889,-6.133996 10.278,-11.874996 15.712,-17.544996 4.174,0.576 8.346,1.154 12.518,1.681 z m -17.023,-2.291 c -4.939,4.849 -9.818,9.755 -14.456,14.905 -5.403,5.999994 -12.88,13.768994 -14.484,21.921994 -5.412,0.248 -10.811,0.532 -16.184,0.848 5.87,-7.822 10.063,-16.666 16.363,-24.352994 4.462,-5.443 9.393,-10.412 14.415,-15.3 4.784,0.639 9.565,1.312 14.346,1.978 z m -18.212,-2.496 c -5.423,4.826 -10.579,9.965 -15.383,15.383 -6.049,6.821996 -13.143,15.104994 -15.161,24.139994 -0.076,0.342 0.025,0.595 0.096,0.862 -5.02,0.306 -10.021,0.627 -14.984,0.958 9.739,-15.441 19.546,-29.620994 32.323,-42.885994 4.372,0.452 8.741,0.981 13.109,1.543 z m -61.31,-2.188 c 3.694,-0.432 7.383,-0.692 11.069,-0.871 -3.274,3.963 -6.321,8.179 -8.816,12.534 0.025,-4.603 -0.42,-9.077 -2.253,-11.663 z m 1.574,25.572994 c 3.124,-5.434994 5.508,-11.408994 8.795,-16.769994 2.087,-3.403 4.421,-6.647 6.863,-9.81 3.354,-0.05 6.706,-0.01 10.056,0.1 -9.313,8.263 -18.897,18.088 -25.649,28.861994 -0.025,-0.801 -0.064,-1.645 -0.065,-2.382 z m -0.035,15.797 c 4.088,-7.107 7.882,-14.289 12.8,-21.020994 5.54,-7.582 12.057,-14.387 18.765,-20.952 3.183,0.18 6.36,0.508 9.54,0.789 -13.363,11.971 -26.952,27.485994 -33.401,43.788994 -2.721,0.184 -5.439,0.367 -8.137,0.548 0.226,-1.007 0.316,-2.087 0.433,-3.153 z"
   id="path5"
   inkscape:connector-curvature="0"
   style="fill:#ffffff" />
	
</g>
</svg>