<?xml version="1.0" encoding="UTF-8" standalone="no"?>
<!-- Generator: Adobe Illustrator 17.0.2, SVG Export Plug-In . SVG Version: 6.00 Build 0)  -->

<svg
   xmlns:dc="http://purl.org/dc/elements/1.1/"
   xmlns:cc="http://creativecommons.org/ns#"
   xmlns:rdf="http://www.w3.org/1999/02/22-rdf-syntax-ns#"
   xmlns:svg="http://www.w3.org/2000/svg"
   xmlns="http://www.w3.org/2000/svg"
   xmlns:sodipodi="http://sodipodi.sourceforge.net/DTD/sodipodi-0.dtd"
   xmlns:inkscape="http://www.inkscape.org/namespaces/inkscape"
   version="1.1"
   id="Capa_1"
   x="0px"
   y="0px"
   width="35.965839"
   height="41.563343"
   viewBox="0 0 35.965839 41.563343"
   xml:space="preserve"
   inkscape:version="0.48.5 r10040"
   sodipodi:docname="letter30.svg"><metadata
   id="metadata13"><rdf:RDF><cc:Work
       rdf:about=""><dc:format>image/svg+xml</dc:format><dc:type
         rdf:resource="http://purl.org/dc/dcmitype/StillImage" /></cc:Work></rdf:RDF></metadata><defs
   id="defs11" /><sodipodi:namedview
   pagecolor="#ffffff"
   bordercolor="#666666"
   borderopacity="1"
   objecttolerance="10"
   gridtolerance="10"
   guidetolerance="10"
   inkscape:pageopacity="0"
   inkscape:pageshadow="2"
   inkscape:window-width="2048"
   inkscape:window-height="1129"
   id="namedview9"
   showgrid="false"
   fit-margin-top="0"
   fit-margin-left="0"
   fit-margin-right="0"
   fit-margin-bottom="0"
   inkscape:zoom="3.6875"
   inkscape:cx="18.037272"
   inkscape:cy="19.101155"
   inkscape:window-x="1912"
   inkscape:window-y="-8"
   inkscape:window-maximized="1"
   inkscape:current-layer="Capa_1" />
<g
   id="g3"
   transform="translate(-13.962728,-9.5378127)">
	<path
   d="m 49.616,43.089 c -0.86,-1.355 -3.218,-2.425 -3.24,-4.001 -0.016,-1.204 -0.033,-2.408 -0.049,-3.611 -0.055,-4.014 -0.11,-8.027 -0.165,-12.041 -0.039,-2.828 -0.764,-6.469 2.207,-8.06 2.283,-1.223 1.078,-5.021 -1.111,-5.655 -3.178,-0.92 -17.287,1.682 -11.052,6.53 0.635,0.495 3.003,0.807 2.974,1.932 -0.047,1.825 -0.413,3.653 -0.48,5.487 -0.055,1.502 0.34,3.012 0.361,4.512 0.016,1.109 -6.245,1.521 -6.985,1.642 -1.806,0.293 -3.598,0.678 -5.406,0.956 -1.418,0.219 -0.826,-5.76 -0.806,-6.305 0.098,-2.736 0.469,-5.072 2.963,-6.769 0.512,-0.349 0.801,-1.224 0.737,-1.818 -0.611,-5.676 -7.353,-3.678 -11.247,-2.856 -1.454,0.307 -3.397,0.922 -4.071,2.413 -1.285,2.844 2.137,3.72 3.561,5.451 0.351,0.427 0.509,1.313 0.534,1.865 0.252,5.716 0.504,11.433 0.756,17.149 0.043,0.983 0.086,1.967 0.13,2.951 0.098,2.218 -2.201,2.07 -2.82,3.497 -1.299,2.993 0.995,4.286 3.753,4.65 2.968,0.392 7.169,-0.45 9.344,-2.586 2.268,-2.227 -3.243,-5.442 -3.322,-7.077 -0.162,-3.358 2.4,-4.682 5.439,-5.43 1.025,-0.252 7.247,-1.623 7.247,1.333 0,0.821 0,1.643 0,2.463 0,3.621 -4.856,2.602 -2.643,6.942 2.244,4.404 15.929,0.437 13.391,-3.564 z M 39.099,15.682 c -0.428,-0.155 -0.855,-0.721 -0.868,-1.273 -0.003,-0.121 -0.003,-0.239 0.002,-0.354 0.021,-0.552 0.445,-1.32 0.813,-1.732 0.013,-0.015 0.026,-0.028 0.039,-0.043 0.368,-0.412 0.922,-0.853 1.255,-0.917 0.333,-0.064 0.949,-0.232 1.395,-0.363 0.445,-0.131 0.504,0.143 0.111,0.53 -0.337,0.333 -0.675,0.666 -1.016,1.002 -0.393,0.389 -0.391,0.391 0.005,0.006 0.346,-0.336 0.696,-0.676 1.047,-1.018 0.396,-0.386 1.17,-0.771 1.713,-0.67 1.189,0.224 2.111,1.16 2.76,2.826 0.201,0.515 -0.089,1.151 -0.497,1.523 -0.155,0.141 -0.299,0.293 -0.432,0.456 -0.351,0.427 -0.664,0.773 -0.807,0.711 -0.142,-0.062 -0.587,0.2 -0.99,0.579 -0.75,0.705 -1.598,1.5 -2.541,2.383 -0.015,0.015 -0.028,0.027 -0.041,0.04 -0.022,0.021 -0.012,-0.266 0.023,-0.641 0.021,-0.224 0.043,-0.448 0.069,-0.677 0.013,-0.109 0.021,-0.212 0.023,-0.308 0.006,-0.171 0.325,-0.612 0.732,-0.984 0.256,-0.234 0.512,-0.469 0.768,-0.702 0.051,-0.052 0.102,-0.104 0.154,-0.154 0.085,-0.085 0.076,-0.187 -0.02,-0.229 -0.096,-0.042 -0.486,0.242 -0.873,0.636 -0.038,0.038 -0.075,0.077 -0.113,0.115 -0.388,0.394 -0.77,0.419 -1.012,0.164 -0.242,-0.254 -0.217,-0.679 0.136,-1.039 0.353,-0.361 0.574,-0.716 0.505,-0.801 -0.07,-0.085 -0.442,0.151 -0.84,0.533 -0.005,0.005 -0.01,0.01 -0.014,0.015 -0.397,0.383 -1.058,0.541 -1.486,0.386 z m 4.089,9.513 c -0.482,0.472 -0.963,0.941 -1.442,1.409 -0.395,0.386 -0.72,0.602 -0.731,0.485 -0.006,-0.069 -0.013,-0.141 -0.021,-0.213 -0.068,-0.586 -0.112,-1.16 -0.14,-1.729 -0.028,-0.551 0.292,-1.304 0.696,-1.68 0.519,-0.483 1.039,-0.967 1.558,-1.45 0.405,-0.376 0.717,-0.232 0.72,0.319 0.002,0.386 0.011,0.773 0.026,1.16 0.021,0.554 -0.271,1.314 -0.666,1.699 z m 0.009,0.091 c -0.06,0.06 -0.121,0.118 -0.181,0.178 -0.395,0.387 -0.396,0.387 -0.002,-10e-4 0.06,-0.059 0.121,-0.118 0.181,-0.178 0.394,-0.388 0.396,-0.386 0.002,0.001 z m 0.056,-5.155 c -0.57,0.529 -1.141,1.059 -1.711,1.588 -0.405,0.375 -0.722,0.239 -0.692,-0.303 0.03,-0.541 0.395,-1.281 0.801,-1.654 0.633,-0.582 1.39,-1.278 2.246,-2.066 0.406,-0.375 0.555,-0.266 0.401,0.266 -0.048,0.165 -0.091,0.334 -0.131,0.506 -0.124,0.537 -0.509,1.287 -0.914,1.663 z m 1.116,15.719 c 0.008,0.553 -0.294,1.325 -0.674,1.727 -0.732,0.772 -1.455,1.534 -2.165,2.282 -0.38,0.4 -0.658,0.301 -0.672,-0.222 -0.01,-0.353 -0.03,-0.684 -0.03,-0.945 0,-0.043 -0.001,-0.085 -0.002,-0.126 -0.002,-0.069 0.303,-0.454 0.68,-0.857 0.724,-0.774 1.445,-1.547 2.164,-2.316 0.377,-0.403 0.689,-0.285 0.697,0.268 0,0.062 0.001,0.125 0.002,0.189 z M 17.066,15.992 c -0.141,-0.604 -0.013,-1.078 0.587,-1.3 0.46,-0.17 1.11,-0.377 1.857,-0.571 0.535,-0.14 0.655,0.084 0.263,0.474 -0.546,0.542 -1.091,1.083 -1.636,1.623 -0.391,0.389 -0.944,0.311 -1.071,-0.226 z m 1.33,2.503 c -0.224,-0.324 -0.077,-0.904 0.318,-1.29 0.288,-0.28 0.577,-0.562 0.868,-0.846 0.396,-0.385 0.795,-1.167 1.161,-1.581 0.127,-0.143 0.281,-0.277 0.46,-0.4 0.455,-0.313 0.966,-0.536 1.065,-0.633 0.099,-0.097 0.625,-0.226 1.177,-0.237 2.009,-0.044 3.786,0.475 4.12,2.288 0.146,0.794 -3.045,3.44 -3.425,4.68 -0.091,0.296 -0.163,0.606 -0.221,0.929 -0.093,0.519 -0.447,1.26 -0.84,1.647 -0.642,0.632 -1.286,1.267 -1.933,1.905 -0.393,0.388 -0.732,0.255 -0.757,-0.297 -0.014,-0.327 -0.029,-0.653 -0.043,-0.98 -0.024,-0.552 0.278,-1.309 0.677,-1.691 0.841,-0.808 1.682,-1.617 2.523,-2.437 0.068,-0.069 0.136,-0.137 0.204,-0.205 0.113,-0.112 0.043,-0.229 -0.153,-0.269 -0.196,-0.039 -0.669,0.239 -1.058,0.632 -0.521,0.526 -1.042,1.054 -1.563,1.58 -0.388,0.393 -0.71,0.589 -0.716,0.438 -0.004,-0.092 -0.008,-0.183 -0.012,-0.274 -0.011,-0.086 0.003,-0.136 -0.015,-0.192 -0.081,-0.262 -0.344,-0.67 -0.688,-1.157 -0.318,-0.451 -0.381,-0.762 -0.13,-0.714 0.251,0.048 0.459,0.098 0.461,0.134 10e-4,0.037 0.317,-0.252 0.705,-0.646 0.009,-0.01 0.019,-0.018 0.028,-0.028 0.388,-0.394 0.518,-0.848 0.331,-1.055 -0.188,-0.207 -0.629,-0.09 -1.026,0.294 -0.116,0.112 -0.234,0.227 -0.354,0.343 -0.397,0.385 -0.41,0.37 -0.02,-0.021 0.118,-0.118 0.236,-0.235 0.354,-0.353 0.393,-0.388 0.384,-0.396 -0.016,-0.016 -0.118,0.112 -0.236,0.225 -0.354,0.339 -0.396,0.382 -0.904,0.437 -1.128,0.113 z m 2.224,26.22 c 0.128,-0.177 0.232,-0.343 0.301,-0.494 0.15,-0.333 0.248,-0.706 0.308,-1.103 0.083,-0.546 0.413,-1.297 0.821,-1.669 0.44,-0.4 0.878,-0.802 1.317,-1.202 0.408,-0.373 0.675,-0.252 0.676,0.274 0,0.526 -0.267,1.255 -0.672,1.63 -0.554,0.515 -1.108,1.028 -1.664,1.542 -0.405,0.375 -0.728,0.809 -0.721,0.971 0.007,0.162 -0.156,0.333 -0.359,0.393 -0.204,0.058 -0.195,-0.082 -0.007,-0.342 z M 20.566,28.644 c -0.021,-0.474 0.274,-1.178 0.659,-1.573 0.61,-0.627 1.206,-1.239 1.79,-1.84 0.386,-0.396 0.701,-0.327 0.714,0.151 0.013,0.478 -0.285,1.188 -0.669,1.584 -0.587,0.605 -1.174,1.21 -1.761,1.815 -0.384,0.398 -0.712,0.336 -0.733,-0.137 z m 0.223,5.04 c -0.006,-0.141 -0.012,-0.281 -0.019,-0.421 -0.024,-0.552 0.163,-1.205 0.418,-1.459 0.154,-0.153 0.309,-0.307 0.464,-0.46 0.117,-0.129 0.234,-0.258 0.352,-0.386 0.194,-0.213 0.03,-0.074 -0.368,0.31 -0.065,0.063 -0.131,0.126 -0.196,0.188 -0.397,0.384 -0.732,0.401 -0.748,0.039 -0.016,-0.361 0.289,-0.97 0.683,-1.357 0.57,-0.562 1.14,-1.125 1.71,-1.688 0.394,-0.388 0.716,-0.521 0.719,-0.297 0.001,0.138 0.002,0.273 0,0.405 -0.008,0.711 0.025,1.304 0.116,1.791 0.102,0.543 0.005,1.257 -0.386,1.646 -0.673,0.67 -1.337,1.331 -1.993,1.982 -0.391,0.391 -0.729,0.258 -0.752,-0.293 z m 5.969,11.788 c 3.447,1.809 0.025,3.025 -2.539,3.627 -0.538,0.126 -1.259,0.052 -1.525,-0.232 -0.267,-0.284 -0.721,-0.279 -1.125,0.094 -0.404,0.373 -1.18,0.711 -1.732,0.705 -0.912,-0.009 -1.487,-0.133 -1.812,-0.343 -0.464,-0.299 0.012,-1.188 0.402,-1.578 1.663,-1.666 3.343,-3.369 5.036,-5.086 0.388,-0.394 0.778,-0.269 0.956,0.254 0.237,0.697 0.58,1.322 1.02,1.802 0.3,0.326 1.065,0.623 1.319,0.757 z m 9.458,-11.55 c -2.689,-0.054 -7.699,0.429 -10.267,2.342 -0.443,0.329 -1.074,0.968 -1.483,1.339 -0.826,0.75 -1.65,1.516 -2.475,2.284 -0.404,0.377 -0.768,0.234 -0.828,-0.314 -0.087,-0.797 -0.184,-1.556 -0.212,-2.189 -0.009,-0.205 -0.018,-0.411 -0.027,-0.617 -0.015,-0.341 0.284,-0.939 0.668,-1.337 0.892,-0.921 1.782,-1.839 2.671,-2.751 0.385,-0.396 1.114,-0.527 1.666,-0.489 0.468,0.031 1.032,-0.008 1.71,-0.112 2.87,-0.442 5.714,-1.037 8.594,-1.433 1.095,-0.15 3.067,0.024 3.919,-0.892 0.371,-0.398 0.608,-0.776 0.741,-1.19 0.17,-0.525 0.465,-1.295 0.866,-1.676 0.487,-0.462 0.966,-0.918 1.439,-1.368 0.4,-0.381 0.754,-0.242 0.797,0.308 0.035,0.459 0.073,0.906 0.109,1.34 0.046,0.551 -0.241,1.288 -0.638,1.647 -0.398,0.359 -0.65,0.644 -0.565,0.635 0.085,-0.009 0.41,-0.276 0.724,-0.598 0.315,-0.321 0.602,-0.176 0.63,0.324 0.018,0.32 0.03,0.624 0.034,0.905 0.016,1.146 0.031,2.292 0.047,3.436 0.007,0.553 -0.396,0.948 -0.901,0.905 -0.505,-0.043 -1.232,0.261 -1.622,0.652 -0.18,0.181 -0.361,0.361 -0.541,0.543 -0.39,0.391 -0.807,0.262 -1.104,-0.205 -0.655,-1.032 -1.873,-1.448 -3.952,-1.489 z m 1.688,10.347 c 0.186,-0.495 0.63,-0.965 1.383,-1.314 0.399,-0.186 0.885,-0.824 1.097,-1.046 0.137,-0.144 0.236,-0.324 0.308,-0.528 0.112,-0.322 0.448,-0.92 0.836,-1.312 0.722,-0.729 1.441,-1.453 2.156,-2.176 0.389,-0.393 0.708,-0.38 0.713,0.026 0.005,0.407 -0.305,1.054 -0.694,1.445 -1.778,1.792 -3.494,3.521 -5.139,5.18 -0.388,0.391 -0.854,0.243 -0.66,-0.275 z m 5.774,2.21 c -0.534,0.141 -0.931,0.197 -0.882,0.148 0.049,-0.051 0.025,-0.152 -0.05,-0.232 -0.075,-0.08 -0.266,-0.009 -0.431,0.16 -0.165,0.169 -0.739,0.407 -1.292,0.424 -0.458,0.014 -0.876,-0.033 -1.248,-0.128 -0.535,-0.136 -0.61,-0.701 -0.227,-1.099 0.467,-0.484 0.976,-1.011 1.523,-1.577 0.384,-0.398 0.776,-0.924 0.964,-1.11 0.188,-0.185 0.695,-0.603 1.079,-1 0.242,-0.249 0.488,-0.503 0.738,-0.761 0.384,-0.396 0.729,-0.588 0.802,-0.442 0.044,0.089 0.098,0.171 0.166,0.242 0.853,0.899 0.742,0.826 1.808,1.498 3.06,1.929 -0.624,3.263 -2.95,3.877 z"
   id="path5"
   inkscape:connector-curvature="0" />
	<path
   d="m 25.019,35.225 c 0.061,-0.058 0.057,-0.062 -0.004,-0.004 -0.061,0.058 -0.058,0.06 0.004,0.004 z"
   id="path7"
   inkscape:connector-curvature="0" />
</g>
</svg>