<?xml version="1.0" encoding="UTF-8" standalone="no"?>
<!-- Generator: Adobe Illustrator 16.0.0, SVG Export Plug-In . SVG Version: 6.00 Build 0)  -->

<svg
   xmlns:dc="http://purl.org/dc/elements/1.1/"
   xmlns:cc="http://creativecommons.org/ns#"
   xmlns:rdf="http://www.w3.org/1999/02/22-rdf-syntax-ns#"
   xmlns:svg="http://www.w3.org/2000/svg"
   xmlns="http://www.w3.org/2000/svg"
   xmlns:sodipodi="http://sodipodi.sourceforge.net/DTD/sodipodi-0.dtd"
   xmlns:inkscape="http://www.inkscape.org/namespaces/inkscape"
   version="1.1"
   id="Capa_1"
   x="0px"
   y="0px"
   width="193.672px"
   height="193.672px"
   viewBox="0 0 193.672 193.672"
   style="enable-background:new 0 0 193.672 193.672;"
   xml:space="preserve"
   inkscape:version="0.48.5 r10040"
   sodipodi:docname="IncreaseIcon.svg"
   inkscape:export-filename="C:\dev3\simsip-line\Simsip.LineRunner.Content\Content\Images\Icons\IncreaseButtonNormal.png"
   inkscape:export-xdpi="27.879999"
   inkscape:export-ydpi="27.879999"><metadata
   id="metadata45"><rdf:RDF><cc:Work
       rdf:about=""><dc:format>image/svg+xml</dc:format><dc:type
         rdf:resource="http://purl.org/dc/dcmitype/StillImage" /><dc:title></dc:title></cc:Work></rdf:RDF></metadata><defs
   id="defs43">
	
</defs><sodipodi:namedview
   pagecolor="#ffffff"
   bordercolor="#666666"
   borderopacity="1"
   objecttolerance="10"
   gridtolerance="10"
   guidetolerance="10"
   inkscape:pageopacity="0"
   inkscape:pageshadow="2"
   inkscape:window-width="1680"
   inkscape:window-height="1027"
   id="namedview41"
   showgrid="false"
   inkscape:zoom="1.2185551"
   inkscape:cx="96.835999"
   inkscape:cy="96.835999"
   inkscape:window-x="1912"
   inkscape:window-y="-8"
   inkscape:window-maximized="1"
   inkscape:current-layer="g5" />
<g
   id="g5">
		
		<path
   inkscape:connector-curvature="0"
   id="path9"
   d="m 151.12143,93.695053 c 0.13181,-3.862215 2.22423,-9.526797 0.7929,-13.137428 -0.72184,-1.818091 -2.65363,-2.850964 -4.44434,-2.36745 -0.0978,-1.077096 -0.67551,-2.114882 -1.88853,-2.848997 -2.78544,-1.687386 -7.41204,-0.266326 -10.4889,0.07862 -4.47729,0.503169 -8.969,1.022062 -13.46173,1.411232 -0.14108,-8.018274 -0.25847,-16.392303 -1.59506,-24.302473 -0.0793,-0.46779 -0.3254,-0.818633 -0.6302,-1.111493 0.59312,-1.974348 -0.96384,-4.204213 -3.49699,-4.523607 -4.1488,-0.522824 -8.63227,0.470738 -12.813,0.786202 -5.585289,0.4216 -11.190142,0.537565 -16.777489,0.927717 -1.737165,0.121862 -2.743217,1.136062 -3.086119,2.320278 -2.021372,0.152326 -4.01597,1.468231 -3.880045,3.710871 0.339813,5.59579 0.694042,11.152269 1.383965,16.680249 0.196679,2.092279 0.497362,4.14623 0.964862,6.132372 0.02883,0.153309 0.05664,0.307601 0.08547,0.460911 -4.677061,0.02359 -9.353092,0.06093 -14.030153,0.127757 -4.470084,0.06388 -9.528147,-1.095768 -12.388754,2.669155 -0.0041,0.0059 -10e-4,0.01278 -0.0062,0.01867 -1.165661,-0.06191 -2.366333,0.639771 -2.471366,2.152227 -0.489125,7.048297 -0.700221,13.957043 -0.153431,21.009272 0.316129,4.08235 -0.23581,11.22106 5.470987,11.76256 0.85674,0.0816 1.510623,-0.058 2.032699,-0.33217 0.334664,0.22996 0.689923,0.4216 1.062688,0.50415 4.863443,1.07513 10.05846,1.36209 15.024877,1.70016 2.446653,0.16707 5.580139,0.71839 8.469578,0.62994 -1.745402,7.83942 -1.528128,15.73878 -1.360281,24.0332 0.08341,4.14722 5.235178,5.07985 7.578857,2.80871 5.626477,0.44911 11.282815,0.74787 16.932975,0.94147 0.37071,0.19164 0.73009,0.43733 1.10697,0.60145 1.01223,0.44322 1.90913,0.12186 2.37972,-0.50809 1.49209,0.0315 2.98829,0.11892 4.47729,0.12187 2.01726,0.006 3.2725,-1.11936 3.77296,-2.52076 1.79174,0.19065 3.91299,-1.56356 3.52993,-3.6126 -1.55696,-8.3357 -0.20595,-16.27535 1.08843,-24.53244 3.64115,0.25159 7.28332,0.44716 10.93683,0.61914 3.5773,0.16805 9.76704,1.84954 12.55042,-0.96113 0.74553,-0.75181 1.11108,-1.6923 1.10696,-2.6328 1.44164,-0.17787 2.75661,-1.16456 2.60833,-2.80674 -0.48295,-5.31767 -0.56636,-10.674647 -0.38513,-16.010007 z M 133.84761,83.139314 c 2.59494,-0.108102 7.13813,0.427497 10.10892,-0.454031 -0.77539,3.0141 -0.41395,6.672886 -0.40571,9.368574 0.004,1.297233 0.0391,2.597414 0.0978,3.895629 -4.22707,-5.232172 -12.9376,-9.709589 -17.23675,-12.640156 2.47446,-0.0059 4.94788,-0.06683 7.43572,-0.170016 z M 97.651365,55.454209 c -0.113271,0.528721 -0.266702,1.043683 0.02677,1.586162 0.725964,1.350301 1.745402,2.579724 2.728805,3.766888 1.35719,1.640213 2.79573,3.20672 4.31356,4.713278 1.47458,1.461353 3.00271,3.408184 5.26813,3.383615 1.07608,-0.01081 1.83911,-0.984717 1.5755,-1.973366 -0.4675,-1.754212 -2.01108,-2.412656 -3.41255,-3.524148 -1.5065,-1.194044 -2.91724,-2.49619 -4.28782,-3.829784 -1.16463,-1.133113 -2.28395,-2.32814 -3.28383,-3.596872 -0.11224,-0.141517 -0.36658,-0.315464 -0.646673,-0.493342 1.053423,0.01179 2.107873,0.04324 3.162323,0.04717 3.58451,0.01376 7.73846,0.241757 11.34357,-0.724288 -0.88557,6.348578 -1.10903,12.919257 -1.23774,19.340558 -8.2554,-5.723547 -16.463424,-11.51687 -24.275001,-17.768155 -0.456173,-0.365584 -0.949417,-0.438307 -1.395292,-0.352808 -0.04428,-0.319394 -0.07311,-0.640754 -0.11945,-0.960149 3.406367,0.217189 6.822001,0.319395 10.239695,0.385239 z M 62.201674,109.45938 c -0.171966,0.0157 -0.314069,0.0658 -0.473679,0.0963 -0.273909,-2.13454 -0.872186,-4.24647 -1.048271,-5.25478 -0.321277,-1.8348 -0.616812,-3.69515 -0.913376,-5.550581 1.307765,1.263821 2.622738,2.518791 3.984049,3.733471 2.892528,2.57776 6.370976,5.9771 10.292211,6.96084 -3.949037,-0.17002 -7.941324,-0.32726 -11.840934,0.0147 z m 15.464575,0.12874 c -1.086372,-0.0344 -2.18304,-0.0835 -3.280739,-0.13071 1.12962,0.0658 1.764968,-1.18225 1.000903,-2.02545 -2.546537,-2.80969 -6.497634,-4.62287 -9.524028,-6.9628 -2.313816,-1.788607 -4.516422,-3.706938 -6.697402,-5.644925 -0.297594,-2.014642 -0.593128,-4.033214 -0.845414,-6.048838 8.090636,7.185882 16.475776,14.032713 24.946384,20.784223 -1.966796,-0.0295 -3.93977,0.0825 -5.599704,0.0285 z M 57.801612,84.66258 c -0.0175,-0.17493 -0.05046,-0.352808 -0.06693,-0.527738 2.716444,1.288388 6.222695,0.762615 9.502404,0.767529 -0.423222,0.583755 -0.503541,1.370939 0.183293,1.890815 15.52224,11.734058 31.035212,24.845934 47.658241,35.126504 -0.16064,1.93111 -0.26362,3.8632 -0.23272,5.78939 C 96.741078,112.25432 76.339949,99.599427 57.801612,84.66258 z m 34.261376,54.62627 c -0.05973,-1.94487 -0.172996,-3.89661 -0.302743,-5.85229 1.820573,1.61761 3.696752,3.18215 5.635745,4.72998 0.287296,0.22899 0.590039,0.48647 0.881454,0.72527 -2.071829,0.13366 -4.148806,0.23685 -6.214456,0.39704 z m 23.844562,-1.07219 c -3.67203,0.009 -7.36158,0.12481 -11.05009,0.28992 -1.27894,-0.82453 -2.55993,-1.62646 -3.7503,-2.41856 -3.269413,-2.18367 -6.474981,-4.47447 -9.633181,-6.81735 -0.31407,-4.50886 -0.579742,-9.01969 -0.384092,-13.4922 7.659176,6.07636 15.308053,12.16451 22.768493,18.47672 0.53649,0.45305 1.11623,0.6211 1.69083,0.67024 0.21727,1.13508 0.47985,2.26426 0.81246,3.3787 -0.16167,-0.0157 -0.28112,-0.0875 -0.45412,-0.0875 z m 20.59987,-29.31942 c -5.39478,0.30269 -10.77927,0.47959 -16.15964,0.96015 -0.21728,0.0197 -0.37586,0.0993 -0.56636,0.14741 -1.59506,-0.01 -3.07994,0.84222 -3.46197,2.88045 -0.23684,1.25694 -0.45206,2.52272 -0.64359,3.79441 -13.35155,-12.12422 -30.230986,-22.12863 -45.434008,-31.761565 5.131175,0.09238 10.264409,0.149379 15.395583,0.140534 5.716064,4.926535 11.589678,9.691899 17.614665,14.267593 3.84709,2.919758 10.31177,9.417708 15.61389,9.065888 1.44986,-0.0963 1.98739,-1.53506 1.11623,-2.57088 -3.21999,-3.82782 -10.21292,-6.435061 -14.42351,-9.349903 -5.7068,-3.951645 -11.188084,-8.182393 -16.692023,-12.385623 1.122412,-1.095768 1.343806,-2.89617 0.658001,-4.285781 0.132836,-2.880446 -0.152401,-5.778581 -0.434548,-8.665907 7.325541,7.025694 15.47693,13.373289 23.27924,19.861417 7.07841,5.885702 14.856,14.413037 23.70761,17.770117 1.59712,0.60636 3.37342,-1.53899 2.30558,-2.86275 C 133.09488,99.344894 124.0713,94.764287 117.22665,89.782717 107.60994,82.785524 98.476183,75.150524 88.822408,68.207381 c -0.0041,-0.0511 -0.0093,-0.102206 -0.01339,-0.153309 -0.214185,-2.736964 -0.489125,-5.464101 -0.802164,-8.186324 8.505619,8.526356 19.486726,15.195311 29.117846,22.40871 5.56058,4.16392 11.10467,8.350443 16.50976,12.699121 2.11714,1.702126 7.5459,4.790915 8.63742,7.236981 0.36247,0.81471 1.20479,1.04467 2.00181,0.9002 0.23581,1.83087 0.50766,3.65682 0.87425,5.46607 -2.71954,-0.60243 -6.18666,0.18083 -8.64052,0.31841 z"
   style="fill:#ffffff"
   inkscape:export-filename="C:\dev3\simsip-line\Simsip.LineRunner.Content\Content\Images\Icons\IncreaseButtonNormal.png"
   inkscape:export-xdpi="54"
   inkscape:export-ydpi="54" />
	</g>
<g
   id="g11">
</g>
<g
   id="g13">
</g>
<g
   id="g15">
</g>
<g
   id="g17">
</g>
<g
   id="g19">
</g>
<g
   id="g21">
</g>
<g
   id="g23">
</g>
<g
   id="g25">
</g>
<g
   id="g27">
</g>
<g
   id="g29">
</g>
<g
   id="g31">
</g>
<g
   id="g33">
</g>
<g
   id="g35">
</g>
<g
   id="g37">
</g>
<g
   id="g39">
</g>
</svg>