<?xml version="1.0" encoding="UTF-8" standalone="no"?>
<!-- Generator: Adobe Illustrator 16.0.0, SVG Export Plug-In . SVG Version: 6.00 Build 0)  -->

<svg
   xmlns:dc="http://purl.org/dc/elements/1.1/"
   xmlns:cc="http://creativecommons.org/ns#"
   xmlns:rdf="http://www.w3.org/1999/02/22-rdf-syntax-ns#"
   xmlns:svg="http://www.w3.org/2000/svg"
   xmlns="http://www.w3.org/2000/svg"
   xmlns:sodipodi="http://sodipodi.sourceforge.net/DTD/sodipodi-0.dtd"
   xmlns:inkscape="http://www.inkscape.org/namespaces/inkscape"
   version="1.1"
   id="Capa_1"
   x="0px"
   y="0px"
   width="51.994px"
   height="51.995px"
   viewBox="0 0 51.994 51.995"
   style="enable-background:new 0 0 51.994 51.995;"
   xml:space="preserve"
   inkscape:version="0.48.5 r10040"
   sodipodi:docname="JumpToLineIcon.svg"
   inkscape:export-filename="C:\dev3\simsip-line\Simsip.LineRunner.Content\Content\Images\Icons\JumpToLineIconNormal.png"
   inkscape:export-xdpi="138.47485"
   inkscape:export-ydpi="138.47485"><metadata
   id="metadata45"><rdf:RDF><cc:Work
       rdf:about=""><dc:format>image/svg+xml</dc:format><dc:type
         rdf:resource="http://purl.org/dc/dcmitype/StillImage" /><dc:title></dc:title></cc:Work></rdf:RDF></metadata><defs
   id="defs43" /><sodipodi:namedview
   pagecolor="#ffffff"
   bordercolor="#666666"
   borderopacity="1"
   objecttolerance="10"
   gridtolerance="10"
   guidetolerance="10"
   inkscape:pageopacity="0"
   inkscape:pageshadow="2"
   inkscape:window-width="2048"
   inkscape:window-height="1129"
   id="namedview41"
   showgrid="false"
   inkscape:zoom="4.5388981"
   inkscape:cx="25.997"
   inkscape:cy="25.997499"
   inkscape:window-x="1912"
   inkscape:window-y="-8"
   inkscape:window-maximized="1"
   inkscape:current-layer="Capa_1" />
<g
   id="g3"
   style="fill:#ffffff">
	<g
   id="g5"
   style="fill:#ffffff">
		<path
   d="M13.912,27.996c2.478,2.665,4.957,5.33,7.435,7.994c1.292,1.39,2.315,2.869,4.059,3.629    c2.61,1.136,8.672-7.607,9.878-8.906c2.479-2.665,4.957-5.33,7.436-7.994c0.869-0.935,3.106-2.566,3.277-4.015    c0.395-3.368-7.007-2.314-9.325-2.181c-1.326-0.873-0.479-7.067-0.479-8.369c0-1.899,0.789-5.684-0.477-7.384    c-0.861-1.155-3.875-0.668-4.99-0.668c-3.815,0-7.63,0-11.445,0c-0.805,0-1.433,0.173-1.947,0.455    c-0.056,0.003-0.111,0.007-0.163,0.02c-0.042,0.009-0.111,0.087-0.189,0.189c-2.525,1.878-1.247,7.316-1.247,10.397    c0,1.48,0,2.961,0,4.441c0,1.297-0.698,0.932-1.885,0.932c-1.56,0-5.924-0.838-7.175,0.637    C4.137,20.163,12.152,26.103,13.912,27.996z M15.908,27.387c3.007-4.56,6.011-9.122,9.03-13.673    c0.305-0.46,0.377-0.422,0.151,0.082c-0.47,1.052-0.964,2.092-1.483,3.119c-2.247,3.802-4.551,7.569-6.953,11.273    C16.405,27.92,16.156,27.654,15.908,27.387z M24.59,35.93c-0.069,0.188-0.138,0.378-0.207,0.567    c-0.107-0.116-0.215-0.231-0.323-0.347c0.092-0.12,0.184-0.239,0.274-0.359C24.668,35.352,24.778,35.411,24.59,35.93z     M23.13,34.814c-0.059,0.084-0.101,0.134-0.142,0.185c-0.022-0.023-0.045-0.049-0.068-0.072c0.025-0.057,0.046-0.105,0.088-0.187    c1.36-2.613,2.737-5.219,4.161-7.804c0.427-0.775,0.855-1.552,1.284-2.326c0.268-0.483,0.34-0.452,0.156,0.068    c-0.361,1.032-0.729,2.062-1.096,3.092c-0.186,0.52-0.573,1.323-0.869,1.789C25.53,31.315,24.361,33.077,23.13,34.814z     M38.317,17.965c1.074,0,2.148,0,3.224,0c-0.245,0.518-0.49,1.035-0.733,1.553c-0.804,1.71-1.576,3.435-2.333,5.165    c-0.089,0.203-0.108,0.317-0.091,0.38c-2.485,2.673-4.97,5.344-7.455,8.016c0.138-0.217,0.265-0.431,0.351-0.611    C33.596,27.618,35.928,22.775,38.317,17.965z M35.656,17.909c0.134,0.055,0.283,0.066,0.435,0.052    c0.015,0.001,0.022,0.006,0.039,0.006c0.021,0,0.04,0,0.061,0c-3.165,6.366-6.226,12.787-9.289,19.207    c-0.082,0.172-0.108,0.272-0.111,0.343c-0.36,0.357-0.587,0.504-0.815,0.467c0.043-0.101,0.086-0.204,0.126-0.313    c1.016-2.801,2.032-5.603,3.038-8.407c0.186-0.521,0.581-1.317,0.878-1.783c1.988-3.122,3.849-6.324,5.622-9.579    C35.646,17.902,35.65,17.906,35.656,17.909z M34.101,16.716c-0.328,0.615-0.659,1.229-0.993,1.841    c-0.265,0.485-0.327,0.455-0.131-0.061c0.391-1.03,0.799-2.053,1.214-3.072c0.002-0.005,0.004-0.013,0.006-0.018    c0.002,0.337,0.03,0.655,0.099,0.954C34.235,16.465,34.171,16.584,34.101,16.716z M34.043,2.622    c0.003-0.005,0.005-0.014,0.008-0.019c0.121,0.362,0.184,0.833,0.184,1.449c0,2.083,0,4.165,0,6.248    c-0.042,0.053-0.083,0.103-0.128,0.189c-0.633,1.204-1.272,2.402-1.921,3.598c-3.755,6.269-7.415,12.596-11.012,18.958    c-0.945-1.017-1.891-2.031-2.836-3.049c-0.114-0.123-0.228-0.245-0.342-0.368c2.935-4.231,5.676-8.579,7.969-13.152    C28.679,11.874,31.339,7.235,34.043,2.622z M28.367,3.582c0.35-0.684,0.696-1.367,1.043-2.051c0.099,0,0.195,0,0.292,0    c0.485,0,0.935-0.021,1.351-0.039c-0.157,0.229-0.314,0.458-0.471,0.688c-0.312,0.456-0.873,0.893-1.237,1.031    c-0.298,0.114-0.542,0.241-0.622,0.326c-0.141,0.15-0.275,0.308-0.409,0.465C28.094,4.263,28.116,4.074,28.367,3.582z     M24.49,1.797c0.053-0.089,0.106-0.178,0.158-0.266c0.007,0,0.015,0,0.023,0c-0.057,0.091-0.113,0.182-0.17,0.272    C24.209,2.272,24.208,2.271,24.49,1.797z M18.358,2.105c0.065-0.129,0.13-0.258,0.196-0.387c0.115-0.046,0.243-0.083,0.384-0.112    c-0.147,0.195-0.294,0.39-0.441,0.585C18.167,2.633,18.108,2.597,18.358,2.105z M21.058,1.532c0.506,0,1.012,0,1.518,0    c-1.565,2.659-3.218,5.272-4.885,7.878c0-1.038,0-2.075,0-3.112c0-0.013,0-0.025,0-0.037C18.801,4.676,19.915,3.092,21.058,1.532z     M22.553,4.965c-1.624,2.646-3.243,5.293-4.863,7.941c0-0.1,0-0.197,0-0.296c1.622-2.55,3.259-5.089,4.858-7.647    C22.84,4.495,22.842,4.495,22.553,4.965z M26.762,1.532c0.177,0,0.354,0,0.532,0c-3.354,6.588-6.751,13.151-10.328,19.61    c-0.863,1.54-1.729,3.069-2.611,4.575c-0.484-0.52-0.967-1.04-1.451-1.56C17.526,16.617,22.124,9.06,26.762,1.532z M14.197,18.201    c0.09-0.008,0.179-0.017,0.268-0.025c-0.943,1.54-1.886,3.078-2.831,4.617c-0.037-0.04-0.073-0.079-0.109-0.118    C12.406,21.175,13.296,19.683,14.197,18.201z M9.76,18.055c0.709,0.061,1.512,0.132,2.336,0.169    c-0.453,0.734-0.904,1.469-1.345,2.208c-0.162,0.271-0.321,0.545-0.48,0.818c-0.473-0.556-1.004-1.203-1.425-1.779    C9.146,18.996,9.453,18.525,9.76,18.055z"
   id="path7"
   style="fill:#ffffff" />
		<path
   d="M9.763,51.721c2.942,0.596,6.537,0.034,9.521,0.034c5.62,0,11.241,0,16.861,0c2.837,0,5.781,0.484,8.228-1.169    c3.282-2.22,1.307-8.523-1.946-9.51c-0.085-0.075-0.242-0.122-0.496-0.122c-8.966,0-17.933,0-26.9,0    c-2.381,0-5.787-0.569-7.664,1.309C4.614,45.016,6.056,50.97,9.763,51.721z M43.702,47.515c-0.487,0.975-0.977,1.948-1.459,2.926    c-0.237,0.06-0.491,0.091-0.751,0.103c0.014-0.02,0.033-0.036,0.044-0.056c0.755-1.345,1.477-2.708,2.197-4.073    C43.729,46.79,43.714,47.16,43.702,47.515z M42.296,43.265c0.069-0.167,0.139-0.326,0.205-0.477    c0.248,0.19,0.446,0.409,0.606,0.65c-1.007,1.977-2.038,3.941-3.102,5.89c-0.266,0.485-0.328,0.457-0.133-0.06    C40.637,47.248,41.463,45.252,42.296,43.265z M35.552,42.648c0.103-0.177,0.117-0.332,0.091-0.469c1.656,0,3.312,0,4.968,0    c-0.134,0.142-0.262,0.304-0.358,0.488c-0.388,0.732-0.774,1.464-1.169,2.192c-1.122,1.873-2.232,3.754-3.339,5.637    c-0.007,0.013-0.005,0.021-0.012,0.033c-1.542,0-3.085,0-4.628,0c0.009-0.015,0.024-0.026,0.033-0.041    c0.598-1.069,1.176-2.146,1.725-3.241C33.764,45.72,34.658,44.185,35.552,42.648z M31.986,44.569    c-0.47,1.052-0.964,2.092-1.482,3.119c-0.558,0.94-1.118,1.879-1.683,2.815c-0.006,0.011-0.004,0.019-0.01,0.027    c-0.324,0-0.647,0-0.972,0c0.001-0.002,0.003-0.003,0.005-0.005c1.328-2.014,2.658-4.028,3.991-6.039    C32.141,44.026,32.213,44.064,31.986,44.569z M27.422,42.18c0.62,0,1.239,0,1.858,0c-0.184,0.142-0.349,0.305-0.445,0.489    c-1.375,2.617-2.768,5.226-4.188,7.815c-0.009,0.017-0.007,0.03-0.015,0.047c-0.714,0-1.429,0-2.144,0    c0.005-0.009,0.016-0.016,0.021-0.025c1.604-2.622,3.207-5.245,4.81-7.868C27.425,42.464,27.442,42.314,27.422,42.18z     M25.172,42.18c0.171,0,0.342,0,0.513,0c-0.185,0.134-0.353,0.284-0.458,0.457c-1.607,2.624-3.216,5.247-4.823,7.87    c-0.005,0.009-0.004,0.016-0.009,0.023c-0.08,0-0.16,0-0.24,0c0.007-0.011,0.019-0.02,0.025-0.031    c0.552-0.926,1.104-1.852,1.668-2.77c1.052-1.713,2.129-3.412,3.212-5.106C25.167,42.457,25.188,42.31,25.172,42.18z     M20.854,42.18c0.427,0,0.854,0,1.281,0c0.45,0,0.9,0,1.351,0c-0.185,0.131-0.352,0.276-0.459,0.444    c-1.685,2.621-3.358,5.247-4.963,7.907c-0.83,0-1.66,0-2.49,0c0.042-0.072,0.084-0.145,0.125-0.218    c1.631-2.597,3.317-5.158,5.031-7.701C20.838,42.45,20.864,42.307,20.854,42.18z M12.631,42.654    c0.101-0.179,0.113-0.336,0.084-0.475c1.888,0,3.776,0,5.664,0c-0.185,0.14-0.351,0.299-0.451,0.479    c-1.431,2.581-2.89,5.148-4.36,7.71c-0.034,0.054-0.066,0.108-0.099,0.161c-0.91,0-1.819,0-2.729,0    c-0.88,0-1.522-0.424-1.96-1.062C10.071,47.202,11.349,44.926,12.631,42.654z"
   id="path9"
   style="fill:#ffffff" />
	</g>
</g>
<g
   id="g11">
</g>
<g
   id="g13">
</g>
<g
   id="g15">
</g>
<g
   id="g17">
</g>
<g
   id="g19">
</g>
<g
   id="g21">
</g>
<g
   id="g23">
</g>
<g
   id="g25">
</g>
<g
   id="g27">
</g>
<g
   id="g29">
</g>
<g
   id="g31">
</g>
<g
   id="g33">
</g>
<g
   id="g35">
</g>
<g
   id="g37">
</g>
<g
   id="g39">
</g>
</svg>