<?xml version="1.0" encoding="UTF-8" standalone="no"?>
<!-- Generator: Adobe Illustrator 16.0.0, SVG Export Plug-In . SVG Version: 6.00 Build 0)  -->

<svg
   xmlns:dc="http://purl.org/dc/elements/1.1/"
   xmlns:cc="http://creativecommons.org/ns#"
   xmlns:rdf="http://www.w3.org/1999/02/22-rdf-syntax-ns#"
   xmlns:svg="http://www.w3.org/2000/svg"
   xmlns="http://www.w3.org/2000/svg"
   xmlns:sodipodi="http://sodipodi.sourceforge.net/DTD/sodipodi-0.dtd"
   xmlns:inkscape="http://www.inkscape.org/namespaces/inkscape"
   version="1.1"
   id="Capa_1"
   x="0px"
   y="0px"
   width="181.514px"
   height="181.514px"
   viewBox="0 0 181.514 181.514"
   style="enable-background:new 0 0 181.514 181.514;"
   xml:space="preserve"
   inkscape:version="0.48.5 r10040"
   sodipodi:docname="lines.svg"><metadata
   id="metadata47"><rdf:RDF><cc:Work
       rdf:about=""><dc:format>image/svg+xml</dc:format><dc:type
         rdf:resource="http://purl.org/dc/dcmitype/StillImage" /><dc:title></dc:title></cc:Work></rdf:RDF></metadata><defs
   id="defs45">
	
</defs><sodipodi:namedview
   pagecolor="#ffffff"
   bordercolor="#666666"
   borderopacity="1"
   objecttolerance="10"
   gridtolerance="10"
   guidetolerance="10"
   inkscape:pageopacity="0"
   inkscape:pageshadow="2"
   inkscape:window-width="1680"
   inkscape:window-height="1027"
   id="namedview43"
   showgrid="false"
   inkscape:zoom="1.8387253"
   inkscape:cx="106.22925"
   inkscape:cy="-4.7143711"
   inkscape:window-x="1912"
   inkscape:window-y="-8"
   inkscape:window-maximized="1"
   inkscape:current-layer="g5" />
<g
   id="g5">
		<path
   inkscape:connector-curvature="0"
   id="path7"
   d="m 142.317,38.605 c 0.225,-4.544 -6.201,-4.844 -7.409,-1.034 -1.79983,2.662778 -1.70352,19.209325 -3.6359,60.001591 3.1014,53.794339 1.54866,67.739779 4.5409,70.714409 1.372,1.479 4.491,0.805 4.31,-1.607 -3.249,-43.065 0.068,-85.063 2.194,-128.075 z"
   sodipodi:nodetypes="cccccc" />
		<path
   inkscape:connector-curvature="0"
   id="path9"
   d="M 137.318,10.861 C 111.142,10.771 84.945,10.302 58.775,9.77 42.795,9.445 24.455928,7.670855 8.337,11.077 4.3277877,11.450137 5.4168867,20.571069 8.646855,18.253819 25.081855,15.601819 42.227,16.786 58.776,17.015 c 26.4,0.365 52.827,0.685 79.228,0.767 5.18374,0.549777 3.5781,-7.16323 -0.686,-6.921 z"
   sodipodi:nodetypes="csccccc"
   inkscape:export-filename="C:\dev3\simsip-line\Simsip.LineRunner.Content\Content\Images\Misc\MenuDivider.png"
   inkscape:export-xdpi="106.27"
   inkscape:export-ydpi="106.27"
   style="fill:#ffffff" />
		<path
   inkscape:connector-curvature="0"
   id="path11"
   d="m 165.872,34.427 c -6.97948,20.127157 -2.71245,41.979763 -0.544,59.974 2.854,24.506 0.313,49.745 0.313,74.418 0.62615,1.74317 5.03629,0.26406 6.038,-0.216 0.409,-21.591 1.453,-43.266 0.887,-64.846 -0.6,-22.89 -7.639,-45.011 -2.713,-67.932 0.104,-0.484 -0.22893,-1.430855 -0.35093,-1.791855 -1.40909,-0.365323 -2.65899,-0.15954 -3.63007,0.393855 z"
   sodipodi:nodetypes="cccccccc" />
	</g>
<g
   id="g13">
</g>
<g
   id="g15">
</g>
<g
   id="g17">
</g>
<g
   id="g19">
</g>
<g
   id="g21">
</g>
<g
   id="g23">
</g>
<g
   id="g25">
</g>
<g
   id="g27">
</g>
<g
   id="g29">
</g>
<g
   id="g31">
</g>
<g
   id="g33">
</g>
<g
   id="g35">
</g>
<g
   id="g37">
</g>
<g
   id="g39">
</g>
<g
   id="g41">
</g>
</svg>