<?xml version="1.0" encoding="UTF-8" standalone="no"?>
<!-- Generator: Adobe Illustrator 17.0.2, SVG Export Plug-In . SVG Version: 6.00 Build 0)  -->

<svg
   xmlns:dc="http://purl.org/dc/elements/1.1/"
   xmlns:cc="http://creativecommons.org/ns#"
   xmlns:rdf="http://www.w3.org/1999/02/22-rdf-syntax-ns#"
   xmlns:svg="http://www.w3.org/2000/svg"
   xmlns="http://www.w3.org/2000/svg"
   xmlns:sodipodi="http://sodipodi.sourceforge.net/DTD/sodipodi-0.dtd"
   xmlns:inkscape="http://www.inkscape.org/namespaces/inkscape"
   version="1.1"
   id="Capa_1"
   x="0px"
   y="0px"
   width="56"
   height="56"
   viewBox="0 0 56.000001 56"
   xml:space="preserve"
   inkscape:version="0.48.5 r10040"
   sodipodi:docname="MicrosophoneIcon.svg"
   inkscape:export-filename="C:\dev3\simsip-line\Simsip.LineRunner.Content\Content\Images\SoundButtonOn.png"
   inkscape:export-xdpi="128.57001"
   inkscape:export-ydpi="128.57001"><metadata
   id="metadata21"><rdf:RDF><cc:Work
       rdf:about=""><dc:format>image/svg+xml</dc:format><dc:type
         rdf:resource="http://purl.org/dc/dcmitype/StillImage" /><dc:title></dc:title></cc:Work></rdf:RDF></metadata><defs
   id="defs19" /><sodipodi:namedview
   pagecolor="#ffffff"
   bordercolor="#666666"
   borderopacity="1"
   objecttolerance="10"
   gridtolerance="10"
   guidetolerance="10"
   inkscape:pageopacity="0"
   inkscape:pageshadow="2"
   inkscape:window-width="1680"
   inkscape:window-height="1027"
   id="namedview17"
   showgrid="false"
   fit-margin-top="0"
   fit-margin-left="0"
   fit-margin-right="0"
   fit-margin-bottom="0"
   inkscape:zoom="3.6875"
   inkscape:cx="12.130961"
   inkscape:cy="28.163515"
   inkscape:window-x="1912"
   inkscape:window-y="-8"
   inkscape:window-maximized="1"
   inkscape:current-layer="Capa_1" />
<g
   id="g3"
   transform="translate(-4.6825982,-4.7058878)"
   style="fill:#ffffff">
	<path
   d="m 29.954,35.342 c 5.62,2.642 9.701,-2.081 10.677,-7.297 1.003,-5.359 2.651,-15.057 -0.833,-19.816 -4.101,-5.6 -12.145,-0.07 -14.047,4.44 -0.046,0.108 -0.01,0.185 0.076,0.237 0.131,0.079 0.22,0.97 0.121,2.07 -0.592,6.636 -2.309,17.397 4.006,20.366 z m 8.75,-7.038 c -0.206,1.243 -0.643,2.941 -1.415,4.329 -0.537,0.965 -1.54,1.353 -1.897,1.023 -0.357,-0.33 -1.06,-0.218 -1.611,0.295 -0.552,0.513 -0.848,0.983 -0.657,1.036 0.191,0.054 -0.342,0.009 -1.104,-0.345 -0.41,-0.191 -0.845,-0.447 -1.303,-0.777 -2.231,-1.605 -2.771,-4.611 -3.087,-7.126 -0.004,-0.032 -0.007,-0.064 -0.009,-0.097 -0.004,-0.053 0.719,-0.084 1.614,-0.05 0.896,0.033 1.038,0.632 0.318,1.321 -0.72,0.689 -1.233,1.538 -1.126,1.89 0.108,0.352 0.838,-0.012 1.608,-0.804 0.268,-0.274 0.534,-0.549 0.801,-0.822 0.77,-0.791 2.288,-1.378 3.391,-1.315 0.891,0.051 1.781,0.097 2.673,0.133 1.104,0.044 1.958,0.338 1.904,0.685 -0.033,0.208 -0.066,0.417 -0.1,0.624 z M 28.021,11.856 c -0.019,-0.033 0.062,-0.247 0.202,-0.476 0.141,-0.229 0.745,-0.885 1.333,-1.476 0.588,-0.591 1.778,-1.631 2.796,-2.061 2.289,-0.968 4.788,-0.701 6.21,2.038 0.779,1.503 0.847,3.46 0.977,5.106 0.24,3.064 0.089,6.208 -0.269,9.303 -0.126,1.097 -1.151,1.955 -2.255,1.902 -0.888,-0.042 -1.774,-0.092 -2.662,-0.143 -1.102,-0.063 -2.009,-0.261 -2.023,-0.443 -0.015,-0.183 -0.168,-0.191 -0.348,-0.02 -0.179,0.171 -1.087,0.268 -2.03,0.236 -0.569,-0.019 -1.138,-0.033 -1.708,-0.039 -0.072,0 -0.198,0.026 -0.348,0.07 -0.188,0.055 -0.423,-0.781 -0.449,-1.885 -0.098,-4.005 0.523,-8.064 0.592,-12.048 0,-0.023 -0.007,-0.044 -0.018,-0.064 z"
   id="path5"
   inkscape:connector-curvature="0"
   style="fill:#ffffff" />
	<path
   d="m 29.2,17.821 c 0.727,-0.748 1.435,-1.476 2.125,-2.186 0.771,-0.792 1.396,-1.465 1.399,-1.504 0.003,-0.039 -0.618,0.575 -1.387,1.369 -0.656,0.678 -1.381,1.426 -2.134,2.204 -0.769,0.793 -1.394,1.462 -1.396,1.494 0,0.031 0.623,-0.585 1.393,-1.377 z"
   id="path7"
   inkscape:connector-curvature="0"
   style="fill:#ffffff" />
	<path
   d="m 29.104,22.684 c 0.616,-0.608 1.233,-1.217 1.85,-1.825 0.786,-0.776 1.464,-2.086 1.519,-2.926 0.055,-0.84 -0.521,-0.879 -1.292,-0.087 -0.693,0.712 -1.387,1.424 -2.08,2.136 -0.771,0.792 -1.418,2.031 -1.425,2.769 -0.007,0.737 0.642,0.708 1.428,-0.067 z"
   id="path9"
   inkscape:connector-curvature="0"
   style="fill:#ffffff" />
	<path
   d="m 29.237,17.423 c 0.774,-0.781 1.47,-1.478 2.074,-2.08 0.783,-0.78 1.452,-1.893 1.473,-2.494 0.021,-0.601 -0.059,-1.009 -0.157,-0.91 -0.1,0.099 -0.141,0.065 -0.083,-0.072 0.057,-0.136 -0.363,0.185 -0.94,0.716 -0.352,0.324 -0.701,0.645 -1.046,0.961 -0.419,0.413 -0.844,0.83 -1.269,1.248 -0.701,0.689 -1.315,1.876 -1.366,2.65 -0.054,0.775 0.536,0.765 1.314,-0.019 z"
   id="path11"
   inkscape:connector-curvature="0"
   style="fill:#ffffff" />
	<path
   d="m 31.972,32.105 c -0.755,0.753 -1.277,1.451 -1.165,1.55 0.113,0.1 0.796,-0.374 1.521,-1.053 0.727,-0.679 1.242,-1.369 1.157,-1.543 -0.085,-0.173 -0.758,0.293 -1.513,1.046 z"
   id="path13"
   inkscape:connector-curvature="0"
   style="fill:#ffffff" />
	<path
   d="m 33.862,44.351 c 0.444,0 0.892,-0.021 1.34,-0.072 3.493,-0.393 7.696,-2.017 9.602,-5.104 2.284,-3.7 1.216,-9.374 1.152,-13.456 -0.008,-0.525 -1.942,-0.174 -1.932,0.518 0.046,2.957 0.267,5.884 0.041,8.841 -0.498,6.533 -7.684,10.042 -13.727,7.461 -3.132,-1.337 -6.288,-3.068 -7.824,-6.216 -1.494,-3.064 -0.626,-7.331 -0.565,-10.604 0.01,-0.509 -1.919,-0.18 -1.932,0.518 -0.093,5.025 -1.017,10.429 3.23,14.003 1.683,1.416 3.587,2.54 5.614,3.253 1.042,0.366 1.853,0.589 1.79,0.67 -0.04,0.054 -0.065,0.109 -0.065,0.171 0.001,1.273 0.011,2.543 0.101,3.808 0.078,1.102 -0.025,2.038 -0.236,2.235 -0.211,0.198 -0.277,0.455 -0.322,0.457 -0.025,0.002 -0.052,0.004 -0.081,0.01 -4.426,0.959 -8.861,4.197 -9.951,8.754 -0.11,0.461 0.564,0.596 0.873,0.56 7.187,-0.848 14.483,-0.256 21.584,-1.839 0.44,-0.098 1.01,-0.52 0.728,-1.011 -2.017,-3.503 -4.913,-5.918 -8.546,-6.823 -1.071,-0.268 -1.923,-0.377 -1.886,-0.443 0.023,-0.044 0.035,-0.088 0.027,-0.134 -0.203,-1.2 -0.29,-2.406 -0.327,-3.616 -0.034,-1.107 0.571,-1.941 1.312,-1.941 z M 22.333,58.747 c -0.054,0.005 0.171,-0.858 0.755,-1.796 0.609,-0.978 1.408,-1.84 2.325,-2.565 0.866,-0.685 0.903,-0.625 0.067,0.097 -0.858,0.74 -1.616,1.574 -2.187,2.457 -0.601,0.926 -0.906,1.802 -0.96,1.807 z m 1.592,-0.137 c -0.742,0.056 -0.72,-0.53 0.05,-1.323 1.066,-1.1 2.116,-2.182 3.145,-3.24 0.77,-0.792 1.799,-1.597 2.312,-1.755 0.312,-0.096 0.625,-0.179 0.938,-0.247 0.211,-0.046 0.373,-0.12 0.489,-0.211 0.235,-0.181 0.482,-0.456 0.77,-0.443 0.286,0.013 -0.106,0.678 -0.876,1.471 -1.365,1.407 -2.729,2.815 -4.092,4.223 -0.768,0.793 -1.994,1.47 -2.736,1.525 z m 8.719,-5.426 c 0.786,-0.775 2.298,-1.177 3.283,-0.678 1.505,0.763 2.81,1.874 3.92,3.217 0.703,0.851 0.297,1.784 -0.798,1.937 -3.213,0.449 -6.461,0.564 -9.711,0.683 -1.104,0.04 -1.361,-0.555 -0.575,-1.33 1.294,-1.278 2.588,-2.553 3.881,-3.829 z"
   id="path15"
   inkscape:connector-curvature="0"
   style="fill:#ffffff" />
</g>
</svg>