<?xml version="1.0" encoding="UTF-8" standalone="no"?>
<!-- Generator: Adobe Illustrator 17.0.2, SVG Export Plug-In . SVG Version: 6.00 Build 0)  -->

<svg
   xmlns:dc="http://purl.org/dc/elements/1.1/"
   xmlns:cc="http://creativecommons.org/ns#"
   xmlns:rdf="http://www.w3.org/1999/02/22-rdf-syntax-ns#"
   xmlns:svg="http://www.w3.org/2000/svg"
   xmlns="http://www.w3.org/2000/svg"
   xmlns:sodipodi="http://sodipodi.sourceforge.net/DTD/sodipodi-0.dtd"
   xmlns:inkscape="http://www.inkscape.org/namespaces/inkscape"
   version="1.1"
   id="Capa_1"
   x="0px"
   y="0px"
   width="43.167847"
   height="40.335293"
   viewBox="0 0 43.167847 40.335293"
   xml:space="preserve"
   inkscape:version="0.48.5 r10040"
   sodipodi:docname="star110.svg"><metadata
   id="metadata15"><rdf:RDF><cc:Work
       rdf:about=""><dc:format>image/svg+xml</dc:format><dc:type
         rdf:resource="http://purl.org/dc/dcmitype/StillImage" /><dc:title></dc:title></cc:Work></rdf:RDF></metadata><defs
   id="defs13" /><sodipodi:namedview
   pagecolor="#ffffff"
   bordercolor="#666666"
   borderopacity="1"
   objecttolerance="10"
   gridtolerance="10"
   guidetolerance="10"
   inkscape:pageopacity="0"
   inkscape:pageshadow="2"
   inkscape:window-width="1680"
   inkscape:window-height="1027"
   id="namedview11"
   showgrid="false"
   fit-margin-top="0"
   fit-margin-left="0"
   fit-margin-right="0"
   fit-margin-bottom="0"
   inkscape:zoom="3.6875"
   inkscape:cx="21.73338"
   inkscape:cy="16.557681"
   inkscape:window-x="1912"
   inkscape:window-y="-8"
   inkscape:window-maximized="1"
   inkscape:current-layer="Capa_1" />
<g
   id="g3"
   transform="translate(-10.26662,-8.2223881)"
   style="fill:#ffffff">
	<path
   d="M 43.176,20.182 C 36.789,18.879 37.121,11.557 32.43,8.345 32.002,8.052 31.141,8.341 30.773,8.618 c -2.82,2.121 -4.181,6.425 -5.85,9.471 -1.768,3.227 -9.711,3.317 -12.918,3.979 -0.063,0.013 -0.125,0.032 -0.188,0.054 -0.102,0.037 -0.265,0.089 -0.367,0.117 -0.069,0.019 -0.131,0.041 -0.18,0.065 -3.764,1.894 4.158,7.841 5.771,9.568 3.089,3.309 0.901,11.101 0.598,15.148 -0.292,3.903 10.246,-1.878 11.142,-2.263 5.159,-2.213 9.706,3.068 14.692,3.773 4.036,0.57 1.84,-7.833 1.693,-9.53 -0.25,-2.888 -0.753,-5.392 1.456,-7.736 2.083,-2.21 4.167,-4.42 6.25,-6.631 3.159,-3.348 -7.94,-4.093 -9.696,-4.451 z m -30.525,2.899 c -0.061,0.061 -0.124,0.108 -0.183,0.141 0.018,-0.017 0.027,-0.025 0.046,-0.044 0.314,-0.3 0.38,-0.339 0.137,-0.097 z m 0.08,-0.152 c -0.097,0.094 -0.195,0.189 -0.294,0.285 -0.013,0.013 -0.016,0.017 -0.028,0.029 -0.149,0.061 -0.269,0.035 -0.263,-0.105 0.008,-0.212 0.304,-0.383 0.509,-0.423 0.204,-0.041 0.239,0.056 0.076,0.214 z m 15.704,-7.705 c 0.745,-1.649 1.396,-3.399 2.333,-4.793 0.308,-0.458 0.941,-0.499 1.308,-0.086 0.088,0.1 0.174,0.201 0.259,0.304 0.349,0.428 0.268,1.104 -0.139,1.479 -0.607,0.559 -1.204,1.108 -1.783,1.641 -0.558,0.547 -1.124,1.104 -1.69,1.66 -0.394,0.386 -0.515,0.298 -0.288,-0.205 z m 18.696,13.711 c -1.646,1.746 -3.313,3.175 -4.113,5.475 -0.401,1.153 -0.09,8.122 0.388,11.399 0.08,0.546 0.081,1.074 -0.035,1.186 -0.115,0.112 -0.617,0.017 -1.115,-0.222 -0.086,-0.041 -0.172,-0.082 -0.259,-0.124 -0.498,-0.24 -0.65,-0.691 -0.342,-1.003 0.308,-0.312 0.468,-0.604 0.358,-0.651 -0.11,-0.047 -0.444,0.165 -0.746,0.474 -0.302,0.309 -0.948,0.362 -1.446,0.123 -0.208,-0.1 -0.417,-0.2 -0.627,-0.298 -0.5,-0.235 -0.68,-0.653 -0.399,-0.943 0.28,-0.29 0.291,-0.618 0.024,-0.733 L 38.336,43.41 c -0.089,-0.038 -0.183,-0.072 -0.282,-0.102 -0.159,-0.049 -0.515,0.147 -0.792,0.426 -0.277,0.279 -0.741,0.412 -1.04,0.304 -0.299,-0.108 -0.375,-0.359 -0.166,-0.571 0.209,-0.212 0.362,-0.383 0.34,-0.382 -0.022,10e-4 -0.2,0.169 -0.398,0.376 -0.197,0.207 -0.783,0.232 -1.316,0.089 -1.047,-0.28 -2.102,-0.451 -3.159,-0.452 -2.269,-0.002 -4.858,1.195 -7.28,2.441 -0.491,0.253 -0.877,0.313 -0.863,0.13 0.014,-0.183 -0.305,-0.029 -0.712,0.344 -0.043,0.039 -0.085,0.078 -0.126,0.116 -0.407,0.373 -1.123,0.875 -1.606,1.108 -0.302,0.146 -0.597,0.281 -0.882,0.403 -0.259,0.111 -0.31,-1.064 -0.288,-2.396 0.009,-0.552 0.342,-1.318 0.729,-1.711 0.86,-0.874 1.723,-1.749 2.592,-2.63 0.388,-0.393 0.709,-0.804 0.718,-0.917 0.008,-0.113 -0.312,0.1 -0.717,0.475 -0.841,0.78 -1.684,1.56 -2.526,2.339 -0.406,0.375 -0.716,0.286 -0.687,-0.199 0.03,-0.51 0.055,-0.854 0.057,-0.877 0.003,-0.047 0.007,-0.095 0.011,-0.142 0.006,-0.079 0.341,-0.444 0.75,-0.816 0.848,-0.774 1.695,-1.549 2.542,-2.325 0.407,-0.373 0.768,-1.083 0.806,-1.585 0.038,-0.501 -0.259,-0.604 -0.664,-0.227 -0.854,0.796 -1.708,1.593 -2.562,2.39 -0.404,0.377 -0.698,0.235 -0.657,-0.315 0.091,-1.219 0.183,-2.438 0.274,-3.657 0.007,-0.097 0.005,-0.191 0,-0.284 -0.009,-0.156 0.291,-0.605 0.675,-1.002 0.451,-0.466 0.902,-0.932 1.353,-1.394 0.385,-0.396 0.658,-0.768 0.608,-0.831 -0.031,-0.039 -0.063,-0.077 -0.095,-0.112 0,0 -0.104,-0.112 -0.233,-0.25 -0.129,-0.138 -0.55,0.065 -0.942,0.455 -0.31,0.308 -0.617,0.614 -0.923,0.918 -0.392,0.389 -0.852,0.312 -1.112,-0.131 -0.26,-0.443 -0.448,-0.842 -0.359,-0.931 0.054,-0.054 0.108,-0.107 0.162,-0.161 0.117,-0.128 0.234,-0.257 0.351,-0.385 0.194,-0.212 0.112,-0.154 -0.184,0.132 -0.296,0.286 -0.672,0.343 -0.847,0.134 -0.175,-0.208 -0.005,-0.686 0.388,-1.074 0.195,-0.192 0.39,-0.384 0.586,-0.577 0.393,-0.388 0.553,-0.872 0.357,-1.082 -0.196,-0.21 -0.667,-0.059 -1.051,0.338 -0.192,0.198 -0.383,0.395 -0.574,0.593 -0.384,0.397 -0.891,0.518 -1.131,0.27 -0.24,-0.247 -0.12,-0.771 0.265,-1.168 0.197,-0.203 0.394,-0.406 0.589,-0.607 0.385,-0.396 0.457,-0.973 0.162,-1.289 -0.295,-0.316 -0.853,-0.258 -1.246,0.129 -0.215,0.212 -0.431,0.425 -0.646,0.638 -0.393,0.388 -1.03,0.387 -1.414,-0.01 -0.072,-0.075 -0.146,-0.152 -0.22,-0.229 -0.381,-0.399 -0.353,-1.037 0.05,-1.414 0.228,-0.213 0.456,-0.426 0.683,-0.639 0.403,-0.378 0.66,-0.759 0.578,-0.848 -0.083,-0.088 -0.463,0.158 -0.852,0.55 -0.219,0.221 -0.438,0.442 -0.656,0.663 -0.389,0.392 -0.996,0.387 -1.333,-0.031 -0.338,-0.417 -0.274,-1.095 0.112,-1.49 0.31,-0.317 0.62,-0.634 0.929,-0.951 0.386,-0.395 1.14,-0.79 1.684,-0.886 0.46,-0.081 0.92,-0.163 1.38,-0.248 0.543,-0.101 1.195,-0.229 1.457,-0.283 0.237,-0.048 0.474,-0.097 0.474,-0.097 1.168,-0.251 2.318,-0.545 3.435,-0.907 0.525,-0.17 0.852,-0.233 0.735,-0.118 -0.117,0.115 0.227,0.118 0.768,0.006 l 0.51,-0.105 c 0.541,-0.112 1.293,-0.522 1.68,-0.916 2.843,-2.896 4.939,-5.002 5.826,-5.841 2.422,-2.436 -2.105,2.227 -5.551,5.78 -0.384,0.396 -0.679,0.714 -0.658,0.709 0.021,-0.004 0.205,-0.179 0.412,-0.39 0.12,-0.122 0.244,-0.248 0.376,-0.383 1.956,-2.011 3.722,-3.826 5.339,-5.489 0.385,-0.396 0.796,-0.897 0.918,-1.12 0.122,-0.223 0.451,-0.018 0.716,0.466 1.388,2.542 2.512,5.37 4.877,7.033 2.908,2.046 8.667,2.008 12.092,2.707 2.059,0.422 -3.525,5.748 -3.801,6.04 z"
   id="path5"
   inkscape:connector-curvature="0"
   style="fill:#ffffff" />
	<path
   d="m 30.521,17.103 c -0.597,0.614 -1.195,1.228 -1.792,1.842 -0.385,0.396 -0.27,0.571 0.199,0.279 0.676,-0.421 1.291,-1.012 1.615,-1.605 0,0 0.151,-0.276 0.338,-0.616 0.186,-0.34 0.025,-0.295 -0.36,0.1 z"
   id="path7"
   inkscape:connector-curvature="0"
   style="fill:#ffffff" />
	<path
   d="m 23.483,34.688 c 0.367,-0.342 0.661,-0.637 0.658,-0.66 -0.002,-0.023 -0.3,0.254 -0.664,0.619 -0.363,0.365 -0.36,0.383 0.006,0.041 z"
   id="path9"
   inkscape:connector-curvature="0"
   style="fill:#ffffff" />
</g>
</svg>