<?xml version="1.0" encoding="UTF-8" standalone="no"?>
<!-- Generator: Adobe Illustrator 16.0.0, SVG Export Plug-In . SVG Version: 6.00 Build 0)  -->

<svg
   xmlns:dc="http://purl.org/dc/elements/1.1/"
   xmlns:cc="http://creativecommons.org/ns#"
   xmlns:rdf="http://www.w3.org/1999/02/22-rdf-syntax-ns#"
   xmlns:svg="http://www.w3.org/2000/svg"
   xmlns="http://www.w3.org/2000/svg"
   xmlns:sodipodi="http://sodipodi.sourceforge.net/DTD/sodipodi-0.dtd"
   xmlns:inkscape="http://www.inkscape.org/namespaces/inkscape"
   version="1.1"
   id="Capa_1"
   x="0px"
   y="0px"
   width="51.91px"
   height="51.91px"
   viewBox="0 0 51.91 51.91"
   style="enable-background:new 0 0 51.91 51.91;"
   xml:space="preserve"
   inkscape:version="0.48.5 r10040"
   sodipodi:docname="trackball.svg"
   inkscape:export-filename="C:\dev3\simsip-line\Simsip.LineRunner.Content\Content\Images\Misc\Trackball.png"
   inkscape:export-xdpi="208.05"
   inkscape:export-ydpi="208.05"><metadata
   id="metadata47"><rdf:RDF><cc:Work
       rdf:about=""><dc:format>image/svg+xml</dc:format><dc:type
         rdf:resource="http://purl.org/dc/dcmitype/StillImage" /><dc:title></dc:title></cc:Work></rdf:RDF></metadata><defs
   id="defs45" /><sodipodi:namedview
   pagecolor="#ffffff"
   bordercolor="#666666"
   borderopacity="1"
   objecttolerance="10"
   gridtolerance="10"
   guidetolerance="10"
   inkscape:pageopacity="0"
   inkscape:pageshadow="2"
   inkscape:window-width="1680"
   inkscape:window-height="1027"
   id="namedview43"
   showgrid="false"
   inkscape:zoom="4.5463302"
   inkscape:cx="25.955"
   inkscape:cy="25.955"
   inkscape:window-x="1912"
   inkscape:window-y="-8"
   inkscape:window-maximized="1"
   inkscape:current-layer="g3" />
<g
   id="g3">
	<g
   id="g5"
   style="fill:#ffffff">
		<path
   d="M51.795,20.52c0-2.599,0.396-5.492-0.289-8.024c-0.637-2.354-6.087-1.481-7.579-1.481c-1.466,0-4.033-0.058-4.053,1.371    c-0.008,0.553,0.284,1.017,0.321,1.087c0.021,0.04,0.049,0.079,0.082,0.119c5.86,6.746,6.702,15.83,1.847,23.417    c-1.321,2.064-4.13,4.665,0.142,4.665c2.007,0,6.729,0.938,8.372-0.706c1.81-1.81,1.156-4.844,1.156-7.21    C51.795,29.344,51.795,24.932,51.795,20.52z M42.131,12.827c-0.049-0.062,0.008-0.139,0.137-0.148s0.171,0.046,0.093,0.122    C42.283,12.876,42.179,12.889,42.131,12.827z M42.446,12.825c-0.104,0.088-0.137,0.071-0.054-0.013    c0.084-0.084,0.17-0.152,0.193-0.154C42.609,12.657,42.551,12.735,42.446,12.825z M42.825,13.69    c-0.212-0.271-0.259-0.612-0.096-0.77c0.163-0.156,0.708-0.301,1.216-0.316c0.509-0.017,0.599,0.284,0.201,0.668    c-0.076,0.073-0.15,0.147-0.227,0.221C43.523,13.877,43.039,13.962,42.825,13.69z M42.444,39.044    c0.498-0.833,1.654-1.936,2.082-2.604c0.067-0.104,0.128-0.21,0.188-0.315c0.099-0.178,0.496-0.636,0.887-1.024    c1.174-1.173,2.349-2.349,3.525-3.525c0.39-0.392,0.707-0.347,0.707,0.101s-0.316,1.124-0.707,1.515    c-2.03,2.025-4.062,4.051-6.095,6.07C42.639,39.649,42.161,39.518,42.444,39.044z M49.128,20.481    c-0.494,0.498-0.986,0.994-1.475,1.485c-0.389,0.392-0.759,0.435-0.84,0.099c-0.082-0.336,0.161-0.927,0.549-1.318    c0.618-0.624,1.207-1.221,1.767-1.785c0.389-0.395,0.703-0.371,0.703,0.05C49.833,19.431,49.516,20.09,49.128,20.481z     M49.833,22.626c0,0.562,0,1.122,0,1.683c0,0.553-0.312,1.321-0.698,1.717c-0.381,0.392-0.762,0.781-1.145,1.172    c-0.386,0.396-0.666,0.271-0.655-0.283c0.01-0.537-0.002-1.074-0.037-1.61c-0.035-0.551,0.223-1.316,0.608-1.712    c0.409-0.418,0.818-0.835,1.226-1.252C49.519,21.945,49.833,22.075,49.833,22.626z M47.084,29.771    c0.092-0.545,0.456-1.309,0.844-1.701c0.404-0.407,0.804-0.812,1.2-1.213c0.388-0.393,0.703-0.264,0.703,0.29    c0,0.51,0,1.021,0,1.529c0,0.552-0.322,1.311-0.721,1.694c-0.728,0.701-1.481,1.43-2.261,2.181    c-0.396,0.384-0.556,0.276-0.386-0.249C46.734,31.469,46.94,30.625,47.084,29.771z M43.589,40.172c-0.166,0-0.332,0-0.497,0    c-0.025,0-0.046-0.002-0.067-0.004c-0.037-0.004,0.25-0.323,0.642-0.714c1.968-1.973,3.81-3.817,5.46-5.474    c0.39-0.392,0.706-0.446,0.706-0.125c0,0.323-0.317,0.9-0.708,1.291c-1.443,1.44-2.886,2.879-4.328,4.318    C44.404,39.856,43.864,40.172,43.589,40.172z M47.593,40.172c-0.52,0-1.038,0-1.557,0c-0.553,0-0.687-0.319-0.3-0.713    c1.132-1.15,2.263-2.298,3.393-3.442c0.388-0.394,0.702-0.532,0.702-0.311c0,0.134,0,0.268,0,0.4    C49.833,38.043,50.249,40.172,47.593,40.172z M49.933,16.189c-0.015,0.553-0.352,1.325-0.728,1.729    c-0.678,0.727-1.357,1.454-2.036,2.18c-0.378,0.402-0.797,0.342-0.959-0.128c-0.163-0.47-0.008-1.172,0.369-1.576    c0.625-0.671,1.244-1.337,1.856-1.995c0.376-0.403,0.576-0.889,0.441-1.079c-0.134-0.189-0.565-0.025-0.958,0.362    c-0.574,0.567-1.151,1.138-1.73,1.711c-0.392,0.389-0.892,0.293-1.142-0.199c-0.341-0.67-0.719-1.321-1.129-1.954    c-0.3-0.465-0.227-1.125,0.188-1.49c0.198-0.175,0.396-0.35,0.593-0.523c0.414-0.365,1.198-0.673,1.75-0.683    c0.935-0.019,1.753-0.029,2.125-0.029C49.828,12.513,49.978,14.54,49.933,16.189z"
   id="path7"
   style="fill:#ffffff" />
		<path
   d="M7.517,31.936c-1.344-3.729-1.037-7.82,0-11.566c0.628-2.27,1.918-4.265,3.31-6.124c0.613-0.819,1.772-1.521,1.865-2.604    c0.003-0.035-0.001-0.069-0.01-0.102c-0.016-0.057-0.319-0.453-0.547-0.956c-0.688-1.515-0.122-2.467-2.387-3.031    C8.476,7.236,6.841,7.529,5.532,7.529c-3.071,0-4.795,3.89-5.293,6.355c-0.537,2.653,0,5.971,0,8.665c0,4.54,0,9.08,0,13.619    c0,1.374-0.51,4.5,1.365,5.008c2.514,0.68,6.293,0.8,8.821,0.232c1.045-0.235,1.446-0.296,1.833-1.276    c0.19-0.481-1.349-1.95-1.434-2.048C9.274,36.299,8.308,34.131,7.517,31.936z M2.764,12.852c0.232-0.447,0.556-0.949,1.006-1.605    c0.667-0.976,0.759-1.667,1.118-2.095c0.356-0.422,0.794-0.365,0.698-0.268C5.529,8.942,5.472,9.001,5.413,9.061    C5.338,9.137,5.264,9.211,5.19,9.285C5.067,9.409,5.155,9.327,5.388,9.103c0.233-0.224,0.638-0.44,0.906-0.459    C6.44,8.635,6.601,8.63,6.78,8.63c0.16,0,0.31,0.006,0.451,0.017c0.248,0.019,0.125,0.364-0.273,0.747    c-1.234,1.185-2.517,2.415-3.848,3.691C2.712,13.466,2.51,13.342,2.764,12.852z M2.17,16.518c0-0.673,0.006-1.2,0.041-1.65    c0.042-0.551,0.477-1.297,0.875-1.68c1.351-1.298,2.663-2.558,3.942-3.784c0.398-0.383,1.129-0.641,1.559-0.401    c0.43,0.236,0.36,0.883-0.032,1.272c-1.898,1.884-3.792,3.764-5.676,5.634c-0.392,0.39-0.709,0.684-0.709,0.656    C2.17,16.549,2.17,16.534,2.17,16.518z M2.17,22.89c0-0.552,0.312-1.321,0.698-1.717c1.245-1.276,2.485-2.544,3.72-3.806    c0.387-0.396,0.7-1.052,0.7-1.468s-0.322-0.441-0.718-0.058c-1.118,1.084-2.36,2.287-3.682,3.57    c-0.049,0.048-0.093,0.063-0.14,0.096c0.666-0.635,2.182-2.112,3.824-3.713c0.396-0.385,0.392-0.391-0.008-0.008    c-1.252,1.195-2.555,2.461-3.929,3.79c-0.01,0.01-0.014,0.015-0.023,0.023c-0.26,0.102-0.443-0.077-0.443-0.493    c0-0.01,0-0.018,0-0.027c0-0.554,0.32-1.312,0.716-1.697c1.241-1.208,2.508-2.442,3.8-3.698c0.396-0.386,0.777-1.036,0.998-1.378    c0.162-0.251,0.363-0.399,0.582-0.399c0.539,0,0.976-0.824,0.976-1.843c0-0.074,0.007-0.148,0.02-0.222    c0.021-0.121,0.318,0.144,0.58,0.631c0.118,0.218,0.236,0.448,0.368,0.688c0.268,0.481,0.431,1.291,0.163,1.773    c-0.876,1.579-2.994,3.66-3.643,4.861c-0.451,0.834-0.79,1.712-1.066,2.609c-0.162,0.528-0.586,1.28-0.975,1.674    c-0.605,0.609-1.211,1.222-1.815,1.833c-0.388,0.394-0.702,0.265-0.702-0.287C2.17,23.381,2.17,23.136,2.17,22.89z M2.17,25.928    c0-0.553,0.329-1.305,0.732-1.683c0.528-0.495,1.054-0.992,1.58-1.49c0.401-0.38,0.654-0.376,0.572,0.01    c-0.049,0.232-0.097,0.465-0.143,0.698c-0.088,0.452-0.15,0.915-0.192,1.384c-0.05,0.55-0.384,1.312-0.777,1.7    c-0.354,0.349-0.707,0.699-1.062,1.049c-0.393,0.388-0.711,0.256-0.711-0.296C2.17,26.842,2.17,26.385,2.17,25.928z M2.865,30.09    c0.381-0.394,0.759-0.784,1.137-1.174c0.384-0.398,0.725-0.362,0.782,0.075c0.057,0.437-0.194,1.109-0.579,1.506    c-0.447,0.461-0.894,0.922-1.34,1.383c-0.384,0.396-0.695,0.316-0.695-0.177C2.17,31.209,2.481,30.488,2.865,30.09z M2.877,33.013    C3.251,32.64,3.625,32.266,4,31.894c0.185-0.182,0.369-0.364,0.553-0.546c0.306-0.302,0.606-0.299,0.676,0.004    c0.07,0.303-0.178,0.863-0.567,1.255c-0.596,0.6-1.192,1.198-1.788,1.798c-0.389,0.393-0.704,0.396-0.704,0.013    C2.17,34.033,2.486,33.404,2.877,33.013z M2.136,37.142c-0.003-0.299,0.004-0.602,0.013-0.903    c0.016-0.553,0.338-1.316,0.729-1.706c0.605-0.604,1.213-1.206,1.82-1.811c0.392-0.389,0.834-0.272,1.021,0.246    c0.009,0.024,0.018,0.048,0.026,0.072c0.189,0.519,0.061,1.258-0.316,1.661c-0.845,0.906-1.692,1.811-2.542,2.712    C2.508,37.815,2.142,37.695,2.136,37.142z M10.052,40.373c-0.579,0-1.158,0-1.737,0c-0.552,0-0.937-0.058-0.86-0.126    c0.077-0.069-0.001-0.336-0.087-0.631c-0.051-0.175-0.079-0.357-0.079-0.549c0,0,0-0.047,0-0.104c0-0.059-0.328,0.2-0.731,0.577    c-0.054,0.05-0.108,0.101-0.162,0.15c-0.404,0.377-0.908,0.683-1.126,0.683c-0.132,0-0.264,0-0.396,0    c-0.996,0-1.633-0.27-2.041-0.707c-0.376-0.404-0.159-1.172,0.243-1.552c0.893-0.842,1.796-1.69,2.709-2.548    c0.402-0.379,0.908-0.31,1.154,0.14c0.15,0.272,0.307,0.539,0.472,0.798C7.893,37.321,8.434,38.1,9.03,38.84    C9.326,39.235,11.017,40.373,10.052,40.373z"
   id="path9"
   style="fill:#ffffff" />
		<path
   d="M26.365,8.195c-0.028-0.001-0.056-0.001-0.084,0.001c-0.047,0.004-0.102,0.009-0.123,0.006    c-0.012-0.002-0.024-0.003-0.04-0.003c-9.693,0.372-17.41,7.143-18.539,16.868c-1.238,10.667,8.024,19.035,18.08,19.423    c9.753,0.375,17.702-7.535,18.785-16.873C45.683,16.95,36.42,8.582,26.365,8.195z M13.035,15.897c0.819-1,1.754-1.91,2.781-2.71    c0.435-0.34,0.485-0.277,0.09,0.107c-0.898,0.877-1.819,1.774-2.765,2.697C12.745,16.377,12.685,16.326,13.035,15.897z     M13.034,16.135c1.048-1.022,2.12-2.066,3.034-2.954c0.397-0.385,0.764-0.727,0.822-0.765c0.058-0.038-0.216,0.242-0.613,0.626    c-0.878,0.85-2.01,1.944-3.329,3.223c-0.397,0.385-0.698,0.666-0.674,0.631S12.638,16.521,13.034,16.135z M9.642,23.091    c0.111-0.598,0.258-1.184,0.438-1.757c0.165-0.526,0.643-1.267,1.028-1.66c2.686-2.75,5.35-5.458,7.985-8.121    c0.389-0.393,1.116-0.89,1.635-1.076c0.666-0.238,1.348-0.438,2.043-0.595c0.538-0.122,0.666,0.123,0.277,0.515    c-4.293,4.315-8.58,8.64-12.854,12.971C9.807,23.759,9.541,23.634,9.642,23.091z M27.487,43.17    c-0.091,0.011-0.181,0.016-0.271,0.018c-0.149,0.007-0.618-0.087-1.042-0.23c-0.423-0.145-0.883-0.161-1.037-0.012    c-0.155,0.15-0.729,0.247-1.277,0.177c-0.536-0.069-1.064-0.167-1.581-0.294c-0.537-0.132-0.665-0.571-0.296-0.94    c0.368-0.37,0.45-0.809,0.189-0.99c-0.26-0.182-0.796-0.032-1.204,0.339c-0.06,0.056-0.119,0.109-0.179,0.164    c-0.408,0.372-1.151,0.502-1.645,0.255c-0.447-0.224-0.884-0.469-1.308-0.732c-0.468-0.293-0.516-0.875-0.128-1.269    c0.237-0.239,0.474-0.481,0.711-0.722c0.388-0.394,0.651-0.768,0.588-0.836c-0.062-0.067-0.441,0.181-0.847,0.556    c-0.266,0.246-0.531,0.492-0.797,0.738c-0.405,0.375-0.99,0.487-1.294,0.235c-0.305-0.252-0.211-0.77,0.198-1.141    c0.34-0.31,0.68-0.618,1.021-0.93c0.408-0.372,0.573-0.893,0.38-1.172c-0.193-0.278-0.667-0.206-1.071,0.171    c-0.398,0.371-0.795,0.742-1.193,1.113c-0.403,0.377-1.044,0.362-1.406-0.056c-0.316-0.364-0.618-0.743-0.906-1.134    c-0.328-0.443-0.247-1.125,0.155-1.503c0.419-0.393,0.839-0.788,1.266-1.188c0.197-0.204,0.394-0.405,0.59-0.607    c0.326-0.335,0.495-0.854,0.388-1.164c-0.107-0.31-0.5-0.251-0.89,0.138c-0.237,0.235-0.473,0.472-0.705,0.701    c-0.397,0.428-0.798,0.853-1.198,1.278c-0.379,0.402-0.914,0.351-1.169-0.13c-0.256-0.48-0.123-1.198,0.268-1.588    c0.778-0.775,1.555-1.55,2.336-2.324c0.392-0.389,0.706-0.727,0.702-0.755c-0.004-0.029-0.33,0.259-0.728,0.642    c-0.061,0.059-0.12,0.115-0.175,0.169c-0.399,0.383-1.045,1.004-1.434,1.396c-0.25,0.252-0.5,0.504-0.75,0.756    c-0.389,0.393-0.803,0.499-0.915,0.235c-0.112-0.266,0.122-0.798,0.515-1.186c0.868-0.855,1.736-1.712,2.604-2.566    c0.393-0.389,0.685-0.999,0.667-1.365c-0.018-0.366-0.332-0.342-0.716,0.055c-0.962,0.992-1.925,1.984-2.887,2.978    c-0.384,0.396-0.799,0.415-0.912,0.034c-0.113-0.379,0.121-1.012,0.506-1.407c1.141-1.179,2.265-2.338,3.358-3.465    c0.384-0.396,0.734-1.163,0.818-1.71c0.037-0.239,0.079-0.478,0.126-0.715c0.107-0.542-0.1-0.661-0.493-0.272    c-1.388,1.369-2.787,2.751-4.197,4.144c-0.392,0.389-0.77,0.259-0.804-0.292c-0.025-0.423-0.032-0.842-0.022-1.258    c0.013-0.552,0.384-1.304,0.787-1.681c2.204-2.064,4.391-4.148,6.576-6.271c0.396-0.385,0.961-1.073,1.292-1.517    c1.006-1.353,2.202-2.555,3.549-3.565c0.441-0.332,1.132-0.896,1.522-1.287c0.308-0.31,0.616-0.619,0.924-0.93    c0.389-0.392,0.927-0.733,1.204-0.755c0.167-0.014,0.334-0.024,0.502-0.032c4.411,0.191,8.267,1.813,11.186,4.49    c0.407,0.373,0.638,0.661,0.538,0.614c-0.099-0.047-0.505,0.225-0.908,0.603c-0.109,0.104-0.222,0.208-0.335,0.314    c-0.402,0.377-0.956,0.478-1.247,0.239c-0.292-0.236-0.21-0.716,0.192-1.084c0.403-0.368,0.66-0.688,0.573-0.713    c-0.087-0.022-0.447,0.252-0.805,0.615s-0.874,0.493-1.162,0.302s-0.324-0.545-0.07-0.805c0.254-0.261,0.441-0.477,0.418-0.481    c-0.014-0.003-0.028-0.007-0.043-0.009c-0.094-0.015-0.186-0.021-0.275-0.023c-0.151-0.005-0.443,0.169-0.649,0.367    c-0.207,0.2-0.526,0.274-0.717,0.166c-0.113-0.065-0.229-0.13-0.35-0.188c-1.259-0.606-8.136-2.37-6.892,1.31    c0.484,1.436,4.265,1.824,5.376,2.418c2.664,1.423,4.311,4.138,4.956,7.004c0.292,1.069,1.022,2.816,2.509,2.312    c1.275-0.431,2.13-1.342,1.858-2.835c-0.479-2.637-1.637-4.966-3.332-6.854c-0.368-0.411-0.647-0.701-0.589-0.682    s0.435-0.265,0.841-0.639c0.108-0.102,0.222-0.204,0.335-0.311c0.405-0.374,0.94-0.456,1.184-0.174    c0.243,0.283,0.122,0.808-0.258,1.16s-0.43,0.783-0.124,0.982s0.771,0.163,1.058-0.103s0.771-0.11,1.048,0.366    c0.056,0.094,0.108,0.188,0.162,0.282c0.27,0.481,0.35,0.999,0.206,1.14s-0.251,0.264-0.241,0.275    c0.011,0.013,0.133-0.091,0.273-0.229s0.147-0.131,0.009,0.01c-0.139,0.142-0.224,0.29-0.185,0.339    c0.038,0.049,0.176-0.016,0.309-0.142c0.132-0.127,0.37,0.043,0.517,0.386c0.146,0.343,0.196,0.682,0.126,0.75    c-0.071,0.068-0.121,0.138-0.112,0.152c0.009,0.016,0.074-0.022,0.144-0.085c0.071-0.062,0.292,0.305,0.464,0.829    c0.248,0.755,0.455,1.535,0.612,2.344C44.2,33.398,36.698,42.101,27.487,43.17z M35.276,18.513    c0.858,1.002,1.474,2.185,1.979,3.396c0.269,0.646,0.431,1.327,0.593,2.005c0.656,2.755-0.232,0.722-0.379,0.184    c-0.549-2.442-1.702-4.468-3.532-6.183c-0.731-0.686-1.589-1.203-2.468-1.673c-0.466-0.249-1.005-0.437-1.498-0.619    c-0.115-0.034-0.229-0.068-0.344-0.104c-0.19-0.057-0.898-0.007-1.244-0.435c-0.346-0.431,0.188-0.871,0.719-0.721    C31.533,15.054,33.642,16.604,35.276,18.513z"
   id="path11"
   style="fill:#ffffff" />
	</g>
</g>
<g
   id="g13">
</g>
<g
   id="g15">
</g>
<g
   id="g17">
</g>
<g
   id="g19">
</g>
<g
   id="g21">
</g>
<g
   id="g23">
</g>
<g
   id="g25">
</g>
<g
   id="g27">
</g>
<g
   id="g29">
</g>
<g
   id="g31">
</g>
<g
   id="g33">
</g>
<g
   id="g35">
</g>
<g
   id="g37">
</g>
<g
   id="g39">
</g>
<g
   id="g41">
</g>
</svg>