<?xml version="1.0" encoding="utf-8"?>
<!-- Generator: Adobe Illustrator 17.0.0, SVG Export Plug-In . SVG Version: 6.00 Build 0)  -->
<!DOCTYPE svg PUBLIC "-//W3C//DTD SVG 1.1//EN" "http://www.w3.org/Graphics/SVG/1.1/DTD/svg11.dtd">
<svg version="1.1" id="Capa_1" xmlns="http://www.w3.org/2000/svg" xmlns:xlink="http://www.w3.org/1999/xlink" x="0px" y="0px"
	 width="200px" height="200px" viewBox="0 0 200 200" enable-background="new 0 0 200 200" xml:space="preserve">
<g>
	<path d="M196.975,164.93c-23.618-1.415-46.828-3.053-70.546-2.832c-21.626,0.202-43.251,0.827-64.875,0.913
		c-12.114,0.047-24.037-1.524-35.97-1.884c-3.336-47.446,2.245-94.554,2.512-142.045c0.013-2.233-3.434-2.23-3.46,0
		c-0.549,47.291-7.353,94.866-1.924,142.02c-6.385-0.078-12.776,0.216-19.207,1.4c-1.081,0.199-0.836,2.011,0.259,1.918
		c6.456-0.546,12.899-0.505,19.34-0.226c0.198,1.562,0.369,3.126,0.595,4.686c0.202,1.396,2.589,1.068,2.462-0.333
		c-0.128-1.415-0.218-2.828-0.33-4.242c11.896,0.641,23.786,2.033,35.723,2.305c21.565,0.492,43.302-0.558,64.875-0.822
		c15.716-0.192,31.388-0.064,47.064,1.071c7.048,0.51,16.979,3.127,23.863,0.88C198.915,167.231,198.592,165.028,196.975,164.93z"/>
	<path d="M187.287,19.664c-8.603,4.175-17.704,7.104-26.541,10.719c-1.244,0.509-1.965,2.084-0.834,3.16
		c2.142,2.038,4.482,4.094,6.915,6.037c-6.547,6.732-13.729,12.666-21.278,18.636c-15.94,12.607-30.247,27.242-47.643,37.906
		C87.238,85.765,79.075,72.191,66.467,63.999c-0.22-0.976-1.58-1.561-2.499-0.751c-6.286,5.537-11.681,12.523-17.447,18.634
		c-5.325,5.643-10.743,11.272-15.34,17.537c-0.801,1.093,0.942,2.376,1.848,1.426c5.875-6.159,11.674-12.365,17.677-18.404
		c5.049-5.078,10.777-10.235,14.755-16.267c11.154,10.08,19.558,22.5,30.37,32.907c0.777,0.747,1.734,0.571,2.37,0.025
		c0.105-0.026,0.206-0.033,0.314-0.086c17.923-8.801,31.725-23.753,47.173-36.067c6.551-5.221,18.093-12.179,25.316-20.225
		c0.457,0.321,0.921,0.592,1.381,0.899c-0.166,0.407-0.362,0.798-0.503,1.217c-0.663,1.958,2.415,3.259,3.338,1.407
		c0.105-0.209,0.201-0.421,0.305-0.631c0.524,0.427,1.04,0.861,1.584,1.264c1.016,0.755,2.272-0.102,2.646-1.076
		c3.119-8.145,7.178-15.885,10.264-24.045C190.65,20.094,188.601,19.026,187.287,19.664z"/>
	<path d="M51.135,107.636c-0.262-1.467-2.559-1.389-2.877,0c-0.051,0.223-0.076,0.458-0.124,0.683
		c-4.03,0.072-7.923-0.137-11.896-0.988c-1.915-0.411-2.525,2.149-0.789,2.862c3.809,1.565,7.93,1.766,12.004,1.886
		c-0.8,5.33-1.073,10.873-1.719,16.142c-0.909,7.407-1.599,15.095-0.544,22.536c-0.039-0.01-0.061-0.035-0.102-0.043
		c-4.196-0.841-8.442-1.112-12.661-0.38c0.705-8.046,1.209-16.121,1.712-24.178c0.251-4.014,2.65-13.423-0.265-16.881
		c-0.8-0.949-2.24-0.126-2.284,0.946c-0.569,13.933-3.349,28.299-2.364,42.288c0.117,1.672,2.013,1.813,2.713,0.654
		c0.087,0.01,0.164,0.04,0.26,0.031c4.074-0.369,7.92,0.341,11.9,1.109c0.69,0.133,1.243-0.103,1.649-0.485
		c0.542,1.008,2.362,0.711,2.286-0.58c-0.496-8.425,0.365-16.661,1.39-25.016C50.227,121.666,52.308,114.212,51.135,107.636z"/>
	<path d="M79.1,91.351c0.709-0.357,1.186-1.083,0.841-2.045c-2.069-5.766-9.531-5.526-14.499-6.274
		c-1.512-0.227-2.485,1.132-2.4,2.272c-0.724-0.877-2.256-0.303-2.28,0.855c-0.46,22.196-3.581,44.882-3.085,67.077
		c0.043,1.943,2.895,1.922,2.999,0c0.672-12.473,2.235-24.851,3.389-37.283c0.815-8.779,3.2-21.118-0.51-29.638
		c0.219,0.193,0.488,0.351,0.87,0.41c3.747,0.585,8.742,0.279,11.456,3.289c-0.697,20.429-2.299,41.683-1.102,62.122
		c-0.101-0.016-0.18-0.06-0.291-0.062c-2.421-0.027-4.839-0.012-7.26-0.081c-1.226-0.035-2.457-0.081-3.669-0.285
		c-0.43-0.072-2.238-0.216-1.744,0.348c-0.483-0.551-1.375,0.161-1.002,0.774c0.412,0.676,0.174,1.356,1.017,1.849
		c0.974,0.571,2.359,0.634,3.451,0.769c3.046,0.376,6.139,0.443,9.206,0.41c0.754-0.008,1.246-0.386,1.534-0.883
		c0.481-0.04,0.946-0.36,1.001-1.009C78.703,133.891,81.947,111.494,79.1,91.351z"/>
	<path d="M102.217,117.831c-0.43-1.312-2.716-1.615-2.966,0c-0.043,0.28-0.038,0.574-0.072,0.857
		c-0.219-0.092-0.465-0.153-0.752-0.153c-1.677,0-3.35,0.083-5.026,0.149c-1.526,0.061-4.235-0.323-5.578,0.516
		c-0.244,0.153-0.413,0.36-0.527,0.589c-0.43-0.845-1.889-0.954-2.312-0.045c-2.213,4.745-1.886,10.909-2.01,16.059
		c-0.143,5.944,0.296,12.042,1.925,17.779c0.141,0.497,0.559,0.715,1.005,0.807c0.081,1.139,1.211,2.163,2.54,1.425
		c0.85-0.472,3.476,0.088,4.651,0.273c1.31,0.206,2.804,0.587,4.029-0.084c0.357-0.196,0.535-0.497,0.631-0.822
		c0.21-0.108,0.401-0.261,0.529-0.517c2.649-5.328,3.531-11.22,4.159-17.082C103.081,131.626,104.116,123.629,102.217,117.831z
		 M96.002,152.755c-1.017-0.345-2.216-0.421-3.128-0.52c-1.643-0.178-3.839-0.434-5.487,0.259c-0.697-5.561-0.889-11.08-0.749-16.69
		c0.118-4.726,1.267-9.746,0.887-14.464c0.094,0.109,0.166,0.232,0.298,0.314c1.26,0.787,3.746,0.443,5.176,0.5
		c1.81,0.072,3.618,0.165,5.429,0.165c0.192,0,0.343-0.059,0.505-0.102c-0.054,3.764,0.325,7.646,0.203,11.324
		C98.918,140.07,98.038,146.547,96.002,152.755z"/>
	<path d="M126.355,99.283c-0.241-1.908-2.542-1.937-3.007-0.231c-0.416,0.052-0.832,0.124-1.236,0.17
		c-1.319,0.152-2.647,0.228-3.971,0.3c-1.177,0.064-2.351,0.17-3.518,0.345c-0.464,0.069-0.989,0.128-1.404,0.371
		c-0.049,0.029-0.127,0.084-0.204,0.143c-0.186-0.112-0.355-0.245-0.615-0.264c-1.702-0.128-2.427,1.173-2.305,2.509
		c-0.175,0.27-0.29,0.596-0.239,1.031c1.942,16.502,0.39,33.044,1.429,49.579c0.044,0.699,0.548,1.041,1.064,1.061
		c0.609,1.003,1.351,1.77,2.639,2.269c1.643,0.637,3.781,0.344,5.393-0.215c4.015-1.391,5.915-5.195,5.643-9.174
		c1.098-5.463,0.051-12.902,0.16-17.438C126.419,119.786,127.605,109.173,126.355,99.283z M122.568,129.74
		c-0.068,4.517-1.376,12.026-0.372,17.509c0.32,2.497-0.854,4.654-3.222,5.577c-1.478,0.576-3.98,0.488-5.392-0.546
		c1.186-16.161,1.872-32.506-0.097-48.622c-0.055-0.445-0.258-0.779-0.512-1.052c0.063-0.037,0.107-0.085,0.161-0.128
		c0.354,0.215,0.855,0.473,1.089,0.518c1.283,0.243,2.618,0.244,3.918,0.24c1.236-0.003,3.096,0.084,4.773-0.144
		C122.196,111.877,122.698,120.998,122.568,129.74z"/>
	<path d="M161.39,75.952c0.232-1.86-2.624-2.067-3.142-0.425c-0.082,0.26-0.143,0.528-0.222,0.79
		c-6.023,1.019-11.908-0.153-17.921-0.755c-1.091-0.109-1.734,0.931-1.848,1.848c-0.353,2.844-0.771,5.581-0.28,8.364
		c-4.656,21.471-3.92,46.001-1.052,67.462c0.15,1.126,1.636,1.24,1.89,0.238c0.179,0.369,0.47,0.684,0.89,0.838
		c3.296,1.212,7.114,1.005,10.567,0.908c2.412-0.068,6.632,0.365,8.403-1.641c0.006-0.007,0.004-0.015,0.01-0.021
		c0.44-0.13,0.83-0.431,0.863-1.05C160.893,126.814,158.183,101.621,161.39,75.952z M156.35,83.399
		c-0.948-0.971-1.843-1.988-2.76-2.989c1.112-0.014,2.221,0.008,3.339-0.106C156.684,81.314,156.552,82.371,156.35,83.399z
		 M151.431,80.453c1.354,1.866,2.803,3.781,4.453,5.437c-0.134,0.804-0.331,1.581-0.448,2.391c-1.405-1.088-2.87-2.13-4.147-3.361
		c-1.643-1.584-3.225-3.228-4.842-4.838C148.109,80.264,149.768,80.394,151.431,80.453z M141.403,79.444
		c1.091,0.156,2.177,0.302,3.263,0.439c1.826,2.064,3.546,4.22,5.399,6.262c1.334,1.469,3.114,3.545,5.088,4.578
		c-0.166,1.39-0.365,2.767-0.483,4.174c-3.422-1.929-12.096-12.184-13.445-13.503c-0.082-0.08-0.172-0.082-0.26-0.103
		C141.093,80.672,141.224,80.055,141.403,79.444z M154.551,96.2c-0.153,2.091-0.266,4.195-0.324,6.314
		c-2.183-1.669-4.43-3.209-6.439-5.172c-2.354-2.299-4.497-4.81-6.674-7.276c0.161-2.16,0.333-4.323,0.541-6.491
		C144.491,86.926,150.982,94.675,154.551,96.2z M140.976,91.787c2.057,2.528,4.113,5.055,6.349,7.432
		c1.879,1.996,4.254,4.318,6.892,5.442c-0.025,1.814-0.055,3.628-0.025,5.453c-2.01-1.295-3.907-2.995-5.532-4.286
		c-2.643-2.098-5.284-4.314-8.183-6.072C140.626,97.103,140.789,94.447,140.976,91.787z M140.409,101.01
		c3.399,2.234,6.42,5.07,9.522,7.668c1.238,1.037,2.707,2.423,4.308,3.358c0.077,3.009,0.204,6.024,0.385,9.032
		c-2.033-1.705-4.287-3.227-6.159-5.142c-2.845-2.911-5.417-6.1-8.384-8.89C140.174,105.03,140.301,103.018,140.409,101.01z
		 M139.985,109.022c2.411,2.715,4.797,5.456,7.262,8.121c1.937,2.094,4.624,5.311,7.538,6.464c0.099,1.477,0.198,2.955,0.311,4.424
		c-2.881-2.164-5.663-4.1-8.24-6.758c-2.365-2.44-4.652-4.948-7.11-7.292C139.81,112.329,139.913,110.674,139.985,109.022z
		 M139.668,115.889c2.329,2.388,4.545,4.883,6.797,7.346c2.196,2.402,5.336,6.134,8.757,6.646c0.004,0,0.007-0.003,0.011-0.002
		c0.187,2.324,0.384,4.636,0.584,6.925c-0.932-0.661-1.949-1.213-2.895-1.866c-1.904-1.313-3.567-3.005-5.194-4.636
		c-2.893-2.901-5.537-6.04-8.282-9.08C139.497,119.445,139.605,117.666,139.668,115.889z M150.272,151.362
		c-3.351,0.151-6.805,0.208-10.144-0.174c-0.57-0.065-0.957,0.154-1.205,0.487c0.009-2.63,0.048-5.232,0.069-7.849
		c1.222,1.39,2.505,2.72,3.941,3.911c1.378,1.142,3.479,3.011,5.397,2.597c0.573-0.124,0.733-0.894,0.339-1.285
		c-1.194-1.188-3.23-1.739-4.647-2.722c-1.855-1.287-3.494-2.891-5.011-4.567c0.013-1.328,0.045-2.647,0.062-3.972
		c1.942,2.529,3.948,5.002,6.165,7.311c1.984,2.066,4.565,4.516,7.37,6.072C151.825,151.244,151.04,151.327,150.272,151.362z
		 M146.639,143.696c-2.738-2.481-5.15-5.308-7.533-8.137c0.022-1.564,0.067-3.122,0.096-4.684
		c3.674,4.323,15.09,17.051,16.845,13.982c0.344-0.601-0.376-1.439-0.999-0.999c-0.037,0.025-6.475-5.754-7.35-6.571
		c-2.902-2.71-5.785-5.5-8.455-8.443c0.04-1.965,0.104-3.926,0.156-5.889c2.574,3.158,5.095,6.36,7.855,9.363
		c2.079,2.262,5.398,6.054,8.721,6.31c0.363,4.135,0.721,8.221,1.012,12.16C153.484,148.371,149.883,146.636,146.639,143.696z"/>
	<path d="M40.505,169.727c-0.28-0.765-1.505-1.159-1.925-0.252c-0.85,1.835-1.022,4.104-1.572,6.082
		c-0.377,1.357,1.54,1.79,2.047,0.564C39.861,174.169,41.283,171.85,40.505,169.727z"/>
	<path d="M68.098,173.478c-0.442-0.537-1.351-0.457-1.806,0c-0.8,0.804-0.711,2.105-0.877,3.158
		c-0.094,0.594-0.198,1.185-0.312,1.776c-0.092,0.479-0.447,1.384,0.084,1.079c-0.242,0.151-0.43,0.369-0.396,0.723
		c0.002,0.023,0.004,0.045,0.007,0.068c0.07,0.726,0.751,1.174,1.431,0.821c0.868-0.451,1.264-2.037,1.554-2.856
		C68.299,176.794,69.208,174.829,68.098,173.478z"/>
	<path d="M95.575,177.662c-0.068-0.913,0.48-1.641,0.402-2.552c-0.084-0.982-1.088-1.364-1.838-0.761
		c-2,1.608-0.772,5.454,1.364,6.325c0.357,0.146,0.662-0.269,0.587-0.587C95.896,179.281,95.638,178.496,95.575,177.662z"/>
	<path d="M117.697,171.654c-0.341-0.701-1.503-0.695-1.846,0c-0.807,1.637-0.199,3.606-0.755,5.382
		c-0.333,1.064,1.277,1.747,1.799,0.758C117.794,176.09,118.58,173.47,117.697,171.654z"/>
	<path d="M148.508,171.158c-0.158-0.509-0.583-0.823-1.112-0.847c-2.591-0.114-2.636,5.289-2.55,6.986
		c0.073,1.437,2.022,1.372,2.184,0c0.145-1.228,0.498-2.453,0.876-3.627C148.179,172.823,148.797,172.085,148.508,171.158z"/>
</g>
</svg>
