<?xml version="1.0" encoding="utf-8"?>
<!-- Generator: Adobe Illustrator 16.0.0, SVG Export Plug-In . SVG Version: 6.00 Build 0)  -->
<!DOCTYPE svg PUBLIC "-//W3C//DTD SVG 1.1//EN" "http://www.w3.org/Graphics/SVG/1.1/DTD/svg11.dtd">
<svg version="1.1" id="Layer_1" xmlns="http://www.w3.org/2000/svg" xmlns:xlink="http://www.w3.org/1999/xlink" x="0px" y="0px"
	 width="96px" height="96px" viewBox="0 0 96 96" enable-background="new 0 0 96 96" xml:space="preserve">
<g>
	<polygon points="50.589,94.818 93.25,72.624 93.25,60.904 50.608,82.84 	"/>
	<path d="M50.589,39.806v39.762l11.804-23.194l7.869,12.218l8.284-16.774l7.041,8.284l7.663-4.333V20.338L50.589,39.806z
		 M89.359,36.511c-0.621,3.049-3.037,5.131-5.397,4.651c-2.36-0.48-3.771-3.34-3.15-6.389c0.62-3.049,3.036-5.132,5.396-4.652
		C88.568,30.602,89.979,33.462,89.359,36.511z"/>
	<polygon points="2.75,60.904 2.75,72.624 45.411,94.818 45.392,82.84 	"/>
	<path d="M2.75,55.768l7.663,4.333l7.041-8.284l8.284,16.774l7.87-12.218l11.804,23.194V39.806L2.75,20.338V55.768z M9.792,30.122
		c2.36-0.48,4.776,1.603,5.396,4.652c0.62,3.049-0.791,5.909-3.151,6.389c-2.36,0.48-4.776-1.602-5.396-4.651
		C6.021,33.462,7.432,30.602,9.792,30.122z"/>
	<polygon points="48.155,1.182 6.063,15.472 47.896,33.551 89.626,14.851 	"/>
</g>
</svg>
