<?xml version="1.0" encoding="utf-8"?>
<!-- Generator: Adobe Illustrator 17.0.0, SVG Export Plug-In . SVG Version: 6.00 Build 0)  -->
<!DOCTYPE svg PUBLIC "-//W3C//DTD SVG 1.1//EN" "http://www.w3.org/Graphics/SVG/1.1/DTD/svg11.dtd">
<svg version="1.1" id="Capa_1" xmlns="http://www.w3.org/2000/svg" xmlns:xlink="http://www.w3.org/1999/xlink" x="0px" y="0px"
	 width="200px" height="200px" viewBox="0 0 200 200" enable-background="new 0 0 200 200" xml:space="preserve">
<g>
	<path d="M81.484,23.309c0.306-3.066-2.416-4.671-5.017-4.564c-0.167-1.116-0.708-2.2-1.777-2.902
		c-3.78-2.483-9.917-1.587-14.304-1.897c-6.256-0.441-12.504-0.888-18.78-0.836c-4.141,0.036-8.142,0.555-11.091,2.262
		c-1.073-1.769-2.266-3.431-3.731-4.837c-2.484-2.383-6.17-0.559-6.415,2.657c-0.846,11.139,2.566,22.516,2.192,33.965
		c-0.61,18.71-3.948,37.361-6.492,55.872c-2.25,16.375-4.867,33.613-4.867,50.602c-0.006-0.006-0.012-0.012-0.019-0.017
		c-1.645-1.494-3.975,0.815-2.442,2.442c0.815,0.864,1.67,1.752,2.546,2.65c0.31,9.427,1.51,18.745,4.165,27.757
		c1.664,5.644,8.724,3.724,9.197-1.262c4.916,3.284,15.86,1.675,20.831,1.899c8.733,0.395,18.602,2.619,27.21,1.49
		c0.347-0.045,0.691-0.16,1.026-0.312c0.879-0.261,1.636-0.868,2.041-1.83c0.392-0.674,0.539-1.424,0.35-2.152
		C79.193,130.546,76.132,77.033,81.484,23.309z M49.796,21.616c5.794,0.538,15.542,3.656,22.02,2.16
		c-1.22,5.754-2.203,11.587-3.029,17.471c-3.501-2.473-7.425-4.569-10.807-6.849c-5.926-3.994-11.437-8.449-16.652-13.309
		C44.158,21.173,46.987,21.356,49.796,21.616z M36.165,21.091c-0.083,0.572,0.061,1.181,0.601,1.72
		c5.656,5.637,11.788,10.738,18.094,15.63c4.043,3.136,8.34,7.019,13.048,9.494c-0.312,2.641-0.596,5.289-0.851,7.946
		c-5.224-3.733-11.111-6.699-16.313-10.485c-5.413-3.94-10.406-8.464-15.095-13.264c-0.417-3.787-1.128-7.388-2.245-10.665
		C34.328,21.314,35.251,21.151,36.165,21.091z M66.522,61.318c-0.346,4.32-0.62,8.66-0.826,13.015
		c-10.469-6.582-20.657-13.438-30.089-21.416c0.381-4.571,0.575-9.175,0.48-13.646c2.975,2.946,6.06,5.784,9.301,8.492
		C51.523,52.885,58.755,58.834,66.522,61.318z M35.043,58.784c9.572,8,19.885,15.053,30.382,21.837
		c-0.216,6.602-0.294,13.23-0.255,19.867c-5.637-1.801-13.211-8.282-15.936-10.266c-5.779-4.21-11.223-8.837-16.678-13.45
		C33.375,71.394,34.319,65.202,35.043,58.784z M31.425,84.65c0.131-1.038,0.284-2.145,0.449-3.296
		c6.594,5.712,13.18,11.44,20.147,16.693c2.952,2.227,8.323,6.417,13.221,7.373c0.091,6.618,0.252,13.237,0.517,19.842
		c-5.993-4.295-12.628-7.725-18.47-12.382c-6.134-4.889-11.875-10.278-17.545-15.712C30.32,92.994,30.898,88.822,31.425,84.65z
		 M29.134,101.673c4.849,4.939,9.755,9.818,14.905,14.456c6,5.403,13.769,12.88,21.922,14.484
		c0.248,5.412,0.532,10.811,0.848,16.184c-7.822-5.87-16.666-10.063-24.353-16.363c-5.443-4.462-10.412-9.393-15.3-14.415
		C27.795,111.235,28.468,106.454,29.134,101.673z M26.638,119.885c4.826,5.423,9.965,10.579,15.383,15.383
		c6.822,6.049,15.105,13.143,24.14,15.161c0.342,0.076,0.595-0.025,0.862-0.096c0.306,5.02,0.627,10.021,0.958,14.984
		c-15.441-9.739-29.621-19.546-42.886-32.323C25.547,128.622,26.076,124.253,26.638,119.885z M24.45,181.195
		c-0.432-3.694-0.692-7.383-0.871-11.069c3.963,3.274,8.179,6.321,12.534,8.816C31.51,178.917,27.036,179.362,24.45,181.195z
		 M50.023,179.621c-5.435-3.124-11.409-5.508-16.77-8.795c-3.403-2.087-6.647-4.421-9.81-6.863c-0.05-3.354-0.01-6.706,0.1-10.056
		c8.263,9.313,18.088,18.897,28.862,25.649C51.604,179.581,50.76,179.62,50.023,179.621z M65.82,179.656
		c-7.107-4.088-14.289-7.882-21.021-12.8c-7.582-5.54-14.387-12.057-20.952-18.765c0.18-3.183,0.508-6.36,0.789-9.54
		c11.971,13.363,27.486,26.952,43.789,33.401c0.184,2.721,0.367,5.439,0.548,8.137C67.966,179.863,66.886,179.773,65.82,179.656z"/>
	<path d="M178.902,16.245c-1.514-1.904-4.516-1.45-6.157,0.149c-7.65-1.169-15.902-0.178-23.589-0.303
		c-10.557-0.171-21.149-0.988-31.703-0.399c-2.514-1.578-6.287-0.46-6.738,3.57c-0.653,5.845-0.905,11.778-0.935,17.75
		c-0.623-0.315-1.217-0.678-1.845-0.985c-1.922-0.941-3.597,1.833-1.691,2.893c1.201,0.669,2.35,1.423,3.536,2.118
		c0.143,11.338,1.065,22.803,1.948,34.14c-0.733-0.257-1.458-0.539-2.196-0.776c-1.953-0.628-2.72,2.355-0.837,3.036
		c1.128,0.407,2.21,0.877,3.302,1.333c0.407,5.332,0.79,10.637,1.045,15.87c0.363,7.443,0.594,14.871,0.707,22.292
		c-1.794-0.504-3.263,1.934-1.422,2.904c0.486,0.256,0.939,0.548,1.421,0.809c0.054,5.737,0.092,11.473-0.009,17.204
		c-0.2,0.45-0.229,0.971-0.047,1.461c-0.252,12.534-0.858,25.061-1.991,37.602c-1.316,0.947-1.552,3.16-0.326,4.231
		c-0.389,3.966,5.658,4.999,7.159,1.768c9.635,1.966,19.208,4.027,29.003,5.262c7.022,0.885,16.371,1.748,23.22-1.502
		c-0.013,0.18-0.029,0.359-0.041,0.539c-0.235,3.563,5.385,4.27,6.185,0.837c0.239-1.026,0.437-2.068,0.667-3.097
		c1.703,0.474,2.817-1.88,1.637-3.078c-0.26-0.264-0.546-0.504-0.811-0.762c5.995-28.348,8.702-57.884,10.312-86.661
		C189.948,72.255,193.867,35.076,178.902,16.245z M145.283,24.58c8.765,0.571,18.397,2.661,27.224,1.569
		c0.686,5.304,1.364,10.54,2.005,15.743c-9.136-6.507-20.323-11.57-30.331-14.937c-3.104-1.044-4.33,3.736-1.336,4.847
		c11.996,4.454,21.506,12.867,32.635,18.509c0.254,2.22,0.535,4.448,0.766,6.667c-6.709-4.237-13.991-7.753-20.767-11.758
		c-11.185-6.611-21.758-13.962-31.961-21.939C130.769,23.754,138.034,24.108,145.283,24.58z M144.679,45.236
		c10.039,6.735,20.904,14.469,32.309,19.118c0.387,4.409,0.707,8.834,0.924,13.303c-9.274-5.019-18.575-9.794-27.536-15.658
		c-9.328-6.104-18.535-12.356-28.083-18.057c-0.508-5.632-1.113-11.154-1.739-16.645C128.192,33.794,136.342,39.643,144.679,45.236z
		 M144.018,178.597c-8.119-0.348-16.217-1.172-24.329-1.744c0.804-4.717,1.433-9.556,2.051-14.397c2.5,2.469,5.16,4.77,8.013,6.928
		c4.357,3.296,9.946,7.591,15.438,9.19C144.8,178.566,144.41,178.613,144.018,178.597z M148.874,178.498
		c0.799-0.691,1.078-1.888,0.103-2.824c-4.181-4.008-10.498-6.038-15.443-9.089c-4.07-2.511-7.765-5.484-11.152-8.804
		c0.407-3.537,0.693-7.137,1.009-10.722c7.646,5.798,15.29,11.6,22.933,17.405c5.469,4.155,11.033,8.774,16.901,12.79
		C158.475,177.64,153.689,178.284,148.874,178.498z M171.645,175.31c-7.232-5.523-15.413-10.167-22.726-15.288
		c-8.363-5.857-16.677-11.789-25.095-17.568c0.39-5.056,0.692-10.15,0.918-15.268c7.266,4.673,14.21,9.772,21.062,15.247
		c8.654,6.914,16.983,15.405,26.996,20.291c0.012,0.006,0.024,0.005,0.037,0.01C172.426,166.925,172.003,171.115,171.645,175.31z
		 M173.324,157.578c-7.496-7.001-16.411-12.819-24.528-19.023c-7.652-5.849-15.538-11.39-23.913-16.087
		c0.169-4.865,0.25-9.75,0.286-14.64c14.871,13.857,31.641,28.693,49.565,35.894C174.267,148.34,173.79,152.959,173.324,157.578z
		 M175.278,138.146c-8.188-5.904-17.194-10.838-25.423-16.692c-8.485-6.036-16.658-12.522-24.685-19.17
		c-0.013-5.581-0.151-11.159-0.317-16.727c18.221,11.625,32.351,28.716,51.659,38.941
		C176.119,129.049,175.726,133.6,175.278,138.146z M177.019,118.563c-16.109-13.213-33.329-28.154-52.3-37.808
		c-0.189-5.068-0.44-10.118-0.742-15.143c8.907,6.644,17.831,13.264,26.866,19.729c8.091,5.789,17.397,14.336,27.104,18.152
		C177.706,108.524,177.407,113.548,177.019,118.563z M153.49,80.813c-9.961-6.628-19.886-13.312-29.844-19.946
		c-0.263-3.933-0.612-7.8-0.934-11.688c8.427,5.664,16.642,11.664,24.914,17.524c8.942,6.334,19.485,15.205,30.544,18.661
		c0.079,3.607,0.108,7.237,0.03,10.926C170.315,90.724,161.393,86.072,153.49,80.813z"/>
</g>
</svg>
