<?xml version="1.0" encoding="utf-8"?>
<!-- Generator: Adobe Illustrator 17.0.0, SVG Export Plug-In . SVG Version: 6.00 Build 0)  -->
<!DOCTYPE svg PUBLIC "-//W3C//DTD SVG 1.1//EN" "http://www.w3.org/Graphics/SVG/1.1/DTD/svg11.dtd">
<svg version="1.1" id="Capa_1" xmlns="http://www.w3.org/2000/svg" xmlns:xlink="http://www.w3.org/1999/xlink" x="0px" y="0px"
	 width="200px" height="200px" viewBox="0 0 200 200" enable-background="new 0 0 200 200" xml:space="preserve">
<g>
	<path d="M164.109,60.139c3.975-5.01,7.795-10.102,11.276-15.387c0.393-0.596,0.043-1.272-0.509-1.549
		c1.077,0.17,2.07-1.134,1.11-1.994c-8.674-7.773-21.716-11.186-32.333-15.429c-16.705-6.676-32.54-15.539-49.126-22.586
		c-0.318-0.853-1.395-1.407-2.206-0.544c-15.308,16.283-26.672,35.684-40.632,53.07C37.81,73.003,22.724,89.237,13.082,109.407
		c-0.228-0.093-0.454-0.198-0.681-0.29c-0.874-0.355-1.454,1.08-0.636,1.51c0.392,0.206,0.791,0.409,1.184,0.615
		c0.164,0.17,0.345,0.263,0.57,0.297c8.308,4.359,16.694,8.672,25.112,12.945c-3.225,3.066-5.189,8.478-7.158,12.267
		c-3.213,6.185-6.523,12.291-10.35,18.121c-0.532,0.811,0.485,1.693,1.232,1.339c26.295,14.225,52.588,28.523,80.325,39.787
		c1.087,0.442,1.783-0.422,1.808-1.35c0.287,0.005,0.574-0.072,0.786-0.36c14.177-19.286,27.951-38.877,41.565-58.565
		c13.608-19.679,29.372-37.36,40.239-58.823c0.185-0.116,0.358-0.272,0.494-0.506C192.952,67.159,174.441,62.667,164.109,60.139z
		 M14.98,110.215c11.011-18.947,24.824-35.586,38.808-52.396C67.965,40.777,79.391,21.733,93.959,4.974
		c14.746,7.321,29.255,15.294,44.275,22.024c12.112,5.426,24.483,9.715,36.162,16.112c-0.096-0.001-0.186-0.041-0.284-0.015
		c-11.266,3.043-26.819,30.686-32.79,38.84c-10.126,13.825-19.193,28.186-28.233,42.724c-2.643,4.25-15.882,18.977-15.079,22.681
		c-0.314-1.445-2.415-1.037-2.477,0.335c-0.012,0.258-0.023,0.517-0.035,0.775c-0.007,0.156,0.066,0.294,0.119,0.437
		c-0.083-0.077-0.155-0.158-0.272-0.222C69.379,134.661,42.3,121.438,14.98,110.215z M103.775,193.242
		c-0.094-0.064-0.169-0.141-0.283-0.189c-27.326-11.314-53.136-25.671-79.88-38.223c3.666-4.629,6.628-9.743,9.5-14.896
		c2.475-4.442,6.23-9.39,7.859-14.275c17.514,8.852,35.221,17.426,53.077,25.221c1.127,0.492,2.145-0.586,1.909-1.483
		c0.432,0.406,1.076,0.599,1.589,0.228c14.508-10.482,23.254-32.199,32.756-46.618c9.548-14.488,21.422-27.476,32.287-40.986
		c8.102,2.535,22.601,6.872,22.756,11.572c-0.167,0.131-0.316,0.308-0.433,0.546C163.927,116.706,129.283,153.184,103.775,193.242z"
		/>
	<path d="M99.244,126.091c-20.327-8.714-40.593-20.02-62.455-24.353c-0.628-0.124-0.9,0.814-0.267,0.967
		c21.946,5.317,40.592,18.637,62.182,24.666C99.45,127.58,99.987,126.41,99.244,126.091z"/>
	<path d="M104.897,118.996c-17.765-11.406-40.79-22.522-61.849-25.529c-0.466-0.067-0.684,0.617-0.2,0.725
		c22.218,4.966,40.712,17.71,61.418,26.3C105.159,120.863,105.641,119.474,104.897,118.996z"/>
	<path d="M114.059,111.184C94.287,99.918,71.933,93.976,52.303,82.19c-0.588-0.353-1.07,0.521-0.529,0.904
		c18.394,13.028,40.775,21.337,61.545,29.842C114.344,113.355,114.98,111.709,114.059,111.184z"/>
	<path d="M115.532,101.266c-10.605-6.867-22.806-12.002-34.151-17.505c-4.493-2.179-16.951-10.774-22.417-9.061
		c-0.319,0.1-0.188,0.567,0.137,0.498c2.11-0.448,7.797,3.478,9.637,4.385c5.346,2.636,10.655,5.34,15.945,8.087
		c9.849,5.114,19.556,11.075,29.733,15.506C115.699,103.736,116.756,102.059,115.532,101.266z"/>
	<path d="M123.804,92.379c-9.782-5.897-20.366-10.881-30.528-16.117c-8.699-4.482-18.104-9.146-27.951-10.117
		c-0.478-0.047-0.541,0.683-0.11,0.811c20.778,6.17,37.619,20.412,57.918,27.013C124.093,94.282,124.633,92.879,123.804,92.379z"/>
	<path d="M129.569,81.598C110.094,71.545,90.402,61.34,69.686,54.074c-0.764-0.268-1.059,0.91-0.33,1.195
		c20.411,7.978,39.123,19.308,58.992,28.418C129.742,84.326,130.973,82.322,129.569,81.598z"/>
	<path d="M133.103,69.646c-18.434-8.557-36.647-17.623-55.702-24.748c-0.86-0.322-1.216,1.04-0.377,1.365
		c18.839,7.306,36.513,17.041,54.783,25.599C133.298,72.561,134.601,70.342,133.103,69.646z"/>
	<path d="M137.621,58.585c-18.474-7.33-36.729-14.332-54.586-23.182c-0.516-0.256-0.961,0.484-0.454,0.777
		c16.691,9.639,35.479,20.238,54.5,24.368C138.386,60.831,138.821,59.061,137.621,58.585z"/>
	<path d="M150.255,50.722c-21.025-4.477-37.303-18.651-56.796-26.71c-0.664-0.274-1.035,0.766-0.472,1.119
		c9.986,6.247,20.237,12.211,30.54,17.919c7.203,3.99,17.733,10.809,26.41,10.019C151.199,52.954,151.659,51.021,150.255,50.722z"/>
</g>
</svg>
