<?xml version="1.0" encoding="iso-8859-1"?>
<!-- Generator: Adobe Illustrator 16.0.0, SVG Export Plug-In . SVG Version: 6.00 Build 0)  -->
<!DOCTYPE svg PUBLIC "-//W3C//DTD SVG 1.1//EN" "http://www.w3.org/Graphics/SVG/1.1/DTD/svg11.dtd">
<svg version="1.1" id="Capa_1" xmlns="http://www.w3.org/2000/svg" xmlns:xlink="http://www.w3.org/1999/xlink" x="0px" y="0px"
	 width="181.514px" height="181.514px" viewBox="0 0 181.514 181.514" style="enable-background:new 0 0 181.514 181.514;"
	 xml:space="preserve">
<g>
	<g>
		<path d="M142.317,38.605c0.225-4.544-6.201-4.844-7.409-1.034c-42.91-0.498-85.766-5.238-128.684-3.915
			c-1.692,0.052-3.397,1.452-3.275,3.275c0.329,4.908,0.526,6.59,1.254,11.439c0.147,0.982,0.841,1.427,1.615,1.484
			c0.007,0.008,0.007,0.017,0.014,0.025c3.582,4.327,7.399,8.468,11.074,12.717c3.367,3.894,6.7,8.236,10.871,11.287
			c1.663,1.216,4.029-1.181,2.843-2.843c-3.003-4.206-7-7.85-10.516-11.642c-3.784-4.082-7.487-8.293-11.735-11.905
			c0.827-12.088,22.781-6.948,30.515-6.72c10.919,0.321,21.83,0.889,32.738,1.444c4.5,0.229,9.001,0.457,13.501,0.68
			c-0.076,0.291-0.105,0.581-0.07,0.852c1.329,10.233,0.453,20.652,1.787,30.851c0.296,2.263,4.049,3.359,4.433,0.6
			c1.389-9.987,2.778-22.009,0.604-31.985c14.146,0.668,28.298,1.222,42.461,1.344c-1.012,17.673-2.97,35.833-3.975,53.975
			c-12.227-0.172-24.521,0.29-36.714,1.141c0.169-2.742,0.652-5.877-1.789-7.699c-0.984-0.734-2.295-0.443-3.3,0
			c-1.652,0.728-1.921,2.821-1.476,4.336c0.046,0.158,0.129,0.297,0.201,0.442c0.062,0.325,0.102,0.653,0.165,0.977
			c0.277,1.433,0.328,2.911,0.439,4.365c0.21,2.744,0.377,5.502,0.896,8.209c0.378,1.973,3.594,1.974,3.973,0
			c0.351-1.831,0.527-3.688,0.646-5.548c12.158,0.854,24.416,1.317,36.61,1.159c-0.766,19.572-0.115,39.047,4.385,57.785
			c-5.901-4.813-16.791-3.399-23.597-3.182c-4.827,0.154-9.647,0.528-14.466,0.946c1.292-5.525,1.087-11.314,0.664-16.969
			c-0.321-4.317,0.096-13.327-2.638-16.902c-2.433-3.183-7.382-1.412-6.547,2.76c0.171,0.857,0.498,1.599,0.922,2.25
			c0.413,1.714,0.483,4.219,0.691,5.35c0.553,3.008,1.028,6.021,1.415,9.054c0.639,5.002,0.532,9.921,0.34,14.909
			c-8.498,0.762-16.996,1.496-25.524,1.298c-9.475-0.222-18.929,0.048-28.402,0.246c-12.28,0.257-30.366,4.148-29.748-12.189
			c0.472-12.495,2.103-24.765,1.696-37.3c-0.001-0.044-0.006-0.088-0.007-0.132c0.509,0.306,1.13,0.462,1.817,0.351
			c16.582-2.662,35.757-1.219,52.452,1.899c-0.523,5.098-1.682,11.048,0.146,15.389c0.89,2.114,4.192,3.332,5.467,0.715
			c2.659-5.458,1.816-13.122,1.904-19.089c0.023-1.523-1.119-3.22-2.679-3.519c-10.077-1.935-20.453-2.425-30.684-2.786
			c-8.405-0.297-20.898-1.667-28.492,2.916c-0.066,0.04-0.097,0.093-0.158,0.136C8.384,99.492,7.022,89.176,6.704,78.785
			c-0.075-2.441-3.503-2.906-4.222-0.571c-3.641,11.831-2.112,23.574-1.263,35.759c1.164,16.698-1.906,33.445-1.074,50.196
			c0.076,1.524,1.025,3.103,2.622,3.443c23.174,4.947,48.404,3.355,71.976,2.427c19.127-0.752,39.118-5.421,57.946-0.545
			c1.367,0.354,2.5-0.255,3.124-1.207c1.372,1.479,4.491,0.805,4.31-1.607C136.874,123.615,140.191,81.617,142.317,38.605z"/>
		<path d="M141.523,6.971c-1.56-0.847-3.457-0.09-3.973,1.616c-0.24,0.793-0.268,1.536-0.232,2.274
			c-26.176-0.09-52.373-0.559-78.543-1.091c-15.98-0.325-34.591-2.643-50.438,1.307c-0.094-0.774-0.264-1.536-0.676-2.263
			c-0.97-1.709-3.577-1.709-4.547,0c-1.133,1.997-0.692,3.939-0.577,6.158c0.133,2.58,0.209,5.162,0.522,7.727
			c0.366,2.994,4.291,2.994,4.657,0c0.208-1.704,0.301-3.413,0.387-5.125c16.435-2.652,34.124-0.788,50.673-0.559
			c26.4,0.365,52.827,0.685,79.228,0.767c0.108,1.874,0.225,3.751,0.626,5.57c0.521,2.349,4.214,2.35,4.732,0
			c0.695-3.147,0.628-6.549,0.64-9.76C144.011,11.043,144.057,8.347,141.523,6.971z"/>
		<path d="M180.147,30.209c-2.644-2.019-7.049-1.396-10.188-1.324c-3.701,0.085-7.479,0.311-11.139,0.882
			c-2.116,0.33-2.143,3.982,0,4.283c2.339,0.328,4.695,0.356,7.052,0.377c-0.051,0.092-0.121,0.155-0.163,0.258
			c-7.727,18.866-2.653,40.204-0.381,59.716c2.854,24.506,0.313,49.745,0.313,74.418c-2.266-0.035-5.097-0.072-6.656,0.982
			c-1.414,0.955-1.414,2.846,0,3.801c1.865,1.26,5.389,0.817,7.542,0.94c3.231,0.185,6.74,0.531,9.963,0.23
			c3.954-0.368,3.954-5.774,0-6.144c-1.571-0.146-3.191-0.107-4.811-0.025c0.409-21.591,1.453-43.266,0.887-64.846
			c-0.6-22.89-7.639-45.011-2.713-67.932c0.104-0.484,0.043-0.887-0.079-1.248c2.966,0.292,6.034,1.34,8.888,1.103
			C181.73,35.428,182.475,31.988,180.147,30.209z"/>
	</g>
</g>
<g>
</g>
<g>
</g>
<g>
</g>
<g>
</g>
<g>
</g>
<g>
</g>
<g>
</g>
<g>
</g>
<g>
</g>
<g>
</g>
<g>
</g>
<g>
</g>
<g>
</g>
<g>
</g>
<g>
</g>
</svg>
