<?xml version="1.0" encoding="utf-8"?>
<!-- Generator: Adobe Illustrator 16.0.0, SVG Export Plug-In . SVG Version: 6.00 Build 0)  -->
<!DOCTYPE svg PUBLIC "-//W3C//DTD SVG 1.1//EN" "http://www.w3.org/Graphics/SVG/1.1/DTD/svg11.dtd">
<svg version="1.1" id="Layer_1" xmlns="http://www.w3.org/2000/svg" xmlns:xlink="http://www.w3.org/1999/xlink" x="0px" y="0px"
	 width="126px" height="126px" viewBox="0 0 126 126" enable-background="new 0 0 126 126" xml:space="preserve">
<path d="M71.134,36.912c-6.875,0-12.449-5.574-12.449-12.448c0-6.521,5.018-11.863,11.402-12.396
	c1.838-4.583,6.313-7.823,11.551-7.823c5.527,0,10.205,3.604,11.832,8.588c0.717-0.129,1.453-0.207,2.209-0.207
	c6.15,0,11.246,4.466,12.256,10.328c-1.133-0.555-2.385-0.899-3.709-0.971c-1.721-2.826-4.805-4.612-8.225-4.612
	c-2.064,0-4.002,0.648-5.598,1.787c-1.615-2.106-4.15-3.472-7.01-3.472c-4.883,0-8.84,3.959-8.84,8.841
	c0,3.962,2.605,7.315,6.199,8.438c0.258,1.436,0.832,2.763,1.652,3.904L71.134,36.912z M102.479,24.892
	c-0.893-2.735-3.461-4.713-6.492-4.713c-1.604,0-3.076,0.554-4.24,1.48c0.309,0.9,0.486,1.862,0.486,2.868
	c0,4.771-3.785,8.651-8.518,8.823c0.881,2.755,3.461,4.752,6.508,4.752l13.469-0.05c3.771,0,6.828-2.673,6.828-6.445
	c0-3.771-3.057-6.83-6.828-6.83C103.276,24.777,102.872,24.82,102.479,24.892z M80.034,21.891c0.621,0,1.047,0.143,1.318,0.297
	l0.258-0.879c-0.309-0.155-0.904-0.323-1.576-0.323c-2.043,0-3.361,1.396-3.361,3.323c0,1.913,1.227,3.193,3.115,3.193
	c0.84,0,1.5-0.206,1.797-0.362l-0.193-0.853c-0.324,0.142-0.75,0.31-1.396,0.31c-1.24,0-2.172-0.893-2.172-2.34
	C77.823,22.952,78.599,21.891,80.034,21.891z M81.151,24.295c0-2.095,1.369-3.322,3.104-3.322c1.797,0,3.012,1.306,3.012,3.22
	c0,2.313-1.604,3.323-3.115,3.323C82.458,27.516,81.151,26.273,81.151,24.295z M82.302,24.257c0,1.371,0.789,2.405,1.9,2.405
	c1.086,0,1.9-1.021,1.9-2.431c0-1.061-0.529-2.405-1.873-2.405C82.884,21.826,82.302,23.067,82.302,24.257z M88.046,26.609
	l-0.434,0.423v0.341h2.615v-0.46h-1.84v-0.014l0.328-0.302c0.863-0.833,1.412-1.444,1.412-2.2c0-0.586-0.373-1.191-1.256-1.191
	c-0.473,0-0.875,0.177-1.158,0.415l0.176,0.392c0.188-0.157,0.498-0.347,0.869-0.347c0.613,0,0.813,0.384,0.813,0.801
	C89.565,25.085,89.093,25.614,88.046,26.609z M116.759,106.406l-18.131-0.026v12.676h-3.096v-12.68l-9.563-0.013v8.679h-3.201
	v-8.685l-5.363-0.007l0.33-0.331l-8.561-0.012l10.42-10.42l-8.08-0.011l9.012-9.013l-7.01-0.01L84.37,75.7l1.213,1.218
	l11.498-11.496l13.57,13.607l-9.859-0.014l12.676,12.711l-11.363-0.016L116.759,106.406z M84.97,106.361l-1.201-0.002v7.683h1.201
	V106.361z M91.985,91.771l-0.076-0.074l-11.215-0.016l5.607-5.608l-0.5-0.501l1,0.001l3.006-3.005l-3.564-3.573l-2.732-0.003
	l1.365-1.367l-0.508-0.51l-8.441,8.442l7.01,0.009l-9.012,9.014l8.08,0.012l-10.42,10.418l7.15,0.011l9.209-9.21l-1.209-1.212
	l2.418,0.003L91.985,91.771z M93.37,79.005l-5.713-0.008l2.857,2.864L93.37,79.005z M27.753,60.577v5.809
	c0,0.453-0.367,0.82-0.82,0.82H20.64c-0.453,0-0.82-0.367-0.82-0.82v-5.809c0-0.454,0.367-0.821,0.82-0.821h6.293
	C27.386,59.756,27.753,60.123,27.753,60.577z M26.112,61.398h-4.65v4.166h4.65V61.398z M47.673,34.603
	c-0.129-0.211-0.289-0.412-0.479-0.608c-0.242-0.243-0.508-0.452-0.797-0.62c-0.168-0.094-0.348-0.193-0.535-0.254
	c-0.1-0.037-0.199-0.072-0.383-0.12c-0.104-0.018-0.209-0.035-0.293-0.043c-0.473-0.066-0.994,0.035-1.555,0.298
	c-0.037,0.018-0.076,0.039-0.111,0.064c-0.055,0.035-0.109,0.068-0.164,0.103c-0.123,0.075-0.244,0.15-0.412,0.287
	c-0.033,0.03-0.072,0.053-0.107,0.078c-0.125,0.087-0.246,0.177-0.332,0.267c-0.039,0.04-0.086,0.075-0.133,0.112
	c-0.104,0.083-0.203,0.167-0.27,0.235l-0.309,0.287c-0.021,0.015-0.041,0.029-0.059,0.045l-0.402,0.337
	c-0.01,0.007-0.018,0.015-0.027,0.022c-0.021,0.013-0.059,0.033-0.074,0.043c-0.07,0.044-0.135,0.088-0.26,0.164
	c-0.078,0.033-0.154,0.07-0.193,0.08c-0.035,0.008-0.068,0.016-0.104,0.025l-0.055,0.004c-0.119,0.006-0.205,0.021-0.373,0.001
	l-0.139-0.011c-0.063-0.015-0.127-0.027-0.201-0.037c-0.061-0.007-0.119-0.029-0.234-0.063c-0.156-0.039-0.303-0.094-0.441-0.145
	l-1.006-0.402c-0.295-0.122-0.633-0.061-0.867,0.154l-0.086,0.078c-0.232,0.215-0.322,0.545-0.229,0.847
	c0.021,0.07,0.109,0.324,0.328,0.659c0.141,0.223,0.293,0.42,0.451,0.58c0.213,0.236,0.467,0.452,0.771,0.654
	c0.162,0.102,0.332,0.202,0.473,0.26c0.203,0.106,0.432,0.185,0.662,0.234c0.221,0.06,0.457,0.088,0.703,0.088
	c0.303,0,0.613-0.045,0.922-0.131c0.037-0.012,0.076-0.026,0.113-0.044l0.139-0.058c0.162-0.068,0.367-0.154,0.609-0.327
	c0.039-0.032,0.08-0.061,0.121-0.09c0.141-0.101,0.316-0.228,0.465-0.409l0.059-0.066c0.152-0.176,0.324-0.372,0.438-0.614
	l0.197-0.434c0.018-0.03,0.033-0.063,0.047-0.096c0.012-0.029,0.023-0.058,0.031-0.087l0.006,0.002l0.141-0.291
	c0.023-0.035,0.057-0.063,0.088-0.094l0.063-0.071c0.027-0.018,0.057-0.028,0.086-0.041l0.049-0.024
	c0.027-0.005,0.055-0.005,0.082-0.006c0.014-0.002,0.027-0.004,0.043-0.006c0.176,0.026,0.332,0.076,0.514,0.135
	c0.09,0.029,0.176,0.052,0.227,0.062c0.057,0.021,0.113,0.038,0.172,0.053c0.08,0.02,0.16,0.05,0.256,0.085
	c0.199,0.067,0.385,0.145,0.559,0.217l0.484,0.195c0.313,0.132,0.516,0.199,0.516,0.199c0.285,0.096,0.602,0.028,0.822-0.177
	l0.086-0.078c0.236-0.222,0.322-0.562,0.217-0.868l-0.084-0.223C47.847,34.908,47.776,34.755,47.673,34.603z M48.753,67.206H42.46
	c-0.453,0-0.82-0.367-0.82-0.82v-5.809c0-0.454,0.367-0.821,0.82-0.821h6.293c0.453,0,0.82,0.367,0.82,0.821v5.809
	C49.573,66.839,49.206,67.206,48.753,67.206z M47.933,61.398h-4.65v4.166h4.65V61.398z M54.763,60.844h4.149v0.75h-0.64
	c-0.255,0.7-0.858,2.222-1.895,4.176v7.603c0,0.454-0.369,0.821-0.822,0.821h-5.141c-3.249,3.505-7.645,6.896-13.456,8.986
	c-0.029,0.102-0.106,0.183-0.217,0.183h-0.296c-0.007,0.002-0.014,0.004-0.021,0.007v0.215h0.316c0.133,0,0.241,0.108,0.241,0.241
	s-0.108,0.241-0.241,0.241h-0.316v0.664c0,0.088-0.071,0.161-0.16,0.161H35.73c-0.109,0.29-0.273,0.649-0.511,1.057l2.697,1.478
	c0.081,0.045,0.121,0.138,0.098,0.227c-0.022,0.089-0.103,0.151-0.194,0.151h-0.79v0.411h0.315c0.133,0,0.241,0.108,0.241,0.241
	c0,0.134-0.108,0.241-0.241,0.241H37.03v0.222h0.315c0.133,0,0.241,0.108,0.241,0.241c0,0.134-0.108,0.242-0.241,0.242H37.03v0.663
	c0,0.089-0.071,0.161-0.161,0.161h-0.355c-0.152,0.804-0.615,2.504-1.952,4.332l1.146,4.913l2.044,4.689
	c0.011,0.026,0.015,0.053,0.015,0.08h0.565v0.59h-3.018v-0.59h0.721l-3.158-4.506h-1.078l-3.118,4.506h0.693v0.59h-3.018v-0.59
	h0.552c0-0.027,0.004-0.054,0.016-0.08l2.043-4.687l0.11-0.546c-1.337,0.628-2.911,1.164-4.765,1.554v0.424
	c0,0.126-0.101,0.228-0.227,0.228h-1.136c-0.126,0-0.228-0.102-0.228-0.228V99.97h-0.521c-0.188,0-0.341-0.153-0.341-0.341
	c0-0.188,0.152-0.341,0.341-0.341h0.521v-0.313h-0.521c-0.188,0-0.341-0.153-0.341-0.341c0-0.188,0.152-0.341,0.341-0.341h0.521
	v-0.581H19.9v5.567l2.543,10.907l2.887,6.621c0.016,0.036,0.021,0.075,0.021,0.113h0.797v0.833h-4.26v-0.833h1.017l-4.459-6.361
	h-1.521l-4.403,6.361h0.979v0.833h-4.26v-0.833h0.778c0-0.038,0.006-0.077,0.021-0.113l2.885-6.617l2.204-10.906v-3.684
	c-0.905,0.303-1.863,0.573-2.878,0.799v0.449c0,0.125-0.102,0.228-0.228,0.228h-1.136c-0.126,0-0.228-0.103-0.228-0.228v-0.938
	h-0.521c-0.188,0-0.341-0.152-0.341-0.341c0-0.188,0.153-0.341,0.341-0.341h0.521v-0.313h-0.521c-0.188,0-0.341-0.152-0.341-0.34
	c0-0.188,0.153-0.342,0.341-0.342h0.521v-0.523H9.619c-0.129,0-0.242-0.088-0.274-0.214c-0.032-0.127,0.026-0.258,0.14-0.319
	l5.646-3.048v-1.825c-0.715,0.164-1.466,0.313-2.254,0.441v0.625c0,0.126-0.102,0.228-0.227,0.228h-1.137
	c-0.126,0-0.227-0.102-0.227-0.228v-0.937h-0.521c-0.188,0-0.341-0.153-0.341-0.341c0-0.188,0.152-0.341,0.341-0.341h0.521v-0.313
	h-0.521c-0.188,0-0.341-0.153-0.341-0.341c0-0.188,0.152-0.341,0.341-0.341h0.521v-0.468h-0.645c-0.129,0-0.241-0.086-0.274-0.211
	s0.023-0.256,0.135-0.319l4.628-2.616v-0.306c0-0.056,0.016-0.109,0.047-0.155l2.054-3.11v-1.808c0-0.157,0.128-0.285,0.285-0.285
	c0.156,0,0.283,0.128,0.283,0.285v1.808l2.055,3.11c0.031,0.046,0.047,0.1,0.047,0.155v0.256l3.073,1.764
	c2.929-1.809,4.338-3.689,4.831-4.462v-0.332h-0.369c-0.134,0-0.241-0.108-0.241-0.241s0.107-0.241,0.241-0.241h0.369v-0.222h-0.369
	c-0.013,0-0.021-0.012-0.032-0.014c-0.016,0.004-0.029,0.008-0.045,0.012l-0.008-0.033c-0.087-0.036-0.156-0.106-0.156-0.206
	c0-0.065,0.027-0.124,0.069-0.168l-0.019-0.079c0.191-0.044,0.371-0.096,0.56-0.142v-0.184h-0.457c-0.091,0-0.17-0.062-0.193-0.15
	c-0.023-0.088,0.016-0.181,0.096-0.226l3.276-1.853v-0.217c0-0.039,0.012-0.077,0.034-0.11l1.454-2.202v-1.28
	c0-0.111,0.091-0.201,0.201-0.201c0.111,0,0.201,0.09,0.201,0.201v1.28l1.455,2.202c0.021,0.033,0.034,0.071,0.034,0.11v0.182
	l0.587,0.337c4.584-1.815,8.188-4.082,11.006-6.429H13.862c-0.453,0-0.822-0.367-0.822-0.821v-9.94c0-0.454,0.369-0.821,0.822-0.821
	h2.018V52.266c0-0.268,0.131-0.518,0.35-0.672l8.004-5.614c0.252-0.176,0.578-0.197,0.85-0.058c0.273,0.143,0.443,0.423,0.443,0.729
	v4.036l6.709-4.708c0.252-0.176,0.58-0.197,0.852-0.058c0.271,0.143,0.441,0.423,0.441,0.729v4.036l6.711-4.708
	c0.25-0.176,0.578-0.197,0.852-0.058c0.271,0.143,0.441,0.423,0.441,0.729v10.217h1.18l1.441-18.766
	c0.033-0.428,0.391-0.758,0.818-0.758h4.578c0.432,0,0.789,0.335,0.818,0.765l1.262,18.759h2.313c0.453,0,0.82,0.367,0.82,0.821
	V60.844z M15.697,87.136c0.002,0.003,0.005,0.005,0.008,0.008h3.605c0.006-0.016,0.008-0.033,0.017-0.048
	c0.001-0.004,0.004-0.004,0.006-0.008v-0.161l-1.817-2.751l-1.818,2.751V87.136z M16.997,98.898l0.503,0.724l0.966-1.393
	C17.996,98.462,17.507,98.686,16.997,98.898z M18.764,97.713h-2.589l0.631,0.909C17.494,98.336,18.148,98.032,18.764,97.713z
	 M17.776,100.021l1.557,2.242v-4.481c-0.001,0.001-0.002,0.001-0.003,0.002L17.776,100.021z M19.333,96.981v-0.005l-1.791-2.292
	l-1.837,2.351l0.075,0.11h3.438L19.333,96.981z M16.076,92.073l1.466,1.874l1.778-2.275l-0.484-0.461
	C17.987,91.523,17.069,91.814,16.076,92.073z M18.572,90.959l-0.696-0.666h-0.772l-1.385,1.322l0.137,0.176
	C16.832,91.541,17.736,91.261,18.572,90.959z M19.333,96.238v-3.845l-1.503,1.923L19.333,96.238z M19.333,91.057v-0.032
	c-0.009,0.004-0.017,0.007-0.024,0.01L19.333,91.057z M19.333,90.671v-0.378h-0.8l0.515,0.491
	C19.146,90.747,19.237,90.709,19.333,90.671z M19.333,89.726v-1.561l-1.515,1.446l0.12,0.114H19.333z M19.268,87.599h-3.556
	l1.778,1.698L19.268,87.599z M15.697,89.726h1.344l0.12-0.114l-1.464-1.398V89.726z M15.697,91.008l0.749-0.715h-0.749V91.008z
	 M15.697,96.307l1.556-1.99l-1.556-1.99V96.307z M15.697,99.056c0.229-0.084,0.458-0.167,0.68-0.255l-0.68-0.979V99.056z
	 M15.697,102.219l1.525-2.198l-0.654-0.943c-0.284,0.113-0.575,0.223-0.871,0.329V102.219z M15.697,103.029h3.636v-0.039
	c-0.04-0.017-0.076-0.039-0.103-0.077l-1.73-2.494l-1.691,2.437c-0.028,0.041-0.068,0.064-0.111,0.08V103.029z M15.396,104.832
	h4.282l-0.288-1.234h-3.744L15.396,104.832z M20.034,107.761l-2.476-1.233l-2.497,1.231l2.52,1.048L20.034,107.761z M14.506,110.611
	l3.205,1.444l3.046-1.438l-3.174-1.319L14.506,110.611z M17.56,106.02l1.489-0.732h-2.963L17.56,106.02z M11.722,89.726h3.408
	v-1.927L11.722,89.726z M13.321,91.215c0.063,0,0.113-0.051,0.113-0.113s-0.051-0.114-0.113-0.114h-2.557
	c-0.063,0-0.113,0.052-0.113,0.114s0.051,0.113,0.113,0.113H13.321z M13.435,92.096c0-0.063-0.051-0.114-0.113-0.114h-2.557
	c-0.063,0-0.113,0.051-0.113,0.114c0,0.063,0.051,0.113,0.113,0.113h2.557C13.384,92.209,13.435,92.158,13.435,92.096z M15.13,91.97
	v-1.677h-2.254v0.468h0.445c0.188,0,0.341,0.152,0.341,0.341c0,0.188-0.152,0.341-0.341,0.341h-0.445v0.313h0.445
	c0.188,0,0.341,0.152,0.341,0.341c0,0.073-0.028,0.138-0.068,0.194C14.123,92.191,14.635,92.085,15.13,91.97z M10.744,97.146h4.386
	v-2.368L10.744,97.146z M12.696,98.691c0.063,0,0.114-0.051,0.114-0.113s-0.052-0.113-0.114-0.113h-2.556
	c-0.063,0-0.114,0.051-0.114,0.113s0.052,0.113,0.114,0.113H12.696z M12.696,99.686c0.063,0,0.114-0.052,0.114-0.114
	c0-0.062-0.052-0.113-0.114-0.113h-2.556c-0.063,0-0.114,0.052-0.114,0.113c0,0.063,0.052,0.114,0.114,0.114H12.696z M15.13,99.255
	v-1.542h-2.878v0.523h0.444c0.188,0,0.341,0.153,0.341,0.342c0,0.188-0.152,0.34-0.341,0.34h-0.444v0.313h0.444
	c0.188,0,0.341,0.153,0.341,0.341c0,0.188-0.152,0.341-0.341,0.341h-0.444v0.152C13.268,99.836,14.226,99.563,15.13,99.255z
	 M14.891,107.336l2.156-1.063l-1.764-0.88L14.891,107.336z M14.312,110.2l2.685-1.146l-2.263-0.94L14.312,110.2z M13.545,113.992
	h0.064l3.562-1.682l-3.012-1.357L13.545,113.992z M16.234,114.561h-2.851l-2.649,6.077h1.293L16.234,114.561z M20.9,113.992
	l-3.185-1.436l-3.043,1.436H20.9z M21.986,114.561h-2.846l4.259,6.077h1.237L21.986,114.561z M21.106,110.955l-2.851,1.346
	l3.536,1.594L21.106,110.955z M20.437,108.082l-2.27,0.968l2.763,1.148L20.437,108.082z M19.815,105.415l-1.745,0.859l2.2,1.097
	L19.815,105.415z M54.174,64.254c-1.087,2.162-2.988,5.202-6.122,8.298h3.152c1.425-1.688,2.596-3.366,3.531-4.898v-3.399H54.174z
	 M47.341,72.552c3.229-3.096,5.185-6.164,6.306-8.357c-0.308-0.119-0.526-0.413-0.526-0.762V58.51h-2.258
	c-0.432,0-0.789-0.335-0.818-0.767l-1.262-18.757h-3.049l-1.441,18.766c-0.033,0.428-0.391,0.758-0.82,0.758H40.71
	c-0.453,0-0.82-0.367-0.82-0.82v-9.46l-6.711,4.708c-0.25,0.177-0.578,0.197-0.85,0.058c-0.271-0.143-0.443-0.423-0.443-0.729
	v-4.036l-6.709,4.708c-0.25,0.177-0.578,0.197-0.85,0.058c-0.273-0.143-0.443-0.423-0.443-0.729v-4.036l-6.361,4.463v10.739
	c0,0.454-0.367,0.821-0.82,0.821h-2.02v8.299H47.341z M33.906,80.749v0.101c0.035-0.014,0.069-0.027,0.104-0.041L33.906,80.749z
	 M35.808,83.041h-0.876c-0.045,0-0.081,0.036-0.081,0.08c0,0.045,0.036,0.081,0.081,0.081h0.372
	C35.474,83.15,35.641,83.096,35.808,83.041z M33.906,87.137c0.314-0.358,0.572-0.7,0.784-1.02l-0.784-0.431V87.137z M27.771,90.186
	c-0.18,0.287-0.472,0.723-0.881,1.254c1.433-0.49,2.633-1.042,3.637-1.619v-2.017h-2.038v0.371h0.314
	c0.134,0,0.242,0.108,0.242,0.241s-0.108,0.241-0.242,0.241h-0.314v0.222h0.314c0.134,0,0.242,0.107,0.242,0.241
	s-0.108,0.241-0.242,0.241h-0.314v0.664c0,0.089-0.072,0.16-0.161,0.16H27.771z M28.803,89.2c0.045,0,0.081-0.035,0.081-0.08
	s-0.036-0.08-0.081-0.08h-1.81c-0.044,0-0.081,0.035-0.081,0.08s0.037,0.08,0.081,0.08H28.803z M28.803,88.496
	c0.045,0,0.081-0.035,0.081-0.08s-0.036-0.08-0.081-0.08h-1.81c-0.044,0-0.081,0.035-0.081,0.08s0.037,0.08,0.081,0.08H28.803z
	 M30.526,87.401v-1.677l-3.106,1.677H30.526z M30.357,94.619l1.527-0.753l-1.249-0.622L30.357,94.619z M33.457,80.641h-2.519
	l0.965,0.921c0.309-0.103,0.615-0.206,0.916-0.312L33.457,80.641z M33.749,92.846l-0.204-0.875h-2.652l-0.177,0.875H33.749z
	 M31.204,93.167l1.044,0.521l1.055-0.521H31.204z M32.235,85.659l-1.302,1.665l0.054,0.077h2.436l0.081-0.115v-0.004L32.235,85.659z
	 M33.504,86.76v-2.724l-1.064,1.362L33.504,86.76z M32.4,89.438l1.104,1.589v-2.941c-0.138,0.131-0.285,0.263-0.438,0.395
	L32.4,89.438z M32.931,88.111l0.213-0.308h-1.877l0.735,1.06C32.342,88.612,32.65,88.36,32.931,88.111z M32.031,85.398l-1.103-1.41
	v2.819L32.031,85.398z M30.929,87.882v1.702c0.289-0.177,0.556-0.355,0.811-0.535L30.929,87.882z M30.929,89.996v0.999l1.081-1.558
	l-0.064-0.092C31.631,89.564,31.293,89.781,30.929,89.996z M30.929,91.502v0.067h2.575v-0.028c-0.028-0.011-0.055-0.027-0.072-0.054
	l-1.227-1.767l-1.198,1.726C30.987,91.475,30.959,91.491,30.929,91.502z M33.504,82.549h-0.566l0.566,0.54V82.549z M32.472,82.549
	h-0.547l-0.98,0.937l1.291,1.651l1.259-1.611L32.472,82.549z M31.459,82.549h-0.53v0.506L31.459,82.549z M31.962,82.069
	c-0.076,0.025-0.149,0.052-0.227,0.077h0.145L31.962,82.069z M31.849,95.837l-1.603-0.666l-0.299,1.477L31.849,95.837z
	 M30.085,96.938l1.024,0.462c0.58-0.395,1.097-0.807,1.555-1.225l-0.399-0.166L30.085,96.938z M29.84,97.182l-0.225,1.111
	c0.417-0.22,0.812-0.447,1.178-0.683L29.84,97.182z M29.53,98.712l-0.126,0.621h0.045l2.523-1.19l-0.825-0.371
	C30.653,98.098,30.118,98.414,29.53,98.712z M32.354,97.962l2.157-1.019l-1.513-0.628c-0.453,0.424-0.962,0.843-1.536,1.244
	L32.354,97.962z M33.28,95.576l-0.603,0.257l0.247,0.103C33.049,95.816,33.166,95.695,33.28,95.576z M33.791,95.009
	c0.038-0.046,0.074-0.092,0.111-0.138l-1.655-0.824l-1.769,0.872l1.784,0.741L33.791,95.009z M34.11,94.615
	c0.014-0.018,0.025-0.034,0.039-0.053l-0.304-1.304l-1.236,0.608L34.11,94.615z M33.504,81.541
	c-0.266,0.098-0.546,0.188-0.817,0.281l-0.256,0.244l0.085,0.08h0.988V81.541z M33.906,82.146h2.436l-1.774-1.018
	c-0.219,0.086-0.438,0.172-0.661,0.256V82.146z M30.929,80.313c0.002,0.002,0.004,0.004,0.005,0.006h2.554
	c0.005-0.012,0.006-0.023,0.013-0.035c0.001-0.002,0.002-0.003,0.004-0.004v-0.115l-1.288-1.947l-1.287,1.947V80.313z
	 M30.929,81.076v0.798c0.211-0.064,0.424-0.128,0.631-0.195L30.929,81.076z M30.009,82.146c0.174-0.05,0.346-0.102,0.518-0.153
	v-1.211l-2.414,1.364H30.009z M27.983,83.202h1.263c0.044,0,0.08-0.036,0.08-0.081c0-0.044-0.036-0.08-0.08-0.08H28.62
	C28.409,83.096,28.198,83.149,27.983,83.202z M29.246,83.906c0.044,0,0.08-0.037,0.08-0.081c0-0.045-0.036-0.081-0.08-0.081h-1.811
	c-0.045,0-0.08,0.036-0.08,0.081c0,0.044,0.035,0.081,0.08,0.081H29.246z M23.296,89.046l1.251,0.718
	c0.111,0.063,0.166,0.195,0.133,0.319s-0.146,0.21-0.273,0.21H23.46v0.468h0.445c0.188,0,0.341,0.152,0.341,0.341
	c0,0.188-0.152,0.341-0.341,0.341H23.46v0.313h0.445c0.188,0,0.341,0.152,0.341,0.341c0,0.038-0.01,0.073-0.021,0.107
	c0.748-0.178,1.448-0.371,2.102-0.578c0.503-0.622,0.859-1.137,1.084-1.485c-0.03-0.029-0.049-0.069-0.049-0.114v-0.664h-0.368
	c-0.133,0-0.241-0.107-0.241-0.241s0.108-0.241,0.241-0.241h0.368v-0.222h-0.368c-0.133,0-0.241-0.108-0.241-0.241
	s0.108-0.241,0.241-0.241h0.368v-0.371h-0.737c-0.092,0-0.172-0.063-0.194-0.151c-0.023-0.09,0.018-0.183,0.099-0.227l3.998-2.158
	v-2.719h-0.117c-0.384,0.112-0.765,0.227-1.159,0.333c0.131,0.002,0.237,0.108,0.237,0.239c0,0.133-0.108,0.241-0.241,0.241h-0.315
	v0.222h0.315c0.133,0,0.241,0.108,0.241,0.241s-0.108,0.241-0.241,0.241h-0.315v0.664c0,0.088-0.071,0.161-0.161,0.161h-0.805
	c-0.029,0-0.056-0.011-0.08-0.024C27.254,85.771,25.857,87.433,23.296,89.046z M23.905,91.981h-2.557
	c-0.063,0-0.113,0.051-0.113,0.114c0,0.063,0.051,0.113,0.113,0.113h2.557c0.063,0,0.113-0.051,0.113-0.113
	C24.019,92.032,23.968,91.981,23.905,91.981z M23.905,91.215c0.063,0,0.113-0.051,0.113-0.113s-0.051-0.114-0.113-0.114h-2.557
	c-0.063,0-0.113,0.052-0.113,0.114s0.051,0.113,0.113,0.113H23.905z M22.742,89.382c-0.196,0.115-0.397,0.23-0.605,0.344h1.203
	L22.742,89.382z M19.9,89.726h1.534c0.343-0.175,0.668-0.353,0.979-0.531L19.9,87.752V89.726z M19.9,90.441
	c0.114-0.049,0.223-0.099,0.333-0.148H19.9V90.441z M19.9,94.076l2.475,1.356c1.539-1.169,2.711-2.35,3.559-3.337
	c-0.764,0.225-1.59,0.431-2.474,0.617v0.66c0,0.126-0.102,0.228-0.228,0.228h-1.136c-0.126,0-0.228-0.102-0.228-0.228v-0.937h-0.521
	c-0.188,0-0.341-0.153-0.341-0.341c0-0.188,0.152-0.341,0.341-0.341h0.521v-0.313h-0.521c-0.188,0-0.341-0.153-0.341-0.341
	c0-0.188,0.152-0.341,0.341-0.341h0.521v-0.468h-0.85c-0.357,0.171-0.729,0.338-1.119,0.502V94.076z M19.9,97.085
	c0.711-0.416,1.367-0.846,1.972-1.281l-1.972-1.08V97.085z M24.318,97.146l-2.13-1.167c-0.54,0.395-1.12,0.786-1.745,1.167H24.318z
	 M24.758,98.748c0.063,0,0.113-0.051,0.113-0.113s-0.051-0.113-0.113-0.113h-2.557c-0.063,0-0.113,0.051-0.113,0.113
	s0.051,0.113,0.113,0.113H24.758z M24.758,99.742c0.063,0,0.113-0.051,0.113-0.113c0-0.063-0.051-0.114-0.113-0.114h-2.557
	c-0.063,0-0.113,0.051-0.113,0.114c0,0.063,0.051,0.113,0.113,0.113H24.758z M29.157,98.527l1.369-6.777v-1.521
	c-1.101,0.608-2.428,1.185-4.016,1.688c-0.858,1.051-2.115,2.372-3.822,3.688l2.876,1.576c0.113,0.062,0.171,0.193,0.139,0.319
	c-0.032,0.125-0.146,0.213-0.275,0.213h-1.116v0.581h0.446c0.188,0,0.34,0.152,0.34,0.341c0,0.188-0.152,0.341-0.34,0.341h-0.446
	v0.313h0.446c0.188,0,0.34,0.152,0.34,0.341c0,0.188-0.152,0.341-0.34,0.341h-0.446v0.177
	C26.211,99.742,27.813,99.183,29.157,98.527z M31.31,99.735h-2.02l-1.876,4.305h0.915L31.31,99.735z M34.614,99.333l-2.256-1.017
	l-2.155,1.017H34.614z M35.383,99.735h-2.016l3.017,4.305h0.876L35.383,99.735z M34.76,97.183l-2.02,0.953l2.506,1.129L34.76,97.183
	z M34.285,95.147l-0.281,0.12c-0.229,0.269-0.48,0.537-0.75,0.805l1.381,0.574L34.285,95.147z M36.18,90.227h-0.115
	c-0.089,0-0.161-0.072-0.161-0.161v-0.663h-0.368c-0.134,0-0.242-0.108-0.242-0.242c0-0.133,0.108-0.241,0.242-0.241h0.368v-0.222
	h-0.368c-0.134,0-0.242-0.107-0.242-0.241c0-0.133,0.108-0.241,0.242-0.241h0.368v-0.411h-1.997v3.943l0.556,2.388
	C35.609,92.486,36.031,90.981,36.18,90.227z M35.535,89.08c-0.045,0-0.08,0.035-0.08,0.08s0.035,0.081,0.08,0.081h1.811
	c0.044,0,0.08-0.036,0.08-0.081s-0.036-0.08-0.08-0.08H35.535z M35.535,88.376c-0.045,0-0.08,0.036-0.08,0.08
	c0,0.045,0.035,0.081,0.08,0.081h1.811c0.044,0,0.08-0.036,0.08-0.081c0-0.044-0.036-0.08-0.08-0.08H35.535z M35.008,86.291
	c-0.226,0.348-0.502,0.721-0.847,1.11h2.874L35.008,86.291z M35.373,84.861c-0.043-0.029-0.072-0.076-0.072-0.131v-0.664h-0.369
	c-0.134,0-0.242-0.108-0.242-0.241s0.108-0.241,0.242-0.241l-0.07-0.24c0.005-0.002,0.01-0.003,0.015-0.005
	c-0.104-0.027-0.187-0.106-0.187-0.218c0-0.133,0.108-0.241,0.242-0.241h0.369v-0.331h-1.395v2.68l0.999,0.547
	C35.113,85.429,35.266,85.118,35.373,84.861z M35.253,83.744c-0.085,0.025-0.166,0.055-0.251,0.08l-0.023-0.08h-0.047
	c-0.045,0-0.081,0.036-0.081,0.081c0,0.044,0.036,0.081,0.081,0.081h1.811c0.044,0,0.08-0.037,0.08-0.081
	c0-0.045-0.036-0.081-0.08-0.081H35.253z M49.735,74.193h-3.462c-2.845,2.45-6.515,4.838-11.224,6.748l2.146,1.232
	c0.079,0.045,0.118,0.138,0.095,0.226c-0.024,0.088-0.104,0.149-0.194,0.149h-0.671v0.295C42.147,80.861,46.497,77.6,49.735,74.193z
	 M54.735,68.587c-0.807,1.265-1.76,2.608-2.88,3.965h2.88V68.587z M57.74,61.594h-2.424c-0.084,0.245-0.213,0.594-0.389,1.019h0.628
	c0.002-0.002,0.006-0.002,0.008,0h0.01c0.453,0,0.82,0.367,0.82,0.82c0,0.057-0.006,0.111-0.016,0.164v1.089
	C57.068,63.302,57.509,62.214,57.74,61.594z M54.763,61.594v0.068c0.009-0.023,0.017-0.046,0.024-0.068H54.763z M38.595,60.577
	v5.809c0,0.453-0.367,0.82-0.82,0.82h-6.293c-0.453,0-0.82-0.367-0.82-0.82v-5.809c0-0.454,0.367-0.821,0.82-0.821h6.293
	C38.228,59.756,38.595,60.123,38.595,60.577z M36.954,61.398h-4.65v4.166h4.65V61.398z M32.455,24.819
	c0.297-0.299,0.612-0.651,0.998-0.995c0.377-0.354,0.791-0.723,1.257-1.077c0.442-0.38,0.971-0.701,1.481-1.062
	c0.547-0.315,1.09-0.663,1.682-0.931s1.179-0.55,1.804-0.726c0.31-0.092,0.604-0.215,0.917-0.285
	c0.312-0.064,0.621-0.124,0.928-0.187c0.6-0.165,1.224-0.147,1.799-0.212l0.43-0.034c0.145,0.008,0.286,0.015,0.427,0.022
	c0.279,0.015,0.55,0.029,0.817,0.043c0.369-0.006,0.727,0.057,1.063,0.121l-0.91,4.844c0.316-0.021,6.981-5.668,6.981-5.668
	l-4.327-8.449l-0.976,5.184c-0.045,0.003-0.09,0.004-0.136,0.005c-0.588,0.03-1.219,0.028-1.886,0.174
	c-0.331,0.06-0.671,0.117-1.018,0.181c-0.173,0.029-0.347,0.061-0.521,0.094c-0.171,0.054-0.345,0.106-0.521,0.16
	c-0.695,0.23-1.422,0.393-2.103,0.74c-0.342,0.154-0.687,0.311-1.032,0.47c-0.341,0.163-0.656,0.376-0.983,0.565
	c-0.661,0.361-1.253,0.824-1.833,1.266c-0.58,0.438-1.087,0.947-1.587,1.409c-0.461,0.508-0.929,0.965-1.302,1.461
	c-0.396,0.476-0.738,0.947-1.039,1.39c-0.31,0.434-0.55,0.863-0.777,1.228c-0.207,0.38-0.398,0.701-0.529,0.981
	c-0.28,0.548-0.406,0.876-0.406,0.876s0.194-0.294,0.585-0.761C31.924,25.406,32.18,25.135,32.455,24.819z M106.435,56.901
	c-0.034,0.141-0.066,0.278-0.1,0.415c-0.065,0.272-0.129,0.536-0.19,0.796c-0.062,0.364-0.188,0.705-0.313,1.023l-4.598-1.773
	c-0.036,0.315,4.308,7.894,4.308,7.894l9.094-2.724l-4.921-1.898c0.006-0.045,0.013-0.09,0.021-0.135
	c0.076-0.584,0.192-1.204,0.171-1.886c0.001-0.337,0.006-0.682,0.007-1.034c0.002-0.175,0.003-0.352,0.002-0.529
	c-0.021-0.178-0.042-0.358-0.063-0.541c-0.101-0.726-0.128-1.47-0.347-2.202c-0.089-0.364-0.181-0.731-0.274-1.101
	c-0.099-0.364-0.251-0.713-0.378-1.069c-0.235-0.716-0.583-1.382-0.912-2.032c-0.326-0.65-0.734-1.24-1.098-1.816
	c-0.416-0.545-0.78-1.088-1.201-1.545c-0.396-0.476-0.797-0.897-1.178-1.273c-0.37-0.383-0.749-0.697-1.066-0.987
	c-0.336-0.272-0.617-0.519-0.869-0.698c-0.488-0.375-0.788-0.559-0.788-0.559s0.254,0.244,0.643,0.713
	c0.202,0.228,0.423,0.528,0.683,0.856c0.24,0.346,0.53,0.72,0.798,1.162c0.279,0.435,0.567,0.908,0.832,1.431
	c0.293,0.504,0.513,1.082,0.774,1.649c0.212,0.595,0.455,1.192,0.61,1.823c0.156,0.63,0.327,1.259,0.387,1.905
	c0.034,0.321,0.102,0.633,0.114,0.953c0.007,0.318,0.01,0.634,0.016,0.946c0.053,0.619-0.077,1.23-0.118,1.808L106.435,56.901z
	 M70.127,61.777c0.139,0.018,0.279,0.038,0.423,0.057l0.415,0.114c0.554,0.17,1.17,0.269,1.729,0.541
	c0.289,0.119,0.582,0.235,0.877,0.356c0.293,0.127,0.56,0.303,0.847,0.45c0.582,0.289,1.107,0.676,1.638,1.049
	c0.532,0.372,1.003,0.814,1.48,1.227c0.436,0.448,0.895,0.862,1.259,1.317c0.392,0.436,0.729,0.875,1.034,1.292
	c0.316,0.41,0.56,0.814,0.796,1.163c0.213,0.361,0.413,0.676,0.553,0.945c0.296,0.532,0.433,0.857,0.433,0.857
	s-0.063-0.347-0.236-0.938c-0.076-0.299-0.204-0.65-0.338-1.062c-0.155-0.4-0.313-0.868-0.536-1.351
	c-0.214-0.491-0.462-1.019-0.763-1.559c-0.274-0.558-0.649-1.093-1.008-1.677c-0.406-0.547-0.809-1.141-1.298-1.681
	c-0.487-0.54-0.983-1.105-1.566-1.583c-0.286-0.246-0.557-0.515-0.86-0.738c-0.311-0.22-0.62-0.438-0.928-0.653
	c-0.604-0.468-1.289-0.762-1.929-1.117c-0.163-0.086-0.324-0.171-0.481-0.254c-0.165-0.065-0.33-0.129-0.495-0.189
	c-0.328-0.127-0.651-0.246-0.967-0.367c-0.628-0.266-1.248-0.381-1.82-0.521c-0.045-0.009-0.089-0.019-0.133-0.03l0.005-5.274
	l-5.82,7.499c0,0,5.5,6.785,5.808,6.865l0.004-4.928c0.342-0.001,0.705,0.004,1.067,0.078C69.58,61.704,69.849,61.74,70.127,61.777z
	"/>
</svg>
