<?xml version="1.0" encoding="UTF-8" standalone="no"?>
<!-- Generator: Adobe Illustrator 17.0.2, SVG Export Plug-In . SVG Version: 6.00 Build 0)  -->

<svg
   xmlns:dc="http://purl.org/dc/elements/1.1/"
   xmlns:cc="http://creativecommons.org/ns#"
   xmlns:rdf="http://www.w3.org/1999/02/22-rdf-syntax-ns#"
   xmlns:svg="http://www.w3.org/2000/svg"
   xmlns="http://www.w3.org/2000/svg"
   xmlns:sodipodi="http://sodipodi.sourceforge.net/DTD/sodipodi-0.dtd"
   xmlns:inkscape="http://www.inkscape.org/namespaces/inkscape"
   version="1.1"
   id="Capa_1"
   x="0px"
   y="0px"
   width="34.377541"
   height="39.922634"
   viewBox="0 0 34.377541 39.922634"
   xml:space="preserve"
   inkscape:version="0.48.5 r10040"
   sodipodi:docname="edit31.svg"><metadata
   id="metadata13"><rdf:RDF><cc:Work
       rdf:about=""><dc:format>image/svg+xml</dc:format><dc:type
         rdf:resource="http://purl.org/dc/dcmitype/StillImage" /></cc:Work></rdf:RDF></metadata><defs
   id="defs11" /><sodipodi:namedview
   pagecolor="#ffffff"
   bordercolor="#666666"
   borderopacity="1"
   objecttolerance="10"
   gridtolerance="10"
   guidetolerance="10"
   inkscape:pageopacity="0"
   inkscape:pageshadow="2"
   inkscape:window-width="1680"
   inkscape:window-height="1027"
   id="namedview9"
   showgrid="false"
   fit-margin-top="0"
   fit-margin-left="0"
   fit-margin-right="0"
   fit-margin-bottom="0"
   inkscape:zoom="3.6875"
   inkscape:cx="-23.958962"
   inkscape:cy="21.106825"
   inkscape:window-x="1912"
   inkscape:window-y="-8"
   inkscape:window-maximized="1"
   inkscape:current-layer="Capa_1" />
<g
   id="g3"
   transform="matrix(-1,0,0,1,48.031418,-13.18419)">
	<path
   d="m 29.979,16.355 c -7.169,-6.12 -13.145,-2.867 -16.276,5.363 -0.078,0.206 -0.058,0.364 0.024,0.479 0.162,0.225 1.065,0.868 1.787,1.704 3.28,3.8 5.628,8.247 8.562,12.325 2.971,4.127 4.914,8.782 9.404,11.543 0.453,0.278 1.469,0.117 1.668,-0.447 0.093,-0.261 0.157,-0.57 0.212,-0.904 0.082,-0.507 0.167,-0.959 0.213,-1.007 0.045,-0.048 0.087,-0.271 0.088,-0.497 0,-0.227 0.061,-1.084 0.518,-1.719 0.266,-0.37 0.642,-0.625 1.188,-0.687 1.345,-0.152 2.898,0.389 4.232,0.032 0.09,-0.024 0.174,-0.053 0.251,-0.084 0.137,-0.056 0.22,-0.094 0.194,-0.068 -0.026,0.026 0.194,0.072 0.454,-0.04 0.259,-0.112 0.244,-0.353 0.142,-0.324 -0.103,0.029 0.326,-0.507 0.342,-1.37 0.016,-0.862 0.321,-1.446 0.957,-1.337 0.368,0.063 0.748,0.123 1.154,0.174 0.473,0.059 1.709,-0.412 1.232,-1.075 C 41.022,31.042 37.001,22.349 29.979,16.355 z m -13.647,5.671 c -0.129,-0.142 -0.26,-0.282 -0.393,-0.418 -0.032,-0.033 -0.07,-0.062 -0.11,-0.085 -0.066,-0.04 0.186,-0.9 0.646,-1.904 0.762,-1.663 1.729,-3.288 3.033,-4.293 0.875,-0.675 1.143,-0.252 0.359,0.526 -0.424,0.42 -0.847,0.84 -1.27,1.26 -0.784,0.778 -1.763,2.012 -2.123,2.789 -0.36,0.776 0.032,0.8 0.824,0.029 1.4,-1.364 2.833,-2.758 4.296,-4.183 0.791,-0.771 1.691,-1.367 2.004,-1.3 0.182,0.039 0.368,0.089 0.56,0.151 0.073,0.024 0.146,0.055 0.216,0.087 0.117,0.052 -0.427,0.72 -1.216,1.492 -1.598,1.563 -3.25,3.176 -5.004,4.881 -0.793,0.77 -1.608,1.203 -1.822,0.968 z m 1.852,-0.935 c 3.387,-3.324 7.639,-7.475 5.944,-5.732 -0.636,0.612 -2.871,2.774 -5.935,5.742 -0.794,0.769 -0.799,0.764 -0.009,-0.01 z m 24.54,16.56 c -0.279,-0.048 -0.554,-0.092 -0.821,-0.129 -0.489,-0.068 -1.438,0.284 -1.312,0.92 0.45,2.244 0.744,2.823 -1.643,2.726 -1.256,-0.051 -2.439,0.063 -3.623,0.459 -0.659,0.22 -1.05,0.652 -1.29,1.194 -0.405,0.917 -0.521,1.907 -0.696,2.081 -0.176,0.174 -0.833,-0.127 -1.416,-0.725 -0.582,-0.598 -0.376,-1.76 0.404,-2.542 0.113,-0.114 0.227,-0.228 0.341,-0.342 0.779,-0.782 1.305,-1.585 1.175,-1.793 -0.13,-0.209 -0.894,0.228 -1.704,0.979 -0.14,0.129 -0.273,0.253 -0.401,0.373 -0.809,0.752 -1.952,0.717 -2.521,-0.122 -0.569,-0.839 -0.543,-2.003 0.023,-2.577 0.566,-0.574 0.679,-0.72 0.249,-0.325 -0.255,0.234 -0.514,0.472 -0.779,0.715 -0.095,0.088 -0.19,0.176 -0.285,0.264 -0.157,0.146 -0.451,0 -0.654,-0.327 -0.204,-0.327 0.292,-1.198 1.107,-1.944 0.147,-0.135 0.294,-0.27 0.441,-0.405 0.814,-0.747 1.307,-1.59 1.105,-1.883 -0.202,-0.292 -1.017,0.077 -1.827,0.828 -0.132,0.122 -0.264,0.245 -0.396,0.368 -0.81,0.752 -1.628,1.098 -1.829,0.778 -0.202,-0.321 0.288,-1.19 1.096,-1.943 0.125,-0.117 0.251,-0.235 0.377,-0.352 0.808,-0.754 1.435,-1.404 1.403,-1.454 -0.032,-0.049 -0.691,0.544 -1.472,1.327 -0.127,0.127 -0.255,0.256 -0.385,0.386 -0.78,0.782 -1.441,1.371 -1.477,1.315 -0.02,-0.034 -0.042,-0.068 -0.063,-0.102 -0.193,-0.3 -0.387,-0.601 -0.58,-0.903 -0.319,-0.5 -0.398,-1.09 -0.178,-1.317 0.134,-0.138 0.268,-0.275 0.4,-0.412 0.398,-0.412 0.796,-0.821 1.192,-1.23 0.658,-0.679 1.081,-1.406 0.942,-1.624 -0.139,-0.217 -0.884,0.237 -1.667,1.016 -0.132,0.131 -0.264,0.261 -0.394,0.392 -0.783,0.779 -1.765,0.861 -2.195,0.187 -0.431,-0.675 -0.148,-1.848 0.64,-2.624 0.123,-0.122 0.246,-0.243 0.369,-0.365 0.786,-0.775 1.278,-1.618 1.093,-1.876 -0.185,-0.258 -0.96,0.176 -1.729,0.97 -0.116,0.119 -0.231,0.238 -0.347,0.357 -0.769,0.793 -1.547,1.198 -1.741,0.904 -0.194,-0.293 0.27,-1.172 1.04,-1.963 0.104,-0.106 0.206,-0.212 0.309,-0.317 0.771,-0.792 1.193,-1.696 0.934,-2.011 -0.26,-0.315 -1.112,0.062 -1.898,0.837 -0.074,0.073 -0.148,0.146 -0.223,0.219 -0.786,0.775 -1.716,0.99 -2.086,0.488 -0.37,-0.502 -0.031,-1.521 0.764,-2.287 0.017,-0.016 0.033,-0.032 0.05,-0.047 0.795,-0.767 1.354,-1.477 1.251,-1.587 -0.102,-0.11 -0.822,0.44 -1.601,1.224 -0.004,0.004 -0.007,0.008 -0.011,0.011 -0.778,0.784 -1.678,1.074 -2.022,0.657 -0.345,-0.418 -0.006,-1.39 0.767,-2.178 0.893,-0.912 1.783,-1.818 2.671,-2.72 0.774,-0.788 1.788,-2.117 2.387,-2.885 0.598,-0.768 2.02,-0.911 2.923,-0.275 2.297,1.615 4.234,4.02 5.895,6.03 3.635,4.401 6.483,9.331 9.621,14.069 0.607,0.921 0.749,1.59 0.297,1.512 z"
   id="path5"
   inkscape:connector-curvature="0" />
	<path
   d="m 47.575,42.719 c -0.155,-1.58 -1.361,-2.724 -2.91,-1.583 -0.971,0.714 -1.102,1.762 -1.671,2.776 -0.293,0.521 -3.056,-0.277 -3.78,-0.053 -0.615,0.19 -1.5,0.396 -1.781,1.081 -0.661,1.612 -1.628,2.797 -2.97,3.925 -0.102,0.086 -0.162,0.16 -0.187,0.222 -0.061,0.15 0.15,0.251 0.187,0.274 0.018,0.012 0.041,0.023 0.067,0.034 3.654,1.475 7.414,2.605 11.207,3.663 0.477,0.133 1.56,0.011 1.738,-0.574 0.007,-0.022 0.012,-0.045 0.017,-0.068 0.009,-0.038 0.053,-0.106 0.097,-0.153 0.044,-0.047 0.139,-0.327 0.192,-0.628 0.054,-0.302 0.072,-0.551 0.057,-0.557 -0.017,-0.005 0.137,-0.894 0.18,-1.997 0.082,-2.103 -0.23,-4.205 -0.443,-6.362 z M 36.99,48.662 c -0.084,0.081 -0.231,0.115 -0.33,0.078 -0.099,-0.037 0.521,-0.638 1.236,-1.479 0.546,-0.642 1.003,-1.347 1.268,-2.132 0.073,-0.215 0.419,-0.27 0.853,-0.253 0.52,0.021 0.279,0.714 -0.531,1.465 -0.782,0.724 -1.564,1.448 -2.346,2.172 -0.051,0.053 -0.101,0.101 -0.15,0.149 z m 8.647,2.694 c -0.156,0.151 -1.017,0.064 -1.916,-0.206 -0.9,-0.271 -1.366,-0.76 -1.045,-1.082 0.32,-0.322 0.338,-0.676 0.036,-0.791 -0.302,-0.115 -0.836,0.053 -1.194,0.38 -0.357,0.328 -1.462,0.328 -2.456,-0.026 -0.994,-0.354 -1.164,-1.3 -0.388,-2.086 0.361,-0.367 0.725,-0.735 1.088,-1.103 0.775,-0.786 1.611,-1.387 1.866,-1.344 0.199,0.034 0.363,0.06 0.463,0.065 0.727,0.035 1.434,-0.305 2.041,-0.656 0.438,-0.253 0.777,-0.732 0.967,-1.19 0.609,-1.476 0.462,-0.925 0.584,0.322 0.183,1.854 0.428,3.651 0.399,5.451 -0.019,1.104 -0.288,2.115 -0.445,2.266 z"
   id="path7"
   inkscape:connector-curvature="0" />
</g>
</svg>