<?xml version="1.0" encoding="utf-8"?>
<!-- Generator: Adobe Illustrator 16.0.0, SVG Export Plug-In . SVG Version: 6.00 Build 0)  -->
<!DOCTYPE svg PUBLIC "-//W3C//DTD SVG 1.1//EN" "http://www.w3.org/Graphics/SVG/1.1/DTD/svg11.dtd">
<svg version="1.1" id="Layer_9" xmlns="http://www.w3.org/2000/svg" xmlns:xlink="http://www.w3.org/1999/xlink" x="0px" y="0px"
	 width="100px" height="100px" viewBox="0 0 100 100" enable-background="new 0 0 100 100" xml:space="preserve">
<path d="M84.589,28.479l0.052-0.127L50.815,14.824l-15.916,6.15l-0.102-0.044l-0.045,0.102l-19.304,7.46l-0.113-0.045v0.087
	l-0.005,0.002l0.005,0.015v43.387l33.429,13.186v0.053h2.477v-0.053l33.428-13.186v-43.49L84.589,28.479z M82.193,51.031
	l-14.06,5.155V37.633l14.06-5.547V51.031z M48.765,44.296v18.097l-14.319-5.18V38.646L48.765,44.296z M36.106,36.641l14.39-5.983
	l13.396,5.986l-13.89,5.479L36.106,36.641z M51.241,44.296l14.416-5.687v18.485l-14.416,5.287V44.296z M67.116,35.371l-13.476-6.021
	l13.16-5.473l14.64,5.844L67.116,35.371z M50.784,17.484l12.725,5.079l-12.978,5.397L38.088,22.4L50.784,17.484z M34.836,23.659
	l12.551,5.608l-14.589,6.067l-13.929-5.494L34.836,23.659z M31.97,37.671v18.646l-14.157-5.12V32.086L31.97,37.671z M17.813,53.83
	l14.157,5.122v16.883l-14.157-5.583V53.83z M34.445,76.813V59.847l14.319,5.18V82.46L34.445,76.813z M51.241,65.02l14.416-5.287
	v17.041L51.241,82.46V65.02z M68.134,75.797V58.824l14.06-5.156v16.584L68.134,75.797z"/>
</svg>
