<?xml version="1.0" encoding="utf-8"?>
<!-- Generator: Adobe Illustrator 15.0.0, SVG Export Plug-In . SVG Version: 6.00 Build 0)  -->
<!DOCTYPE svg PUBLIC "-//W3C//DTD SVG 1.1//EN" "http://www.w3.org/Graphics/SVG/1.1/DTD/svg11.dtd">
<svg version="1.1" id="Layer_1" xmlns="http://www.w3.org/2000/svg" xmlns:xlink="http://www.w3.org/1999/xlink" x="0px" y="0px"
	 width="26px" height="26px" viewBox="0 0 26 26" enable-background="new 0 0 26 26" xml:space="preserve">
<g>
	<path fill-rule="evenodd" clip-rule="evenodd" d="M15.481,4.108c0.021,0,0.043,0,0.063,0c1.746,1.36,6.01,4.794,6.01,4.794
		s-0.918,7.746-1.278,10.869c-4.128,1.157-8.213,2.357-12.371,3.484c-0.37-1.234-2.691-7.513-2.691-7.513S4.216,8.175,3.846,5.643
		C7.705,5.111,11.643,4.66,15.481,4.108z M15.193,5.259C11.846,5.716,8.471,6.145,5.092,6.569C5.302,7.127,5.547,7.65,5.764,8.2
		c2.078-0.321,4.271-0.604,6.394-0.928c0.312-0.047,0.73-0.172,0.927-0.127c0.183,0.042,0.521,0.443,0.703,0.64
		c0.725,0.78,1.313,1.441,2.046,2.078c1.387-0.275,2.824-0.5,4.219-0.767C18.567,7.81,16.808,6.521,15.193,5.259z M13.212,10.085
		c-2.246,0.333-4.609,0.826-6.937,1.183c0.196,0.635,0.44,1.222,0.671,1.822c1.284-0.197,2.483-0.478,3.74-0.704
		c0.367,0.529,0.624,1.167,1.022,1.663c1.323-0.298,2.674-0.565,3.996-0.863C14.973,12.182,14.063,11.08,13.212,10.085z
		 M11.422,16.575c-0.096-0.178-0.35-0.95-0.543-0.895c-0.979,0.276-2.275,0.503-3.389,0.767c0.133,0.603,0.438,1.31,0.64,1.95
		c1.295-0.261,2.489-0.622,3.771-0.896C11.79,17.168,11.608,16.923,11.422,16.575z"/>
</g>
</svg>
