<?xml version="1.0" encoding="utf-8"?>
<!-- Generator: Adobe Illustrator 16.0.0, SVG Export Plug-In . SVG Version: 6.00 Build 0)  -->
<!DOCTYPE svg PUBLIC "-//W3C//DTD SVG 1.1//EN" "http://www.w3.org/Graphics/SVG/1.1/DTD/svg11.dtd">
<svg version="1.1" id="Layer_1" xmlns="http://www.w3.org/2000/svg" xmlns:xlink="http://www.w3.org/1999/xlink" x="0px" y="0px"
	 width="50px" height="50px" viewBox="0 0 50 50" enable-background="new 0 0 50 50" xml:space="preserve">
<g>
	<path d="M38.499,21.711c0.008-0.168,0.115-0.308,0.163-0.24c-0.12-0.354,0.031-0.354-0.223-0.407
		c-0.117-0.217,0.066-0.45,0.16-0.201c0.019-0.003-0.179-0.625-0.179-0.625l-0.019,0.374c-0.219-0.092,0.029-0.598-0.223-0.692
		l0.057,0.658l-0.072-0.031c0.097,0.146,0.042,0.441,0.011,0.541c-0.034-0.017-0.092-0.009-0.093-0.124
		c-0.058,0.786,0.39,0.229,0.377,0.915C38.459,21.834,38.469,21.782,38.499,21.711z"/>
	<path d="M37.894,22.319l0.201,0.324l-0.167,0.448c0.088,0.027,0.057,0.386,0.204,0.178c-0.001-0.049,0.003-0.144,0.023-0.215
		c0.189,0.102-0.09,0.652,0.147,0.571c0.065-0.393,0.126-0.441,0.016-0.713c0.093-0.343,0.198-0.587,0.281-0.744
		c-0.016-0.11-0.135-0.141-0.143-0.276c-0.001,0.03-0.002,0.057-0.004,0.09l-0.298-0.025c0.049,0.115,0.007,0.212-0.001,0.332
		l-0.277-0.586c-0.297,0.137-0.198,0.665-0.372,0.845C37.807,22.346,37.582,22.779,37.894,22.319z"/>
	<path d="M38.457,21.892l0.002-0.014L38.457,21.892z"/>
	<path d="M12.192,17.316c0.043-0.141-0.008-0.208-0.034-0.242c0,0-0.135,0.397-0.27,0.794c-0.069,0.199-0.135,0.398-0.151,0.551
		c-0.026,0.151-0.045,0.252-0.045,0.252c0.087-0.037,0.264-0.472,0.254-0.155c0.09-0.119,0.15-0.537,0.075-0.628l0.076,0.146
		c-0.024-0.406,0.343-0.547,0.35-0.29l0.009-0.03c0,0-0.054-0.295-0.107-0.591c-0.033-0.154-0.035-0.303-0.035-0.416
		c-0.001-0.115-0.001-0.191-0.001-0.191C12.088,16.86,12.335,16.873,12.192,17.316z"/>
	<path d="M39.387,17.491c-0.093-0.186-0.127-0.198-0.146-0.166C39.285,17.386,39.331,17.443,39.387,17.491z"/>
	<path d="M12.314,16.224l0.013-0.405C12.299,15.971,12.296,16.114,12.314,16.224z"/>
	<path d="M14.224,19.074c0.009,0.002,0.018,0.007,0.031,0.003l-0.074-0.131v0.003L14.224,19.074z"/>
	<path d="M18.816,11.63c0.039-0.007,0.07-0.013,0.118-0.021C18.892,11.609,18.853,11.622,18.816,11.63z"/>
	<path d="M15.224,22.218c-0.014,0.003-0.252-0.464-0.252-0.464c0.092,0.055,0.035-0.18,0.146-0.087
		c-0.019-0.035-0.075-0.207-0.111-0.155l0.019,0.1c-0.278-0.239-0.362-0.065-0.563-0.511c-0.14,0.293,0.003,0.415,0.139,0.551
		c0.024,0.048,0.037,0.09,0.052,0.131c0,0,0.385,0.375,0.397,0.37L15.224,22.218z"/>
	<path d="M31.525,14.409l-0.005,0.02C31.526,14.422,31.526,14.415,31.525,14.409z"/>
	<path d="M31.503,14.51l0.018-0.081C31.492,14.472,31.375,14.525,31.503,14.51z"/>
	<path d="M12.393,16.411c-0.035-0.03-0.063-0.095-0.078-0.188l-0.002,0.293C12.333,16.49,12.364,16.449,12.393,16.411z"/>
	<path d="M12.617,17.142l-0.161,0.574l0.051,0.245C12.533,17.734,12.587,17.476,12.617,17.142z"/>
	<path d="M17.72,11.6c1.416-0.192-0.308,0.322,0.351,0.321c0.378-0.075,0.504-0.224,0.746-0.291
		c-1.113,0.229,0.123-0.469-1.031-0.273c0.127-0.259,0.83-0.374,1.231-0.315c0.454,0.234-0.387,0.175-0.47,0.441
		c0.458-0.086,0.374-0.113,0.565-0.247c0.363,0.031,0.739-0.036,1.084-0.065c0.338-0.006,0.64,0.033,0.829,0.223
		c0.52,0.016,0.508-0.105,0.825-0.158c0.115-0.256-0.75-0.274-0.926-0.488c0.039,0.027,0.113,0.08,0.085,0.112l-0.457-0.112
		c0.43,0.144-0.088,0.245-0.316,0.24c-0.172,0-0.513,0.004-0.464-0.065l0.264-0.049c-0.338-0.089-0.744,0.171-1.099,0.031
		c-0.021-0.057,0.113-0.083,0.133-0.119c-0.395,0.173-0.79,0.226-1.362,0.407l0.312-0.289c-0.225,0.159-0.601,0.253-1.025,0.366
		c-0.424,0.097-0.895,0.143-1.293,0.242c0.098,0.008,0.256-0.021,0.183,0.059c-0.409,0.224-0.804,0.202-0.655-0.004
		c-0.088,0.092-0.236,0.17-0.419,0.245c-0.176,0.087-0.385,0.192-0.602,0.299c-0.431,0.206-0.874,0.459-1.028,0.796
		c0,0-0.089,0.183-0.223,0.457c-0.131,0.268-0.285,0.623-0.37,1.008c-0.1,0.374-0.178,0.733-0.229,0.994
		c-0.03,0.271-0.032,0.452-0.031,0.452c0.018-0.099,0.045-0.201,0.088-0.298c0.321-0.066,0.357-0.171,0.314,0.263
		c0.113-0.379-0.106-0.359,0.255-0.833c-0.062,0.255,0.11,0.446,0.47,0.046c0.155-0.315,0.366-0.549,0.526-0.83
		c0.17-0.271,0.322-0.561,0.521-0.794c0.19-0.249,0.39-0.503,0.615-0.758c0.232-0.23,0.5-0.438,0.806-0.647
		c0.104,0.1,1.136-0.22,1.659-0.285c-0.165,0.225-0.522,0.362-0.894,0.493c0.243-0.052,0.655-0.139,0.963-0.204L17.72,11.6z"/>
	<path d="M14.75,13.28c0.039-0.005,0.075-0.017,0.112-0.03C14.838,13.249,14.804,13.256,14.75,13.28z"/>
	<path d="M16.571,12.199c-0.003,0.007,0,0.012,0.001,0.019l0.116-0.042C16.647,12.184,16.602,12.193,16.571,12.199z"/>
	<path d="M12.879,16.326c0.006,0.091-0.009,0.147-0.001,0.236l0.037-0.162C12.921,16.342,12.913,16.308,12.879,16.326z"/>
	<path d="M12.49,16.41l-0.041-0.07c-0.024,0.03-0.037,0.046-0.057,0.071C12.422,16.437,12.455,16.442,12.49,16.41z"/>
	<path d="M22.543,13.53l0.121,0.003C22.598,13.513,22.564,13.518,22.543,13.53z"/>
	<path d="M19.308,11.772c-0.478,0.026-0.051,0.221-0.717,0.285l0.196-0.003c-0.47,0.145-1.303,0.186-1.861,0.366
		c0.038-0.114-0.374-0.035-0.354-0.203c-0.381,0.146-0.747,0.358-0.875,0.578c-0.261,0.03-0.531,0.341-0.835,0.455
		c0.162,0.015-0.218,0.506,0.377,0.017c-0.047,0.042-0.004,0.042-0.049,0.084c0.47-0.146,0.57-0.363,0.956-0.541
		c0.263-0.003-0.32,0.292-0.09,0.241c0.44-0.326,1.543-0.33,1.439-0.681c0.363-0.119,0.428-0.01,0.545,0.031
		c0.262-0.205,0.82-0.269,1.281-0.208c0.464,0.035,0.851,0.056,0.867-0.182c-0.215,0.01-0.568-0.005-0.882,0.094V11.772z"/>
	<path d="M13.259,15.686c0.019-0.021,0.041-0.045,0.058-0.065C13.299,15.641,13.278,15.665,13.259,15.686z"/>
	<path d="M10.34,20.889l-0.321-0.207c-0.041-1.198,0.154-1.623,0.33-2.656c0.058-0.069,0.061,0.063,0.063,0.129
		c0.022-0.362,0.233-0.822,0.36-1.251c0.07-0.215,0.139-0.422,0.202-0.617c0.082-0.189,0.148-0.363,0.186-0.509
		c0.125-0.229,0.54-0.759,0.494-0.489c0.041-0.119,0.073-0.263,0.178-0.368c0.106,0.029-0.152,0.281-0.07,0.342
		c0.062-0.092,0.101-0.117,0.084-0.159c-0.008,0.213,0.409,0.052,0,0.772c-0.39,0.155,0.255-0.523-0.088-0.508
		c-0.142,0.249-0.026,0.276-0.008,0.315c-0.179,0.31-0.238,0.27-0.289,0.221c0.024,0.165-0.337,0.51-0.249,0.743
		c-0.205,0.648-0.192-0.118-0.338,0.308l0.196,0.342l-0.283,0.678c-0.081,1.015,0.52-0.011,0.49,1.112
		c-0.117-0.169-0.485,0.229-0.587,0.756c-0.007-0.313-0.066-0.929,0.085-1.326c-0.334,0.536,0.119-0.805-0.193-0.566
		c0.066,0.323-0.004,0.804-0.135,1.173l-0.006-0.128c-0.111,0.405,0.158,0.737,0.022,1.278c-0.006,0.274-0.086,0.222-0.153,0.17
		C10.336,20.68,10.406,20.888,10.34,20.889z M10.293,20.283l0.051-0.371C10.289,19.997,10.283,20.137,10.293,20.283z"/>
	<path d="M36.596,25.887l0.061-0.063C36.636,25.833,36.615,25.859,36.596,25.887z"/>
	<path d="M18.265,29.669l0.108,0.128C18.336,29.743,18.299,29.703,18.265,29.669z"/>
	<path d="M21.678,31.473l0.232,0.097C21.833,31.513,21.757,31.488,21.678,31.473z"/>
	<polygon points="35.518,27.512 35.511,27.517 35.5,27.557 	"/>
	<path d="M26.248,35.07c0.021,0.017,0.043,0.031,0.07,0.035C26.306,35.078,26.28,35.068,26.248,35.07z"/>
	<path d="M21.635,31.455c0.004,0.006,0.005,0.009,0.008,0.014l0.035,0.004L21.635,31.455z"/>
	<path d="M17.83,27.887c-0.029-0.02-0.054-0.037-0.088-0.06C17.777,27.86,17.805,27.876,17.83,27.887z"/>
	<path d="M17.332,28.605c-0.03-0.025-0.061-0.047-0.088-0.061L17.332,28.605z"/>
	<path d="M15,23.664c0,0-0.109-0.173-0.104-0.174C14.924,23.583,14.965,23.631,15,23.664z"/>
	<path d="M17.107,28.028c-0.019-0.001-0.037-0.003-0.053-0.001C17.081,28.045,17.104,28.045,17.107,28.028z"/>
	<polygon points="38.021,25.01 38.017,25.023 38.046,25.042 	"/>
	<path d="M37.826,24.337l0.047-0.19C37.845,24.213,37.829,24.282,37.826,24.337z"/>
	<path d="M28.932,33.874c0.074,0,0.222-0.042,0.195,0.037C29.187,33.792,29.093,33.676,28.932,33.874z"/>
	<path d="M39.165,26.896c-0.016-0.055-0.019-0.115-0.021-0.174C39.138,26.826,39.129,26.917,39.165,26.896z"/>
	<path d="M39.145,26.722l0.007-0.154C39.145,26.62,39.143,26.671,39.145,26.722z"/>
	<path d="M28.995,36.812c-0.024-0.008-0.055-0.008-0.086,0.006C28.939,36.846,28.967,36.838,28.995,36.812z"/>
	<path d="M37.974,24.016c-0.044-0.059,0.037-0.897-0.193-0.243c-0.201-0.095,0.029-0.452,0.03-0.642
		c-0.088,0.112-0.117-0.099-0.205-0.081c0,0.091,0.03,0.209-0.027,0.346c-0.115,0.035-0.118-0.195-0.031-0.349
		c-0.174,0.17-0.092-0.297-0.264-0.039c-0.094,0.621-0.18,1.063-0.063,1.62c0.091-0.373,0.192-0.779,0.357-1.044l0.145,0.183
		c-0.273,0.277-0.239,0.519-0.381,0.837l0.376-0.693c0.258-0.299,0.235-0.052,0.155,0.236C37.901,24.08,37.936,24.022,37.974,24.016
		z"/>
	<path d="M39.33,25.144l0.011-0.012c-0.001-0.015,0.001-0.032-0.004-0.043L39.33,25.144z"/>
	<path d="M11.386,24.996l-0.099-0.055C11.343,24.996,11.372,25.009,11.386,24.996z"/>
	<path d="M38.275,25.27L38.275,25.27C38.274,25.275,38.274,25.277,38.275,25.27z"/>
	<path d="M12.211,26.913l-0.02-0.002C12.2,26.915,12.205,26.912,12.211,26.913z"/>
	<path d="M16.053,25.39c0.007-0.007,0.014-0.012,0.018-0.022C16.046,25.343,16.046,25.362,16.053,25.39z"/>
	<path d="M12.228,26.906c-0.005,0.002-0.01,0.006-0.017,0.007C12.217,26.911,12.225,26.912,12.228,26.906z"/>
	<path d="M18.866,33.725c0,0-0.001-0.044-0.017-0.097C18.825,33.63,18.825,33.657,18.866,33.725z"/>
	<path d="M17.695,32.301c-0.003-0.013-0.006-0.023-0.01-0.038L17.695,32.301z"/>
	<path d="M28.109,33.405c-0.069,0.046-0.119,0.085-0.158,0.121C28.005,33.497,28.059,33.458,28.109,33.405z"/>
	<path d="M12.191,26.911c-0.028-0.009-0.061-0.025-0.106-0.057C12.135,26.889,12.167,26.904,12.191,26.911z"/>
	<polygon points="21.617,34.668 21.561,34.652 21.581,34.679 	"/>
	<path d="M22.29,35.323c-0.038,0-0.063,0.009-0.089,0.015c0.315,0.128,0.774,0.54,0.947,0.412c-0.098-0.057-0.511-0.485-0.361-0.526
		c-0.22-0.086-0.413-0.402-0.533-0.445c0.243,0.308-0.065,0.164-0.314,0.071c-0.152-0.186,0.131-0.107-0.008-0.255l-0.445-0.298
		l0.36,0.297l-0.229,0.073c0.018,0.004,0.029,0.008,0.05,0.013C22.36,35.075,21.553,34.954,22.29,35.323z"/>
	<path d="M22.201,35.338c-0.048-0.019-0.092-0.032-0.132-0.035C22.133,35.345,22.168,35.345,22.201,35.338z"/>
	<path d="M24.918,37.464c0.045,0.018,0.094,0.036,0.155,0.054C25.041,37.506,24.979,37.485,24.918,37.464z"/>
	<path d="M12.342,18.345c-0.062-0.003-0.26,0.45-0.111,0.472l0.121-0.412C12.352,18.404,12.34,18.344,12.342,18.345z"/>
	<path d="M32.221,32.646c-0.042,0.029-0.082,0.061-0.12,0.096l-0.008,0.037C32.131,32.774,32.191,32.689,32.221,32.646z"/>
	<path d="M22.944,35.246c-0.083-0.028-0.127-0.03-0.157-0.021C22.839,35.245,22.892,35.257,22.944,35.246z"/>
	<path d="M32.475,32.897c0.077-0.011,0.192-0.025,0.24,0.009c0.103-0.088,0.122-0.209,0.206-0.321
		C32.819,32.704,32.675,32.811,32.475,32.897z"/>
	<path d="M32.928,32.576l-0.007,0.009L32.928,32.576z"/>
	<path d="M12.495,18.09l0.012-0.13l0.017,0.074l0.149-0.296c0.004-0.041,0.009-0.084,0.021-0.136
		c-0.002,0.022,0.008,0.043,0.02,0.059l0.051-0.093c-0.096-0.311,0.131-0.947,0.15-1.167c0.065-0.264,0.189-0.571,0.344-0.714
		c-0.133,0.141-0.236,0.37-0.121,0.355c0.292-0.267,0.611-0.224,0.843-0.867l-0.235,0.293c0,0,0.074-0.221,0.148-0.443
		c0.107-0.205,0.216-0.409,0.216-0.409c0.33-0.093-0.234,0.398-0.205,0.583c0.163-0.302,0.465-0.438,0.687-0.568
		c0.222-0.137,0.413-0.22,0.471-0.412c0.132,0.12,0.345,0.324,0.682,0.103c-0.351-0.018,0.154-0.238-0.157-0.295
		c0.076-0.177,0.447-0.165,0.419-0.284l-0.008,0.08c0.767-0.023,0.834-0.503,1.123-0.703c0.857-0.302,1.289-0.19,2.001-0.272
		c0.034,0.115,0.229,0.433,0.502,0.425c0.132-0.168,0.77-0.197,0.857-0.369c-0.502-0.152-0.432,0.123-0.734,0.158
		c-0.247-0.212-0.014-0.206-0.366-0.336c0.144,0.045,0.467,0.015,0.794,0.021c0.324,0.028,0.652,0.072,0.791,0.188l-0.112,0.013
		c0.48,0.172,0.449,0.696,1.291,0.586c0.002-0.01,0.399-0.004,0.399-0.005c-0.023,0.013-0.032,0.034-0.047,0.048
		c0.583,0.238,0.349,0.361,1.045,0.465c-0.054-0.01-0.032,0.024-0.086,0.013c0.296,0.269,0.771,0.231,1.032,0.326
		c0.059,0.233-0.1,0.124-0.257,0.179c0.268,0.19,0.572,0.323,0.852,0.389c0.274,0.075,0.467,0.104,0.608,0.085
		c0.076,0.093,0.151,0.187,0.227,0.246l0.041,0.019l-0.041,0.056c-0.151-0.025-0.353,0.005-0.313,0.148
		c0.154,0.087,0.151,0.008,0.313,0.142c0.013-0.009,0.04-0.027,0.072-0.048c-0.014,0.058-0.036,0.12-0.072,0.196
		c-0.045,0.047-0.118,0.076-0.206,0.116c0.093,0.111,0.161,0.177,0.206,0.208c0.234-0.214-0.029-0.422,0.306-0.351
		c0.176-0.139,0.245-0.383,0.234-0.53c0,0,0.328-0.059,0.342-0.052c-0.011-0.184,0.376-0.434,0.62-0.614
		c-0.003-0.08-0.277-0.033-0.345,0.083c-0.022-0.132,0.184-0.345,0.378-0.441c0.227,0.261,1.332-0.68,1.248-0.184
		c0.882-0.501,2.276-0.787,2.938-0.987c0.23,0.067,0.68,0.081,0.417,0.24c0.795-0.031,1.251-0.336,2.063-0.119
		c0.061,0.045-0.368-0.066-0.356,0.061c0.277-0.056,0.508,0.073,0.771,0.167c0.266,0.098,0.552,0.222,0.947,0.35
		c-0.132-0.046-0.193,0.005-0.224,0.031c0.006-0.059,0.354,0.015,0.578,0.046c0.101,0.072-0.166-0.023-0.121,0.042
		c0.694,0.396,1.303,0.729,1.893,1.153c0.571,0.427,1.129,0.954,1.487,1.703c-0.225-0.422-0.502-0.456-0.582-0.41l0.209,0.391
		c0.171,0.101,0.372,0.383,0.52,0.627c-0.027,0.049-0.026,0.194-0.121,0.083c0.026,0.456,0.259,0.73,0.454,1.064
		c0.179,0.333,0.379,0.71,0.413,1.26c0,0-0.169-0.308-0.338-0.616c-0.168-0.293-0.335-0.586-0.335-0.586l-0.102,0.341
		c0,0-0.289-0.492-0.313-0.481c-0.031,0.332,0.272,0.552,0.12,0.624c-0.06-0.057-0.072-0.22-0.163-0.205
		c-0.014,0.312,0.115,0.309,0.188,0.531c-0.414-0.547-0.715-1.63-1.098-2.101c-0.069-0.069,0.112,0.031,0.153,0.031
		c-0.128-0.208-0.105-0.393-0.305-0.636c-0.213-0.087-0.022,0.188,0.036,0.327c-0.121,0.046-0.149-0.022-0.242-0.156
		c0.146-0.141-0.495-0.736-0.487-1.042c-0.712-0.542-0.202,0.413-0.781-0.189c0.007-0.005-0.076-0.315-0.086-0.307
		c-0.26-0.063-0.53-0.151-0.798-0.249c-0.289-0.062-0.565-0.147-0.813-0.272l0.109,0.038c0.099-0.05-0.004-0.146-0.045-0.21
		c-0.405-0.174-0.82-0.059-1.05-0.277c-0.266,0.084-0.598,0.122-0.933,0.188c-0.338,0.091-0.673,0.144-0.941,0.224
		c-0.174-0.267,0.708-0.241,0.951-0.406l-0.521,0.01c0.321-0.007,0.448-0.113,0.652-0.257c-0.47-0.043-0.625,0.184-1.05,0.262
		c0.028-0.075-0.032-0.11-0.234-0.085l-0.039,0.177c-0.006-0.013-0.028-0.023-0.092-0.026c0.001,0-0.749,0.196-0.743,0.22
		c0.173,0.033,0.207,0.174,0.398,0.155c-0.085-0.09,0.075-0.13,0.27-0.152c-0.153,0.133,0.2,0.069,0.205,0.162
		c-0.382,0.033-0.845,0.133-1.075,0.254l-0.117-0.134c-0.377,0.031-0.717,0.258-0.969,0.298l0.047-0.105
		c-0.453,0.085-0.795,0.39-1.229,0.419l-0.593,0.677c-0.229,0.263-0.428,0.473-0.631,0.767c-0.1,0.222-0.598,0.502-1.08,0.814
		c-0.396-0.37-0.786-0.706-1.09-0.782c-0.031-0.053,0.448,0.16,0.647,0.219c-0.364-0.325-0.748-0.315-0.801-0.618
		c0.826,0.734-0.001-0.221,0.388,0.006c-0.386-0.32-0.758-0.469-0.975-0.537c0.598,0.397-0.331,0.139,0.319,0.462
		c-0.271-0.072-0.587-0.209-0.905-0.388c-0.254-0.101-0.45-0.18-0.645-0.316c0.042-0.083,0.009-0.146-0.131-0.255l-0.179,0.075
		c-0.193-0.098,0.45-0.002,0.06-0.197c-0.255,0.036-0.556-0.113-0.845-0.215c-0.294-0.077-0.567-0.126-0.703,0.059
		c-0.296-0.244,0.664-0.014,0.211-0.334c0.334-0.081,0.697,0.187,0.852,0.034c-0.306-0.041-0.05-0.216-0.242-0.27l-0.367,0.047
		l0.071,0.025c-0.303,0.035-0.656-0.046-1.038-0.071c-0.189-0.025-0.383-0.051-0.574-0.076c-0.19,0-0.377,0-0.556,0
		c-0.303,0.087-0.539,0.242-0.778,0.375c-0.242,0.121-0.488,0.214-0.796,0.294c0.162-0.167-0.562,0.009-0.214-0.309
		c-0.348-0.053-0.583,0.209-0.554,0.293c0.256-0.069,0.095-0.011,0.316-0.046c-0.107,0.16-0.411,0.284-0.573,0.265
		c0.063-0.016,0.032-0.026,0.031-0.064c-0.319,0.05-0.104,0.141-0.264,0.295c-0.131-0.098-0.429,0.207-0.642,0.244l-0.069,0.362
		c0.02-0.212-0.232,0.13-0.361,0.06c-0.104,0.19-0.025,0.477-0.252,0.665c0.02-0.14-0.267,0.138-0.391,0.068
		c-0.187,0.207-0.21,0.462-0.233,0.689c-0.032,0.225,0.017,0.482-0.181,0.687c-0.028-0.025-0.086-0.16-0.173-0.023
		c0.008,0.134-0.11,0.317-0.102,0.466l-0.003-0.005l0.003,0.008c-0.004,0.069,0.008,0.115,0.043,0.125
		c0.103,0.262,0.232,0.408,0.273,0.853c0.177-0.013,0.177-0.374,0.149-0.542l-0.143-0.17c0.265-0.079,0.023-0.401,0.154-0.463
		c0.087,0.149,0.104,0.408,0.104,0.686c0.006,0.277-0.056,0.562,0.046,0.792c0.245-0.246,0.394-0.784,0.463-1.239
		c-0.006-0.005-0.163,0.161-0.153,0.169c-0.013-0.009,0.061-0.235,0.064-0.232c0,0-0.255,0.169-0.243,0.18
		c0.073-0.228,0.132-0.412,0.196-0.611c-0.073,0.229-0.333,0.252-0.249,0.128c0.247-0.208-0.01-0.314,0.066-0.523
		c-0.05,0.11-0.103,0.262-0.161,0.127c0.33-0.325,0.316-0.441,0.652-0.662c-0.283-0.142,0.247-0.351,0.093-0.542l-0.124,0.116
		l0.096-0.398c0.376-0.097-0.015,0.369,0.433,0.131c0.363-0.236,0.116-0.525,0.447-0.718c-0.035,0.188-0.15,0.487-0.354,0.663
		l0.179-0.046c-0.004,0.129-0.3,0.338-0.4,0.5c0.041-0.369-0.129,0.074-0.351,0.093c0.117,0.113,0.224-0.048,0.179,0.201
		c0.137-0.162,0.149-0.195,0.357-0.368c-0.202,0.208-0.18,0.392-0.144,0.549c0.054,0.181,0.125,0.339-0.054,0.51
		c0.045-0.227-0.246-0.041-0.337-0.045c-0.059,0.089-0.064,0.366-0.067,0.465l0.248-0.003c0.021,0.326-0.559,0.251-0.366,0.729
		c0.131,0.081,0.1-0.337,0.115-0.26c0.086,0.571-0.391,0.67-0.585,1.188c0.069,0.033,0.219,0.039,0.333,0.217
		c-0.138-0.061-0.218,0.07-0.31-0.138c-0.072,0.171,0.018,0.381,0.088,0.53c0.066-0.356,0.211,0.144,0.297,0.199
		c-0.019,0.18-0.143-0.046-0.188-0.16c-0.032,0.146-0.235,0.339-0.021,0.407c-0.146,0.023-0.407-0.396-0.453-0.691
		c-0.007,0-0.019,0.195-0.019,0.195c-0.084-0.134-0.065-0.161-0.026-0.354c-0.128,0.187-0.255,0.17-0.357,0.121
		c0.023-0.025,0.034,0.015,0.058-0.009c0.048-0.161,0.014-0.287-0.067-0.253c-0.19-0.16-0.139,0.224-0.245,0.337l0.051,0.257
		c0,0,0.168,0.207,0.336,0.413c0.177,0.199,0.369,0.38,0.369,0.38c0.108,0.335-0.003,0.513-0.039,0.8l0.184,0.034
		c0.033,0.305,0.099,0.606-0.181,0.47c0.052-0.027,0.026-0.063,0.015-0.133c-0.025-0.002-0.047-0.014-0.065-0.03l-0.034-0.008
		c0.155,0.313,0.252,0.508,0.263,0.529c-0.407-0.491-0.307,0.063-0.626,0.061c0,0,0.068,0.143,0.137,0.285
		c0.08,0.139,0.16,0.277,0.16,0.277c-0.045-0.387,0.139-0.057,0.224,0.051c-0.151,0.098,0.18,0.466,0.26,0.671h-0.039
		c0.028,0.211,0.198,0.531,0.369,0.733c0.047-0.037,0.444,0.119,0.667,0.165c-0.15-0.405,0.032-0.216,0.107-0.299
		c0.013,0.043,0.048,0.113,0.07,0.11c0.07,0.028,0.019-0.104,0.063-0.142c-0.288-0.347-0.508-0.739-0.792-0.806
		c-0.041,0.17,0.191,0.167,0.188,0.336c-0.23-0.13-0.34-0.403-0.47-0.745l0.092-0.165L15,23.664c0.126,0.117,0.236-0.019,0.396,0.32
		c0.112-0.094-0.166-0.335-0.196-0.566l-0.214-0.052c0.113,0.008-0.005-0.458,0.231-0.173c0,0,0.076,0.119,0.152,0.239
		c0.087,0.117,0.174,0.233,0.174,0.233l0.067-0.188l0.199,0.418l-0.13-0.065c0.408,0.643-0.262,0.359,0.265,0.975
		c0.334,0.112,0.451,0.333,0.665,0.778c-0.231-0.276-0.159,0.052-0.345,0.005c0.112,0.365,0.338,0.373,0.514,0.483
		c-0.045,0.143-0.102,0.259-0.26-0.033c-0.243,0.105,0.275,0.343,0.078,0.514c0.665,0.925,1.187,0.225,1.767,1.439l-0.113,0.032
		c0.66,0.543,0.898,0.991,1.532,1.486c0,0,0.065,0.159,0.132,0.317c0.07,0.157,0.141,0.314,0.141,0.314
		c-0.133-0.065-0.552-0.183-0.512,0.035c-0.031-0.416-0.338-0.573-0.464-0.914c-0.073,0.025-0.019,0.159-0.007,0.231
		c-0.139-0.146-0.119-0.304-0.336-0.461c-0.032,0.047,0.119,0.303-0.056,0.168l-0.127-0.375c-0.377-0.301-0.454,0.094-0.774-0.379
		c0.185-0.019,0.488-0.003,0.658,0.133c-0.145-0.211,0.292,0.192,0.204-0.042c-0.402-0.126-0.405-0.366-0.812-0.651
		c0.06,0.024,0.103,0.008,0.188,0.09l-0.371-0.596c0.002,0.217-0.455-0.367-0.571-0.201c0.385,0.645,0.348,0.394,0.809,1.127
		c-0.189-0.158-0.54-0.276-0.777-0.279c0.001-0.011-0.002-0.024-0.017-0.047c-0.234,0.016-0.188,0.153-0.449,0.36
		c0.448,0.165,0.461,0.506,0.893,0.775c0.198-0.056-0.015-0.36-0.202-0.511l0.369,0.237l-0.119-0.006c0,0,0.168,0.21,0.334,0.42
		c0.175,0.207,0.349,0.413,0.349,0.413c-0.148-0.141-0.273-0.119-0.407-0.142c0.092,0.106,0.153,0.24,0.218,0.384
		c0.104-0.143,0.207-0.214,0.298-0.114c0.458,0.525,0.63,0.909,0.688,1.231c0.022,0.016,0.048,0.033,0.068,0.047
		c0.037-0.212,0.583,0.109,0.87,0.112c-0.131,0.131,0.198,0.321,0.289,0.526c0.22-0.089,0.301-0.407,0.233-0.697
		c-0.479-0.163-0.327-0.026-0.677,0.031l-0.682-0.381l0.24-0.008c-0.228-0.308-0.634-0.408-0.463-0.544
		c0.244,0.034,0.414,0.328,0.662,0.352l-0.126-0.226c0.467,0.138,0.021,0.304,0.513,0.552c-0.017-0.271,0.041,0.025,0.298,0.08
		c-0.054-0.213-0.719-0.588-0.388-0.712c0.286,0.083,0.427,0.896,0.911,0.895l-0.036,0.016c0.38,0.379,0.645,0.357,0.868,0.397
		c0.112,0.222,0.449,0.304,0.647,0.448l-0.062,0.069l0.301,0.181c-0.235,0.034-0.322-0.251-0.569-0.418l-0.077,0.157
		c-0.145-0.373-0.516-0.276-0.816-0.337c0.39,0.14,0.837,0.729,1.114,0.523l0.086,0.284l0.131,0.021
		c0.064,0.213-0.205,0.264-0.511,0.08c-0.022-0.071-0.032-0.108,0.004-0.125c-0.175-0.042-0.376-0.031-0.662-0.31l0.223,0.061
		c-0.377-0.317-0.759-0.557-0.999-0.538c0.499,0.516,1.037,0.977,1.582,1.376c0.393-0.187,0.709-0.222,1.005-0.454
		c0.395,0.21,0.911,0.517,1.155,0.842l-0.069,0.039c0.136,0.136,0.289,0.22,0.433,0.265c0.114,0.188-0.22,0.083-0.132,0.203
		l0.601,0.249c-0.122,0.118-0.573-0.178-0.792-0.312c0.047,0.016,0.143,0.048,0.129,0.012c-0.207-0.221-0.824-0.308-0.793-0.578
		c-0.142-0.05,0.34,0.027-0.052-0.265c-0.214-0.261-0.422-0.155-0.492-0.118c-0.061,0.072,0.342,0.407,0.13,0.391
		c0.218,0.139,0.369,0.101,0.587,0.363c-0.214-0.137-0.606-0.184-0.634-0.38c-0.507-0.158-0.708,0.232-0.527,0.395
		c0.032-0.14,0.854,0.404,0.413-0.125c0.346,0.031,0.791,0.342,1.175,0.468l-0.033,0.019l0.426,0.23
		c-0.083,0.003-0.229-0.043-0.283,0.031l0.695,0.157c-0.406-0.063,0.133,0.224,0.24,0.376c0.137-0.081,0.408-0.035,0.242-0.233
		c-0.183-0.234-0.179-0.021-0.399-0.148l0.423,0.003l0.015,0.035c0,0,0.069-0.011,0.14-0.021c0.058-0.018,0.07-0.064,0.075-0.061
		c0.071,0.059-0.239,0.352-0.035,0.266l0.081-0.242c0.039,0.046,0.082,0.174,0.161,0.288c0.066,0.027,0.152,0.016,0.184-0.065
		c0.018,0.154,0.04,0.406,0.147,0.5c-0.086,0.004-0.22,0.088-0.331,0.171l-0.02-0.006c-0.006-0.017,0.003-0.044,0.02-0.072
		c0.047-0.125,0.117-0.305,0.19-0.302c-0.085-0.264-0.117-0.019-0.19,0.07c-0.032,0.008-0.058-0.026-0.05-0.184
		c-0.145-0.249-0.272,0.306-0.392-0.05c-0.067,0.176-0.218-0.029-0.329,0.094c-0.001,0.088,0.084,0.184,0.136,0.233
		c0.036,0.041,0.093,0.066,0.152,0.086c0.122,0.043,0.246,0.055,0.33,0.164c-0.02,0.004-0.062,0.012-0.075,0.045
		c0.098,0.103,0.164,0.125,0.228,0.117c0.021-0.028,0.044-0.058,0.069-0.092l-0.013-0.018c0.142-0.288,0.111,0.097,0.241,0.117
		c0.036-0.053,0.208-0.092,0.138-0.208c-0.007,0.004,0.262,0.047,0.269,0.042L26.515,35.1c0.07-0.058,0.269-0.02,0.379-0.238
		l-0.09-0.162c0,0-0.143,0.071-0.286,0.142c-0.111,0.05-0.135,0.046-0.146,0.052c0.038-0.059,0.022-0.102,0.01-0.142
		c-0.02-0.037-0.041-0.069,0.111-0.186c-0.228,0.379,0.291-0.06,0.415,0.061l0.164-0.228l-0.03,0.077
		c0.225-0.03,0.167-0.19,0.38-0.301c-0.291,0.07-0.515,0.06-0.746,0.362c0.166-0.226,0.533-0.603,0.635-0.679
		c0.185-0.213,0.417-0.207,0.641-0.333c-0.364,0.336,0.462,0.367-0.437,0.809c-0.004-0.04,0.067-0.077,0.105-0.076
		c-0.24-0.123-0.486,0.339-0.622,0.53c0.12,0.084-0.053,0.234,0.311,0.091c-0.151-0.004,0.107-0.428,0.471-0.537l0.107,0.277
		l0.462-0.271l-0.033,0.04c0.273,0.042,0.448-0.354,0.812-0.477c0.158-0.238,1.021-0.78,0.488-0.761
		c0.369-0.056,0.464-0.409,0.715-0.664l-0.422,0.18c0.285-0.483,0.248-0.289,0.367-0.804c0.083,0.036,0.196,0.029,0.183,0.146
		c0.552-0.427,1.363-1.018,1.493-1.473c0.366-0.318,0.657-0.126,1.052-0.702c0.071-0.131-0.267-0.109,0.102-0.374
		c0.037-0.007-0.146,0.463,0.185,0.085c0.089-0.407,0.665-0.526,0.826-1.002c0.221-0.129,0.46-0.476,0.542-0.295
		c-0.27,0.276-0.61,0.707-0.604,0.827c-0.044-0.111-0.261,0.137-0.132-0.131c-0.485,0.347-0.178,0.354-0.605,0.676
		c0.025,0.076,0.329-0.062,0.362-0.188c0.179,0.163-0.645,0.841-0.108,0.7c0.416-0.405,0.168-0.864,0.679-1.063
		c-0.022,0.246-0.317,0.394-0.313,0.749l0.353-0.234l0.069-0.339l0.015,0.037c0.651-0.392,0.248-0.669,0.56-1.228
		c-0.362,0.176-0.273-0.325-0.526-0.181c0.241-0.335,0.434-0.561,0.633-0.417c-0.318,0.738,0.189,0.193-0.085,0.913
		c0.146-0.04,0.16,0.361,0.467,0.032c0.167-0.504-0.247-0.006-0.011-0.45c0.034-0.01,0.07-0.021,0.088,0.014
		c0.037-0.257,0.199-0.185,0.25-0.488l0.002,0.081c0.313-0.193,0.073-0.399,0.369-0.547c-0.218-0.006-0.004-0.239-0.013-0.452
		c-0.208,0.21-0.519,0.19-0.822,0.661c0.072,0.138,0.162,0.151,0.074,0.38l0.208-0.31c-0.018,0.072-0.037,0.151-0.056,0.226
		l-0.276,0.244c0.194-0.424-0.054-0.348-0.058-0.586c0.284-0.296,0.158-0.297,0.341-0.48c0.164,0.144,0.73-0.458,1.078-0.807
		c-0.042,0.061-0.082,0.146-0.115,0.187c-0.067,0.363,0.274-0.116,0.322-0.104l0.029-0.272c-0.01,0.048,0.001,0.13,0.078,0.049
		c0.126-0.321-0.055-0.394,0.046-0.712c0.114,0.025,0.15,0.361,0.293,0.196c0.115-0.022,0.469-0.124,0.556-0.59
		c-0.029-0.047-0.01-0.167,0.021-0.302c-0.001,0.02-0.006,0.044-0.001,0.055l0.226-0.241c0.085,0.313-0.266,0.462-0.195,0.777
		l0.161,0.095c-0.088,0.191-0.135,0.483-0.104,0.647c0.165-0.281,0.149-0.365,0.266-0.708c0.13-0.001,0.102,0.268,0.098,0.307
		l-0.074-0.093c-0.321,0.328-0.104,0.67-0.402,1.136c-0.046,0.069-0.034,0.018-0.057-0.015c-0.045,0.485-0.5,0.717-0.523,1.213
		l-0.007-0.172c-0.098,0.284-0.257,0.875-0.479,1.443l0.055,0.047c0.074-0.026-0.062,0.149-0.156,0.225v-0.001
		c-0.104,0.293-0.232,0.555-0.331,0.777c0.081-0.029,0.172-0.08,0.25-0.158c-0.003-0.122,0.389-0.51,0.188-0.57
		c0.242-0.132,0.36-0.549,0.521-0.661c-0.291,0.205-0.016-0.298-0.07-0.405c0.163-0.024,0.271-0.412,0.383-0.286
		c0.073-0.031-0.184,0.075-0.183,0.247c-0.073,0.377,0.478-0.458,0.349-0.015c0.216-0.531,0.638-1.147,0.77-1.733l-0.212,0.253
		c0.152-0.209,0.383-0.772,0.468-0.783c-0.072,0.182-0.149,0.376-0.245,0.616c0.166,0.1,0.265-0.528,0.374-0.506
		c0,0,0.005-0.194,0.011-0.388c0.009-0.19-0.002-0.386-0.002-0.386s-0.129,0.281-0.129,0.281c-0.024-0.22,0.344-0.766,0.51-1.221
		c0.172,0.351-0.238,0.688-0.326,1.198c-0.068,0.376,0.32-0.114,0.228,0.232c0.097-0.058,0.178-0.28,0.158-0.412l0.094-0.116
		c0.11,0.392-0.242,1.03-0.283,1.551c-0.002-0.048-0.008-0.093-0.025-0.117c-0.259,0.284-0.42,0.622-0.557,0.959
		c0.163-0.124,0.155-0.217,0.185-0.326c0.059,0.018-0.088,0.327-0.106,0.467c0.234-0.254,0.149,0.015,0.295-0.149
		c-0.068,0.217-0.177,0.363-0.339,0.58c-0.146,0.073-0.041-0.162-0.152-0.197c-0.086,0.272-0.377,0.232-0.495,0.63
		c0.34-0.411,0.127,0.253,0.082,0.452l0.058-0.07c0.012,0.216-0.063,0.344-0.234,0.364c0.086-0.208,0.233-0.365,0.088-0.391
		c-0.077,0.122-0.152,0.246-0.22,0.398l0.011-0.176l-0.407,0.585c0.026,0.164,0.044,0.419,0.115,0.605
		c-0.194,0.065-0.277,0.308-0.351,0.462l0.011-0.091c-0.274,0.187-0.686,0.756-0.646,0.876c-0.213,0.098,0.548-1.626-0.426-0.388
		c-0.4,0.442-0.006,0.501-0.157,0.833c0,0-0.012-0.038-0.051-0.028c-0.2,0.173-0.126,0.283-0.239,0.476
		c0.148-0.076,0.309-0.243,0.325-0.33c0.047,0.157-0.392,0.391-0.46,0.607c0.034-0.338-0.423,0.298-0.355,0.075
		c-0.469,0.266-0.764,0.761-0.86,1.067c-0.449,0.025-0.438,0.444-0.963,0.712c0.072-0.05,0.169-0.184,0.282-0.24
		c0.136-0.342-0.512,0.311-0.231-0.132c-0.064,0.089,0.054,0.075,0.12-0.016c0.132-0.141,0.218-0.318,0.13-0.345l-0.449,0.185
		l0.096-0.135l-0.67,0.284c0.007,0.039,0.085,0.03,0.124,0.026c-0.679,0.441-1.331,1.098-1.92,1.487
		c0.187,0.483-1.293,1.179-1.613,1.734c0.053-0.203-0.015-0.455-0.149-0.488c0.095-0.088,0.203-0.392,0.461-0.521
		c0.082,0.04,0.426-0.087,0.287,0.116c0.624-0.496-0.21-0.115-0.119-0.398c-0.692,0.534-0.972,1.049-1.384,1.444l-0.042-0.042
		c0.042-0.025-0.395,0.374-0.409,0.378c0.433-0.225,0.567,0.022-0.057,0.281l0.064-0.054c-0.365,0.088-0.994,0.598-1.521,0.859
		l-0.35,0.37l-0.009,0.004c-0.531-0.31-0.518-0.639-0.646-0.912c-0.369-0.215-0.675-0.322-0.977-0.415
		c-0.147-0.04-0.301-0.083-0.453-0.124c-0.161-0.047-0.309-0.091-0.406-0.108c-0.104-0.215-0.869-0.745-0.368-0.611
		c-0.528-0.209-0.827,0.437-1.41-0.43l0.278,0.038c-0.778-0.491-1.985-1.087-2.243-1.457c0.543-0.145-0.621-1.077-0.454-1.527
		c-0.029,0.107-0.314-0.087-0.389-0.078c-0.024-0.087-0.084-0.209-0.244-0.227c0.212,0.302-0.493,0.184,0.146,0.495
		c-0.459,0.004-0.966-0.107-1.524-0.65l0.134-0.127l0.413,0.454c0.045-0.142,0.273,0.072,0.411,0.109
		c-0.774-0.824,0.389-0.217-0.472-0.973c-0.162,0.013-0.076,0.025-0.327-0.143c0.106,0.091,0.212,0.015,0.049-0.139l-0.258-0.045
		c-0.074-0.497,0.615,0.313,0.519-0.08c0.418,0.196,1.029,0.64,1.082,0.368c-0.466-0.532-0.77-0.098-1.238-0.689l0.013-0.127
		c-0.234-0.134-0.379-0.048-0.552-0.08c0.032-0.05,0.013-0.125-0.094-0.258c-0.476-0.16-0.725-0.333-1.192-0.476
		c0.899,0.683,0.519,0.829,1.461,1.511c-0.18-0.072-0.801-0.594-1.015-0.459l0.141-0.121c-0.328-0.207-0.667-0.409-0.937-0.811
		l0.271,0.147c-0.522-0.384-0.482-0.965-1.033-1.158c0.1,0.147,0.196,0.254,0.287,0.321c-0.271-0.2-0.523-0.526-0.71-0.835
		l-0.69-0.418c0.078-0.048-0.188-0.444,0.063-0.338c-0.192-0.518-0.557-0.583-0.76-0.833c-0.125-0.58,0.327,0.37,0.571,0.273
		c-0.341-0.681-0.793-1.345-1.143-1.662c0.041,0.156,0.05,0.239,0.006,0.252c0.039-0.047-0.122-0.316-0.189-0.48l-0.16-0.059
		c-0.051-0.303,0.032-0.292,0.219-0.105c-0.093-0.262-0.455-0.469-0.393-0.812c0.303,0.395,0.459,0.982,0.643,1.169
		c-0.528-0.851-0.107-1.034-0.659-2.156c0.05-0.032,0.217,0.135,0.149-0.095c-0.202-0.519-0.278-0.067-0.457-0.197
		c0.196,0.399,0.186,0.613,0.139,0.901l-0.133-0.077c0.038-0.033-0.054-0.294-0.026-0.391l-0.21-0.008
		c0.218-0.039,0.25-0.509,0.073-0.819c-0.054,0.379-0.072,0.287-0.285,0.449c-0.38-0.423,0.082-0.606-0.287-1.105
		c0.078,0.03,0.233,0.5,0.197,0.073c-0.062-0.347-0.23-0.267-0.314-0.499c0.214,0.24,0.349,0.146,0.616,0.382
		c0.155,0.589,0.039,0.247,0.264,0.799c0,0-0.003-0.127,0.011-0.26c0.012-0.13,0.022-0.261,0.022-0.261
		c0.136,0.489,0.287,0.305,0.362,0.328c-0.002-0.863-0.42-0.561-0.469-1.121c-0.167-0.247,0.056,0.523-0.143,0.127
		c-0.042-0.53-0.134-0.099-0.289-0.688l0.096,0.091c0.086-0.193-0.075-0.357-0.097-0.572c-0.063-0.239-0.626,0.323-0.674-0.7
		c0.053,0.05,0.086,0.068,0.106,0.068c0.003,0.036,1.564,0.886,1.576,0.849c-0.07-0.89-0.015-1.938,0.314-2.921
		c0.335-0.171,0.119,0.753,0.264,0.709c0,0-0.034,0.109-0.069,0.218c-0.032,0.109-0.049,0.222-0.049,0.222
		c-0.157-0.039,0.11-0.946-0.189-0.57c-0.029,0.812-0.179,1.194,0.115,1.95c0.146-0.126,0.121-0.37,0.092-0.65
		c-0.006-0.278-0.019-0.596,0.11-0.828c-0.03,0.202-0.007,0.377,0.026,0.545c0.042-0.454,0.163-0.926,0.306-1.417l-0.052-0.127
		c-0.093,0.333-0.16,0.567-0.177,0.597c0.105-0.448,0.01-0.867-0.197-0.954l-0.023,0.082l-0.035-0.188
		C12.389,18.296,12.447,18.194,12.495,18.09z M38.708,16.69c-0.033-0.016-0.065-0.024-0.101-0.024
		C38.644,16.666,38.652,16.639,38.708,16.69z M14.644,26.696c-0.286-0.536-0.513-1.103-0.721-1.638
		c0.009,0.562,0.054,1.056-0.014,1.205c-0.062,0.147-0.293-0.027-0.662-0.865l-0.079-0.096c0.059,0.235,0.205,0.627,0.427,0.949
		c0.277,0.224,1.271,0.775,1.31,0.729c0.048-0.155-0.146-0.216-0.215-0.4L14.644,26.696z M14.253,27.454
		c0.146,0.333,0.191,0.205,0.292,0.205c-0.082-0.095-0.154-0.198-0.229-0.297C14.322,27.414,14.309,27.45,14.253,27.454z
		 M14.605,27.594c-0.021-0.034-0.036-0.064-0.037-0.085L14.605,27.594z M12.46,21.164c0.003,0.015,0.004,0.022,0.007,0.036
		c0.004-0.083,0.007-0.166,0.011-0.253C12.465,20.98,12.457,21.044,12.46,21.164z M12.299,21.897l0.169,0.066
		c-0.004-0.078-0.008-0.157-0.013-0.238C12.388,21.758,12.328,21.792,12.299,21.897z M12.303,24.34
		c0.219,0.09,0.419,0.553,0.631,0.502c0.064,0.009,0.047-0.096,0.022-0.211c-0.04-0.124-0.089-0.253-0.127-0.396
		c-0.032,0.005-0.069-0.013-0.11-0.051c0.013,0.149,0.001,0.258-0.149,0.247c0.164-0.455-0.3-0.262-0.351-0.687
		C12.03,23.657,12.206,24.238,12.303,24.34z M35.222,30.24c0.021,0.004,0.084,0.008,0.167,0.008l-0.108,0.285
		c-0.386,0.336-0.882,0.41-1.017,0.916c-0.199,0.1-0.381,0.076-0.54,0.065c0.08-0.066,0.156-0.125,0.227-0.168
		C34.555,30.178,34.719,31.176,35.222,30.24z M30.729,33.809c0.033-0.042,0.025-0.081,0.025-0.081
		c-0.631,0.997-1.328,1.628-1.838,1.95c0.187,0.068,0.707-0.137,0.956-0.235l-0.083,0.282l-0.2-0.035l-0.236,0.363
		c0.162,0.038,0.416-0.165,0.647-0.215c-0.003-0.038,0.439-0.615,0.525-0.822l-0.52,0.222c0.15-0.045,0.719-0.507,0.917-0.724
		c-0.05-0.075-0.531,0.111-0.465,0.306c-0.128-0.075,0.332-0.414-0.046-0.317c0.256-0.37,0.865-0.688,1.153-0.836l0.185,0.145
		c0.329-0.148,0.011-0.36,0.411-0.522c-0.361,0.36,0.227,0.138-0.074,0.411c0.154-0.016,0.154,0.186,0.458-0.091
		c0.067-0.447,0.456-0.133,0.524-0.548c0.225-0.072-0.056,0.29,0.291,0.04c0.264-0.44,0.16-0.51,0.036-0.692
		c-0.375,0.257-0.19,0.55-0.504,0.756l0.303-0.767c-0.137,0.05-0.215,0.111-0.268,0.177c0.095-0.114,0.153-0.235,0.179-0.365
		c0.019-0.075,0.034-0.14,0.048-0.196c-0.301,0.278-0.585,0.508-0.692,0.481l-0.028-0.118c-0.172,0.021-0.298,0.235-0.333,0.363
		c-0.273,0.242-0.459,0.594-0.61,0.535l0.047-0.163C31.203,33.416,31.177,33.463,30.729,33.809z M19.037,31.769
		c-0.061,0.466-0.071,0.943,0.966,1.711l-0.095-0.044c0.352,0.603,1.184,0.535,1.652,1.216c-0.396-0.107-0.369-0.106-0.913-0.097
		l0.396,0.163c-0.221,0.103,0.179,0.261,0.418,0.448l-0.366,0.045c-0.107-0.165-0.469-0.475-0.492-0.421
		c0.098,0.041-0.305-0.632-0.656-0.825c-0.076,0.159,0.625,0.628,0.159,0.615c0.334,0.111,0.263,0.27,0.575,0.433
		c-0.336-0.109-0.206,0.136-0.48,0.084l0.492,0.301c-0.023,0.058-0.742-0.406-0.495,0.048c0.235,0.072,0.668,0.524,0.785,0.382
		l-0.021,0.055c0.325,0.288,0.306-0.102,0.675,0.29c0.059-0.072,0.014-0.183-0.151-0.276c-0.154-0.058-0.249,0.032-0.53-0.143
		c-0.033-0.204,0.311,0.25,0.27-0.083c-0.02-0.165-0.761-0.428-0.404-0.506l0.32,0.284c0.118-0.143,0.359,0.047,0.439-0.079
		c0.25,0.093,0.33,0.405,0.639,0.425c0.158-0.037,0.127-0.327,0.431-0.002c0.123,0.422,0.999,0.926,1.34,1.089l0.372,0.091
		c0.006-0.128-0.577-0.34-0.314-0.35l0.486,0.247l-0.069,0.042c0.158,0.112,0.354,0.144,0.511,0.187
		c-0.191,0.044-0.532-0.226-0.543-0.007c0.228,0.179,0.243,0.275,0.486,0.371c-0.055-0.015-0.104-0.022-0.105,0.008
		c0.502,0.384,0.541,0.059,0.666,0.06c0.489-0.011-0.434-0.508-0.311-0.671c0.249,0.116,0.499,0.232,0.749,0.374l0.46-0.329
		c-0.089,0.124-0.19,0.253-0.142,0.315c0.325-0.083,0.026,0.157,0.477-0.112c-0.097-0.246,0.505-0.485,0.715-0.798
		c0.192,0.008,0.234,0.007-0.065,0.197c0.126,0.123,0.492-0.181,0.642-0.26c0.059-0.088,0.186-0.197,0.253-0.287
		c-0.164,0.006-0.172-0.117,0.041-0.345l-0.006-0.04c-0.437,0.236-1.198,0.491-1.329,0.771l0.031-0.118
		c-0.408,0.094-0.808,0.739-1.076,0.687c-0.026-0.035-0.049-0.074-0.066-0.12c0.021-0.136-0.086-0.081-0.067-0.284
		c0,0-0.078-0.001-0.155-0.003c-0.082-0.005-0.163-0.01-0.163-0.01l0.077-0.053l-0.52-0.256l0.026-0.024
		c-0.296,0.019-0.593-0.008-0.839-0.029c-0.044,0.068-0.038,0.101-0.166,0.089c-0.118-0.028-0.195-0.07-0.255-0.121l-0.001,0v0
		c-0.138-0.115-0.173-0.277-0.328-0.437l0.572,0.348c0.119-0.086,0.147-0.237-0.075-0.492c0.115,0.067,0.22,0.007,0.09-0.094
		c-0.034,0.021-0.41-0.166-0.338,0.013c-0.56-0.306-1.19-1.175-2.106-1.541c0.642,0.286-0.329-0.476,0.313-0.065
		c-0.291-0.493-0.494-0.102-0.903-0.461c0.012-0.089,0.227,0.19,0.421,0.142c-0.654-0.615-1.414-0.664-2.03-1.292l0.084-0.153
		C19.349,31.979,19.195,31.876,19.037,31.769z M17.645,30.727c-0.13-0.108-0.263-0.219-0.396-0.33l0.031,0.04l-0.448-0.278
		c0.159,0.278,0.171,0.556-0.197,0.292c0.077-0.02,0.055-0.175,0.187-0.088c-0.121-0.291-0.475-0.835-0.558-0.541
		c0.561,0.263-0.157,0.316,0.276,0.531c-0.285-0.067-0.389-0.297-0.598-0.419c0.264,0.087,0.202-0.249,0.032-0.566
		c-0.13-0.092-0.366-0.436-0.57-0.602c-0.069,0.169-0.277,0.044-0.053,0.406c-0.126-0.098-0.299-0.271-0.396-0.534
		c0.087,0.069,0.215,0.206,0.252,0.161c0.012-0.226-0.115-0.381-0.132-0.506l-0.171-0.203c0.003,0.029,0.001,0.058-0.008,0.084
		l-0.281-0.164c0.284,0.283,0.044,0.192-0.035,0.241c0.157-0.097-0.125-0.224-0.208-0.334l0.008,0.355
		c-0.163-0.064-0.172-0.499-0.29-0.33c0.295,0.569,0.462,0.756,0.858,1.173l-0.02-0.276c0.473,0.445,0.028,0.479,0.498,1.036
		c0.29,0.151,0.723,0.816,0.937,0.642c-0.126-0.009,0.119,0.5,0.385,0.588c0.366,0.028,0.97,0.57,0.876,0.315
		c-0.155-0.153-0.464-0.266-0.465-0.51l0.333,0.267l-0.096-0.295C17.459,31.021,17.545,30.916,17.645,30.727z M14.453,22.55
		l0.001-0.014l0.002,0.015L14.453,22.55z"/>
	<path d="M38.138,24.8c-0.017-0.134,0.096-0.398-0.051-0.394C38.229,24.453,37.926,24.892,38.138,24.8z"/>
	<path d="M38.397,24.528c-0.025-0.032-0.084-0.039-0.042-0.162l-0.094,0.349L38.397,24.528z"/>
	<path d="M39.492,24.52c-0.039-0.228-0.068-0.369,0.034-0.666c0.381-0.013-0.047,0.526,0.222,0.772
		c0.209-0.562-0.028-0.821,0.049-1.293C39.61,23.538,39.237,24.411,39.492,24.52z"/>
	<polygon points="39.831,24.92 39.872,24.581 39.841,24.605 39.8,24.943 	"/>
	<path d="M33.728,28.745c-0.102-0.058-0.135,0.148-0.178,0.237C33.606,28.93,33.7,28.87,33.728,28.745z"/>
	<path d="M32.746,15.606c0,0,0.438,0.022,0.875,0.045c0.42,0.073,0.841,0.146,0.829,0.168C33.99,15.689,33.535,15.606,32.746,15.606
		z"/>
	<path d="M28.659,34.113c0.436-0.438,0.537-0.754,0.997-1.162c-0.778,0.298-0.648,0.923-1.343,1.122L28.659,34.113z"/>
	<path d="M28.311,33.249c0.205,0.118-0.231,0.471-0.071,0.55c0.301-0.275,0.036-0.275,0.346-0.471L28.311,33.249z"/>
	<polygon points="32.691,34.363 32.609,34.574 32.707,34.442 	"/>
	<polygon points="26.314,34.795 26.311,34.741 26.205,34.725 	"/>
	<path d="M26.306,34.686l0.005,0.055L26.306,34.686z"/>
	<polygon points="32.784,34.88 33.042,34.728 33.093,34.558 	"/>
	<path d="M30.041,35.516l0.17-0.204C30.177,35.353,29.84,35.483,30.041,35.516z"/>
	<polygon points="25.798,34.854 25.702,34.894 25.706,34.92 25.803,34.881 	"/>
	<path d="M28.695,37.138c0.241,0.042-0.414,0.318-0.023,0.241C28.937,37.179,28.777,37.179,28.695,37.138z"/>
	<path d="M24.735,36.816c-0.037-0.023-0.079-0.041-0.126-0.048C24.656,36.787,24.698,36.802,24.735,36.816z"/>
	<path d="M24.735,36.816c0.12,0.073,0.225,0.208,0.324,0.209C24.928,36.864,24.868,36.86,24.735,36.816z"/>
	<path d="M23.389,36.016l0.096,0.077c-0.148,0-0.093,0.022,0.036,0.028c0.111,0.066,0.134,0.018,0.166-0.004
		c0.031-0.003,0.065-0.007,0.102-0.011c-0.044-0.002-0.086-0.005-0.122-0.007C23.499,35.99,23.394,35.928,23.389,36.016z"/>
	<path d="M20.678,30.479c0.271,0.319,0.333,0.413,0.232,0.495c0.275,0.289,0.373,0.079,0.588,0.193
		C21.137,30.9,21.107,30.796,20.678,30.479z"/>
	<path d="M21.498,31.167c0.04,0.029,0.079,0.058,0.126,0.092C21.577,31.214,21.536,31.188,21.498,31.167z"/>
	<polygon points="24.528,38.358 24.077,38.32 24.23,38.379 	"/>
	<path d="M20.268,30.02c0.051,0.058,0.145,0.136,0.158,0.209C20.528,30.149,20.218,29.962,20.268,30.02z"/>
	<path d="M19.86,32.995c-0.015,0.089,0.234,0.237,0.306,0.334C20.047,33.209,20.094,32.941,19.86,32.995z"/>
	<path d="M19.047,29.579c0.049,0.06,0.073,0.204-0.038,0.243C19.134,29.856,19.4,29.801,19.047,29.579z"/>
	<polygon points="19.256,32.448 19.274,32.522 19.559,32.662 	"/>
	<path d="M18.888,34.611c0.372,0.112-0.203-0.648,0.353-0.353c-0.507-0.63-0.091,0.206-0.525-0.189
		C18.945,34.328,18.953,34.586,18.888,34.611z"/>
	<path d="M18.715,34.069c-0.033-0.039-0.072-0.077-0.116-0.115C18.646,34.001,18.683,34.038,18.715,34.069z"/>
	<path d="M15.827,29.876c0.045,0.029,0.08,0.044,0.114,0.058C15.906,29.911,15.87,29.891,15.827,29.876z"/>
	<path d="M17.223,32.91l0.552,0.199c-0.371-0.125-1.022-0.764-1.139-0.566c0.179,0.244,0.48,0.447,0.655,0.471L17.223,32.91z"/>
	<path d="M16.648,25.882l0.175,0.113l-0.101-0.215C16.729,25.856,16.523,25.84,16.648,25.882z"/>
	<path d="M16.703,25.739l0.02,0.042C16.723,25.769,16.717,25.755,16.703,25.739z"/>
	<path d="M16.567,30.547c0.103,0.136,0.203,0.228,0.338,0.312C16.893,30.783,16.631,30.454,16.567,30.547z"/>
	<polygon points="15.697,24.885 15.882,25.143 15.705,24.849 	"/>
	<path d="M15.505,23.44l0.022-0.061l-0.146-0.202l-0.026,0.061C15.355,23.238,15.498,23.441,15.505,23.44z"/>
	<path d="M12.313,27.243c0.112,0.259,0.395,0.348,0.396,0.262l-0.263-0.467c-0.093,0.205,0.075,0.128,0.184,0.424L12.313,27.243z"/>
	<path d="M17.812,15.998c-0.053,0.114-0.391,0.176-0.447,0.082c0.025-0.063,0.192-0.186,0.054-0.205l-0.155,0.38
		c-0.421-0.029,0.108-0.464,0.282-0.636c-0.395,0.123-0.459,0.315-0.812,0.514c0.111-0.044,0.21-0.016,0.3,0.024
		c0.083,0.162-0.247,0.276-0.46,0.414c0.188-0.004,0.146,0.109,0.097,0.228c-0.014,0.015-0.019,0.031-0.019,0.046l-0.016,0.041
		l0.024-0.014c0.012,0.02,0.033,0.04,0.072,0.063c0.138-0.141,0.349-0.07,0.445-0.132c-0.278-0.26,0.367-0.235,0.479-0.397
		c-0.007-0.01,0.178-0.094,0.182-0.088l0.075-0.017c0.025,0.032,0.015,0.083-0.078,0.169c0.075-0.081,0.393-0.134,0.341-0.234
		c-0.018-0.033,0.768-0.113,0.768-0.113c0.025,0.011,0.051,0.025,0.07,0.047c0.025-0.024,0.029-0.042,0.024-0.059
		c0,0,0.889-0.042,1.808,0.145c0.929,0.161,1.768,0.591,1.768,0.591c-0.157-0.096-0.26-0.256-0.432-0.351
		c0.361-0.112-0.29-0.141-0.135-0.312c0.151-0.022,0.342,0.048,0.422,0.157c0.081-0.078-0.033-0.241,0.031-0.349
		c-0.45-0.284-0.679,0.135-1.122-0.055c0.051-0.119,0.231-0.191-0.092-0.25l0.088-0.007c-0.539,0.026-0.342-0.397-0.731-0.099
		l0.039-0.181c-0.26,0.122-0.713,0.022-0.967,0.065l0.017-0.035c-0.707,0.211-0.41,0.001-1.166,0.176l0.334-0.252
		c-0.279-0.058-0.315,0.18-0.508,0.174c0.009-0.037-0.058-0.166,0.125-0.217c0.003,0.01-0.241,0.082-0.439,0.235
		c-0.198,0.132-0.397,0.263-0.397,0.263C17.516,15.986,17.762,15.929,17.812,15.998z"/>
	<path d="M16.733,16.133c-0.042,0.015-0.086,0.037-0.133,0.074C16.652,16.182,16.693,16.158,16.733,16.133z"/>
	<path d="M22.852,16.955l-0.237-0.109C22.683,16.891,22.757,16.929,22.852,16.955z"/>
	<path d="M16.082,17.103c0.163-0.01,0.021,0.15,0.074,0.226c-0.024-0.026,0.32-0.274,0.311-0.284
		c-0.047-0.053-0.065-0.143-0.113-0.188L16.082,17.103z"/>
	<path d="M16.639,17.068c-0.02-0.048-0.016-0.115-0.003-0.183l-0.169,0.159C16.502,17.085,16.553,17.105,16.639,17.068z"/>
	<path d="M14.25,14.125l0.116-0.108c0.001,0,0.152-0.197,0.158-0.189C14.514,13.813,14.25,14.125,14.25,14.125z"/>
	<path d="M16.49,13.249c-0.202-0.036-0.492,0.168-0.583,0.235C16.268,13.334,16.125,13.436,16.49,13.249z"/>
	<polygon points="15.591,12.364 15.973,12.146 15.928,12.141 	"/>
	<path d="M26.328,17.979c0.072-0.062,0.143-0.122,0.216-0.186C26.444,17.871,26.381,17.928,26.328,17.979z"/>
	<path d="M22.875,16.359c0.484,0.457-0.453-0.023-0.379,0.304l0.34,0.064l-0.058,0.051c0,0,0.096,0.038,0.19,0.075
		c0.033,0.004,0.12,0.062,0.188,0.109c0.064,0.042,0.107,0.071,0.107,0.071c-0.084-0.208-0.181-0.284-0.091-0.376
		c0.853,0.656,0.204,0.326,0.804,0.947c0.01,0.013,0.234,0.145,0.533,0.374c0.298,0.229,0.596,0.457,0.596,0.457l-0.103-0.032
		c0.102,0.076,0.148,0.093,0.186,0.096c0.242,0.186,0.484,0.372,0.728,0.563l1.607-1.31l0.686-0.503l0.342-0.251
		c0.108-0.078,0.251-0.19,0.291-0.199c0.299-0.25-0.302-0.114-0.131-0.4c-0.06,0.034-0.089,0.028-0.186,0.092
		c-0.093,0.06-0.188,0.121-0.285,0.183c-0.191,0.125-0.383,0.249-0.554,0.359c-0.324,0.21-0.617,0.484-0.625,0.654
		c0.019-0.059,0.05-0.174-0.11-0.085l-0.413,0.593l0.452-0.272c-0.191,0.273-0.63,0.674-1.074,1.032
		c-0.53-0.411-1.054-0.883-1.184-1.077c0.74,0.509,0.565,0.132,1.184,0.651c0.105-0.078,0.248-0.176,0.434-0.295
		c-0.06-0.035-0.27-0.014-0.022-0.254c-0.14,0.119-0.276,0.234-0.411,0.348c-0.288-0.222-0.567-0.438-0.847-0.654
		c-0.279-0.218-0.568-0.456-0.806-0.6C23.779,16.754,23.168,16.34,22.875,16.359z"/>
	<path d="M32.632,15.411l-0.007,0.023C32.64,15.421,32.645,15.412,32.632,15.411z"/>
	<path d="M32.367,15.385l-0.369,0.254l0.581-0.029l0.046-0.176c-0.055,0.046-0.26,0.14-0.341,0.072L32.367,15.385z"/>
	<path d="M31.58,15.84c0.287-0.114,0.26-0.319,0.079-0.389c0.279-0.129,0.169,0.188,0.348-0.032
		c-0.015-0.163-0.367-0.023-0.443,0.014L31.58,15.84z"/>
	<polygon points="29.382,16.309 29.428,16.193 29.225,16.265 	"/>
	<path d="M29.428,16.193l0.211-0.048c-0.037-0.055-0.073-0.107-0.122-0.136L29.428,16.193z"/>
	<path d="M30.185,16.014c0.087-0.022,0.189-0.022,0.308-0.047C30.492,15.967,30.182,16.003,30.185,16.014z"/>
	<path d="M29.939,16.047l0.016,0.023l0.229-0.056C30.099,16.026,30.02,16.036,29.939,16.047z"/>
	<path d="M29.639,16.145c0.084,0.124,0.175,0.254,0.442,0.116l-0.126-0.191L29.639,16.145z"/>
	<polygon points="18.589,11.872 18.95,11.759 18.911,11.736 18.549,11.854 	"/>
	<path d="M20.651,12.053c0.09-0.014,0.158-0.032,0.223-0.051C20.779,12.005,20.704,12.02,20.651,12.053z"/>
	<path d="M22.375,11.366c0.394,0.245-0.638,0.044,0.139,0.298c0.032,0.147-0.374,0.227-0.723,0.077
		c0.055-0.118,0.376,0.005,0.178-0.176c-0.277,0.086-0.349-0.033-0.302,0.175c-0.431,0.028-0.503,0.181-0.793,0.261
		c0.514-0.042,1.464,0.382,2.126,0.347c0.4-0.104,0.307-0.471,0.411-0.788c-0.014-0.045-0.245-0.161-0.489-0.229
		C22.674,11.278,22.419,11.263,22.375,11.366z"/>
	<path d="M21.753,10.878c-0.204-0.063-0.275-0.047-0.409-0.041C21.359,10.958,21.585,10.841,21.753,10.878z"/>
	<path d="M24.871,14.759c0.044-0.029,0.296,0.058,0.271-0.054l-0.369-0.158C24.852,14.605,24.859,14.678,24.871,14.759z"/>
	<path d="M24.608,14.476l0.164,0.071C24.736,14.52,24.687,14.497,24.608,14.476z"/>
	<path d="M24.878,14.798l-0.007-0.039C24.862,14.765,24.859,14.775,24.878,14.798z"/>
	<path d="M31.052,15.883c0.012,0.085,0.156,0.008,0.231-0.025C31.219,15.862,31.122,15.831,31.052,15.883z"/>
	<path d="M36.272,16.894l0.021,0.144C36.299,16.976,36.302,16.944,36.272,16.894z"/>
	<path d="M39.593,17.862c0.019,0,0.037,0.009,0.057,0.023C39.633,17.871,39.613,17.862,39.593,17.862z"/>
	<path d="M39.649,17.886c0.123,0.105,0.135,0.528,0.254,0.648l-0.037-0.01l0.115,0.255c-0.026-0.126-0.067-0.318-0.106-0.503
		C39.809,18.099,39.726,17.94,39.649,17.886z"/>
</g>
</svg>
