<?xml version="1.0" encoding="iso-8859-1"?>
<!-- Generator: Adobe Illustrator 17.0.2, SVG Export Plug-In . SVG Version: 6.00 Build 0)  -->
<!DOCTYPE svg PUBLIC "-//W3C//DTD SVG 1.1//EN" "http://www.w3.org/Graphics/SVG/1.1/DTD/svg11.dtd">
<svg version="1.1" id="Capa_1" xmlns="http://www.w3.org/2000/svg" xmlns:xlink="http://www.w3.org/1999/xlink" x="0px" y="0px"
	 width="64px" height="64px" viewBox="0 0 64 64" style="enable-background:new 0 0 64 64;" xml:space="preserve">
<g>
	<path d="M49.616,43.089c-0.86-1.355-3.218-2.425-3.24-4.001c-0.016-1.204-0.033-2.408-0.049-3.611
		c-0.055-4.014-0.11-8.027-0.165-12.041c-0.039-2.828-0.764-6.469,2.207-8.06c2.283-1.223,1.078-5.021-1.111-5.655
		c-3.178-0.92-17.287,1.682-11.052,6.53c0.635,0.495,3.003,0.807,2.974,1.932c-0.047,1.825-0.413,3.653-0.48,5.487
		c-0.055,1.502,0.34,3.012,0.361,4.512c0.016,1.109-6.245,1.521-6.985,1.642c-1.806,0.293-3.598,0.678-5.406,0.956
		c-1.418,0.219-0.826-5.76-0.806-6.305c0.098-2.736,0.469-5.072,2.963-6.769c0.512-0.349,0.801-1.224,0.737-1.818
		c-0.611-5.676-7.353-3.678-11.247-2.856c-1.454,0.307-3.397,0.922-4.071,2.413c-1.285,2.844,2.137,3.72,3.561,5.451
		c0.351,0.427,0.509,1.313,0.534,1.865c0.252,5.716,0.504,11.433,0.756,17.149c0.043,0.983,0.086,1.967,0.13,2.951
		c0.098,2.218-2.201,2.07-2.82,3.497c-1.299,2.993,0.995,4.286,3.753,4.65c2.968,0.392,7.169-0.45,9.344-2.586
		c2.268-2.227-3.243-5.442-3.322-7.077c-0.162-3.358,2.4-4.682,5.439-5.43c1.025-0.252,7.247-1.623,7.247,1.333
		c0,0.821,0,1.643,0,2.463c0,3.621-4.856,2.602-2.643,6.942C38.469,51.057,52.154,47.09,49.616,43.089z M39.099,15.682
		c-0.428-0.155-0.855-0.721-0.868-1.273c-0.003-0.121-0.003-0.239,0.002-0.354c0.021-0.552,0.445-1.32,0.813-1.732
		c0.013-0.015,0.026-0.028,0.039-0.043c0.368-0.412,0.922-0.853,1.255-0.917c0.333-0.064,0.949-0.232,1.395-0.363
		c0.445-0.131,0.504,0.143,0.111,0.53c-0.337,0.333-0.675,0.666-1.016,1.002c-0.393,0.389-0.391,0.391,0.005,0.006
		c0.346-0.336,0.696-0.676,1.047-1.018c0.396-0.386,1.17-0.771,1.713-0.67c1.189,0.224,2.111,1.16,2.76,2.826
		c0.201,0.515-0.089,1.151-0.497,1.523c-0.155,0.141-0.299,0.293-0.432,0.456c-0.351,0.427-0.664,0.773-0.807,0.711
		c-0.142-0.062-0.587,0.2-0.99,0.579c-0.75,0.705-1.598,1.5-2.541,2.383c-0.015,0.015-0.028,0.027-0.041,0.04
		c-0.022,0.021-0.012-0.266,0.023-0.641c0.021-0.224,0.043-0.448,0.069-0.677c0.013-0.109,0.021-0.212,0.023-0.308
		c0.006-0.171,0.325-0.612,0.732-0.984c0.256-0.234,0.512-0.469,0.768-0.702c0.051-0.052,0.102-0.104,0.154-0.154
		c0.085-0.085,0.076-0.187-0.02-0.229s-0.486,0.242-0.873,0.636c-0.038,0.038-0.075,0.077-0.113,0.115
		c-0.388,0.394-0.77,0.419-1.012,0.164c-0.242-0.254-0.217-0.679,0.136-1.039c0.353-0.361,0.574-0.716,0.505-0.801
		c-0.07-0.085-0.442,0.151-0.84,0.533c-0.005,0.005-0.01,0.01-0.014,0.015C40.188,15.679,39.527,15.837,39.099,15.682z
		 M43.188,25.195c-0.482,0.472-0.963,0.941-1.442,1.409c-0.395,0.386-0.72,0.602-0.731,0.485c-0.006-0.069-0.013-0.141-0.021-0.213
		c-0.068-0.586-0.112-1.16-0.14-1.729c-0.028-0.551,0.292-1.304,0.696-1.68c0.519-0.483,1.039-0.967,1.558-1.45
		c0.405-0.376,0.717-0.232,0.72,0.319c0.002,0.386,0.011,0.773,0.026,1.16C43.875,24.05,43.583,24.81,43.188,25.195z M43.197,25.286
		c-0.06,0.06-0.121,0.118-0.181,0.178c-0.395,0.387-0.396,0.387-0.002-0.001c0.06-0.059,0.121-0.118,0.181-0.178
		C43.589,24.897,43.591,24.899,43.197,25.286z M43.253,20.131c-0.57,0.529-1.141,1.059-1.711,1.588
		c-0.405,0.375-0.722,0.239-0.692-0.303c0.03-0.541,0.395-1.281,0.801-1.654c0.633-0.582,1.39-1.278,2.246-2.066
		c0.406-0.375,0.555-0.266,0.401,0.266c-0.048,0.165-0.091,0.334-0.131,0.506C44.043,19.005,43.658,19.755,43.253,20.131z
		 M44.369,35.85c0.008,0.553-0.294,1.325-0.674,1.727c-0.732,0.772-1.455,1.534-2.165,2.282c-0.38,0.4-0.658,0.301-0.672-0.222
		c-0.01-0.353-0.03-0.684-0.03-0.945c0-0.043-0.001-0.085-0.002-0.126c-0.002-0.069,0.303-0.454,0.68-0.857
		c0.724-0.774,1.445-1.547,2.164-2.316c0.377-0.403,0.689-0.285,0.697,0.268C44.367,35.723,44.368,35.786,44.369,35.85z
		 M17.066,15.992c-0.141-0.604-0.013-1.078,0.587-1.3c0.46-0.17,1.11-0.377,1.857-0.571c0.535-0.14,0.655,0.084,0.263,0.474
		c-0.546,0.542-1.091,1.083-1.636,1.623C17.746,16.607,17.193,16.529,17.066,15.992z M18.396,18.495
		c-0.224-0.324-0.077-0.904,0.318-1.29c0.288-0.28,0.577-0.562,0.868-0.846c0.396-0.385,0.795-1.167,1.161-1.581
		c0.127-0.143,0.281-0.277,0.46-0.4c0.455-0.313,0.966-0.536,1.065-0.633c0.099-0.097,0.625-0.226,1.177-0.237
		c2.009-0.044,3.786,0.475,4.12,2.288c0.146,0.794-3.045,3.44-3.425,4.68c-0.091,0.296-0.163,0.606-0.221,0.929
		c-0.093,0.519-0.447,1.26-0.84,1.647c-0.642,0.632-1.286,1.267-1.933,1.905c-0.393,0.388-0.732,0.255-0.757-0.297
		c-0.014-0.327-0.029-0.653-0.043-0.98c-0.024-0.552,0.278-1.309,0.677-1.691c0.841-0.808,1.682-1.617,2.523-2.437
		c0.068-0.069,0.136-0.137,0.204-0.205c0.113-0.112,0.043-0.229-0.153-0.269c-0.196-0.039-0.669,0.239-1.058,0.632
		c-0.521,0.526-1.042,1.054-1.563,1.58c-0.388,0.393-0.71,0.589-0.716,0.438c-0.004-0.092-0.008-0.183-0.012-0.274
		c-0.011-0.086,0.003-0.136-0.015-0.192c-0.081-0.262-0.344-0.67-0.688-1.157c-0.318-0.451-0.381-0.762-0.13-0.714
		c0.251,0.048,0.459,0.098,0.461,0.134c0.001,0.037,0.317-0.252,0.705-0.646c0.009-0.01,0.019-0.018,0.028-0.028
		c0.388-0.394,0.518-0.848,0.331-1.055c-0.188-0.207-0.629-0.09-1.026,0.294c-0.116,0.112-0.234,0.227-0.354,0.343
		c-0.397,0.385-0.41,0.37-0.02-0.021c0.118-0.118,0.236-0.235,0.354-0.353c0.393-0.388,0.384-0.396-0.016-0.016
		c-0.118,0.112-0.236,0.225-0.354,0.339C19.128,18.764,18.62,18.819,18.396,18.495z M20.62,44.715
		c0.128-0.177,0.232-0.343,0.301-0.494c0.15-0.333,0.248-0.706,0.308-1.103c0.083-0.546,0.413-1.297,0.821-1.669
		c0.44-0.4,0.878-0.802,1.317-1.202c0.408-0.373,0.675-0.252,0.676,0.274c0,0.526-0.267,1.255-0.672,1.63
		c-0.554,0.515-1.108,1.028-1.664,1.542c-0.405,0.375-0.728,0.809-0.721,0.971c0.007,0.162-0.156,0.333-0.359,0.393
		C20.423,45.115,20.432,44.975,20.62,44.715z M20.566,28.644c-0.021-0.474,0.274-1.178,0.659-1.573
		c0.61-0.627,1.206-1.239,1.79-1.84c0.386-0.396,0.701-0.327,0.714,0.151c0.013,0.478-0.285,1.188-0.669,1.584
		c-0.587,0.605-1.174,1.21-1.761,1.815C20.915,29.179,20.587,29.117,20.566,28.644z M20.789,33.684
		c-0.006-0.141-0.012-0.281-0.019-0.421c-0.024-0.552,0.163-1.205,0.418-1.459c0.154-0.153,0.309-0.307,0.464-0.46
		c0.117-0.129,0.234-0.258,0.352-0.386c0.194-0.213,0.03-0.074-0.368,0.31c-0.065,0.063-0.131,0.126-0.196,0.188
		c-0.397,0.384-0.732,0.401-0.748,0.039c-0.016-0.361,0.289-0.97,0.683-1.357c0.57-0.562,1.14-1.125,1.71-1.688
		c0.394-0.388,0.716-0.521,0.719-0.297c0.001,0.138,0.002,0.273,0,0.405c-0.008,0.711,0.025,1.304,0.116,1.791
		c0.102,0.543,0.005,1.257-0.386,1.646c-0.673,0.67-1.337,1.331-1.993,1.982C21.15,34.368,20.812,34.235,20.789,33.684z
		 M26.758,45.472c3.447,1.809,0.025,3.025-2.539,3.627c-0.538,0.126-1.259,0.052-1.525-0.232c-0.267-0.284-0.721-0.279-1.125,0.094
		s-1.18,0.711-1.732,0.705c-0.912-0.009-1.487-0.133-1.812-0.343c-0.464-0.299,0.012-1.188,0.402-1.578
		c1.663-1.666,3.343-3.369,5.036-5.086c0.388-0.394,0.778-0.269,0.956,0.254c0.237,0.697,0.58,1.322,1.02,1.802
		C25.739,45.041,26.504,45.338,26.758,45.472z M36.216,33.922c-2.689-0.054-7.699,0.429-10.267,2.342
		c-0.443,0.329-1.074,0.968-1.483,1.339c-0.826,0.75-1.65,1.516-2.475,2.284c-0.404,0.377-0.768,0.234-0.828-0.314
		c-0.087-0.797-0.184-1.556-0.212-2.189c-0.009-0.205-0.018-0.411-0.027-0.617c-0.015-0.341,0.284-0.939,0.668-1.337
		c0.892-0.921,1.782-1.839,2.671-2.751c0.385-0.396,1.114-0.527,1.666-0.489c0.468,0.031,1.032-0.008,1.71-0.112
		c2.87-0.442,5.714-1.037,8.594-1.433c1.095-0.15,3.067,0.024,3.919-0.892c0.371-0.398,0.608-0.776,0.741-1.19
		c0.17-0.525,0.465-1.295,0.866-1.676c0.487-0.462,0.966-0.918,1.439-1.368c0.4-0.381,0.754-0.242,0.797,0.308
		c0.035,0.459,0.073,0.906,0.109,1.34c0.046,0.551-0.241,1.288-0.638,1.647c-0.398,0.359-0.65,0.644-0.565,0.635
		c0.085-0.009,0.41-0.276,0.724-0.598c0.315-0.321,0.602-0.176,0.63,0.324c0.018,0.32,0.03,0.624,0.034,0.905
		c0.016,1.146,0.031,2.292,0.047,3.436c0.007,0.553-0.396,0.948-0.901,0.905c-0.505-0.043-1.232,0.261-1.622,0.652
		c-0.18,0.181-0.361,0.361-0.541,0.543c-0.39,0.391-0.807,0.262-1.104-0.205C39.513,34.379,38.295,33.963,36.216,33.922z
		 M37.904,44.269c0.186-0.495,0.63-0.965,1.383-1.314c0.399-0.186,0.885-0.824,1.097-1.046c0.137-0.144,0.236-0.324,0.308-0.528
		c0.112-0.322,0.448-0.92,0.836-1.312c0.722-0.729,1.441-1.453,2.156-2.176c0.389-0.393,0.708-0.38,0.713,0.026
		c0.005,0.407-0.305,1.054-0.694,1.445c-1.778,1.792-3.494,3.521-5.139,5.18C38.176,44.935,37.71,44.787,37.904,44.269z
		 M43.678,46.479c-0.534,0.141-0.931,0.197-0.882,0.148c0.049-0.051,0.025-0.152-0.05-0.232s-0.266-0.009-0.431,0.16
		c-0.165,0.169-0.739,0.407-1.292,0.424c-0.458,0.014-0.876-0.033-1.248-0.128c-0.535-0.136-0.61-0.701-0.227-1.099
		c0.467-0.484,0.976-1.011,1.523-1.577c0.384-0.398,0.776-0.924,0.964-1.11c0.188-0.185,0.695-0.603,1.079-1
		c0.242-0.249,0.488-0.503,0.738-0.761c0.384-0.396,0.729-0.588,0.802-0.442c0.044,0.089,0.098,0.171,0.166,0.242
		c0.853,0.899,0.742,0.826,1.808,1.498C49.688,44.531,46.004,45.865,43.678,46.479z"/>
	<path d="M25.019,35.225c0.061-0.058,0.057-0.062-0.004-0.004C24.954,35.279,24.957,35.281,25.019,35.225z"/>
</g>
</svg>
