<?xml version="1.0" encoding="utf-8"?>
<!-- Generator: Adobe Illustrator 17.0.0, SVG Export Plug-In . SVG Version: 6.00 Build 0)  -->
<!DOCTYPE svg PUBLIC "-//W3C//DTD SVG 1.1//EN" "http://www.w3.org/Graphics/SVG/1.1/DTD/svg11.dtd">
<svg version="1.1" id="Capa_1" xmlns="http://www.w3.org/2000/svg" xmlns:xlink="http://www.w3.org/1999/xlink" x="0px" y="0px"
	 width="200px" height="200px" viewBox="0 0 200 200" enable-background="new 0 0 200 200" xml:space="preserve">
<g>
	<path d="M194.134,158.113c0.019-0.821,0.121-2.149-0.029-3.367c1.138-0.81,0.846-2.944-0.921-3.012
		c-61.633-2.374-123.697-3.528-185.378-4.355c-1.191-0.016-1.72,0.92-1.643,1.822c-0.052,0.009-0.11-0.026-0.16-0.009
		c-1.099,0.373-1.549,1.209-1.757,2.18c-0.254,0.271-0.402,0.644-0.17,1.105c0.005,0.01,0.012,0.018,0.016,0.027
		c-0.034,0.518-0.045,1.04-0.066,1.532c-0.117,2.649-0.037,5.307,0.07,7.955c0.024,0.598,0.315,0.996,0.696,1.24
		c-0.088,0.874,0.427,1.817,1.582,1.86c28.52,1.051,57.167,1.881,85.706,1.617c26.009-0.241,51.797-2.449,77.673-1.554
		c0.074,0.034,0.136,0.097,0.212,0.127c0.269,0.106,0.537,0.039,0.785-0.085c5.353,0.202,10.711,0.557,16.075,1.066
		c0.472,0.385,0.945,0.769,1.455,1.067c0.751,0.439,1.565-0.074,1.754-0.779c0.163,0.018,0.325,0.025,0.489,0.044
		c0.515,0.569,1.5,0.634,2.16,0.168c1.687,0.025,2.039-2.011,1.074-3.136C194.031,161.799,194.093,159.909,194.134,158.113z
		 M190.445,158.113c0.012,0.343-0.02,0.683-0.018,1.026c-0.366-0.345-0.722-0.673-0.994-0.963c-0.94-1.009-1.92-1.999-2.926-2.96
		c1.199-0.023,2.402-0.027,3.599-0.066C190.199,156.201,190.416,157.302,190.445,158.113z M7.234,161.743
		c0.053-1.318,0.127-2.635,0.19-3.952c0.501,0.707,1,1.419,1.495,2.117c0.381,0.537,0.794,1.171,1.232,1.802
		C9.179,161.727,8.206,161.719,7.234,161.743z M13.919,161.668c-0.812-1.234-2.036-2.336-2.909-3.373
		c-1.17-1.391-2.262-2.838-3.338-4.297c0.126-1.101,0.268-2.226,0.162-3.16c0.435,0.026,0.874,0.049,1.31,0.074
		c-0.065,0.037-0.086,0.137,0.025,0.539c0.161,0.585,0.653,1.056,1.03,1.506c1.377,1.647,2.803,3.25,4.246,4.84
		c0.768,0.846,2.026,2.5,3.437,3.875C16.56,161.674,15.24,161.656,13.919,161.668z M22.691,161.677
		c-0.838-0.922-2.033-1.606-2.973-2.429c-1.737-1.52-3.355-3.18-4.968-4.83c-1.106-1.131-2.187-2.351-3.401-3.38
		c1.908,0.112,3.828,0.213,5.738,0.323c2.39,3.237,5.053,6.305,7.803,9.236c0.269,0.287,0.621,0.693,1.011,1.124
		C24.831,161.709,23.761,161.685,22.691,161.677z M30.159,161.78c-0.353-0.316-0.711-0.624-1.081-0.927
		c-1.272-1.042-2.421-2.22-3.56-3.403c-1.839-1.911-3.567-3.921-5.315-5.914c2.353,0.134,4.718,0.254,7.075,0.384
		c1.09,1.488,2.176,2.963,3.357,4.416c1.303,1.604,2.563,3.242,3.761,4.926c0.137,0.192,0.267,0.415,0.398,0.63
		C33.249,161.859,31.704,161.806,30.159,161.78z M38.277,161.978c-0.363-0.567-0.801-1.1-1.168-1.593
		c-1.23-1.653-2.565-3.227-3.914-4.783c-1.087-1.255-2.209-2.416-3.366-3.542c1.74,0.095,3.487,0.179,5.228,0.272
		c0.034,0.076,0.018,0.151,0.077,0.226c1.832,2.337,3.906,4.494,5.794,6.789c0.575,0.698,1.207,1.77,1.916,2.757
		C41.321,162.063,39.799,162.015,38.277,161.978z M46.431,162.203c-0.706-1.498-2.418-2.893-3.371-3.964
		c-1.766-1.983-3.607-3.996-5.603-5.784c1.262,0.067,2.528,0.124,3.791,0.189c-0.027,0.252,0.023,0.507,0.242,0.713
		c2.406,2.272,4.602,4.744,6.859,7.162c0.51,0.546,1.05,1.167,1.612,1.782C48.784,162.268,47.608,162.236,46.431,162.203z
		 M54.018,162.416c-1.362-1.438-3.025-2.681-4.424-4.076c-1.906-1.9-3.8-3.872-5.9-5.573c2.073,0.106,4.152,0.198,6.227,0.3
		c2.025,2.226,4.3,4.276,6.393,6.433c0.842,0.867,1.78,2.045,2.815,3.049C57.425,162.504,55.722,162.464,54.018,162.416z
		 M62.824,162.646c-1.411-1.954-3.651-3.543-5.369-5.211c-1.393-1.352-2.806-2.878-4.331-4.213c1.671,0.08,3.345,0.149,5.017,0.227
		c2.034,2.274,4.127,4.499,6.186,6.749c0.554,0.605,1.222,1.557,1.964,2.504C65.135,162.675,63.98,162.675,62.824,162.646z
		 M70.294,162.763c-0.931-1.341-2.565-2.581-3.331-3.345c-1.987-1.983-4.02-3.935-6.086-5.847c1.476,0.067,2.958,0.109,4.435,0.174
		c2.104,2.293,4.09,4.697,6.07,7.097c0.456,0.553,0.95,1.239,1.466,1.947C71.996,162.776,71.145,162.779,70.294,162.763z
		 M76.779,162.83c-1.016-1.169-2.238-2.263-3.115-3.249c-1.721-1.936-3.464-3.854-5.266-5.714c1.773,0.076,3.55,0.123,5.324,0.196
		c1.017,1.78,2.416,3.407,3.723,4.939c0.922,1.081,2.021,2.652,3.234,3.848C79.379,162.839,78.079,162.846,76.779,162.83z
		 M83.694,162.864c-0.859-1.786-3.157-3.295-4.513-4.697c-1.254-1.296-2.41-2.658-3.553-4.034c1.329,0.053,2.66,0.085,3.989,0.136
		c1.646,1.615,3.294,3.221,4.857,4.928c0.948,1.035,1.964,2.435,3.076,3.658C86.265,162.857,84.98,162.869,83.694,162.864z
		 M91.252,162.846c-1.271-2.003-3.502-3.713-5.104-5.322c-1.055-1.059-2.123-2.117-3.219-3.141c1.375,0.052,2.751,0.081,4.125,0.13
		c1.952,1.731,3.845,3.528,5.774,5.283c0.847,0.77,2.021,2.06,3.28,2.948C94.489,162.78,92.87,162.831,91.252,162.846z
		 M99.806,162.666c-0.04,0.001-0.08,0.001-0.12,0.002c-0.005-0.152-0.033-0.309-0.12-0.465c-0.421-0.757-1.064-1.15-1.77-1.62
		c-1.333-0.888-2.558-1.943-3.785-2.968c-1.182-0.987-2.348-1.996-3.521-2.994c1.446,0.05,2.893,0.077,4.339,0.125
		c1.728,1.682,3.475,3.337,5.151,5.076c0.793,0.823,1.52,1.792,2.262,2.746C101.43,162.6,100.618,162.637,99.806,162.666z
		 M105.541,162.438c-1.247-1.466-2.891-2.772-4.171-4.005c-1.306-1.257-2.684-2.459-4.095-3.617
		c1.503,0.047,3.006,0.073,4.509,0.117c1.156,1.679,2.435,3.279,3.764,4.819c0.545,0.631,1.3,1.73,2.165,2.594
		C106.989,162.377,106.266,162.409,105.541,162.438z M110.833,162.215c-0.546-1.4-2.443-2.474-3.437-3.476
		c-1.197-1.208-2.327-2.478-3.455-3.75c1.473,0.042,2.945,0.064,4.418,0.103c0.866,1.401,2.026,2.685,3.095,3.904
		c0.942,1.073,1.839,2.308,3.063,3.063C113.288,162.111,112.061,162.164,110.833,162.215z M115.872,162.001
		c0.314-0.304,0.451-0.79,0.19-1.248c-0.665-1.168-1.76-1.97-2.708-2.909c-0.874-0.865-1.677-1.787-2.497-2.694
		c1.537,0.039,3.072,0.058,4.609,0.094c0.943,1.333,1.944,2.626,3.008,3.858c0.665,0.771,1.525,1.858,2.507,2.684
		C119.277,161.859,117.575,161.928,115.872,162.001z M124.597,161.636c-0.045-0.11-0.07-0.223-0.161-0.323
		c-1.29-1.416-2.943-2.494-4.301-3.872c-0.671-0.682-1.296-1.412-1.921-2.14c1.333,0.029,2.665,0.042,3.998,0.068
		c1.294,1.36,2.581,2.728,3.95,4.014c0.737,0.692,1.566,1.486,2.474,2.101C127.289,161.535,125.943,161.581,124.597,161.636z
		 M131.972,161.357c0.047-0.382-0.045-0.783-0.482-1.066c-2.234-1.45-4.248-3.127-6.217-4.87c1.768,0.032,3.534,0.046,5.302,0.073
		c0.893,1.077,1.851,2.102,2.868,3.08c0.77,0.74,1.779,1.836,2.865,2.669C134.863,161.287,133.418,161.307,131.972,161.357z
		 M139.827,161.149c-0.006-0.054,0.01-0.105-0.005-0.159c-0.484-1.699-2.689-2.727-3.984-3.831
		c-0.595-0.507-1.145-1.072-1.713-1.617c1.081,0.014,2.156,0.002,3.237,0.015c1.752,1.929,3.616,3.784,5.537,5.514
		c0.008,0.008,0.02,0.019,0.028,0.026C141.894,161.12,140.861,161.122,139.827,161.149z M147.122,161.028
		c-1.044-0.656-2.035-1.418-2.979-2.19c-1.272-1.041-2.481-2.153-3.688-3.267c2.067,0.02,4.128,0,6.194,0.013
		c1.127,1.14,2.224,2.311,3.432,3.371c0.709,0.623,1.573,1.501,2.507,2.042C150.767,161.008,148.945,161,147.122,161.028z
		 M155.245,160.983c0.106-0.204,0.157-0.437,0.119-0.652c-0.275-1.579-2.936-2.625-4.082-3.565
		c-0.458-0.375-0.889-0.782-1.332-1.175c1.244,0.005,2.484-0.01,3.727-0.006c1.292,1.158,2.588,2.313,3.861,3.491
		c0.612,0.567,1.24,1.259,1.886,1.946C158.031,161.01,156.638,160.983,155.245,160.983z M163.275,161.059
		c-1.172-1.35-2.965-2.472-4.229-3.49c-0.848-0.683-1.731-1.321-2.591-1.989c1.24,0.001,2.475-0.015,3.714-0.016
		c1.79,1.671,3.506,3.415,5.15,5.232c0.097,0.107,0.196,0.237,0.294,0.351C164.834,161.127,164.055,161.073,163.275,161.059z
		 M169.651,161.298c-0.818-0.843-1.733-1.622-2.468-2.365c-1.148-1.163-2.327-2.293-3.541-3.383c1.577-0.005,3.15-0.027,4.726-0.036
		c1.236,1.187,2.485,2.362,3.718,3.556c0.85,0.823,1.688,1.711,2.607,2.477C173.012,161.465,171.331,161.358,169.651,161.298z
		 M178.466,161.732c-0.041-0.182-0.096-0.364-0.264-0.504c-2.208-1.837-4.32-3.818-6.483-5.741c1.463-0.012,2.919-0.063,4.381-0.08
		c1.794,1.783,3.599,3.554,5.377,5.351c0.41,0.415,0.819,0.871,1.229,1.327C181.293,161.98,179.879,161.816,178.466,161.732z
		 M187.22,162.459c-1.297-1.231-2.715-2.378-3.933-3.511c-1.311-1.219-2.64-2.43-4.002-3.6c1.448-0.022,2.892-0.059,4.34-0.079
		c1.201,1.395,2.499,2.712,3.725,4.083c0.833,0.931,1.684,2.671,2.852,3.356C189.208,162.602,188.215,162.554,187.22,162.459z"/>
	<path d="M186.433,43.515c-2.301,1.976-4.411,6.021-3.222,9.107c0.183,0.475,0.488,0.798,0.803,1.103
		c-9.539,10.034-16.476,22.243-23.341,34.296c-0.575,1.871-1.164,3.205-1.768,4.093c-0.075-0.14-0.138-0.288-0.308-0.378
		c-1.219-0.646-2.641-1.149-4.056-1.265c-0.65-1.325-1.312-3.054-1.989-5.309c-2.857-6.845-5.141-13.977-7.63-20.961
		c-2.53-7.098-5.388-13.886-8.668-20.559c2.474-1.751,2.452-5.28,1.216-7.789c-1.308-2.654-3.898-3.714-6.563-3.373
		c-0.223-0.292-0.552-0.484-0.978-0.306c-0.928,0.386-1.871,0.978-2.705,1.705c-2.149,1.436-4.216,3.906-3.542,6.412
		c0.234,0.868,0.926,1.574,1.81,2.134c-5.563,8.621-11.451,16.951-18.108,24.84c-2.296,2.721-4.481,3.583-6.565,3.258
		c-0.111-0.144-0.258-0.256-0.442-0.299c-0.265-0.062-0.512-0.008-0.773-0.029c-4.25-1.607-8.061-7.861-11.482-13.052
		c0.817-0.795,1.529-1.733,2.058-2.771c1.226-2.405,0.339-4.021-1.367-4.753c-0.176-0.379-0.369-0.733-0.591-1.017
		c-1.382-1.767-3.759-2.419-5.922-2.282c-1.747,0.111-4.047,0.812-4.811,2.564c-0.132,0.302-0.21,0.587-0.252,0.858
		c-1.509,2.346-1.341,5.437,1.226,7.899c0.314,0.301,0.645,0.491,0.971,0.716c-3.997,14.213-5.381,29.237-8.816,43.566
		c-0.995,4.149-4,18.335-8.272,21.721c-0.439-0.048-0.876-0.024-1.311,0.075c-0.833-0.458-1.766-0.662-2.817-0.462
		c-0.392-0.389-0.789-0.855-1.194-1.468c-3.747-5.669-6.45-11.959-9.618-17.989c0.603-0.652,1.115-1.393,1.472-2.171
		c1.716-3.736-0.931-7.575-4.431-8.882c-0.412-0.154-0.779-0.168-1.162-0.234c-0.204-0.114-0.429-0.182-0.656-0.139
		c-0.004,0.001-0.008,0.004-0.012,0.005c-1.957-0.089-3.477,0.992-4.326,3.015c-0.295,0.703-0.466,1.516-0.564,2.346
		c-0.213,1.174-0.185,2.369,0.13,3.513c-8.46,9.535-16.824,19.164-25.028,28.92c-0.322-0.265-0.686-0.496-1.147-0.647
		c-2.619-0.854-5.209,1.11-6.604,3.146c-3.77,5.506,1.965,13.155,8.079,9.511c3.375-2.012,4.192-7.639,2.008-10.306
		c8.332-9.009,16.504-18.173,24.601-27.394c0.544,0.476,1.189,0.863,1.937,1.128c1.197,0.425,2.366,0.303,3.424-0.149
		c3.272,6.698,6.305,13.473,10.299,19.737c-0.58,0.871-0.967,1.899-1.183,2.856c-1.12,4.956,1.782,9.941,7.291,8.868
		c4.12-0.803,7.063-4.203,6.073-8.446c-0.283-1.214-1.048-2.412-2.052-3.321c10.93-19.914,12.464-43.605,17.387-65.673
		c1.078-0.016,2.13-0.317,3.117-0.846c3.264,4.496,6.252,9.104,9.212,13.78c-0.229,0.427-0.405,0.896-0.491,1.418
		c-0.597,0.942-1.058,1.988-1.21,3.16c-0.261,2.012,1.86,2.984,3.61,3.397c0.138,0.157,0.261,0.338,0.404,0.484
		c1.725,1.774,4.269,2.769,6.591,1.595c2.587-1.308,3.572-5.29,2.46-7.792c-0.162-0.363-0.432-0.642-0.657-0.958
		c8.934-8.899,16.135-19.059,23.052-29.69c0.084,0.036,0.164,0.089,0.248,0.122c0.684,0.27,1.443,0.418,2.216,0.503
		c3.858,5.484,11.121,24.445,12.245,27.595c2.298,6.439,4.717,12.762,7.382,19.003c-0.072,0.046-0.155,0.049-0.226,0.099
		c-2.021,1.446-2.632,4.052-2.22,6.405c1.137,6.497,9.328,8.182,13.277,2.976c1.608-2.12,0.97-4.416-0.597-6.183
		c7.773-13.996,15.6-28.36,26.821-39.768c0.092,0.026,0.154,0.09,0.25,0.111c2.559,0.573,5.195-0.907,6.67-2.939
		C199.227,46.265,192.071,38.672,186.433,43.515z"/>
</g>
</svg>
