<?xml version="1.0" encoding="utf-8"?>
<!-- Generator: Adobe Illustrator 16.0.0, SVG Export Plug-In . SVG Version: 6.00 Build 0)  -->
<!DOCTYPE svg PUBLIC "-//W3C//DTD SVG 1.1//EN" "http://www.w3.org/Graphics/SVG/1.1/DTD/svg11.dtd">
<svg version="1.1" id="Layer_1" xmlns="http://www.w3.org/2000/svg" xmlns:xlink="http://www.w3.org/1999/xlink" x="0px" y="0px"
	 width="126px" height="126px" viewBox="0 0 126 126" enable-background="new 0 0 126 126" xml:space="preserve">
<path d="M49.45,45.846c2.291-1.918,7.666-4.432,17.932,0.281c0.299,0.135,0.43,0.41,0.344,0.646c0,0.012,0.008,0.023,0.008,0.035
	c-0.02,0.246-0.357,4.277-2.57,7.729h-1.6c1.922-2.666,2.57-5.961,2.764-7.299c-2.982,0.025-5.641,0.826-7.975,2.049l5.324,2.223
	l-6.412-1.607c-0.898,0.543-1.744,1.145-2.537,1.783l5.637,1.949l-6.521-1.199c-0.678,0.604-1.316,1.227-1.906,1.857l1.785,0.543
	l-0.537,0.111v0.363l-1.963-0.227c-3.305,3.787-5.012,7.539-5.047,7.615c-0.119,0.268-0.496,0.383-0.846,0.26
	c-0.064-0.023-0.123-0.053-0.176-0.088c-0.232-0.15-0.338-0.4-0.242-0.615c0.143-0.32,1.836-4.039,5.113-7.82l0.145-4.373
	l0.848,3.287c0.467-0.49,0.961-0.975,1.482-1.449c-0.002-0.012-0.012-0.023-0.014-0.037c-0.002-0.035,0-0.07,0.004-0.102
	l0.818-5.313l0.416,4.398c0.828-0.668,1.715-1.293,2.662-1.859l1.459-3.422l-0.107,2.682c2.135-1.076,4.541-1.82,7.219-2.012
	c-7.813-3.096-12.176-1.559-14.494,0.381c-3.238,2.711-3.57,7.186-2.215,8.881c0.205,0.258,0.127,0.578-0.178,0.717
	c-0.238,0.107-0.543,0.07-0.764-0.074c-0.063-0.039-0.117-0.09-0.162-0.145C45.321,53.719,45.933,48.789,49.45,45.846z
	 M53.185,59.17v-1.068c-0.803-0.166-1.633-0.395-2.496-0.693c-0.35-0.123-0.727-0.004-0.844,0.262
	c-0.115,0.266,0.072,0.58,0.424,0.701C51.276,58.721,52.249,58.986,53.185,59.17z M73.458,53.57c-0.219-0.188-0.574-0.1-0.793,0.201
	c-0.223,0.303-0.428,0.605-0.627,0.906c0.348,0.111,0.678,0.25,0.99,0.416c0.145-0.213,0.279-0.426,0.436-0.641
	C73.683,54.154,73.679,53.76,73.458,53.57z M75.847,51.473c-0.066,0.027-0.131,0.066-0.186,0.113
	c-0.203,0.17-0.326,0.451-0.293,0.709c0.043,0.332,0.326,0.5,0.633,0.379c2.018-0.805,6.201,0.816,7.854,4.703
	c1.182,2.783,1.381,7.402-3.854,13.977c0.596-2.617,0.584-5.135,0.176-7.492l2.535,0.883l-2.85-2.391
	c-0.268-1.07-0.607-2.102-1.004-3.088l4.328,0.883l-4.844-2.328c-0.029-0.016-0.063-0.027-0.096-0.033
	c-0.014-0.004-0.027,0.002-0.041,0.002c-0.301-0.637-0.621-1.252-0.953-1.84l3.391,0.143l-4.143-1.408
	c-2.664-4.236-5.729-6.938-5.992-7.168c-0.18-0.154-0.449-0.125-0.662,0.053c-0.047,0.039-0.094,0.088-0.133,0.143
	c-0.219,0.299-0.219,0.693,0.002,0.885c0.063,0.055,3.154,2.779,5.816,7.045l-0.529,1.219c0.152,0.217,0.291,0.445,0.414,0.684
	l0.664-0.99c0.432,0.748,0.842,1.541,1.223,2.365l-1.094,2.117c-0.004,0.42-0.037,0.824-0.092,1.215l1.645-2.266
	c0.383,0.943,0.711,1.926,0.971,2.945l-3.406,5.666l3.676-4.445c0.492,2.586,0.484,5.363-0.361,8.225
	c-1.262-0.592-4.377-2.258-6.365-5.025c-0.422,0.158-0.869,0.271-1.344,0.34c2.572,4.109,7.449,6.053,7.713,6.154
	c0.012,0.004,0.025,0.002,0.037,0.004c0.201,0.152,0.502,0.105,0.719-0.141c7.494-8.449,6.652-14.324,5.484-17.074
	C83.093,52.41,78.556,50.393,75.847,51.473z M67.472,72.904c0.289-0.021,0.477-0.334,0.42-0.703
	c-0.35-2.225-0.959-4.127-1.809-5.719c-0.066-0.053-0.137-0.104-0.201-0.16v1.285h-0.418c0.631,1.324,1.098,2.881,1.381,4.678
	C66.901,72.65,67.183,72.928,67.472,72.904z M64.534,74.27c4.879,1.113,8.955,0.855,9.307,0.83c0.234-0.018,0.404-0.229,0.43-0.504
	c0.006-0.063,0.004-0.127-0.006-0.195c-0.057-0.367-0.336-0.646-0.627-0.625c-0.084,0.006-4.197,0.266-9.096-0.869l-1.973-5.008
	l0.939,4.752c-0.836-0.223-1.684-0.492-2.537-0.809l-1.406-4.414c-0.096,0.025-0.191,0.051-0.293,0.07l0.621,3.916
	c-0.938-0.396-1.865-0.859-2.77-1.398l-0.576-2.316c-0.215-0.004-0.428-0.008-0.635-0.018l0.156,1.664
	c-0.813-0.555-1.596-1.178-2.332-1.875l-0.553-0.07v-0.486c-1.01-1.049-1.92-2.25-2.676-3.639c0.564-0.205,1.514-0.51,2.676-0.75
	v-1.389c-2.088,0.398-3.576,1.039-3.715,1.1c-0.014,0.006-0.02,0.018-0.029,0.025c-0.248,0.033-0.43,0.279-0.408,0.605
	c0.676,11.277,5.424,14.834,8.193,15.953c4.254,1.717,8.891-0.064,10.041-2.744c0.027-0.064,0.045-0.137,0.053-0.211
	c0.023-0.264-0.09-0.549-0.295-0.707c-0.264-0.205-0.586-0.123-0.717,0.18c-0.855,1.994-4.961,3.807-8.877,2.227
	c-2.805-1.133-6.213-4.258-7.16-12.607c1.432,2.271,3.219,4.045,5.174,5.422l-2.416,1.168l3.705-0.324
	c0.945,0.568,1.916,1.057,2.893,1.475l-3.684,2.436l5.072-1.779c0.029-0.01,0.063-0.025,0.09-0.045
	c0.012-0.006,0.018-0.02,0.027-0.029c0.664,0.236,1.324,0.445,1.977,0.627l-2.5,2.295L64.534,74.27z M60.378,60.732v0.029
	c1.064,0.27,2.039,1.109,2.039,2.504c0,0.898-0.389,1.604-0.975,2.084c-0.721,0.629-1.904,0.943-3.75,0.943
	c-1.02,0-1.797-0.074-2.262-0.133v-9.941c0.584-0.119,1.648-0.209,2.684-0.209c1.363,0,2.203,0.164,2.893,0.645
	c0.631,0.375,1.049,1.035,1.049,1.889C62.056,59.473,61.472,60.328,60.378,60.732z M57.259,60.207h0.945
	c1.273,0,1.994-0.6,1.994-1.455c0-0.943-0.721-1.379-1.889-1.379c-0.541,0-0.855,0.031-1.051,0.076V60.207z M58.173,61.557h-0.914
	v3.299c0.24,0.029,0.557,0.045,0.975,0.045c1.186,0,2.232-0.451,2.232-1.695C60.466,62.037,59.448,61.557,58.173,61.557z
	 M65.165,56.084h-1.846v10.105h1.846V56.084z M70.804,55.92c2.953,0,4.691,2.232,4.691,5.111c0,3.389-2.053,5.322-4.844,5.322
	c-2.848,0-4.646-2.174-4.646-5.141C66.005,58.109,67.954,55.92,70.804,55.92z M70.757,57.404c-1.826,0-2.803,1.693-2.803,3.777
	c0,2.055,1.035,3.688,2.803,3.688c1.785,0,2.789-1.648,2.789-3.762C73.546,59.203,72.603,57.404,70.757,57.404z M33.011,73.078
	c0.072,0.045,0.12,0.123,0.12,0.215c0,0.139-0.112,0.25-0.251,0.25c-0.002,0-0.006,0-0.01,0l-8.84-0.014v6.105
	c0,0.139-0.112,0.25-0.251,0.25h-1.552c-0.139,0-0.251-0.111-0.251-0.25v-6.107l-4.293-0.006v4.1c0,0.139-0.111,0.252-0.25,0.252
	h-1.605c-0.139,0-0.251-0.113-0.251-0.252v-4.104l-2.438-0.002c-0.102,0-0.192-0.063-0.231-0.156
	c-0.001-0.004-0.003-0.008-0.004-0.012l-3.892-0.004c-0.102,0-0.192-0.063-0.23-0.156c-0.039-0.094-0.018-0.201,0.054-0.271
	l4.798-4.799l-3.447-0.004c-0.102,0-0.193-0.061-0.231-0.154c-0.039-0.094-0.018-0.201,0.054-0.273l4.092-4.092l-2.911-0.004
	c-0.101,0-0.192-0.061-0.23-0.154c-0.039-0.094-0.018-0.203,0.054-0.273l5.442-5.443c0.047-0.047,0.11-0.072,0.177-0.072
	c0,0,0,0,0.001,0c0.065,0,0.13,0.025,0.177,0.074l0.432,0.432l5.587-5.586c0.047-0.047,0.11-0.074,0.177-0.074
	s0.131,0.027,0.178,0.074l6.768,6.785c0.071,0.045,0.119,0.123,0.119,0.215c0,0.139-0.111,0.25-0.25,0.25c-0.002,0-0.006,0-0.01,0
	c0,0,0,0-0.001,0l-4.338-0.006l5.929,5.943c0.071,0.072,0.092,0.18,0.054,0.275c-0.039,0.092-0.131,0.154-0.231,0.154
	c0,0,0,0-0.001,0l-5.092-0.008L33.011,73.078z M16.682,73.52H16.58v3.35h0.102V73.52z M19.882,66.168l-5.095-0.008
	c-0.101,0-0.191-0.061-0.23-0.154s-0.018-0.203,0.055-0.273l2.634-2.635l-0.073-0.074c-0.072-0.072-0.094-0.18-0.055-0.273
	s0.131-0.154,0.231-0.154c0,0,0,0,0.001,0h0.396l1.257-1.256l-1.537-1.541l-1.267-0.002c-0.101,0-0.191-0.061-0.23-0.154
	c-0.002-0.004-0.004-0.01-0.006-0.016l-2.961,2.963l2.911,0.002c0.101,0,0.192,0.063,0.23,0.156
	c0.039,0.094,0.018,0.201-0.054,0.273l-4.092,4.092l3.447,0.004c0.102,0,0.193,0.063,0.231,0.156
	c0.039,0.094,0.018,0.201-0.054,0.271l-4.798,4.797l2.877,0.006l4.366-4.367l-0.429-0.432c-0.071-0.072-0.093-0.18-0.054-0.273
	s0.13-0.154,0.231-0.154l1.108,0.002L19.882,66.168z M20.539,59.803l-1.654-0.002l0.827,0.83L20.539,59.803z M103.742,87.674
	c0.002-0.057,0.041-1.404-0.826-2.15l-0.029-0.018c-0.179-0.078-0.34-0.174-0.493-0.291l-0.028-0.016
	c-0.07-0.027-0.151-0.057-0.241-0.08l-0.067,0.217c0.013,0.006,1.172,0.463,1.46,2.352L103.742,87.674z M103.517,85.117l0.226-0.014
	c0.002-0.057,0.04-1.396-0.82-2.145l-0.03-0.02c-0.182-0.076-0.352-0.178-0.505-0.297l-0.029-0.016
	c-0.075-0.029-0.15-0.057-0.233-0.076l-0.067,0.217C102.069,82.771,103.229,83.229,103.517,85.117z M103.517,79.865l0.226-0.014
	c0.002-0.057,0.041-1.404-0.826-2.15l-0.029-0.02c-0.179-0.076-0.34-0.172-0.493-0.289l-0.028-0.018
	c-0.07-0.025-0.151-0.057-0.241-0.078l-0.067,0.217C102.069,77.518,103.229,77.975,103.517,79.865z M103.517,77.295l0.226-0.014
	c0.001-0.021,0.06-2.139-1.618-2.555l-0.067,0.217C102.069,74.949,103.229,75.406,103.517,77.295z M103.517,82.551l0.226-0.014
	c0.001-0.021,0.06-2.139-1.618-2.555l-0.067,0.217C102.069,80.203,103.229,80.662,103.517,82.551z M106.247,79.391
	c0.013-0.08,0.027-0.158,0.044-0.236l-0.217,0.314L106.247,79.391z M102.124,87.807l-0.067,0.215
	c0.013,0.006,1.172,0.463,1.46,2.352l0.115-0.008c-0.002-0.236,0.016-0.465,0.046-0.682C103.554,89.02,103.19,88.07,102.124,87.807z
	 M106.18,79.896l-0.067-0.217c-1.678,0.416-1.619,2.533-1.618,2.555l0.226,0.014C105.008,80.359,106.168,79.9,106.18,79.896z
	 M104.494,79.512l0.226,0.012c0.288-1.889,1.448-2.346,1.46-2.35l-0.067-0.217C104.435,77.371,104.493,79.49,104.494,79.512z
	 M104.105,72.186c-1.34,1.094-0.381,2.982-0.371,3.002l0.21-0.084c-0.548-1.832,0.306-2.74,0.313-2.75L104.105,72.186z
	 M106.112,74.273c-1.678,0.414-1.619,2.533-1.618,2.555l0.226,0.012c0.288-1.889,1.448-2.346,1.46-2.35L106.112,74.273z
	 M104.275,84.951l0.226,0.012c0.159-1.045,0.587-1.652,0.938-1.986l0.094-0.197c0-0.08,0.002-0.16,0.005-0.238
	c-0.076,0.041-0.156,0.08-0.248,0.119C104.232,83.361,104.273,84.887,104.275,84.951z M104.395,86.711
	c-0.13,0.498-0.119,0.914-0.119,0.924h0.009C104.291,87.305,104.335,86.992,104.395,86.711z M103.912,89.078
	c0.003-0.137,0.006-0.275,0.01-0.416c-0.027,0.082-0.056,0.172-0.083,0.268C103.863,88.979,103.891,89.027,103.912,89.078z
	 M106.291,79.154l0.013-0.018c0.295-0.428,0.43-0.936,0.484-1.4l-0.114,0.236C106.633,78.059,106.421,78.521,106.291,79.154z
	 M108.75,79.596l0.222,0.043c0.007-0.02,0.579-2.061-0.948-2.871l-0.117,0.193C107.916,76.969,108.932,77.686,108.75,79.596z
	 M105.789,92.324c0.006-0.02,0.578-2.061-0.947-2.871l-0.118,0.193c0.011,0.008,1.024,0.734,0.844,2.635L105.789,92.324z
	 M107.471,84.693l0.223,0.043c0.006-0.02,0.578-2.061-0.949-2.871l-0.117,0.193C106.638,82.066,107.651,82.793,107.471,84.693z
	 M106.221,89.676l0.223,0.043c0.016-0.055,0.381-1.352-0.278-2.287l-0.024-0.025c-0.154-0.117-0.287-0.248-0.407-0.4l-0.024-0.021
	c-0.061-0.043-0.132-0.094-0.215-0.137l-0.117,0.193C105.388,87.049,106.401,87.775,106.221,89.676z M106.847,87.184l0.222,0.043
	c0.016-0.055,0.379-1.346-0.273-2.281l-0.025-0.023c-0.156-0.121-0.297-0.258-0.417-0.412l-0.024-0.023
	c-0.066-0.047-0.132-0.092-0.208-0.133l-0.117,0.195C106.014,84.557,107.027,85.271,106.847,87.184z M108.124,82.09l0.223,0.041
	c0.016-0.055,0.381-1.352-0.278-2.287l-0.023-0.023c-0.155-0.119-0.288-0.25-0.408-0.402l-0.023-0.021
	c-0.065-0.047-0.135-0.094-0.215-0.137l-0.117,0.195C107.291,79.461,108.305,80.188,108.124,82.09z M108.496,84.625l0.216,0.068
	c0.738-1.762,1.976-1.924,1.987-1.926l-0.012-0.225C108.959,82.537,108.5,84.605,108.496,84.625z M109.551,85.145
	c-0.118,0.039-0.241,0.066-0.387,0.09c-1.196,0.42-1.527,1.91-1.541,1.973l0.216,0.068c0.738-1.762,1.976-1.924,1.987-1.926
	l-0.012-0.227C109.729,85.123,109.65,85.133,109.551,85.145z M109.158,81.984l0.216,0.068c0.739-1.764,1.976-1.924,1.988-1.926
	L111.35,79.9C109.621,79.895,109.163,81.963,109.158,81.984z M106.307,92.453l0.217,0.066c0.738-1.762,1.975-1.924,1.987-1.926
	l-0.013-0.227C106.77,90.363,106.312,92.432,106.307,92.453z M109.812,79.381l0.217,0.068c0.738-1.762,1.975-1.924,1.987-1.926
	l-0.013-0.227C110.274,77.291,109.816,79.361,109.812,79.381z M110.672,74.984l-0.107-0.199c-1.565,0.734-1.096,2.801-1.091,2.82
	l0.225-0.031C109.612,75.666,110.661,74.99,110.672,74.984z M106.97,89.811l0.216,0.068c0.738-1.764,1.976-1.924,1.988-1.926
	l-0.013-0.227C107.433,87.721,106.975,89.789,106.97,89.811z M108.972,70.664c0.007-0.021,0.579-2.063-0.948-2.871l-0.117,0.191
	c0.01,0.008,1.025,0.725,0.844,2.637L108.972,70.664z M107.795,74.662c-0.037-0.59-0.251-1.275-0.934-1.699
	C107.355,73.379,107.621,73.986,107.795,74.662z M107.613,70.42c-0.065-0.045-0.135-0.092-0.215-0.135l-0.117,0.193
	c0.01,0.008,1.023,0.732,0.843,2.635l0.223,0.043c0.016-0.055,0.381-1.352-0.278-2.287l-0.023-0.025
	c-0.155-0.117-0.288-0.248-0.408-0.4L107.613,70.42z M109.428,74.096c0.336-0.221,0.699-0.389,1.081-0.516
	c-0.572,0.047-0.995,0.326-1.299,0.67C109.281,74.195,109.354,74.145,109.428,74.096z M111.35,70.924
	c-1.729-0.004-2.187,2.064-2.191,2.084l0.216,0.068c0.739-1.762,1.976-1.924,1.988-1.926L111.35,70.924z M113.002,67.863
	c-0.003,0.066-0.078,1.51-0.912,2.5c0.045-0.006,0.091-0.012,0.135-0.014l0.13-0.014l-0.006,0.131
	c-0.003,0.068-0.08,1.551-0.946,2.541c0.054-0.008,0.107-0.012,0.159-0.018l0.13-0.014l-0.006,0.131
	c0,0.014-0.004,0.086-0.017,0.197c-0.078,0.014-0.156,0.025-0.234,0.041c0.005-0.043,0.01-0.082,0.014-0.115
	c-0.112,0.014-0.228,0.031-0.349,0.053l-0.397,0.068l0.303-0.266c0.86-0.756,1.063-2.076,1.105-2.496
	c-0.096,0.012-0.198,0.025-0.31,0.045l-0.373,0.061l0.277-0.256c0.819-0.762,1.016-2.041,1.059-2.453
	c-0.641,0.074-1.196,0.232-1.654,0.471l-0.406,0.211l0.261-0.377c0.763-1.098,0.302-2.662,0.144-3.109
	c-1.008,0.627-1.617,1.367-1.813,2.201c-0.211,0.896,0.128,1.643,0.25,1.871c0.01-0.004,0.021-0.006,0.03-0.01
	c0.015-0.059,0.028-0.117,0.043-0.176l0.22,0.053c-0.002,0.01-0.005,0.021-0.007,0.031c0.061-0.025,0.121-0.049,0.179-0.078
	l0.42-0.197l-0.281,0.369c-0.538,0.707-0.552,1.498-0.539,1.754c0.161,0.023,0.319,0.035,0.472,0.037l0.366,0.004l-0.304,0.203
	c-1.188,0.801-1.207,2.025-1.188,2.357c0.178,0.025,0.351,0.039,0.521,0.037l0.394-0.004l-0.331,0.213
	c-0.401,0.256-0.673,0.564-0.858,0.873c-0.264,0.271-0.496,0.578-0.689,0.906c-0.014-0.082-0.026-0.164-0.041-0.246
	c0.068-0.459,0.033-1.031-0.293-1.643l-0.172-0.324l0.325,0.17c0.136,0.072,0.281,0.135,0.437,0.191
	c0.162-0.273,0.682-1.301,0.144-2.482l-0.13-0.285l0.282,0.135c0.116,0.057,0.223,0.102,0.329,0.141
	c0.134-0.225,0.51-0.955,0.343-1.859c-0.155-0.842-0.729-1.611-1.702-2.287c-0.148,0.363-0.544,1.48-0.274,2.498l0.083,0.313
	l-0.261-0.193c-0.056-0.041-0.114-0.084-0.173-0.125c-0.157,0.385-0.589,1.609-0.224,2.666l0.124,0.359l-0.301-0.232
	c-0.09-0.07-0.173-0.131-0.254-0.188c-0.031,0.076-0.073,0.188-0.118,0.324c-0.07-0.023-0.144-0.043-0.22-0.061
	c0.092-0.281,0.176-0.463,0.187-0.484l0.056-0.117l0.109,0.072c0.037,0.025,0.076,0.051,0.113,0.078
	c-0.27-1.268,0.347-2.578,0.375-2.639l0.057-0.117l0.108,0.072c0.02,0.014,0.038,0.025,0.058,0.039
	c-0.193-1.221,0.377-2.432,0.402-2.486l0.057-0.117l0.108,0.072c0.668,0.445,1.168,0.934,1.495,1.457
	c-0.036-0.295-0.032-0.633,0.053-0.998c0.219-0.926,0.903-1.738,2.035-2.414l0.113-0.068l0.051,0.121
	c0.031,0.078,0.729,1.777,0.066,3.133c0.445-0.18,0.962-0.299,1.54-0.355l0.13-0.014L113.002,67.863z M108.431,73.91
	c-0.024,0.039-0.04,0.063-0.046,0.068l-0.049,0.068l-0.079-0.027c-0.091-0.031-0.179-0.064-0.265-0.1
	c0.13,0.322,0.189,0.633,0.204,0.92C108.275,74.529,108.354,74.217,108.431,73.91z M108.83,73.813l-0.084-0.014l-0.01-0.084
	c0-0.002-0.003-0.027-0.006-0.072c-0.076,0.309-0.156,0.623-0.238,0.949c0.156-0.256,0.365-0.512,0.65-0.738
	C109.039,73.844,108.937,73.83,108.83,73.813z M109.044,71.436c-0.017,0.027-0.03,0.045-0.033,0.051l-0.049,0.068l-0.079-0.027
	c-0.061-0.02-0.12-0.043-0.182-0.066c0.094,0.268,0.136,0.521,0.149,0.762C108.916,71.957,108.98,71.695,109.044,71.436z
	 M109.458,69.516c0.008,0.057,0.009,0.107,0.013,0.162c0.015-0.059,0.028-0.119,0.042-0.178L109.458,69.516z M109.381,71.01
	c-0.071,0.295-0.149,0.613-0.234,0.955c0.148-0.248,0.348-0.494,0.615-0.717c-0.091-0.01-0.184-0.021-0.279-0.039l-0.083-0.014
	l-0.011-0.082C109.389,71.105,109.384,71.068,109.381,71.01z M110.028,70.475c0.738-1.764,1.975-1.924,1.987-1.926l-0.013-0.227
	c-1.729-0.006-2.187,2.063-2.191,2.084L110.028,70.475z M110.564,65.811c-1.565,0.732-1.096,2.799-1.091,2.82l0.225-0.031
	c-0.086-1.908,0.963-2.584,0.974-2.59L110.564,65.811z M117.238,86.711c0,0-0.244,0.162-0.674,0.445
	c-0.215,0.139-0.475,0.309-0.774,0.504c-0.299,0.193-0.619,0.441-0.979,0.689c-0.359,0.254-0.749,0.525-1.141,0.842
	c-0.198,0.154-0.401,0.313-0.609,0.475c-0.104,0.082-0.211,0.164-0.317,0.246c-0.104,0.084-0.208,0.172-0.313,0.26
	c-0.21,0.176-0.424,0.355-0.641,0.535c-0.219,0.18-0.436,0.363-0.647,0.561c-0.424,0.389-0.869,0.768-1.281,1.184
	c-0.212,0.201-0.423,0.404-0.633,0.605c-0.211,0.201-0.408,0.414-0.611,0.619c-0.407,0.406-0.789,0.824-1.158,1.23
	c-0.372,0.404-0.712,0.811-1.046,1.186c-0.066,0.08-0.131,0.158-0.196,0.236c-0.124,0.191-0.241,0.377-0.35,0.559
	c-0.23,0.375-0.438,0.719-0.617,1.027c-0.182,0.309-0.329,0.582-0.453,0.805c-0.245,0.451-0.374,0.715-0.374,0.715
	s0.111-0.271,0.335-0.732c0.114-0.23,0.25-0.512,0.419-0.828c0.084-0.158,0.174-0.324,0.268-0.502
	c0.062-0.109,0.126-0.221,0.191-0.336c-0.04,0.053-0.082,0.104-0.12,0.154c-0.273,0.344-0.52,0.662-0.734,0.947
	c-0.181,0.238-0.335,0.453-0.468,0.639c0.03,0.277,0.042,0.434,0.042,0.434s-0.02-0.146-0.063-0.406
	c-0.019,0.027-0.039,0.055-0.057,0.08c-0.006,0.008-0.011,0.016-0.017,0.023c0.124,0.492,0.178,0.777,0.178,0.777
	s-0.069-0.27-0.21-0.732c-0.264,0.375-0.406,0.598-0.406,0.598s0.134-0.242,0.392-0.648c-0.012-0.035-0.024-0.076-0.037-0.117
	c-0.108,0.211-0.165,0.328-0.165,0.328s0.053-0.129,0.157-0.355c-0.012-0.035-0.022-0.07-0.033-0.105
	c-0.102,0.225-0.196,0.416-0.283,0.566c0.009,0.102,0.013,0.156,0.013,0.156s-0.007-0.051-0.021-0.143
	c-0.121,0.203-0.229,0.33-0.319,0.369l-0.09-0.209c0.095-0.041,0.214-0.211,0.355-0.49c-0.017-0.096-0.034-0.201-0.056-0.322
	c-0.048-0.252-0.102-0.559-0.178-0.906c-0.008-0.039-0.018-0.08-0.025-0.117c-0.065,0.217-0.137,0.363-0.215,0.424l-0.138-0.182
	c0.093-0.07,0.178-0.313,0.254-0.695c-0.043-0.191-0.09-0.391-0.139-0.6c-0.046-0.207-0.1-0.422-0.157-0.641
	c-0.037-0.096-0.074-0.189-0.111-0.285c-0.199-0.463-0.395-0.955-0.621-1.455c-0.223-0.5-0.453-1.02-0.713-1.533
	c-0.128-0.258-0.249-0.521-0.385-0.779c-0.137-0.258-0.273-0.516-0.411-0.773c-0.261-0.523-0.564-1.023-0.845-1.527
	c-0.139-0.252-0.287-0.496-0.438-0.734c-0.149-0.24-0.297-0.477-0.441-0.709c-0.072-0.117-0.145-0.232-0.215-0.346
	c-0.076-0.111-0.15-0.223-0.225-0.332c-0.146-0.221-0.289-0.434-0.429-0.643c-0.272-0.424-0.558-0.805-0.819-1.156
	c-0.264-0.352-0.489-0.686-0.712-0.965c-0.224-0.277-0.417-0.521-0.578-0.723c-0.317-0.402-0.499-0.633-0.499-0.633
	s0.193,0.221,0.533,0.605c0.169,0.193,0.374,0.428,0.609,0.697s0.477,0.594,0.749,0.939c0.271,0.348,0.567,0.723,0.852,1.139
	c0.146,0.205,0.296,0.418,0.449,0.635c0.076,0.107,0.153,0.219,0.23,0.328c0.073,0.115,0.146,0.23,0.22,0.346
	c0.147,0.234,0.297,0.471,0.449,0.711c0.153,0.238,0.305,0.48,0.446,0.734c0.286,0.502,0.597,1.002,0.862,1.527
	c0.136,0.26,0.271,0.52,0.406,0.781c0.135,0.258,0.254,0.525,0.381,0.785c0.255,0.52,0.482,1.041,0.702,1.547
	c0.05,0.111,0.098,0.223,0.144,0.334c-0.072-0.25-0.146-0.508-0.229-0.766c-0.162-0.525-0.33-1.066-0.527-1.607
	c-0.097-0.271-0.186-0.547-0.29-0.818c-0.106-0.271-0.212-0.545-0.317-0.816c-0.198-0.551-0.44-1.084-0.66-1.615
	c-0.106-0.268-0.227-0.527-0.348-0.781c-0.119-0.256-0.238-0.51-0.354-0.758c-0.058-0.123-0.116-0.246-0.173-0.369
	c-0.063-0.119-0.123-0.238-0.184-0.355c-0.119-0.234-0.236-0.465-0.351-0.689c-0.221-0.451-0.458-0.863-0.677-1.244
	c-0.221-0.379-0.405-0.738-0.594-1.041c-0.189-0.303-0.354-0.566-0.488-0.785c-0.269-0.438-0.423-0.688-0.423-0.688
	s0.167,0.24,0.46,0.664c0.145,0.211,0.32,0.469,0.522,0.764s0.403,0.645,0.633,1.021s0.479,0.783,0.712,1.23
	c0.121,0.223,0.244,0.449,0.371,0.684c0.063,0.117,0.126,0.234,0.19,0.354c0.059,0.123,0.118,0.244,0.177,0.369
	c0.119,0.25,0.24,0.502,0.362,0.758c0.125,0.254,0.247,0.514,0.358,0.781c0.225,0.533,0.473,1.066,0.676,1.619
	c0.104,0.275,0.208,0.549,0.312,0.822c0.103,0.275,0.19,0.553,0.285,0.826c0.192,0.545,0.357,1.092,0.515,1.619
	c0.166,0.525,0.286,1.045,0.417,1.531c0.049,0.219,0.1,0.428,0.147,0.633c0.097,0.268,0.191,0.525,0.279,0.775
	c0.039-0.293,0.076-0.625,0.11-0.998c-0.08-0.313-0.167-0.637-0.252-0.975c-0.158-0.531-0.308-1.098-0.49-1.674
	c-0.09-0.289-0.183-0.584-0.275-0.881s-0.203-0.592-0.306-0.893c-0.068-0.193-0.135-0.387-0.203-0.58
	c-0.097-0.092-0.188-0.189-0.27-0.297c-0.457-0.607-0.594-1.363-0.615-1.977c-0.104-0.246-0.209-0.49-0.311-0.734
	c-0.119-0.295-0.25-0.582-0.385-0.863c-0.133-0.281-0.263-0.561-0.391-0.834c-0.064-0.137-0.129-0.273-0.191-0.406
	c-0.068-0.133-0.136-0.264-0.203-0.395c-0.132-0.258-0.262-0.512-0.388-0.76c-0.129-0.244-0.243-0.49-0.374-0.717
	c-0.13-0.227-0.255-0.445-0.375-0.656c-0.244-0.418-0.449-0.813-0.657-1.146c-0.209-0.334-0.391-0.627-0.54-0.865
	c-0.298-0.482-0.469-0.758-0.469-0.758s0.184,0.266,0.505,0.732c0.16,0.234,0.354,0.52,0.575,0.846
	c0.223,0.326,0.443,0.713,0.697,1.129c0.125,0.207,0.256,0.424,0.391,0.648c0.137,0.223,0.258,0.467,0.393,0.709
	c0.133,0.246,0.27,0.498,0.408,0.754c0.069,0.129,0.14,0.26,0.21,0.391c0.064,0.135,0.129,0.271,0.195,0.408
	c0.131,0.273,0.265,0.553,0.399,0.834c0.137,0.281,0.271,0.568,0.394,0.863c0.041,0.098,0.083,0.193,0.125,0.291
	c0.021-0.326,0.063-0.549,0.068-0.574l0.026-0.127l0.123,0.043c0.043,0.016,0.086,0.031,0.129,0.049
	c-0.57-1.164-0.291-2.586-0.278-2.65l0.026-0.127l0.123,0.043c0.021,0.008,0.043,0.016,0.064,0.023
	c-0.483-1.137-0.226-2.449-0.214-2.508l0.026-0.129l0.123,0.043c0.021,0.008,0.042,0.016,0.063,0.023
	c-0.481-1.137-0.224-2.445-0.212-2.506l0.026-0.129l0.123,0.045c0.043,0.016,0.086,0.031,0.129,0.047
	c-0.57-1.162-0.291-2.584-0.278-2.648l0.026-0.129l0.123,0.045c0.021,0.008,0.043,0.016,0.064,0.023
	c-0.483-1.137-0.226-2.449-0.214-2.51l0.026-0.127l0.123,0.043c0.756,0.27,1.358,0.621,1.805,1.051
	c-0.107-0.279-0.187-0.607-0.191-0.98c-0.014-0.953,0.452-1.908,1.386-2.84l0.093-0.092l0.078,0.105
	c0.051,0.066,1.141,1.545,0.827,3.023c0.39-0.285,0.86-0.527,1.407-0.721l0.123-0.045l0.026,0.129
	c0.013,0.064,0.291,1.482-0.276,2.645c0.043-0.016,0.085-0.031,0.127-0.047l0.123-0.043l0.026,0.129
	c0.002,0.008,0.009,0.041,0.017,0.094c-0.098,0.373-0.18,0.832-0.174,1.32l-0.024,0.053c0.065-0.561,0.014-1.063-0.02-1.291
	c-0.091,0.035-0.186,0.074-0.29,0.119l-0.347,0.152l0.206-0.318c0.611-0.938,0.49-2.227,0.431-2.637
	c-0.603,0.229-1.104,0.518-1.49,0.857l-0.343,0.305l0.162-0.428c0.473-1.252-0.355-2.656-0.617-3.053
	c-0.823,0.854-1.235,1.719-1.225,2.574c0.012,0.92,0.523,1.564,0.698,1.758c0.009-0.006,0.018-0.012,0.027-0.018
	c-0.001-0.061-0.002-0.121-0.002-0.18l0.227-0.004c0,0.01,0.001,0.021,0.001,0.031c0.053-0.039,0.105-0.076,0.154-0.117l0.359-0.293
	l-0.184,0.426c-0.35,0.816-0.169,1.588-0.096,1.832c0.162-0.016,0.318-0.043,0.467-0.08l0.355-0.086l-0.244,0.273
	c-0.958,1.064-0.679,2.258-0.579,2.576c0.177-0.018,0.346-0.049,0.515-0.092l0.381-0.1l-0.27,0.287
	c-1.015,1.076-0.727,2.305-0.626,2.627c0.077-0.008,0.157-0.018,0.245-0.033l0.318-0.055l-0.214,0.242
	c-0.271,0.303-0.459,0.641-0.569,1.006c-0.004,0.494-0.008,0.994-0.015,1.5c0.006,0.02,0.012,0.041,0.017,0.057
	c0.162-0.016,0.318-0.043,0.467-0.078l0.126-0.031l-0.045,0.096c-0.019,0.037-0.073,0.156-0.14,0.332
	c-0.21,0.285-0.36,0.594-0.442,0.926c-0.007,0.404-0.014,0.807-0.022,1.209c0.002,0.008,0.003,0.016,0.006,0.023l-0.055,0.111
	c-0.011,0.023-0.098,0.211-0.195,0.498c0.001-0.041,0.002-0.082,0.003-0.123l-0.06-0.006c-0.095-0.006-0.188-0.018-0.28-0.031
	c0.1,0.137,0.182,0.281,0.254,0.428c-0.031,0.109-0.062,0.229-0.089,0.355c-0.116-0.318-0.295-0.611-0.535-0.879l-0.246-0.271
	l0.357,0.086c0.148,0.035,0.307,0.063,0.469,0.08c0.031-0.104,0.081-0.299,0.103-0.549h0.044c0.004-0.174,0.007-0.35,0.01-0.525
	h-0.057c-0.052-0.504-0.241-0.967-0.564-1.371l-0.195-0.244l0.308,0.063c0.126,0.025,0.239,0.043,0.353,0.057
	c0.034-0.111,0.09-0.332,0.107-0.613l0.08-0.002c0.001-0.168,0.004-0.334,0.005-0.502l-0.099,0.004
	c-0.057-0.488-0.244-0.936-0.556-1.328l-0.194-0.244l0.306,0.063c0.122,0.025,0.239,0.043,0.352,0.055
	c0.1-0.318,0.379-1.514-0.581-2.578l-0.246-0.273l0.357,0.088c0.148,0.035,0.306,0.063,0.469,0.078
	c0.092-0.305,0.346-1.428-0.465-2.443l-0.195-0.244l0.308,0.063c0.126,0.025,0.239,0.043,0.353,0.057
	c0.076-0.252,0.262-1.053-0.121-1.889c-0.354-0.777-1.097-1.383-2.206-1.803c-0.056,0.389-0.167,1.57,0.341,2.488l0.158,0.283
	l-0.301-0.123c-0.064-0.027-0.131-0.053-0.198-0.08c-0.059,0.412-0.179,1.703,0.433,2.641l0.207,0.318l-0.348-0.152
	c-0.104-0.045-0.2-0.084-0.292-0.119c-0.056,0.389-0.167,1.566,0.339,2.484l0.156,0.285l-0.299-0.125
	c-0.063-0.027-0.129-0.053-0.196-0.078c-0.056,0.391-0.167,1.568,0.341,2.488l0.158,0.285l-0.301-0.125
	c-0.064-0.027-0.131-0.053-0.198-0.078c-0.059,0.41-0.179,1.701,0.433,2.639l0.207,0.318l-0.348-0.152
	c-0.104-0.045-0.2-0.084-0.292-0.119c-0.025,0.176-0.062,0.512-0.047,0.91c0.14,0.324,0.276,0.648,0.397,0.98
	c0.115,0.305,0.229,0.607,0.344,0.908c0.033,0.086,0.062,0.172,0.091,0.256c0.364,0.334,0.844,0.543,1.433,0.621
	c0.014,0.078,0.03,0.156,0.05,0.232c-0.525-0.057-0.975-0.211-1.345-0.455c0.028,0.086,0.058,0.172,0.087,0.258
	c0.101,0.303,0.21,0.6,0.3,0.898c0.091,0.299,0.182,0.596,0.27,0.885c0.183,0.58,0.315,1.154,0.461,1.691
	c0.043,0.191,0.088,0.379,0.132,0.563c0.079-0.98,0.144-2.178,0.195-3.516c0.016,0.043,0.028,0.086,0.046,0.129
	c0.047,0.113,0.104,0.219,0.164,0.322c-0.063,1.438-0.144,2.727-0.25,3.742c0.021,0.098,0.042,0.193,0.061,0.291
	c0.048,0.236,0.094,0.465,0.139,0.684c0.037,0.217,0.073,0.424,0.107,0.617c0.033,0.195,0.063,0.377,0.087,0.547
	c0.418-1.109,0.934-2.746,1.493-4.678c-0.855-0.293-1.439-0.793-1.732-1.486c-0.045-0.105-0.078-0.215-0.108-0.324
	c-0.003,0.053-0.004,0.105-0.006,0.156c-0.04-0.107-0.072-0.215-0.1-0.324c0.022,0.002,0.045,0.006,0.066,0.008
	c-0.017-0.076-0.028-0.152-0.039-0.23c-0.025-0.004-0.052-0.008-0.077-0.01c-0.035-0.203-0.052-0.406-0.054-0.605l0.104-0.006
	c0.002-0.021,0.004-0.045,0.006-0.068c-0.002-0.107-0.013-0.332-0.064-0.607c0.021-0.139,0.044-0.273,0.072-0.398
	c0.037,0.102,0.066,0.207,0.091,0.314c0.104-0.477,0.254-0.838,0.312-0.969c0.001-0.045,0.002-0.092,0.004-0.137
	c0.021-0.002,0.043-0.006,0.064-0.008l0.014-0.027l0.031,0.021c0.056-0.006,0.111-0.012,0.165-0.02
	c-0.195-1.219,0.372-2.432,0.4-2.488l0.056-0.119l0.109,0.072c0.019,0.014,0.038,0.025,0.058,0.039
	c-0.193-1.219,0.376-2.432,0.402-2.486l0.057-0.117l0.109,0.072c0.018,0.014,0.037,0.025,0.055,0.037
	c-0.19-1.219,0.378-2.426,0.404-2.48l0.056-0.119l0.109,0.072c0.037,0.025,0.076,0.053,0.113,0.078
	c-0.27-1.268,0.347-2.578,0.375-2.637l0.057-0.117l0.108,0.072c0.02,0.012,0.038,0.025,0.058,0.037
	c-0.193-1.219,0.377-2.43,0.402-2.484l0.057-0.119l0.108,0.072c0.668,0.445,1.168,0.934,1.495,1.457
	c-0.036-0.295-0.032-0.633,0.053-0.996c0.219-0.928,0.903-1.74,2.035-2.416l0.113-0.068l0.051,0.121
	c0.031,0.078,0.729,1.777,0.066,3.135c0.445-0.182,0.962-0.301,1.54-0.357l0.13-0.012l-0.006,0.131
	c-0.003,0.066-0.078,1.51-0.912,2.5c0.045-0.008,0.091-0.012,0.135-0.016l0.13-0.014l-0.006,0.131
	c-0.003,0.068-0.08,1.553-0.946,2.543c0.054-0.008,0.107-0.014,0.159-0.02l0.13-0.012l-0.006,0.131
	c-0.003,0.064-0.074,1.461-0.87,2.451l0.003-0.002l-0.006,0.133c-0.002,0.064-0.078,1.51-0.912,2.5
	c0.046-0.008,0.091-0.012,0.136-0.016l0.13-0.014l-0.006,0.131c-0.003,0.068-0.08,1.553-0.946,2.541
	c0.054-0.006,0.106-0.012,0.159-0.018l0.13-0.012l-0.006,0.131c-0.001,0.027-0.015,0.273-0.081,0.619
	c0.037-0.047,0.073-0.092,0.11-0.137c0.403-0.508,0.849-0.98,1.269-1.461c0.209-0.242,0.426-0.471,0.645-0.695
	c0.217-0.225,0.432-0.447,0.643-0.668c0.104-0.109,0.209-0.217,0.313-0.324c0.108-0.104,0.216-0.205,0.322-0.307
	c0.213-0.199,0.422-0.396,0.624-0.586c0.205-0.188,0.396-0.381,0.596-0.551c0.199-0.17,0.392-0.336,0.575-0.494
	c0.371-0.313,0.702-0.611,1.017-0.852c0.313-0.24,0.586-0.449,0.812-0.621c0.451-0.342,0.709-0.537,0.709-0.537
	s-0.248,0.207-0.682,0.572c-0.219,0.182-0.482,0.4-0.785,0.65c-0.303,0.254-0.622,0.563-0.985,0.883
	c-0.18,0.162-0.367,0.332-0.562,0.506c-0.195,0.174-0.381,0.371-0.58,0.564c-0.197,0.193-0.4,0.395-0.607,0.6
	c-0.104,0.102-0.21,0.203-0.315,0.309c-0.103,0.107-0.206,0.215-0.31,0.326c-0.208,0.219-0.42,0.443-0.634,0.668
	c-0.216,0.225-0.431,0.455-0.637,0.699c-0.414,0.48-0.853,0.953-1.251,1.463c-0.137,0.164-0.271,0.328-0.408,0.494
	c-0.167,0.566-0.471,1.229-1.021,1.697c-0.168,0.143-0.352,0.256-0.547,0.346c-0.113,0.156-0.226,0.313-0.336,0.467
	c-0.354,0.49-0.675,0.98-0.991,1.436c-0.298,0.469-0.593,0.904-0.84,1.32c-0.579,0.934-1.011,1.713-1.277,2.213
	c0.009,0.066,0.016,0.131,0.022,0.189c0.118-0.182,0.253-0.387,0.409-0.611c0.103-0.146,0.211-0.305,0.325-0.469
	c0.12-0.16,0.245-0.332,0.377-0.508c0.22-0.305,0.475-0.621,0.737-0.953c0.11-0.18,0.224-0.365,0.339-0.555
	c0.277-0.422,0.555-0.879,0.877-1.326c0.316-0.449,0.644-0.916,0.998-1.373c0.176-0.229,0.346-0.467,0.529-0.695
	c0.185-0.227,0.369-0.455,0.555-0.684c0.366-0.459,0.771-0.887,1.151-1.322c0.188-0.221,0.386-0.428,0.585-0.631
	c0.196-0.203,0.391-0.406,0.581-0.605c0.096-0.1,0.19-0.197,0.285-0.295c0.098-0.092,0.195-0.184,0.291-0.275
	c0.194-0.182,0.383-0.359,0.567-0.531c0.362-0.352,0.727-0.66,1.063-0.945s0.637-0.555,0.922-0.771
	c0.284-0.217,0.533-0.404,0.736-0.561c0.41-0.309,0.645-0.486,0.645-0.486s-0.225,0.189-0.616,0.521
	c-0.197,0.162-0.437,0.363-0.711,0.592s-0.562,0.51-0.891,0.801c-0.327,0.293-0.683,0.609-1.034,0.969
	c-0.179,0.178-0.362,0.359-0.55,0.545c-0.094,0.092-0.189,0.186-0.285,0.279c-0.093,0.1-0.187,0.197-0.28,0.297
	c-0.188,0.199-0.38,0.402-0.574,0.607c-0.195,0.203-0.391,0.412-0.576,0.631c-0.375,0.438-0.772,0.867-1.134,1.326
	c-0.187,0.227-0.372,0.451-0.558,0.676c-0.185,0.225-0.355,0.461-0.533,0.688c-0.356,0.451-0.687,0.912-1.005,1.359
	c-0.16,0.219-0.312,0.439-0.459,0.656c0.079-0.092,0.159-0.184,0.242-0.273c0.367-0.41,0.747-0.834,1.152-1.248
	c0.202-0.207,0.399-0.422,0.608-0.627c0.21-0.203,0.421-0.408,0.632-0.613c0.417-0.414,0.869-0.791,1.298-1.18
	c0.214-0.195,0.435-0.379,0.655-0.557c0.22-0.18,0.437-0.357,0.649-0.531c0.106-0.088,0.212-0.174,0.316-0.26
	c0.108-0.08,0.216-0.16,0.322-0.24c0.214-0.158,0.422-0.311,0.626-0.461c0.401-0.307,0.8-0.568,1.166-0.814
	c0.368-0.242,0.698-0.475,1.007-0.656c0.308-0.182,0.576-0.34,0.797-0.471C116.984,86.859,117.238,86.711,117.238,86.711z
	 M103.972,85.914l-0.022,0.057l-0.084-0.006c-0.063-0.006-0.126-0.014-0.191-0.021c0.122,0.188,0.215,0.385,0.289,0.59
	C103.966,86.326,103.969,86.121,103.972,85.914z M104.287,83.102l-0.03-0.078c-0.001-0.002-0.013-0.033-0.029-0.086
	c-0.001,0.162-0.001,0.324-0.003,0.488c0.063-0.115,0.132-0.229,0.212-0.338c-0.022,0.004-0.044,0.006-0.065,0.006L104.287,83.102z
	 M104.287,80.377l-0.03-0.078c-0.001-0.002-0.011-0.025-0.023-0.068c0.001,0.316,0.001,0.643,0,0.977
	c0.088-0.285,0.229-0.584,0.45-0.873c-0.103,0.016-0.206,0.029-0.313,0.037L104.287,80.377z M104.224,77.52
	c0.001,0.301,0.003,0.629,0.005,0.98c0.084-0.275,0.217-0.563,0.422-0.844c-0.092,0.014-0.185,0.023-0.279,0.031l-0.084,0.008
	l-0.03-0.08C104.254,77.609,104.24,77.574,104.224,77.52z M104.198,86.156c0.067-0.129,0.144-0.256,0.233-0.377
	c-0.076,0.012-0.151,0.02-0.229,0.025C104.201,85.922,104.199,86.039,104.198,86.156z M103.998,83.271
	c-0.01,0.031-0.018,0.053-0.018,0.055l-0.031,0.078l-0.084-0.008c-0.063-0.004-0.125-0.012-0.189-0.02
	c0.131,0.201,0.234,0.412,0.31,0.635c0.002-0.008,0.006-0.016,0.008-0.023C103.995,83.75,103.997,83.512,103.998,83.271z
	 M104.008,80.563c-0.015,0.043-0.025,0.07-0.028,0.076l-0.03,0.08l-0.084-0.008c-0.095-0.008-0.189-0.018-0.281-0.031
	c0.205,0.279,0.338,0.566,0.422,0.842C104.007,81.199,104.008,80.881,104.008,80.563z M104,78.012
	c-0.01,0.031-0.018,0.053-0.021,0.059l-0.03,0.078l-0.084-0.008c-0.063-0.004-0.126-0.012-0.191-0.02
	c0.155,0.236,0.258,0.473,0.33,0.701C104.004,78.551,104.002,78.279,104,78.012z M103.935,76.051
	c0.021,0.051,0.034,0.102,0.052,0.154c-0.001-0.063-0.001-0.123-0.002-0.184L103.935,76.051z M103.448,96.779
	c-0.008-0.021-0.015-0.043-0.022-0.064c0.006,0.031,0.012,0.063,0.018,0.092C103.445,96.797,103.446,96.789,103.448,96.779z
	 M108.822,91.617c-0.109,0.143-0.216,0.283-0.325,0.424c-0.14,0.186-0.281,0.365-0.419,0.549c0.015-0.012,0.031-0.021,0.046-0.035
	C108.433,92.295,108.656,91.961,108.822,91.617z M109.544,78.23c0.01-0.004,0.021-0.008,0.03-0.01
	c0.015-0.059,0.028-0.119,0.043-0.178l0.22,0.053c-0.002,0.01-0.005,0.021-0.007,0.031c0.061-0.025,0.121-0.049,0.179-0.076
	l0.42-0.199l-0.281,0.369c-0.538,0.707-0.552,1.5-0.539,1.754c0.161,0.023,0.319,0.037,0.472,0.039l0.366,0.002l-0.304,0.205
	c-1.188,0.799-1.207,2.023-1.188,2.357c0.178,0.025,0.351,0.037,0.521,0.035l0.394-0.002l-0.331,0.211
	c-1.232,0.791-1.262,2.061-1.246,2.396c0.085,0.014,0.166,0.021,0.246,0.027l0.322,0.025l-0.268,0.182
	c-0.336,0.229-0.602,0.512-0.796,0.838c-0.124,0.479-0.251,0.963-0.38,1.451c0.001,0.021,0.001,0.043,0.002,0.059
	c0.161,0.025,0.318,0.037,0.472,0.039l0.366,0.002l-0.304,0.205c-0.377,0.254-0.669,0.574-0.87,0.953
	c-0.104,0.389-0.21,0.779-0.315,1.168c-0.005,0.098-0.004,0.18-0.002,0.236c0.178,0.025,0.35,0.037,0.521,0.035l0.393-0.002
	l-0.33,0.211c-0.523,0.336-0.889,0.789-1.088,1.352h-0.003c-0.048,0.17-0.096,0.338-0.144,0.506l0.019,0.004
	c-0.036,0.238-0.035,0.432-0.03,0.535c0.582,0.088,1.086,0.025,1.516-0.172c0.048-0.066,0.095-0.133,0.143-0.201
	c0.18-0.256,0.377-0.504,0.567-0.76c0.194-0.252,0.382-0.514,0.585-0.766c0.055-0.066,0.11-0.135,0.165-0.203
	c0.113-0.391,0.161-0.732,0.181-0.91c-0.111,0.012-0.227,0.029-0.35,0.051l-0.397,0.07l0.303-0.268
	c0.86-0.756,1.063-2.074,1.106-2.496c-0.106,0.014-0.21,0.029-0.311,0.045l-0.371,0.061l0.275-0.256
	c0.819-0.76,1.016-2.037,1.06-2.449l-0.354,0.041l0.231-0.232c0.768-0.766,0.954-1.99,0.996-2.393
	c-0.112,0.012-0.228,0.029-0.349,0.051l-0.397,0.07l0.303-0.268c0.86-0.756,1.063-2.074,1.105-2.496
	c-0.096,0.012-0.198,0.027-0.31,0.045l-0.373,0.063l0.277-0.258c0.819-0.76,1.016-2.041,1.059-2.453
	c-0.641,0.076-1.196,0.232-1.654,0.471l-0.406,0.213l0.261-0.377c0.763-1.1,0.302-2.662,0.144-3.111
	c-1.008,0.629-1.617,1.369-1.813,2.203C109.083,77.256,109.422,78,109.544,78.23z M106.266,91.121
	c0.048-0.172,0.096-0.344,0.144-0.518l-0.056-0.02c-0.091-0.031-0.18-0.064-0.265-0.1C106.174,90.693,106.232,90.906,106.266,91.121
	z M106.953,90.654c-0.102-0.01-0.203-0.021-0.309-0.039c-0.044,0.16-0.088,0.32-0.133,0.48
	C106.642,90.936,106.787,90.787,106.953,90.654z M106.935,88.666c0.054-0.199,0.106-0.398,0.159-0.6l-0.035,0.051l-0.08-0.027
	c-0.061-0.02-0.12-0.041-0.18-0.066C106.871,88.234,106.913,88.449,106.935,88.666z M107.572,88.049
	c-0.074-0.008-0.15-0.02-0.228-0.031c-0.03,0.113-0.061,0.227-0.091,0.34C107.352,88.248,107.457,88.145,107.572,88.049z
	 M107.583,86.205c0.061-0.23,0.12-0.461,0.18-0.693c-0.018,0.027-0.03,0.047-0.03,0.047l-0.05,0.07l-0.079-0.027
	c-0.06-0.021-0.119-0.043-0.18-0.066c0.079,0.227,0.127,0.457,0.146,0.691C107.574,86.219,107.579,86.213,107.583,86.205z
	 M107.945,85.717c0.089-0.098,0.183-0.189,0.287-0.277c-0.021-0.002-0.044-0.006-0.065-0.01l-0.083-0.014l-0.011-0.084
	c0-0.002-0.004-0.033-0.007-0.09C108.026,85.398,107.986,85.557,107.945,85.717z M108.196,83.814
	c0.079-0.311,0.157-0.621,0.234-0.93c-0.024,0.039-0.04,0.063-0.046,0.07l-0.049,0.066l-0.079-0.025
	c-0.091-0.031-0.179-0.064-0.265-0.1C108.122,83.219,108.182,83.527,108.196,83.814z M108.492,83.566
	c0.156-0.256,0.365-0.51,0.65-0.738c-0.104-0.01-0.206-0.021-0.313-0.039l-0.084-0.014l-0.01-0.084c0-0.002-0.003-0.029-0.006-0.072
	C108.654,82.926,108.574,83.242,108.492,83.566z M108.851,81.197c0.065-0.264,0.13-0.525,0.193-0.787
	c-0.017,0.027-0.03,0.047-0.033,0.051l-0.049,0.068l-0.079-0.025c-0.061-0.021-0.12-0.043-0.182-0.068
	C108.795,80.703,108.837,80.957,108.851,81.197z M109.399,80.172l-0.011-0.084c0-0.008-0.005-0.043-0.008-0.102
	c-0.071,0.293-0.149,0.611-0.234,0.955c0.148-0.248,0.348-0.494,0.615-0.719c-0.091-0.01-0.184-0.02-0.279-0.037L109.399,80.172z
	 M109.471,78.652c0.015-0.059,0.028-0.119,0.042-0.176l-0.055,0.016C109.466,78.547,109.467,78.6,109.471,78.652z M104.391,88.564
	c0.022,0.016,0.043,0.029,0.064,0.045c-0.007-0.037-0.012-0.074-0.018-0.111C104.421,88.52,104.406,88.543,104.391,88.564z
	 M105.689,92.945c0.034-0.061,0.086-0.156,0.141-0.279c0.072-0.25,0.145-0.506,0.218-0.766c0.074-0.551-0.023-1.09-0.295-1.6
	l-0.172-0.324l0.325,0.172c0.135,0.07,0.282,0.135,0.436,0.191c0.055-0.092,0.151-0.27,0.233-0.506l0.042,0.01
	c0.045-0.168,0.092-0.338,0.138-0.508l-0.056-0.014c0.073-0.502,0.001-0.996-0.213-1.467l-0.13-0.285l0.282,0.137
	c0.116,0.055,0.223,0.1,0.328,0.139c0.061-0.1,0.168-0.301,0.254-0.568l0.078,0.018c0.041-0.162,0.084-0.322,0.127-0.484
	l-0.097-0.021c0.063-0.486-0.009-0.967-0.216-1.424l-0.129-0.283l0.281,0.135c0.113,0.055,0.221,0.1,0.327,0.141
	c0.174-0.287,0.735-1.377,0.063-2.645l-0.172-0.324l0.325,0.172c0.136,0.07,0.281,0.135,0.437,0.191
	c0.162-0.273,0.682-1.303,0.144-2.484l-0.13-0.285l0.282,0.137c0.116,0.055,0.223,0.1,0.329,0.141
	c0.134-0.227,0.51-0.957,0.343-1.861c-0.155-0.842-0.729-1.609-1.702-2.287c-0.148,0.365-0.544,1.482-0.274,2.498l0.083,0.314
	l-0.261-0.193c-0.056-0.043-0.114-0.084-0.173-0.125c-0.157,0.385-0.589,1.607-0.224,2.666l0.124,0.357l-0.301-0.23
	c-0.09-0.07-0.173-0.131-0.254-0.188c-0.148,0.363-0.543,1.479-0.275,2.492l0.083,0.314l-0.261-0.195
	c-0.056-0.041-0.112-0.082-0.172-0.123c-0.148,0.365-0.543,1.482-0.273,2.498l0.083,0.314l-0.261-0.193
	c-0.057-0.043-0.114-0.084-0.174-0.127c-0.156,0.385-0.588,1.609-0.223,2.668l0.123,0.357l-0.3-0.232
	c-0.091-0.068-0.173-0.129-0.254-0.188c-0.165,0.402-0.63,1.723-0.17,2.811C104.418,92.221,104.933,92.67,105.689,92.945z
	 M104.25,98.281c0.002,0.014,0.004,0.029,0.007,0.043c0.005,0.043,0.01,0.082,0.015,0.121c0.022-0.047,0.045-0.094,0.069-0.145
	c0.127-0.252,0.278-0.561,0.465-0.91c0.093-0.174,0.192-0.357,0.296-0.555c0.111-0.191,0.226-0.395,0.348-0.604
	c0.236-0.426,0.522-0.867,0.81-1.346c0.307-0.463,0.613-0.965,0.969-1.459c0.053-0.074,0.107-0.152,0.161-0.227
	c-0.366,0.107-0.771,0.137-1.215,0.082c-0.063-0.006-0.129-0.016-0.195-0.027l-0.076-0.012
	C105.299,95.318,104.721,97.125,104.25,98.281z M103.997,98.348c-0.033-0.102-0.067-0.207-0.106-0.318
	c-0.089-0.266-0.191-0.557-0.304-0.867c-0.013,0.064-0.027,0.131-0.041,0.189c0.018,0.104,0.035,0.207,0.052,0.305
	c0.061,0.352,0.102,0.66,0.139,0.914c0.014,0.105,0.025,0.199,0.035,0.285C103.842,98.711,103.917,98.541,103.997,98.348z
	 M104.146,97.973c-0.094-0.5-0.224-1.131-0.396-1.854c-0.036,0.299-0.076,0.566-0.117,0.801c0.061,0.186,0.12,0.367,0.176,0.537
	c0.058,0.191,0.111,0.375,0.162,0.547c0.024,0.082,0.048,0.162,0.069,0.238C104.074,98.158,104.109,98.066,104.146,97.973z
	 M104.16,98.684c0.024-0.055,0.053-0.113,0.082-0.178c-0.008-0.045-0.016-0.096-0.025-0.146c-0.029,0.072-0.059,0.143-0.088,0.211
	C104.14,98.607,104.15,98.646,104.16,98.684z M104.281,98.732c-0.009-0.053-0.019-0.109-0.029-0.17
	c-0.029,0.057-0.058,0.107-0.083,0.156c0.012,0.047,0.024,0.09,0.035,0.131C104.229,98.813,104.255,98.771,104.281,98.732z
	 M76.802,104.148c0.001,0.02,0.007,0.039,0.007,0.061c0,0.002,0,0.008,0,0.012v0.002c0,0,0,0,0,0.002
	c0.004,0.354-0.064,5.621-7.446,8.686c-2.128,0.885-2.76,1.598-2.916,2.043c-0.161,0.457,0.068,0.928,0.463,1.65
	c0.516,0.939,1.223,2.229-0.083,3.535c-0.124,0.123-0.292,0.193-0.467,0.193h-7.59c-0.364,0-0.66-0.297-0.66-0.66v-10.16
	c-0.114,0.004-0.227,0.006-0.336,0.006c-1.841,0-3.177-0.488-3.972-1.457c-0.675-0.82-0.754-1.734-0.726-2.285
	c-2.248-0.311-3.986-2.238-3.986-4.572v-9.568h-0.404c-0.364,0-0.66-0.297-0.66-0.66v-2.945c0-0.365,0.296-0.66,0.66-0.66H58.77
	c0.364,0,0.66,0.295,0.66,0.66v2.945c0,0.363-0.296,0.66-0.66,0.66h-0.441v9.568c0,1.986-1.259,3.676-3.019,4.328
	c0,0.08-0.006,0.16-0.023,0.24c-0.008,0.045-0.091,0.535,0.227,0.906c0.39,0.457,1.312,0.684,2.591,0.635c0.003,0,0.004,0,0.006,0
	v-3.09c0-0.117,0.032-0.223,0.085-0.316c0.654-2.301,8.368-2.373,9.281-2.373C68.422,101.533,76.64,101.609,76.802,104.148z
	 M57.67,90.314h0.439v-1.625h-8.764v1.625h0.404H57.67z M54.315,104.445c1.53-0.285,2.694-1.629,2.694-3.242v-9.568h-6.6v9.568
	c0,1.82,1.479,3.301,3.299,3.301c0.051,0,0.101-0.006,0.15-0.008C54.003,104.447,54.157,104.43,54.315,104.445z M75.155,105.887
	c-2.491,0.984-6.994,1.025-7.68,1.025c-0.72,0-5.662-0.045-8.046-1.188v13.287h6.632c0.348-0.467,0.178-0.885-0.309-1.773
	c-0.409-0.748-0.92-1.678-0.553-2.725c0.366-1.041,1.527-1.938,3.656-2.822C73.044,109.953,74.587,107.5,75.155,105.887z
	 M75.46,104.223c-0.436-0.52-3.302-1.369-7.984-1.369c-4.679,0-7.547,0.85-7.983,1.369c0.437,0.52,3.305,1.369,7.983,1.369
	C72.158,105.592,75.024,104.742,75.46,104.223z M62.024,104.336c0,0.387,2.401,0.699,5.363,0.699s5.362-0.313,5.362-0.699
	c0-0.383-2.4-0.697-5.362-0.697S62.024,103.953,62.024,104.336z M102.519,26.172c0-1.125,0.916-2.041,2.042-2.041
	s2.042,0.916,2.042,2.041c0,1.127-0.915,2.043-2.042,2.043C103.435,28.215,102.519,27.299,102.519,26.172z M103.517,26.172
	c0,0.576,0.469,1.045,1.044,1.045c0.577,0,1.045-0.469,1.045-1.045s-0.469-1.045-1.045-1.045S103.517,25.596,103.517,26.172z
	 M97.004,27.217c0.577,0,1.044-0.469,1.044-1.045s-0.467-1.043-1.044-1.043c-0.576,0-1.044,0.467-1.044,1.043
	S96.428,27.217,97.004,27.217z M87.624,18.352c-0.105-0.223-0.033-0.488,0.169-0.627l2.182-1.488
	c0.141-0.098,0.321-0.115,0.478-0.047l2.799,1.199c0.297-0.943,1.17-1.633,2.209-1.633c1.112,0,2.042,0.785,2.271,1.83h6.675
	c0.229-1.045,1.158-1.83,2.271-1.83c1.043,0,1.916,0.693,2.212,1.641l2.819-1.207c0.157-0.068,0.338-0.049,0.479,0.047l2.182,1.488
	c0.202,0.141,0.273,0.404,0.168,0.627l-1.383,2.926c-0.082,0.174-0.257,0.287-0.45,0.287h-2.106l-1.216,0.668l0.847,10.695
	c0.067,0.461,0.101,0.877,0.101,1.281c0,5.086-4.14,9.225-9.228,9.225c-5.087,0-9.225-4.139-9.225-9.225
	c0-0.404,0.032-0.82,0.104-1.313l0.841-10.643l-1.256-0.691h-2.107c-0.192,0-0.367-0.111-0.45-0.285L87.624,18.352z M105.445,17.586
	h2.462c-0.197-0.488-0.674-0.832-1.23-0.832C106.119,16.754,105.642,17.098,105.445,17.586z M97.004,24.131
	c-1.126,0-2.042,0.916-2.042,2.041c0,1.127,0.916,2.043,2.042,2.043s2.042-0.916,2.042-2.043
	C99.046,25.047,98.13,24.131,97.004,24.131z M94.229,17.586h2.463c-0.198-0.488-0.674-0.832-1.231-0.832
	S94.428,17.098,94.229,17.586z M92.873,34.209c0,4.537,3.69,8.229,8.228,8.229c4.539,0,8.229-3.691,8.229-8.229
	c0-0.354-0.03-0.727-0.094-1.172L108.36,21.99c-0.015-0.197,0.085-0.383,0.256-0.479l1.611-0.885
	c0.072-0.041,0.155-0.061,0.239-0.061h1.92l1.066-2.258l-1.605-1.096l-3.101,1.33c-0.062,0.027-0.129,0.039-0.196,0.039h-6.231
	c0.076,1.717,0.18,7.148-1.287,10.861c-0.506,1.281-1.318,2.125-2.412,2.508c-0.462,0.16-0.938,0.225-1.402,0.225
	c-1.736,0-3.307-0.895-3.391-0.941c-0.017-0.01-0.033-0.02-0.049-0.031l-0.629-0.471l-0.18,2.273
	C92.903,33.482,92.873,33.855,92.873,34.209z M99.346,39.869c0.54,0,0.978-0.438,0.978-0.977c0-0.541-0.438-0.979-0.978-0.979
	s-0.978,0.438-0.978,0.979C98.368,39.432,98.806,39.869,99.346,39.869z M103.869,37.914c-0.54,0-0.978,0.438-0.978,0.979
	c0,0.539,0.438,0.977,0.978,0.977s0.978-0.438,0.978-0.977C104.847,38.352,104.409,37.914,103.869,37.914z M31.937,23.254v3.695
	c0,0.289-0.234,0.521-0.522,0.521h-4.003c-0.289,0-0.522-0.232-0.522-0.521v-3.695c0-0.289,0.233-0.523,0.522-0.523h4.003
	C31.702,22.73,31.937,22.965,31.937,23.254z M30.892,23.775h-2.958v2.65h2.958V23.775z M38.056,7.93
	c0.09,0.141,0.188,0.268,0.287,0.369c0.136,0.15,0.298,0.287,0.492,0.416c0.102,0.064,0.211,0.129,0.3,0.166
	c0.129,0.066,0.275,0.117,0.422,0.148c0.14,0.037,0.29,0.057,0.446,0.057c0.193,0,0.391-0.029,0.587-0.084
	c0.024-0.008,0.049-0.018,0.072-0.027l0.088-0.037c0.104-0.045,0.233-0.098,0.388-0.209c0.025-0.02,0.051-0.037,0.077-0.057
	c0.09-0.064,0.202-0.145,0.296-0.26l0.038-0.043c0.097-0.111,0.206-0.236,0.278-0.391l0.125-0.275
	c0.011-0.02,0.021-0.041,0.029-0.061c0.008-0.02,0.015-0.037,0.021-0.057l0.004,0.002l0.089-0.186
	c0.016-0.021,0.036-0.041,0.056-0.061l0.04-0.045c0.018-0.01,0.037-0.018,0.055-0.025l0.031-0.016
	c0.018-0.004,0.034-0.004,0.052-0.004c0.009-0.002,0.019-0.002,0.027-0.004c0.112,0.018,0.212,0.049,0.327,0.086
	c0.057,0.02,0.112,0.033,0.144,0.039c0.036,0.014,0.073,0.025,0.11,0.033c0.051,0.014,0.102,0.033,0.163,0.055
	c0.126,0.043,0.243,0.092,0.354,0.139l0.309,0.123c0.198,0.084,0.328,0.127,0.328,0.127c0.181,0.061,0.383,0.018,0.522-0.111
	l0.055-0.051c0.151-0.141,0.205-0.357,0.139-0.553l-0.054-0.141c-0.032-0.072-0.077-0.17-0.143-0.268
	c-0.082-0.133-0.185-0.262-0.305-0.387c-0.154-0.154-0.323-0.287-0.508-0.395c-0.105-0.059-0.22-0.121-0.34-0.16
	c-0.063-0.023-0.127-0.047-0.244-0.076c-0.065-0.012-0.133-0.023-0.186-0.027c-0.301-0.043-0.633,0.021-0.989,0.189
	c-0.024,0.01-0.049,0.023-0.071,0.041c-0.034,0.021-0.069,0.043-0.104,0.064c-0.079,0.049-0.155,0.096-0.264,0.184
	c-0.021,0.018-0.045,0.033-0.068,0.049c-0.078,0.055-0.155,0.113-0.21,0.17c-0.025,0.025-0.056,0.047-0.085,0.07
	c-0.065,0.055-0.129,0.107-0.171,0.15l-0.197,0.184c-0.014,0.008-0.025,0.018-0.037,0.027l-0.256,0.215
	c-0.006,0.004-0.011,0.01-0.017,0.014c-0.014,0.008-0.038,0.021-0.048,0.027c-0.044,0.029-0.085,0.057-0.165,0.105
	c-0.05,0.021-0.099,0.045-0.123,0.051c-0.022,0.004-0.044,0.01-0.065,0.016L40.123,7.24c-0.076,0.004-0.13,0.016-0.237,0.002
	l-0.089-0.008c-0.04-0.01-0.08-0.018-0.128-0.023c-0.038-0.004-0.075-0.018-0.148-0.039c-0.1-0.025-0.193-0.061-0.281-0.092
	L38.6,6.824c-0.188-0.078-0.403-0.039-0.553,0.098l-0.054,0.049c-0.148,0.137-0.205,0.348-0.146,0.539
	C37.861,7.555,37.917,7.717,38.056,7.93z M45.819,23.254v3.695c0,0.289-0.234,0.521-0.522,0.521h-4.003
	c-0.289,0-0.522-0.232-0.522-0.521v-3.695c0-0.289,0.233-0.523,0.522-0.523h4.003C45.585,22.73,45.819,22.965,45.819,23.254z
	 M44.774,23.775h-2.959v2.65h2.959V23.775z M22.576,31.395V25.07c0-0.289,0.233-0.523,0.522-0.523h1.284v-6.582
	c0-0.17,0.083-0.328,0.223-0.426l5.092-3.572c0.159-0.113,0.368-0.127,0.541-0.037s0.281,0.27,0.281,0.465v2.566l4.269-2.994
	c0.16-0.113,0.369-0.127,0.541-0.037c0.174,0.09,0.281,0.27,0.281,0.465v2.566l4.271-2.994c0.159-0.113,0.367-0.127,0.541-0.037
	c0.173,0.09,0.281,0.27,0.281,0.465v6.5h0.751l0.917-11.939c0.021-0.273,0.248-0.482,0.521-0.482h2.912
	c0.275,0,0.503,0.213,0.521,0.486l0.803,11.936h1.471c0.288,0,0.522,0.232,0.522,0.521v3.133h0.505c0.001-0.002,0.003-0.002,0.005,0
	h0.005c0.289,0,0.522,0.232,0.522,0.521c0,0.035-0.004,0.07-0.011,0.104v6.221c0,0.289-0.233,0.521-0.521,0.521H23.099
	C22.81,31.916,22.576,31.684,22.576,31.395z M23.62,30.871h25.482v-5.277h-0.504c-0.289,0-0.522-0.234-0.522-0.523v-3.131H46.64
	c-0.275,0-0.503-0.215-0.521-0.488L45.315,9.518h-1.939l-0.917,11.938c-0.021,0.273-0.248,0.484-0.521,0.484h-1.757
	c-0.288,0-0.522-0.234-0.522-0.523v-6.018l-4.27,2.994c-0.159,0.113-0.368,0.127-0.541,0.037s-0.282-0.27-0.282-0.465v-2.566
	l-4.269,2.994c-0.159,0.113-0.368,0.127-0.54,0.037c-0.174-0.09-0.282-0.27-0.282-0.465v-2.566l-4.047,2.838v6.834
	c0,0.287-0.233,0.521-0.522,0.521H23.62V30.871z M38.835,23.254v3.695c0,0.289-0.234,0.521-0.522,0.521h-4.004
	c-0.288,0-0.522-0.232-0.522-0.521v-3.695c0-0.289,0.234-0.523,0.522-0.523h4.004C38.601,22.73,38.835,22.965,38.835,23.254z
	 M37.79,23.775h-2.959v2.65h2.959V23.775z M43.224,73.045c-0.176,0.047-0.36,0.096-0.557,0.107
	c-0.139,0.018-0.282,0.035-0.429,0.055c-0.074,0.01-0.148,0.02-0.225,0.029l-0.228-0.002c-0.307-0.01-0.635,0.023-0.957-0.039
	c-0.165-0.02-0.331-0.039-0.498-0.061c-0.168-0.025-0.328-0.076-0.494-0.113c-0.338-0.066-0.658-0.191-0.982-0.311
	c-0.323-0.117-0.623-0.277-0.924-0.422c-0.284-0.17-0.576-0.318-0.824-0.502c-0.26-0.168-0.494-0.346-0.707-0.516
	c-0.217-0.166-0.398-0.34-0.567-0.486c-0.157-0.154-0.304-0.287-0.412-0.406C35.196,70.148,35.082,70,35.082,70
	s0.079,0.168,0.249,0.447c0.081,0.141,0.194,0.303,0.318,0.496c0.136,0.182,0.279,0.398,0.461,0.615
	c0.177,0.221,0.375,0.457,0.604,0.691c0.217,0.248,0.482,0.469,0.745,0.719c0.283,0.225,0.571,0.471,0.895,0.68
	c0.324,0.209,0.654,0.43,1.018,0.594c0.181,0.086,0.355,0.186,0.542,0.258c0.189,0.07,0.377,0.139,0.563,0.207
	c0.373,0.156,0.763,0.213,1.14,0.307c0.094,0.02,0.188,0.041,0.28,0.063c0.095,0.01,0.188,0.02,0.278,0.029
	c0.188,0.018,0.368,0.035,0.545,0.053c0.358,0.051,0.69,0.025,1.002,0.016c0.025,0,0.049,0,0.072-0.002l0.724,2.695l1.942-4.633
	c0,0-3.744-2.709-3.912-2.707L43.224,73.045z M70.698,88.68l2.325-1.182c0.082,0.162,0.167,0.332,0.219,0.523
	c0.047,0.131,0.094,0.268,0.143,0.406c0.024,0.07,0.05,0.141,0.074,0.215l0.046,0.223c0.055,0.303,0.154,0.617,0.16,0.945
	c0.015,0.164,0.029,0.33,0.043,0.5c0.01,0.168-0.008,0.336-0.01,0.506c0.005,0.346-0.051,0.684-0.1,1.025
	c-0.049,0.34-0.144,0.668-0.224,0.992c-0.107,0.311-0.191,0.629-0.319,0.908c-0.111,0.289-0.236,0.557-0.359,0.799
	c-0.118,0.246-0.25,0.461-0.358,0.654c-0.119,0.188-0.219,0.357-0.313,0.488c-0.18,0.268-0.301,0.408-0.301,0.408
	s0.148-0.111,0.386-0.334c0.121-0.109,0.256-0.254,0.42-0.414c0.149-0.172,0.332-0.355,0.507-0.578
	c0.18-0.221,0.37-0.463,0.552-0.734c0.197-0.262,0.359-0.568,0.55-0.879c0.16-0.322,0.343-0.654,0.48-1.014
	c0.138-0.361,0.285-0.73,0.371-1.119c0.047-0.193,0.107-0.387,0.14-0.582c0.03-0.201,0.059-0.398,0.086-0.596
	c0.075-0.396,0.052-0.789,0.064-1.178c0.001-0.096,0.002-0.191,0.004-0.287c-0.01-0.094-0.02-0.188-0.029-0.277
	c-0.021-0.188-0.041-0.369-0.06-0.545c-0.024-0.361-0.119-0.682-0.192-0.984c-0.006-0.023-0.011-0.047-0.018-0.068l2.489-1.266
	l-4.935-0.943C72.54,84.293,70.662,88.516,70.698,88.68z M96.279,76.766c0.146,0.289,0.209,0.463,0.209,0.463
	s-0.023-0.184-0.103-0.5c-0.035-0.158-0.096-0.348-0.155-0.568c-0.075-0.215-0.146-0.465-0.255-0.727
	c-0.104-0.264-0.221-0.547-0.369-0.84c-0.133-0.301-0.319-0.592-0.496-0.908c-0.203-0.299-0.403-0.621-0.65-0.916
	c-0.246-0.297-0.495-0.607-0.793-0.873c-0.146-0.135-0.283-0.283-0.438-0.408c-0.161-0.123-0.318-0.244-0.478-0.365
	c-0.309-0.26-0.663-0.432-0.994-0.633c-0.084-0.047-0.167-0.096-0.25-0.146c-0.086-0.035-0.173-0.072-0.256-0.109
	c-0.174-0.072-0.342-0.145-0.504-0.213c-0.328-0.156-0.652-0.23-0.951-0.316c-0.024-0.006-0.047-0.014-0.07-0.018l0.116-2.789
	l-3.239,3.838c0,0,2.762,3.707,2.921,3.756l0.11-2.605c0.182,0.008,0.371,0.018,0.563,0.064c0.139,0.023,0.28,0.051,0.425,0.074
	c0.074,0.016,0.148,0.027,0.224,0.041l0.218,0.07c0.289,0.1,0.612,0.168,0.901,0.322c0.15,0.068,0.303,0.137,0.456,0.207
	c0.153,0.074,0.29,0.172,0.438,0.258c0.303,0.164,0.57,0.379,0.845,0.588c0.272,0.209,0.511,0.453,0.755,0.682
	c0.219,0.246,0.455,0.475,0.636,0.725c0.198,0.238,0.369,0.477,0.521,0.703c0.157,0.225,0.278,0.443,0.396,0.635
	C96.113,76.451,96.213,76.621,96.279,76.766z M87.409,36.127c0.216-0.053,0.405-0.105,0.562-0.135
	c0.316-0.068,0.501-0.086,0.501-0.086s-0.184-0.023-0.51-0.025c-0.163-0.006-0.361,0.006-0.59,0.008
	c-0.227,0.02-0.487,0.025-0.767,0.066c-0.281,0.033-0.586,0.076-0.906,0.146c-0.324,0.055-0.652,0.162-1.003,0.254
	c-0.34,0.123-0.702,0.236-1.05,0.402c-0.349,0.164-0.711,0.328-1.042,0.549c-0.168,0.107-0.345,0.205-0.505,0.324
	c-0.16,0.125-0.317,0.246-0.473,0.371c-0.329,0.232-0.585,0.533-0.862,0.805c-0.066,0.068-0.134,0.137-0.203,0.205
	c-0.057,0.074-0.114,0.148-0.17,0.221c-0.114,0.15-0.225,0.295-0.333,0.434c-0.232,0.279-0.386,0.574-0.542,0.844
	c-0.013,0.021-0.025,0.041-0.036,0.063l-2.672-0.809l2.909,4.096c0,0,4.278-1.75,4.365-1.893l-2.495-0.756
	c0.053-0.174,0.109-0.355,0.203-0.529c0.058-0.129,0.118-0.258,0.178-0.393c0.033-0.068,0.063-0.137,0.096-0.207l0.121-0.193
	c0.17-0.254,0.316-0.551,0.538-0.791c0.104-0.129,0.208-0.26,0.314-0.391c0.11-0.131,0.239-0.238,0.358-0.359
	c0.235-0.252,0.51-0.457,0.78-0.672c0.271-0.211,0.566-0.381,0.849-0.561c0.293-0.15,0.573-0.322,0.86-0.436
	c0.279-0.133,0.554-0.238,0.811-0.328C86.952,36.256,87.195,36.193,87.409,36.127z M44.423,44.906c0,0,0.054-4.623-0.042-4.758
	l-1.669,2.004c-0.14-0.117-0.285-0.24-0.407-0.393c-0.097-0.104-0.193-0.211-0.294-0.318c-0.05-0.057-0.102-0.109-0.152-0.168
	l-0.131-0.186c-0.169-0.256-0.385-0.508-0.521-0.805c-0.077-0.146-0.158-0.293-0.236-0.441c-0.077-0.152-0.126-0.313-0.191-0.471
	c-0.141-0.314-0.223-0.646-0.314-0.98c-0.09-0.33-0.131-0.67-0.187-1c-0.024-0.328-0.074-0.652-0.065-0.961
	c-0.014-0.309-0.004-0.604,0.014-0.875c0.01-0.273,0.047-0.521,0.069-0.744c0.036-0.219,0.061-0.414,0.096-0.568
	c0.06-0.32,0.115-0.496,0.115-0.496s-0.094,0.16-0.223,0.459c-0.068,0.148-0.135,0.336-0.222,0.547
	c-0.07,0.217-0.166,0.459-0.238,0.732c-0.077,0.271-0.157,0.568-0.217,0.893c-0.076,0.318-0.105,0.662-0.156,1.021
	c-0.02,0.361-0.057,0.738-0.039,1.123c0.016,0.385,0.025,0.783,0.101,1.174c0.033,0.197,0.054,0.396,0.101,0.592
	c0.053,0.195,0.104,0.387,0.158,0.58c0.087,0.393,0.264,0.746,0.405,1.107c0.038,0.088,0.075,0.176,0.109,0.266
	c0.047,0.082,0.094,0.164,0.138,0.244c0.094,0.162,0.184,0.32,0.271,0.475c0.167,0.324,0.378,0.58,0.565,0.828
	c0.015,0.02,0.028,0.039,0.044,0.059l-1.785,2.145L44.423,44.906z"/>
</svg>
