<?xml version="1.0" encoding="iso-8859-1"?>
<!-- Generator: Adobe Illustrator 17.0.2, SVG Export Plug-In . SVG Version: 6.00 Build 0)  -->
<!DOCTYPE svg PUBLIC "-//W3C//DTD SVG 1.1//EN" "http://www.w3.org/Graphics/SVG/1.1/DTD/svg11.dtd">
<svg version="1.1" id="Capa_1" xmlns="http://www.w3.org/2000/svg" xmlns:xlink="http://www.w3.org/1999/xlink" x="0px" y="0px"
	 width="64px" height="64px" viewBox="0 0 64 64" style="enable-background:new 0 0 64 64;" xml:space="preserve">
<g>
	<path d="M46.631,15.301c-0.068-0.006-0.142,0.001-0.216,0.013c-6.36,0.512-8.321,4.413-9.401,10.062
		c-1.646,8.607-10.228,4.212-15.501,2.448c-2.964-0.991-3.36-5.041-6.946-5.425c-2.698-0.289-4.74,0.343-6.819,2.059
		c-5.071,4.186-0.389,10.73,4.763,11.252c2.659,0.268,4.814-1.499,7.568-0.578c2.493,0.833,4.987,1.667,7.481,2.501
		c3.151,1.054,3.249,5.385,7.146,5.818c2.833,0.315,4.961-0.319,7.147-2.123c2.25-1.856,1.611-4.702,3.671-6.706
		c2.778-2.703,6.363-3.259,8.666-6.543C58.307,22.208,52.499,15.775,46.631,15.301z M41.736,21.338
		c0.56-1.294,1.613-2.339,3.218-2.749c0.534-0.137,1.435-0.145,1.972-0.013c0.647,0.16,1.231,0.43,1.745,0.782
		c0.456,0.312,0.394,0.386-0.115,0.173c-0.611-0.256-1.269-0.41-1.928-0.445c-1.892-0.102-3.654,0.857-4.703,2.337
		C41.605,21.873,41.517,21.845,41.736,21.338z M46.011,20.383c-0.014,0.012-0.018,0.013-0.044,0.037
		c-0.78,0.762-1.548,1.513-2.314,2.262c-0.394,0.387-0.722,0.242-0.564-0.287c0.313-1.061,1.132-1.923,2.571-2.157
		c0.111-0.018,0.219-0.027,0.323-0.031C46.066,20.203,46.065,20.274,46.011,20.383z M45.999,20.413
		c-0.072,0.127-0.213,0.3-0.409,0.489c-0.646,0.627-1.291,1.251-1.933,1.866c-0.398,0.382-0.403,0.376-0.01-0.012
		C44.853,21.568,45.774,20.654,45.999,20.413z M43.676,23.098c0.94-0.898,1.848-1.769,2.711-2.598
		c0.043-0.041,0.088-0.085,0.134-0.13c0.074-0.072,0.441-0.095,0.794,0.043c0.352,0.139,0.28,0.638-0.116,1.021
		c-1.06,1.028-2.121,2.056-3.182,3.079c-0.397,0.384-0.853,0.393-0.947-0.001C42.974,24.119,43.277,23.479,43.676,23.098z
		 M44.076,24.626c1.109-0.983,2.244-1.986,3.382-2.99c0.414-0.365,1.095-0.362,1.388,0.107c0.713,1.143,0.888,2.709,0.409,3.959
		c-0.198,0.516-0.549,0.809-0.628,0.735c-0.08-0.073-0.44,0.16-0.812,0.529c-0.373,0.369-0.808,0.704-0.975,0.73
		c-0.167,0.026-0.76,0.016-1.277-0.18c-0.714-0.269-1.303-0.758-1.741-1.36C43.498,25.708,43.663,24.992,44.076,24.626z
		 M39.506,22.078c0.092-0.422,0.272-0.844,0.383-0.946c0.11-0.104-0.03,0.2-0.228,0.717c-0.005,0.013-0.01,0.025-0.015,0.039
		C39.452,22.404,39.415,22.499,39.506,22.078z M39.021,24.682c0.072-0.374,0.105-0.439,0.113-0.143
		c0.007,0.296-0.026,0.599-0.107,0.677C38.946,25.294,38.948,25.056,39.021,24.682z M16.234,25.22
		c0.165-0.008,0.321,0.015,0.347,0.05c0.025,0.036-0.011,0.121-0.081,0.191c-0.071,0.069-0.212,0.03-0.334-0.067
		C16.045,25.296,16.068,25.227,16.234,25.22z M10.329,25.525c-0.001-0.02,0.022-0.036,0.053-0.038
		c0.03-0.002,0.03,0.014,0.002,0.036C10.354,25.545,10.33,25.546,10.329,25.525z M12.365,33.768
		c-0.193,0.199-0.65,0.298-1.007,0.168c-0.356-0.13-0.51-0.393-0.364-0.545c0.146-0.151,0.578-0.152,0.981-0.07
		C12.379,33.402,12.558,33.569,12.365,33.768z M37.143,41.824c-0.104,0.107-0.4,0.184-0.658,0.154
		c-0.259-0.028-0.165-0.092,0.198-0.169C37.047,41.732,37.248,41.719,37.143,41.824z M34.256,40.22
		c-0.479-0.277-0.713-0.584-0.616-0.552c0.058,0.018,0.116,0.038,0.175,0.058c0.464,0.155,0.936,0.35,1.428,0.389
		c0.877,0.072,1.815-0.059,2.624-0.441c0.499-0.235,0.642-0.119,0.234,0.254C37.11,40.834,35.557,40.974,34.256,40.22z
		 M40.966,40.391c-0.39,0.506-0.882,0.887-1.44,1.152c-0.499,0.238-1.109,0.24-1.307,0.115c-0.196-0.125-0.035-0.373,0.321-0.591
		c0.357-0.218,0.815-0.336,1.071-0.244c0.256,0.093,0.783-0.185,1.166-0.579C41.16,39.85,41.303,39.953,40.966,40.391z
		 M49.993,30.242c-1.666,0.982-3.613,1.698-4.982,3.031c-1.023,0.995-2.092,1.954-2.953,3.098c-0.072,0.096-0.129,0.489-0.166,0.885
		c-0.048,0.499-0.078,1.143-0.145,1.429c-0.066,0.286-0.221,0.522-0.312,0.533c-0.055,0.007-0.109,0.012-0.166,0.012
		c-0.137,0-0.274-0.012-0.411-0.033c-0.226-0.035-0.305-0.255-0.199-0.468c0.063-0.127,0.122-0.258,0.175-0.393
		c1.374-3.502-3.014-7.676-6.393-5.756c-0.256,0.146-0.467,0.398-0.294,0.679c0.536,0.871,2.306,0.878,3.109,1.537
		c1.44,1.181,0.985,3.488-0.533,3.996c-0.523,0.176-1.14-0.173-1.354-0.459c-0.215-0.286-0.551-0.36-0.717-0.192
		c-0.166,0.168-0.715,0.148-1.251,0.102c-0.312-0.027-0.632-0.01-0.967,0.08c-0.212,0.057-0.391,0.133-0.538,0.224
		c-0.275,0.17-0.597,0.156-0.851-0.129c-0.255-0.285-0.169-0.811,0.222-1.202c0.056-0.057,0.112-0.112,0.169-0.169
		c0.39-0.392,0.519-0.771,0.288-0.848c-0.231-0.077-0.737,0.153-1.131,0.515c-0.394,0.361-1.071,0.386-1.553,0.115
		c-0.588-0.329-1.21-0.593-1.862-0.828c-0.52-0.188-0.852-0.416-0.733-0.536c0.118-0.12,0.111-0.123-0.016-0.006
		c-0.128,0.117-0.567,0.105-0.984-0.023c-0.417-0.129-0.514-0.456-0.215-0.729c0.299-0.274,0.235-0.6-0.142-0.725
		c-0.377-0.126-0.924-0.005-1.221,0.271c-0.297,0.276-0.857,0.386-1.251,0.242c-0.393-0.143-0.562-0.397-0.38-0.568
		c0.184-0.171,0.311-0.306,0.287-0.303c-0.024,0.003-0.178,0.14-0.343,0.305c-0.165,0.165-0.719,0.144-1.245-0.022
		c-1.534-0.485-3.102-0.761-4.678-0.175c-0.26,0.097-0.515,0.175-0.766,0.241c-0.429,0.111-0.734,0.121-0.673,0.061
		c0.061-0.061,0.084-0.124,0.054-0.142c-0.03-0.018-0.124,0.037-0.212,0.125c-0.088,0.088-0.481,0.214-0.883,0.243
		c-0.401,0.028-0.505-0.208-0.231-0.479c0.274-0.271,0.481-0.504,0.462-0.523c-0.018-0.018,0.071-0.062,0.199-0.104
		c0.078-0.024,0.154-0.052,0.227-0.089c0.262-0.131,0.623-0.319,0.581-0.668c-0.086-0.702-1.427-0.896-1.955-1.072
		c-0.132-0.044-0.254-0.1-0.367-0.162c-0.193-0.108-0.433-0.451-0.527-0.744c-0.094-0.293-0.214-0.469-0.3-0.385
		c-0.086,0.086-0.388-0.243-0.475-0.789c-0.017-0.111-0.029-0.225-0.035-0.338c-0.027-0.552,0.241-1.447,0.647-1.82
		c0.709-0.649,1.708-0.408,2.715-0.072c0.024,0.008,0.053,0.015,0.084,0.021c0.047,0.009,0.074,0.023,0.061,0.037
		c-0.014,0.014-0.174,0.347-0.264,0.771c-0.053,0.251-0.081,0.511-0.081,0.777c0,0.169,0.015,0.334,0.04,0.495
		c0.042,0.271,0.298,0.287,0.536,0.041c0.238-0.246,0.419-0.684,0.458-0.973c0.022-0.172,0.062-0.344,0.118-0.515
		c0.047-0.14,0.104-0.272,0.168-0.399c0.109-0.214,0.414-0.428,0.592-0.582c0.179-0.153,0.293-0.457,0.421-0.551
		c0.128-0.095,0.444,0.118,0.69,0.453c0.148,0.202,0.295,0.405,0.438,0.612c0.492,0.694,1.432,1.382,2.234,1.65
		c2.926,0.979,5.852,1.957,8.779,2.937c2.224,0.743,5.51-0.2,7.29-1.648c1.169-0.95,1.815-2.14,2.232-3.42
		c0.171-0.525,0.366-1.054,0.484-1.166c0.118-0.112,0.282,0.243,0.475,0.761c0.089,0.241,0.194,0.475,0.316,0.699
		c0.26,0.486,0.212,1.137-0.197,1.507c-0.725,0.654-1.44,1.302-2.141,1.936c-0.409,0.37-0.581,0.65-0.387,0.613
		c0.195-0.038,0.665-0.399,1.051-0.794c0.528-0.54,1.057-1.079,1.585-1.62c0.386-0.395,0.977-0.36,1.383,0.014
		c1.279,1.176,3.032,1.902,4.798,1.998c1.14,0.062,2.232-0.175,3.216-0.632c0.501-0.232,1.064-0.435,1.301-0.393
		C50.639,29.683,50.469,29.961,49.993,30.242z M51.028,26.328c-0.529,1.567-1.806,2.844-3.976,3.198
		c-1.829,0.299-3.271-0.345-4.262-1.451c-0.368-0.411-0.28-0.478,0.178-0.169c0.852,0.574,1.884,0.921,2.919,0.977
		c0.032,0.002,0.064,0.001,0.098-0.002c0.054-0.004,0.547-0.026,1.088-0.135c1.586-0.316,2.942-1.189,3.747-2.494
		C51.109,25.782,51.205,25.805,51.028,26.328z M51.512,19.379c-0.388-0.369-0.821-0.697-1.287-0.977
		c-0.475-0.283-0.857-0.483-0.818-0.518c0.039-0.035,0.02-0.044-0.038-0.017c-0.059,0.028-0.519-0.133-1.05-0.283
		c-0.551-0.156-1.118-0.253-1.688-0.284c-0.032-0.002-0.065,0-0.1,0.002c-0.054,0.005-0.546,0.028-1.091,0.119
		c-0.531,0.088-1.037,0.224-1.517,0.401c-0.518,0.192-0.587,0.099-0.183-0.277c0.098-0.091,0.194-0.181,0.291-0.271
		c0.404-0.377,0.995-0.734,1.323-0.78c0.327-0.046,1.044-0.036,1.587,0.067c2.01,0.381,3.59,1.358,4.676,2.734
		C51.96,19.73,51.911,19.761,51.512,19.379z M53.313,24.533c0.003-0.017,0.004-0.032,0.005-0.049
		c0.002-0.026,0.01,0.201,0.001,0.509c-0.009,0.308-0.109,0.639-0.205,0.736c-0.096,0.099-0.057-0.121,0.047-0.501
		C53.224,25,53.275,24.769,53.313,24.533z"/>
	<path d="M41.573,32.446c-0.207-0.036-0.42-0.057-0.638-0.057c-0.099,0-0.196,0.004-0.293,0.013
		c-0.162,0.014-0.322,0.052-0.357,0.078c-0.034,0.025,0.064,0.217,0.291,0.326c0.115,0.055,0.257,0.112,0.422,0.168
		c0.114,0.039,0.222,0.074,0.323,0.108c0.179,0.06,0.447-0.025,0.6-0.189C42.073,32.73,41.923,32.507,41.573,32.446z"/>
	<path d="M43.362,33.608c-0.139,0.147-0.195,0.31-0.131,0.365c0.065,0.056,0.232-0.015,0.376-0.16
		c0.144-0.146,0.206-0.312,0.136-0.369C43.674,33.387,43.502,33.461,43.362,33.608z"/>
	<path d="M15.573,30.457c-0.192,0.198-0.229,0.532-0.054,0.721c0.177,0.19,0.485,0.179,0.668-0.001
		c0.183-0.18,0.166-0.468,0.002-0.678C16.025,30.289,15.766,30.259,15.573,30.457z"/>
	<path d="M16.723,32.072c0.023,0.014,0.197-0.129,0.387-0.318c0.189-0.189,0.325-0.349,0.304-0.359
		c-0.021-0.01-0.195,0.133-0.388,0.318C16.833,31.898,16.698,32.059,16.723,32.072z"/>
	<path d="M19.19,32.323c0.065-0.055-0.017-0.099-0.064-0.046C19.078,32.331,19.125,32.378,19.19,32.323z"/>
	<path d="M28.727,35.285C28.766,35.249,28.764,35.248,28.727,35.285C28.688,35.32,28.69,35.32,28.727,35.285z"/>
</g>
</svg>
