<?xml version="1.0" encoding="iso-8859-1"?>
<!-- Generator: Adobe Illustrator 17.0.2, SVG Export Plug-In . SVG Version: 6.00 Build 0)  -->
<!DOCTYPE svg PUBLIC "-//W3C//DTD SVG 1.1//EN" "http://www.w3.org/Graphics/SVG/1.1/DTD/svg11.dtd">
<svg version="1.1" id="Capa_1" xmlns="http://www.w3.org/2000/svg" xmlns:xlink="http://www.w3.org/1999/xlink" x="0px" y="0px"
	 width="64px" height="64px" viewBox="0 0 64 64" style="enable-background:new 0 0 64 64;" xml:space="preserve">
<g>
	<path d="M10.76,46.354c-0.227,0.016-0.448,0.068-0.66,0.169c-0.904,0.426-0.942,1.306-1.041,2.162
		c-0.119,1.037-0.238,2.075-0.356,3.112c-0.099,0.868,0.062,1.786,1.188,1.692c0.851-0.071,1.549-0.68,2.228-1.143
		c0.82-0.559,3.215-1.731,3.402-2.942c0.084-0.546-0.365-0.968-0.43-1.025c-0.035-0.031-0.078-0.062-0.128-0.091
		c-0.029-0.017-0.059-0.035-0.089-0.053c-0.049-0.03,0.338,0.071,0.875,0.051c0.362-0.014,0.677-0.102,0.916-0.283
		c2.64-2.022,4.062-6.193,5.688-9.023c1.614-2.811,3.228-5.621,4.842-8.432c1.038-1.808,4.917-6.228,4.326-8.436
		c-0.391-1.461-4.523-3.684-5.935-2.603c-2.543,1.948-3.882,5.878-5.455,8.616c-1.688,2.939-3.375,5.88-5.063,8.82
		c-1.039,1.81-4.932,6.243-4.34,8.453c0.047,0.175,0.149,0.359,0.293,0.549C11.229,46.223,11.138,46.328,10.76,46.354z
		 M25.519,22.043c0.114-0.199,0.229-0.398,0.343-0.598c0.275-0.479,0.626-0.781,0.803-0.699c0.177,0.081,0.008,0.467-0.377,0.863
		c-0.19,0.194-0.38,0.39-0.569,0.584C25.333,22.59,25.244,22.521,25.519,22.043z M12.783,44.224
		c0.651-1.133,1.302-2.267,1.953-3.399c0.275-0.478,0.809-1.188,1.192-1.585c1.208-1.248,2.415-2.493,3.618-3.723
		c0.106-0.109,0.211-0.218,0.316-0.326c0.175-0.18,0.539-0.715,0.814-1.193l0.811-1.412c0.275-0.479,0.181-0.551-0.211-0.161
		c-1.123,1.117-2.219,2.207-3.294,3.276c-0.391,0.39-0.485,0.316-0.21-0.162c1.43-2.49,2.859-4.982,4.289-7.472
		c0.275-0.479,0.817-1.182,1.21-1.569c1.078-1.065,2.156-2.129,3.235-3.191c0.393-0.388,0.872-0.98,1.069-1.323
		c0.196-0.342,0.761-0.42,1.205-0.091c0.579,0.428,0.96,0.917,0.684,1.399c-1.364,2.376-2.727,4.753-4.091,7.129
		c-2.533,4.411-5.066,8.822-7.599,13.234c-0.467,0.812-0.934,1.625-1.4,2.438c-0.275,0.479-0.797,0.671-1.207,0.477
		c-0.409-0.195-0.811-0.474-0.865-0.625c-0.054-0.151-0.127-0.224-0.208-0.148c-0.081,0.075-0.551-0.072-0.955-0.448
		C12.757,44.993,12.562,44.609,12.783,44.224z M11.794,49.728c0.411-0.369,0.748-0.716,0.754-0.771
		c0.006-0.057,0.214,0.015,0.464,0.158c0.25,0.144,0.688,0.452,0.509,0.604c-0.097,0.082-0.256,0.149-0.361,0.222
		c-0.421,0.287-0.843,0.574-1.264,0.861c-0.182,0.124-0.408,0.305-0.651,0.494c-0.355,0.278-0.625,0.244-0.586-0.059
		c0.039-0.303,0.402-0.849,0.813-1.218C11.579,49.923,11.687,49.825,11.794,49.728z M11.336,48.153
		c0.147,0.085,0.121,0.288-0.058,0.454c-0.178,0.167-0.297,0.098-0.265-0.152C11.045,48.204,11.19,48.069,11.336,48.153z"/>
	<path d="M51.213,27.891c-1.464,0-2.929,0-4.393,0c-0.017,0-0.037,0.002-0.058,0.005c-0.032,0.004-0.133,0.006-0.225,0.011
		c-0.05,0.002-0.104,0.007-0.166,0.015c-0.608,0.077-1.483,0.204-1.931,0.684c-0.925,0.989-0.143,1.961,0.402,2.994
		c0.667,1.266,1.331,2.534,1.996,3.801c0.388,0.738,0.569,1.507,1.38,1.814c1.401,0.532,3.465,0.212,4.935,0.212
		c1.074,0,3.031-0.246,3.031-1.701c0-1.437,0-2.873,0-4.31c0-1.361,0.431-3.059-1.206-3.498
		C53.863,27.617,52.353,27.891,51.213,27.891z M46.137,29.399c-0.133-0.366,0.237-0.679,0.69-0.679c0.453,0,0.542,0.299,0.197,0.668
		C46.679,29.757,46.269,29.767,46.137,29.399z M54.394,36.596c-0.692,0-1.383,0-2.074,0c-0.342,0-0.683,0-1.024,0
		c-0.492,0-0.864-0.056-1.164-0.172c-0.515-0.2-0.63-0.757-0.441-0.947c0.189-0.191,0.291-0.444,0.228-0.565
		c-0.037-0.071-0.075-0.143-0.115-0.22c-0.009-0.018-0.019-0.037-0.03-0.057c-0.017-0.032-0.193,0.109-0.395,0.316
		c-0.202,0.206-0.421,0.276-0.488,0.154c-0.039-0.071-0.079-0.146-0.12-0.224c-0.072-0.136-0.282-0.536-0.556-1.07
		c-0.253-0.491-0.291-1.058-0.091-1.261c0.2-0.204,0.218-0.641,0.042-0.977c-0.177-0.336-0.477-0.45-0.67-0.256
		c-0.193,0.194-0.461,0.124-0.594-0.159s-0.046-0.71,0.193-0.951c0.238-0.24,0.469-0.704,0.689-0.916
		c0.22-0.211,0.545-0.333,0.629-0.418c0.083-0.084,0.49-0.153,0.906-0.153c0.417,0,0.703,0.052,0.64,0.115
		c-0.063,0.064,0.291,0.114,0.79,0.114c0.5,0,0.955-0.052,1.018-0.115c0.063-0.063,0.56-0.162,1.112-0.156
		c0.681,0.007,1.374,0.16,1.374,0.944c0,1.031,0,2.062,0,3.095c0,1.087,0,2.174,0,3.26C54.252,36.476,55.161,36.596,54.394,36.596z"
		/>
	<path d="M32.836,27.879c-1.542,0-3.035,0.445-4.146,1.467c-0.407,0.374-0.676,0.771-0.698,0.801
		c-0.019,0.025-0.034,0.037-0.042,0.052c-0.764,1.331-4.48,5.89-2.534,7.065c0.69,0.417,2.278,0.175,3.03,0.175
		c2.01,0,4.021,0,6.031,0c1.019,0,2.202,0.122,3.144-0.353c2.189-1.104,0.276-3.491-0.449-5.068
		C36.236,29.977,35.441,27.879,32.836,27.879z M29.527,30.467c0.169-0.295,0.56-0.914,0.991-1.259
		c0.226-0.18,0.451-0.303,0.672-0.377c0.524-0.175,0.958-0.026,0.926-0.026h-0.058c-0.089,0-0.18,0.007-0.272,0.018
		c-0.15,0.018-0.598,0.35-1.003,0.726c-0.277,0.257-0.553,0.514-0.83,0.77C29.549,30.694,29.358,30.761,29.527,30.467z
		 M30.948,36.584c-1.318,0-5.31,0.658-3.909-1.784c0.004-0.008,0.009-0.016,0.014-0.024c0.008-0.013,0.342-0.327,0.747-0.703
		c0.723-0.67,1.444-1.339,2.167-2.009c0.405-0.376,0.777-0.758,0.832-0.853l0.099-0.171c0.201-0.35,0.508-0.676,0.871-0.948
		c0.442-0.332,0.949-0.58,1.056-0.68c0.107-0.099,0.556,0.092,0.914,0.513c0.487,0.572,0.898,1.274,1.193,1.929
		c0.152,0.335,2.023,4.731,1.917,4.731C34.881,36.584,32.915,36.584,30.948,36.584z"/>
	<path d="M9.633,37.503c2.057,0,3.813-0.159,5.397-1.652c1.239-1.168,1.986-3.238,2.82-4.692c0.623-1.084,1.239-2.282,0.437-2.925
		c-0.431-0.346-0.998-0.4-1.103-0.411c-0.055-0.006-0.118-0.009-0.189-0.009c-3.159,0-6.616-0.431-9.74,0.021
		c-1.861,0.268-2.145,1.346-2.145,2.972c0,1.812,0,3.624,0,5.437C5.111,38.065,8.611,37.503,9.633,37.503z M8.908,29.051
		c0.019,0,0.095-0.057,0.169-0.127c0.074-0.069,0.583-0.126,1.135-0.126c0.407,0,0.814,0,1.221,0c0.552,0,0.942,0.057,0.872,0.126
		c-0.071,0.07,0.319,0.127,0.872,0.127h0.146c0.552,0,1.055-0.057,1.123-0.126c0.068-0.07,0.455-0.127,0.864-0.127
		c0.409,0,0.786,0.008,0.839,0.022c0.053,0.015,0.051,0.074-0.003,0.13c-0.054,0.056,0.017,0.101,0.159,0.101
		s0.508,0.419,0.365,0.953c-0.254,0.953-1.178,2.186-1.454,2.667c-0.639,1.112-1.2,2.473-2.15,3.368
		c-1.006,0.948-3.541,0.479-4.779,0.479c-0.192,0-0.353-0.023-0.488-0.064c-0.261-0.08-0.316-0.357-0.188-0.49
		c0.129-0.133,0.233-0.688,0.233-1.24v-0.396c0-0.553-0.179-0.822-0.4-0.604c-0.221,0.219-0.4-0.053-0.4-0.605
		c0-0.428,0-0.857,0-1.284c0-0.553,0.179-1.168,0.4-1.375c0.221-0.207,0.385-0.789,0.701-1.106c0.187-0.188,0.444-0.302,0.729-0.302
		C8.873,29.051,8.889,29.051,8.908,29.051z M7.558,28.798c0.243,0,0.486,0,0.729,0c0.058,0,0.116,0,0.174,0
		c0.096,0-0.14,0.317-0.529,0.71c-0.062,0.063-0.124,0.126-0.186,0.188c-0.389,0.393-0.704,0.542-0.704,0.334
		c0-0.126,0-0.251,0-0.377c0-0.125-0.007-0.3-0.03-0.46C6.978,28.941,7.155,28.798,7.558,28.798z"/>
	<path d="M47.447,36.699c-0.045-0.084-0.326-0.525-0.596-1.007c-3.906-6.987-7.65-14.045-11.679-20.971
		c-1.009-1.734-2.948-6.89-5.436-7.015c-2.155-0.108-1.524,2.515-1.191,3.758c2.125,7.926,6.568,16.028,10.087,23.425
		c1.188,2.497,1.92,5.348,4.785,6.003c2.443,0.559,4.267-1.958,4.077-4.03C47.49,36.8,47.473,36.746,47.447,36.699z M31.139,12.248
		c-0.101,0.093-0.326-0.257-0.489-0.784c-0.021-0.066-0.041-0.132-0.06-0.198c-0.161-0.528-0.203-0.765-0.088-0.532
		c0.073,0.146,0.15,0.285,0.233,0.406c0.104,0.153,0.201,0.31,0.298,0.468C31.192,11.868,31.24,12.155,31.139,12.248z
		 M31.982,14.027c-0.183,0.188-0.42,0.103-0.526-0.19c-0.106-0.293-0.077-0.646,0.061-0.788c0.139-0.142,0.372-0.058,0.524,0.19
		C32.194,13.485,32.164,13.84,31.982,14.027z M45.008,38.223c-0.581,0.789-1.079,1.153-1.493,1.093
		c-0.547-0.081-0.595-0.792-0.45-0.948c0.146-0.157,0.119-0.561-0.061-0.911c-0.18-0.351-0.453-0.505-0.614-0.343
		c-0.162,0.163-0.412,0.077-0.552-0.196c-0.14-0.273-0.117-0.632,0.049-0.8c0.166-0.167,0.253-0.401,0.193-0.523
		c-0.059-0.121-0.24-0.076-0.406,0.1c-0.166,0.176-0.469-0.018-0.675-0.435c-0.206-0.417-0.231-0.904-0.061-1.087
		c0.17-0.182,0.188-0.586,0.04-0.903c-0.148-0.317-0.411-0.434-0.588-0.259c-0.177,0.176-0.512-0.086-0.746-0.587
		c-0.374-0.8-0.742-1.603-1.106-2.408c-0.228-0.504-0.257-1.048-0.068-1.215c0.189-0.168,0.332-0.327,0.319-0.355
		c-0.013-0.027-0.172,0.094-0.356,0.271c-0.185,0.179-0.456,0.048-0.606-0.293c-0.15-0.34-0.122-0.758,0.063-0.935
		c0.185-0.177,0.312-0.372,0.284-0.436c-0.028-0.064-0.199,0.03-0.383,0.21c-0.184,0.18-0.189,0.172-0.007-0.012
		c0.183-0.185,0.328-0.343,0.321-0.357c-0.007-0.014-0.16,0.119-0.344,0.299c-0.184,0.18-0.514-0.084-0.738-0.589
		c-0.177-0.399-0.354-0.799-0.53-1.199c-0.006-0.014-0.012-0.028-0.019-0.042c-0.01-0.023,0.135-0.185,0.324-0.36
		c0.189-0.177,0.222-0.599,0.074-0.942c-0.148-0.345-0.425-0.478-0.619-0.299c-0.193,0.18-0.481,0.036-0.642-0.321
		c-0.162-0.356-0.132-0.795,0.068-0.979c0.2-0.185,0.29-0.496,0.202-0.696c-0.088-0.199-0.323-0.206-0.524-0.017
		c-0.201,0.19-0.495,0.056-0.657-0.299c-0.162-0.354-0.13-0.804,0.07-1.005c0.201-0.2,0.327-0.443,0.283-0.543
		c-0.044-0.1-0.242-0.015-0.443,0.188c-0.2,0.204-0.487,0.098-0.638-0.237c-0.151-0.335-0.11-0.775,0.093-0.982
		c0.203-0.206,0.337-0.441,0.3-0.525c-0.037-0.084-0.136-0.086-0.222-0.004c-0.051,0.048-0.102,0.096-0.156,0.147
		c-0.077,0.073-0.149,0.143-0.22,0.21c-0.122,0.116-0.398-0.188-0.613-0.682c-0.215-0.494-0.217-1.06-0.008-1.264
		c0.209-0.203,0.201-0.216-0.009-0.016c-0.209,0.2-0.527,0.015-0.709-0.422c-0.182-0.438-0.159-0.978,0.044-1.204
		c0.203-0.228,0.338-0.481,0.306-0.568c-0.033-0.086,0.094,0.11,0.283,0.438c0.114,0.197,0.229,0.395,0.343,0.591
		c1.782,3.055,3.657,6.053,5.389,9.138c2.183,3.886,4.136,7.899,6.281,11.804C45.34,36.998,45.335,37.777,45.008,38.223z"/>
	<path d="M47.76,40.284c-0.98,0.031-1.806,0.544-2.651,0.98c-0.882,0.455-1.744,0.969-1.492,2.112
		c0.153,0.691,0.887,1.465,1.256,2.048c0.474,0.748,0.82,1.543,1.753,1.772c1.343,0.331,3.879-0.82,4.292-2.335
		c0.146-0.532-0.245-1.383-0.471-1.887C49.88,41.716,49.183,40.239,47.76,40.284z M48.974,45.37
		c-0.155,0.32-0.499,0.539-0.912,0.788c-0.032,0.019-0.064,0.038-0.095,0.057c-0.053,0.032-0.139,0.043-0.189,0.017
		c-0.05-0.025-0.011-0.128,0.08-0.22c0.091-0.093,0.09-0.287-0.003-0.435c-0.093-0.147-0.254-0.181-0.36-0.075
		c-0.106,0.105-0.293,0.033-0.417-0.163c-0.124-0.196-0.138-0.441-0.033-0.548c0.106-0.105,0.104-0.329-0.004-0.5l-0.195-0.308
		c-0.367-0.585-0.181-1.312,0.418-1.619c0,0,0.108-0.056,0.241-0.124c0.133-0.069,0.449,0.273,0.705,0.762
		c0.088,0.17,0.177,0.34,0.266,0.51C48.731,44.002,49.213,44.873,48.974,45.37z"/>
	<path d="M48.183,48.477c-0.329,0.443-0.479,0.946-0.503,1.025c-0.024,0.079-0.032,0.217-0.02,0.3
		c0.012,0.084,0.087,0.601,0.311,1.105c0.673,1.51,2.396,2.344,3.934,2.936c0.718,0.276,1.899,0.231,2.425-0.422
		c0.587-0.728,0.438-1.613,0.355-2.488c-0.155-1.629-0.785-3.882-2.735-4.083C50.676,46.718,49.015,47.355,48.183,48.477z
		 M50.65,50.863c0.134-0.139,0.218-0.357,0.201-0.488c-0.011-0.082-0.016-0.162-0.014-0.237c0.008-0.279,0.143-0.571,0.358-0.844
		c0.318-0.404,0.968-0.277,1.157,0.242c0.163,0.445,0.254,0.926,0.328,1.356c0.042,0.241,0.07,0.485,0.091,0.73
		c0.035,0.406,0.032,0.771,0.021,0.812c-0.011,0.043-0.149,0.023-0.312-0.049c-0.1-0.044-0.198-0.088-0.295-0.13
		c-0.325-0.14-0.668-0.313-0.995-0.522C50.726,51.436,50.516,51.003,50.65,50.863z"/>
</g>
</svg>
