<?xml version="1.0" encoding="iso-8859-1"?>
<!-- Generator: Adobe Illustrator 17.0.2, SVG Export Plug-In . SVG Version: 6.00 Build 0)  -->
<!DOCTYPE svg PUBLIC "-//W3C//DTD SVG 1.1//EN" "http://www.w3.org/Graphics/SVG/1.1/DTD/svg11.dtd">
<svg version="1.1" id="Capa_1" xmlns="http://www.w3.org/2000/svg" xmlns:xlink="http://www.w3.org/1999/xlink" x="0px" y="0px"
	 width="64px" height="64px" viewBox="0 0 64 64" style="enable-background:new 0 0 64 64;" xml:space="preserve">
<g>
	<path d="M45.084,17.752c-0.508-0.413-1.037-0.8-1.582-1.167c-2.4-1.744-5.219-2.933-8.283-3.399
		c-0.035-0.006-0.072-0.01-0.108-0.017c-0.331-0.048-0.66-0.104-0.998-0.135c-0.864-0.11-1.735-0.186-2.615-0.184
		c-4.977-0.03-10.075,1.887-13.786,5.472c-3.737,3.531-5.979,8.695-5.894,13.829c0.021,2.559,0.576,5.09,1.608,7.357
		c0.587,1.297,1.348,2.488,2.209,3.575c0.015,0.02,0.027,0.04,0.042,0.059c-2.369-2.798-3.982-6.401-4.184-10.072
		c-0.179,0.106-0.269,1.458,0.06,3.144c0.318,1.684,1.138,3.643,2.132,4.882c0.272,0.643-0.368-0.327-0.233,0.074
		c0.323,0.589,0.72,1.165,1.148,1.717c0.222,0.276,0.461,0.553,0.693,0.815l0.725,0.733c0.984,0.924,2.049,1.738,3.008,2.309
		c-0.331-0.031,0.924,1.263,2.601,1.908c0.21,0.014-0.599-0.511-0.333-0.468c0.986,0.588,2.027,1.084,3.108,1.493
		c0.117,0.047,0.234,0.104,0.352,0.144c0.027,0.006,0.047,0.009,0.073,0.014c0.195,0.069,0.383,0.155,0.581,0.217
		c1.609,0.521,3.3,0.794,5.005,0.872c2.023,0.188,3.43,0.159,5.352-0.197c8.896-1.649,15.616-9.401,15.616-18.737
		c0-5.568-2.402-10.562-6.21-14.044C45.15,17.891,45.122,17.827,45.084,17.752z M21.038,47.581
		c-1.729-1.108-3.248-2.501-4.519-4.083c-0.557-0.76-1.203-1.658-1.758-2.663c-1.15-1.977-1.85-4.339-1.781-5.717
		c0.089-0.066,0.247,0.853,0.499,1.743c0.25,0.892,0.6,1.743,0.696,1.629c-0.213-1.115-0.658-2.995-0.835-4.838
		c-0.207-1.839-0.166-3.62-0.283-4.441c0.42-2.328,1.356-4.555,2.663-6.512c-1.54,2.75-2.427,5.915-2.427,9.292
		c0,7.818,4.717,14.52,11.459,17.45C23.446,48.96,22.197,48.338,21.038,47.581z M50.019,29.287c0.09,0.64,0.146,1.284,0.17,1.932
		c-0.026-0.213-0.09-0.459-0.18-0.617c-0.111-0.195-0.491-0.506-0.475-0.806C49.55,29.521,49.929,29.428,50.019,29.287z
		 M45.661,31.37c0.119,0.24,0.45,0.652,0.549,0.443c0.037-0.078,0.063-0.207,0.068-0.411c0.023-0.847,0.306-1.36,0.306-1.36
		s0.053-0.088,0.118-0.198c0.065-0.109,0.175-0.717,0.528-0.62c0.124,0.034,0.282,0.16,0.48,0.443
		c0.17,0.245,0.315,0.434,0.436,0.58c0.258,0.308,0.531,0.568,0.531,0.667c0,0.1,0.05,0.303,0.109,0.455
		c0.06,0.151,0.169,0.278,0.242,0.284c0.074,0.006,0.134-0.067,0.134-0.162c0-0.095,0.104-0.104,0.231-0.022
		c0.128,0.084,0.285,0.234,0.351,0.337c0.065,0.103,0.197,0.139,0.292,0.082c0.077-0.047,0.142-0.21,0.163-0.391
		c0.054,2.393-0.329,4.806-1.202,7.062c-0.947,2.53-2.485,4.82-4.417,6.707c-3.242,3.021-7.579,4.884-12.362,4.884
		c-10.031,0-18.167-8.128-18.167-18.157c0-4.132,1.385-7.937,3.706-10.989c0.785-1.032,1.514-1.66,1.485-1.52
		c-0.029,0.141-0.053,0.367-0.053,0.505s-0.301,0.515-0.642,0.88c-0.16,0.171-0.36,0.39-0.61,0.666
		c-0.282,0.312-0.491,0.566-0.645,0.775c-0.333,0.448-0.384,1.051-0.359,1.245c0.024,0.194,0.125,0.42,0.226,0.504
		c0.101,0.084,0.227,0.274,0.282,0.424l0.101,0.272c0,0,0.066,0.215,0.148,0.482c0.082,0.266,0.148,0.708,0.148,0.986
		c0,0.279,0.042,0.609,0.094,0.738c0.052,0.128,0.328,0.413,0.66,0.554c0.169,0.072,0.377,0.143,0.621,0.2
		c0.785,0.181,0.663,0.039,0.627,0.181c-0.043,0.141,0.081,0.484,0.643,0.627c0.171,0.042,0.281,0.112,0.353,0.187
		c0.155,0.163,0.319,0.573,0.555,0.822c0.159,0.169,0.323,0.348,0.414,0.459c0.226,0.26,0.485-0.562,0.427-0.523
		c-0.058,0.042-0.766-0.121-0.766-0.32c0-0.203,0.606-1.171,0.058-1.13c-0.542,0.04-0.803,0.142-0.635-0.444
		c0.065-0.253-0.021-0.358-0.148-0.391c-0.254-0.066-0.802,0.31-1.05,0.078c-0.139-0.13-0.054-0.42-0.054-0.594
		c-0.018-0.539,0.085-0.928,0.239-1.21c0.33-0.605,1.268-0.714,1.635-0.732c0.217-0.011,0.454-0.031,0.663-0.068
		c0.237-0.043,0.36,0.049,0.419,0.179c0.114,0.249-0.004,0.724,0.185,0.857c0.137,0.095,0.222-0.294,0.222-0.294l0.112-0.542
		c0,0,0.027-0.158,0.055-0.322c0.031-0.177,0.475-0.47,0.89-0.811c0.415-0.341,1.264-1.565,2.393-1.979
		c1.128-0.413,2.148-0.23,2.148-0.23s0.161,0.013,0.361,0.03c0.199,0.016-0.092,0.449,0.236,0.508
		c0.19,0.034,0.587-0.117,0.587-0.117s0.072-0.036,0.162-0.08c0.091-0.045,0.336-0.143,0.548-0.219
		c0.119-0.043,0.254-0.092,0.383-0.141c0.361-0.139,0.224-0.467,0-0.708c-0.06-0.064-0.098-0.119-0.119-0.166
		c-0.048-0.103-0.018-0.322-0.04-0.478c-0.013-0.094-0.027-0.197-0.044-0.282c-0.017-0.085-0.068-0.125-0.127-0.142
		c-0.105-0.032-0.227-0.043-0.264-0.099c-0.035-0.056-0.066-0.174-0.066-0.263c0-0.089-0.188-0.166-0.414-0.216
		c-0.108-0.024-0.243-0.059-0.402-0.109c-0.282-0.088-0.123-0.354,0.113-0.604c0.29-0.306,0.678-0.5,0.806-0.5h0.23
		c0,0,0.051,0,0.111,0c0.062,0,0.186-0.047,0.21-0.144c0.01-0.045,0.019-0.104,0.019-0.18c0-0.301-0.07-0.041,0.324-0.421
		c0.119-0.113,0.168-0.207,0.178-0.284c0.024-0.186-0.254-0.326-0.348-0.403c-0.093-0.078-0.329-0.198-0.493-0.322
		c-0.088-0.066-0.182-0.152-0.263-0.263c-0.074-0.102-0.155-0.175-0.229-0.228c-0.146-0.104-0.406-0.249-0.582-0.25
		c-0.087,0-0.187,0.029-0.292,0.115c-0.097,0.077-0.136,0.14-0.145,0.19c-0.021,0.132,0.031,0.248-0.11,0.344l-0.253,0.172
		c0,0-0.141,0.111-0.303,0.208c-0.176,0.104-0.326,0.791-0.675,0.637c-0.103-0.046-0.237-0.201-0.411-0.541
		c-0.163-0.32-0.316-0.508-0.456-0.61c-0.341-0.252-0.717,0.276-0.767,0.487c-0.029,0.115-0.06,0.247-0.09,0.382
		c-0.071,0.407-0.275,0.605-0.442,0.266c-0.04-0.089-0.082-0.146-0.119-0.181c-0.088-0.082-0.323-0.01-0.479,0.008
		c-0.156,0.018-0.482-0.036-0.727-0.121c-0.246-0.084-0.814,0.214-1.352,0.564c-0.524,0.341-1.007,0.575-1.007,0.575
		s-0.724,0.382-0.961,0.382c-0.1,0-0.129,0.043-0.128,0.094c0,0.1-0.078,0.128-0.252,0.082c-0.173-0.046,0.468-0.795,1.54-1.525
		c0.592-0.402,1.213-0.761,1.85-1.093c1.221-0.551,2.478-0.98,3.738-1.292c0.67-0.194,0.924-0.305,1.021-0.383
		c1.026-0.206,2.083-0.326,3.165-0.349c1.207,0.055,2.409,0.19,3.561,0.425c2.092,0.418,4.003,1.132,5.538,1.873
		c0.303,0.145,0.58,0.289,0.854,0.431c0.309,0.192,0.616,0.388,0.912,0.598c1.058,0.751,1.584,1.479,1.288,1.479
		c-0.295,0-0.787-0.058-1.1-0.13c-0.31-0.072-0.729-0.072-0.934,0c-0.205,0.072-0.457,0.072-0.564,0
		c-0.105-0.072-0.381-0.13-0.615-0.13h-0.424c0,0-0.136,0-0.303,0c-0.168,0-0.618-0.531-1.248-0.62
		c-0.631-0.089-1.129,0.824-1.494,0.999c-0.364,0.174-0.782,0.262-0.902,0.262c-0.122,0-0.347-0.031-0.503-0.07l-0.282-0.069
		c0,0-0.214-0.05-0.479-0.11c-0.266-0.061-0.653-0.03-0.867,0.069c-0.213,0.1-0.588,0.535-0.787,0.997
		c-0.197,0.462-0.38,1.074-0.475,1.34l-0.173,0.482c0,0-0.087,0.239-0.192,0.533c-0.106,0.294-0.245,0.746-0.311,1.008l-0.118,0.476
		c0,0-0.177,0.779,0.297,0.394c0.343-0.279,0.729-0.769,1.016-0.91c0.285-0.141,0.862-0.195,1.188,0.007
		c0.173,0.108,0.343,0.269,0.454,0.509c0.077,0.162,0.147,0.284,0.209,0.375c0.133,0.196,0.291,0.166,0.257,0.039
		c-0.032-0.127-0.032-0.306,0-0.4c0.034-0.093,0.113-0.152,0.179-0.132c0.067,0.02,0.12,0.096,0.12,0.169
		c0,0.074,0.024,0.196,0.055,0.273c0.031,0.078,0.138,0.254,0.287,0.318c0.15,0.064,0.712-0.24,1.006,0.046
		c0.292,0.285-0.1,0.934-0.354,1.204c-0.254,0.271-0.519,0.437-0.588,0.375c-0.068-0.061-0.214-0.142-0.325-0.18
		c-0.11-0.039-0.268-0.103-0.349-0.143c-0.083-0.04-0.162-0.234-0.178-0.434c-0.017-0.199-0.12-0.378-0.232-0.4
		c-0.112-0.022-0.402-0.013-0.647,0.021c-0.246,0.034-1.509,0.213-1.801,1.227c-0.292,1.014,0.28,2.518,0.591,3.292
		c0.31,0.773,0.608,1.595,0.663,1.834l0.102,0.434l0.204,0.601c0,0,0.119,0.411,0.545,0.497c0.419,0.084,0.935-0.008,1.167,0.147
		c0.231,0.155,0.438,0.463,0.444,0.687c0.004,0.124,0.005,0.265-0.003,0.405c-0.009,0.155,0.044,0.322,0.11,0.47
		c0.111,0.244,0.271,0.802,0.293,1.279c0.024,0.478-0.096,1.355-0.024,1.965c0.069,0.609,0.292,1.468,0.357,1.947
		c0.064,0.478,0.44,1.415,0.981,1.299c0.219-0.047,0.464-0.229,0.716-0.658c0.233-0.396,0.416-0.74,0.556-1.028
		c0.282-0.582,0.387-1.37,0.604-1.603c0.219-0.233,0.501-0.701,0.538-1.135c0.038-0.434-0.056-1.239,0.189-1.71
		c0.247-0.472,0.69-0.753,0.824-0.702c0.14,0.053,0.227,0.116,0.227,0.116s0.209,0.125,0.382-0.05
		c0.16-0.164-0.143-0.541-0.121-0.863c0.024-0.322,0.516-0.969,0.244-1.423c-0.27-0.455-0.385-0.899-0.073-1.143
		c0.312-0.245,0.597-0.544,0.641-0.66c0.043-0.116,0.266-0.441,0.073-0.632c-0.191-0.192-0.898-0.619-1.457-1.108
		c-0.533-0.467-0.993-0.906-0.993-0.906s-0.13-0.131-0.289-0.292c-0.16-0.161-0.761-0.559-0.509-0.697
		c0.253-0.139,0.595,0.108,0.717,0.183c0.124,0.074,0.312,0.094,0.402,0.089c0.089-0.005,0.447-0.177,0.76-0.031
		c0.143,0.066,0.303,0.19,0.471,0.406c0.208,0.263,0.429,0.526,0.63,0.756c0.357,0.411,0.84,0.885,1.062,1.075
		c0.224,0.189,0.535,0.392,0.697,0.453c0.162,0.06,0.359,0.272,0.44,0.473l0.148,0.363l0.338,0.767
		C45.447,30.936,45.544,31.13,45.661,31.37z"/>
	<path d="M30.024,32.69c-0.289-0.19-0.676-0.389-0.862-0.445c-0.188-0.057-0.561-0.2-0.834-0.322
		c-0.274-0.122-0.551-0.351-0.62-0.512l-0.124-0.291c0,0-0.021-0.065-0.045-0.143c-0.024-0.079-0.079-0.206-0.119-0.282
		c-0.04-0.077-0.102-0.139-0.141-0.139s-0.11-0.064-0.162-0.141c-0.052-0.078-0.274-0.141-0.495-0.141
		c-0.223,0-0.403-0.052-0.403-0.115c0-0.064-0.078-0.208-0.173-0.323c-0.095-0.114-0.28-0.304-0.411-0.425
		c-0.132-0.121-0.388-0.218-0.571-0.218c-0.182,0-0.552,0.137-0.804,0.039c-0.117-0.045-0.246-0.138-0.373-0.31
		c-0.186-0.247-0.405-0.18-0.59-0.026c-0.29,0.24-0.52,0.578-0.643,0.634c-0.121,0.055-0.087,0.436-0.148,0.857
		c-0.047,0.326-0.163,0.62-0.23,0.734c-0.754,1.408-0.507,1.813-0.507,1.813s0.059,0.112,0.131,0.251
		c0.07,0.139,0.248,0.424,0.399,0.636c0.152,0.212,0.343,0.693,0.491,1.055c0.15,0.361,0.583,0.647,0.772,0.787
		c0.19,0.14,0.521,0.476,0.719,0.764c0.153,0.221,0.296,0.452,0.306,0.552c0.008,1.463,0.274,2.723,0.582,3.694
		c0.39,1.237,1.207,2.456,1.546,2.834c0.337,0.378,0.782,0.72,0.993,0.764c0.211,0.044,0.446,0.016,0.523-0.062
		c0.077-0.078-0.004-0.222-0.182-0.322c-0.176-0.1-0.383-0.266-0.461-0.371c-0.078-0.105-0.146-0.317-0.152-0.473
		c-0.006-0.156-0.083-0.404-0.171-0.553c-0.087-0.149-0.168-0.411-0.179-0.584c-0.012-0.172,0.014-0.457,0.057-0.635
		c0.044-0.179,0.225-0.378,0.404-0.445c0.18-0.066,0.326-0.201,0.326-0.301c0-0.1,0.04-0.258,0.089-0.354
		c0.051-0.095,0.149-0.23,0.222-0.303c0.072-0.072,0.131-0.193,0.131-0.271v-0.141c0,0-0.005-0.062-0.011-0.14
		c-0.006-0.078,0.049-0.203,0.119-0.281c0.072-0.078,0.136-0.241,0.143-0.364l0.011-0.222c0,0,0.009-0.117,0.021-0.262
		c0.012-0.145,0.114-0.375,0.231-0.514c0.114-0.139,0.295-0.253,0.4-0.253c0.106,0,0.27-0.071,0.364-0.16
		c0.096-0.088,0.205-0.242,0.244-0.342c0.038-0.101,0.083-0.327,0.102-0.504c0.017-0.179,0.021-0.557,0.009-0.846
		c-0.012-0.289,0.049-0.618,0.138-0.735c0.089-0.117,0.232-0.333,0.321-0.484c0.09-0.151,0.18-0.376,0.202-0.504
		c0.021-0.127,0.017-0.361-0.012-0.522C30.57,33.163,30.313,32.879,30.024,32.69z"/>
	<path d="M44.488,38.618l-0.102,0.091l-0.385,0.365c0,0-0.153,0.171-0.342,0.383c-0.189,0.211-0.613,0.606-0.79,0.982
		c-0.098,0.208-0.161,0.458-0.117,0.73c0.05,0.306,0.132,0.578,0.161,0.793c0.061,0.443-0.63,0.647-0.848,0.838
		c-0.271,0.236-0.362,0.38-0.362,0.38s-0.25,0.458-0.035,0.582c0.303,0.176,1.008-0.396,1.504-0.761
		c0.496-0.365,1.031,0.729,1.53,0.73c0.178,0,0.415-0.124,0.744-0.472c0.32-0.33,0.634-0.653,0.907-0.936
		c0.502-0.517,1.068-1.185,1.004-1.505c-0.062-0.32-0.539-0.782-0.502-1.17c0.038-0.389,0.308-0.906,0.202-1.172
		c-0.106-0.266-0.744-0.411-1.184-0.408c-0.44,0.003-0.836,0.334-0.992,0.39C44.726,38.514,44.543,38.568,44.488,38.618z"/>
</g>
</svg>
