<?xml version="1.0" encoding="UTF-8" standalone="no"?>
<!-- Generator: Adobe Illustrator 17.0.2, SVG Export Plug-In . SVG Version: 6.00 Build 0)  -->

<svg
   xmlns:dc="http://purl.org/dc/elements/1.1/"
   xmlns:cc="http://creativecommons.org/ns#"
   xmlns:rdf="http://www.w3.org/1999/02/22-rdf-syntax-ns#"
   xmlns:svg="http://www.w3.org/2000/svg"
   xmlns="http://www.w3.org/2000/svg"
   xmlns:sodipodi="http://sodipodi.sourceforge.net/DTD/sodipodi-0.dtd"
   xmlns:inkscape="http://www.inkscape.org/namespaces/inkscape"
   version="1.1"
   id="Capa_1"
   x="0px"
   y="0px"
   width="32"
   height="32"
   viewBox="0 0 32 32.000001"
   xml:space="preserve"
   inkscape:version="0.48.5 r10040"
   sodipodi:docname="foursquare9.svg"
   inkscape:export-filename="C:\dev3\simsip-line\Simsip.LineRunner.Content\Content\Images\DoneButton.png"
   inkscape:export-xdpi="225"
   inkscape:export-ydpi="225"><metadata
   id="metadata13"><rdf:RDF><cc:Work
       rdf:about=""><dc:format>image/svg+xml</dc:format><dc:type
         rdf:resource="http://purl.org/dc/dcmitype/StillImage" /><dc:title></dc:title></cc:Work></rdf:RDF></metadata><defs
   id="defs11" /><sodipodi:namedview
   pagecolor="#ffffff"
   bordercolor="#666666"
   borderopacity="1"
   objecttolerance="10"
   gridtolerance="10"
   guidetolerance="10"
   inkscape:pageopacity="0"
   inkscape:pageshadow="2"
   inkscape:window-width="1680"
   inkscape:window-height="1027"
   id="namedview9"
   showgrid="false"
   fit-margin-top="0"
   fit-margin-left="0"
   fit-margin-right="0"
   fit-margin-bottom="0"
   inkscape:zoom="14.75"
   inkscape:cx="2.0075902"
   inkscape:cy="10.061892"
   inkscape:window-x="1912"
   inkscape:window-y="-8"
   inkscape:window-maximized="1"
   inkscape:current-layer="Capa_1" />
<g
   id="g3"
   transform="translate(-16.872474,-10.604254)"
   style="fill:#ffffff">
	<path
   d="m 17.143662,27.57259 c 0.51,0.466 2.132644,3.002594 2.398644,3.267594 3.023869,2.739556 8.539287,9.575275 11.123695,7.15122 3.183,-3.187 6.367,-6.375 9.55,-9.562 1.889,-1.891 3.778,-3.782 5.667,-5.673 0.706,-0.707 2.251,-1.726 2.635,-2.691 1.177,-2.959 -3.173,-6.613 -6.008,-5.456 -0.111,0.045 -0.2,0.095 -0.271,0.147 -0.138,0.101 -0.523,0.543 -0.913,0.934 -3.036,3.039 -6.073,6.078 -9.109,9.117 -1.013,1.014 -2.637,3.665 -4.203,2.095 -3.011944,-3.947862 -7.254916,-6.499788 -10.551,-1.581 m 5.278,0.333 c 0.394,-0.388 1.018,-0.375 1.382,0.04 1.452,1.654 3.732,4.271 5.755,3.107 4.877,-2.804 8.93,-8.205 12.903,-12.394 0.38,-0.4 0.961,-0.691 1.242,-0.531 0.281,0.161 0.156,0.636 -0.249,1.011 -3.652,3.391 -7.308,6.782 -10.967,10.175 -0.405,0.375 -0.529,0.885 -0.278,1.137 0.251,0.252 0.784,0.152 1.188,-0.225 3.617,-3.362 7.229,-6.725 10.835,-10.08 0,0 0.198,-0.184 0.443,-0.412 0.245,-0.227 0.756,-0.089 1.09,0.351 0.608,0.799 0.982,1.588 0.67,1.901 -0.827,0.828 -1.655,1.657 -2.482,2.485 -3.265,3.268 -6.529,6.537 -9.794,9.806 -0.839,0.841 -5.005,5.622 -5.589,5.039 -0.075,-0.074 -0.149,-0.149 -0.223,-0.223 -0.124,-0.123 0.102,-0.531 0.503,-0.91 0.067,-0.063 0.133,-0.126 0.2,-0.19 0.401,-0.379 0.709,-0.703 0.689,-0.723 -0.02,-0.02 -0.357,0.277 -0.753,0.663 -0.065,0.064 -0.13,0.128 -0.196,0.191 -0.394,0.386 -1.03,0.383 -1.421,-0.007 -0.161,-0.162 -0.323,-0.323 -0.484,-0.484 -0.391,-0.39 -0.38,-1.012 0.025,-1.388 0.068,-0.062 0.135,-0.125 0.203,-0.188 0.405,-0.376 0.529,-0.883 0.278,-1.134 -0.251,-0.252 -0.784,-0.15 -1.188,0.226 -0.068,0.063 -0.135,0.125 -0.203,0.188 -0.405,0.376 -0.949,0.464 -1.216,0.196 -0.268,-0.267 -0.157,-0.789 0.247,-1.166 0.067,-0.062 0.135,-0.125 0.202,-0.188 0.403,-0.377 0.671,-0.742 0.598,-0.815 -0.073,-0.073 -0.45,0.185 -0.841,0.575 -0.063,0.064 -0.128,0.128 -0.193,0.193 -0.391,0.39 -1.025,0.391 -1.416,0 -0.1,-0.099 -0.199,-0.199 -0.299,-0.298 -0.391,-0.39 -0.395,-1.028 -0.01,-1.424 0.064,-0.066 0.127,-0.131 0.191,-0.197 0.385,-0.396 0.564,-0.85 0.401,-1.013 -0.164,-0.163 -0.614,0.02 -1.005,0.409 -0.065,0.065 -0.13,0.129 -0.195,0.194 -0.392,0.39 -0.983,0.432 -1.321,0.095 -0.204,-0.204 -0.408,-0.408 -0.612,-0.611 -0.121,-0.121 -0.255,-0.244 -0.394,-0.37 -0.222,-0.201 -0.081,-0.678 0.312,-1.066 0.659,-0.651 1.315,-1.298 1.972,-1.945 z m -3.196,-0.042 c 0.338,-0.337 0.617,-0.639 0.859,-0.896 0.378,-0.402 0.409,-0.371 0.025,0.025 -0.166,0.171 -0.318,0.329 -0.456,0.472 -0.384,0.397 -0.641,0.643 -0.568,0.554 0.042,-0.052 0.088,-0.103 0.14,-0.155 z m 0.419,-0.358 c 0.172,-0.175 0.375,-0.381 0.611,-0.621 0.388,-0.394 0.982,-0.911 1.344,-0.83 0.361,0.081 0.284,0.62 -0.101,1.017 -0.611,0.63 -1.221,1.26 -1.832,1.89 -0.384,0.396 -0.933,0.421 -0.949,-0.01 -0.016,-0.431 0.54,-1.053 0.927,-1.446 z"
   id="path5"
   inkscape:connector-curvature="0"
   sodipodi:nodetypes="cccccccccsccsccccccscccccccccccsccccccccccccscccccccccccccscccccccccccsc"
   style="fill:#ffffff" />
	<path
   d="m 24.614,39.206 c 0.404,-0.377 0.719,-0.694 0.705,-0.708 -0.014,-0.014 -0.342,0.292 -0.733,0.683 -0.008,0.009 -0.017,0.017 -0.025,0.025 -0.39,0.391 -0.379,0.404 0.025,0.027 0.009,-0.009 0.018,-0.018 0.028,-0.027 z"
   id="path7"
   inkscape:connector-curvature="0"
   style="fill:#ffffff" />
</g>
</svg>