<?xml version="1.0" encoding="iso-8859-1"?>
<!-- Generator: Adobe Illustrator 17.0.2, SVG Export Plug-In . SVG Version: 6.00 Build 0)  -->
<!DOCTYPE svg PUBLIC "-//W3C//DTD SVG 1.1//EN" "http://www.w3.org/Graphics/SVG/1.1/DTD/svg11.dtd">
<svg version="1.1" id="Capa_1" xmlns="http://www.w3.org/2000/svg" xmlns:xlink="http://www.w3.org/1999/xlink" x="0px" y="0px"
	 width="64px" height="64px" viewBox="0 0 64 64" style="enable-background:new 0 0 64 64;" xml:space="preserve">
<g>
	<path d="M54.661,22.483c-0.272-0.356-0.509-0.775-0.85-1.062c-0.387-0.326-1.113-0.154-1.495,0.095
		c-1.704,1.108-2.508,2.886-4.217,4.113c-4.039,2.899-5.034,0.907-2.756-1.294c0.559-0.541,0.967-1.223,1.383-1.872
		c1.346-2.098,2.521-2.125,4.613-2.981c0.839-0.344,1.532-0.401,1.724-1.301c0.034-0.159-0.057-0.276-0.195-0.342
		c-1.216-0.58-1.189-1.619-0.711-2.704c0.066-0.15-0.085-0.283-0.195-0.342c-0.421-0.223-0.776-0.354-1.255-0.202
		c-1.997,0.638-1.556-0.969-2.555-1.495c-0.477-0.252-1.152,0.024-1.543,0.31c-1.103,0.804-1.035,1.919-1.082,3.238
		c-0.062,1.757-0.666,3.203-1.54,4.741c-1.517,2.669-1.405-1.533-1.57-2.263c-0.626-2.783-5.462-1.179-7.048-0.788
		c-1.073,0.264-2.54,0.791-3.311,1.654c-1.443,1.614-0.707,1.82,0.013,3.542c2.308,5.514-5.801,8.313-9.788,8.188
		c-3.104-0.098-5.471-0.566-7.769-2.568c-0.408-0.356-1.326-0.141-1.671,0.222c-1.016,1.069-1.081,1.676-2.826,1.835
		c-0.658,0.06-1.321,0.227-1.785,0.707c-0.11,0.114-0.328,0.378-0.124,0.531c0.858,0.644,3.247,0.669,2.453,2.225
		c-0.198,0.388,0.166,0.561,0.522,0.561c3.797-0.005,9.266-3.644,11.54,1.494c2.059,4.649-5.258,7.869-9.291,6.593
		c-1.002-0.317-1.617-0.166-2.598,0.037c-0.271,0.056-0.782,0.278-0.838,0.6c-0.193,1.124,0.064,1.964-0.942,2.729
		c-0.154,0.117-0.288,0.365-0.124,0.532c3.893,3.957,5.587,0.655,10.474-0.797c6.705-1.992,13.421-4.808,18.882-9.258
		c1.341-1.093,2.537-2.384,3.546-3.789c2-2.787,5.271-2.636,7.738-4.54c1.762-1.358,8.8-0.406,6.942-4.564
		c-0.226-0.504-0.488-0.938-0.539-0.985s-0.173-0.113-0.269-0.142C55.507,23.108,54.996,22.922,54.661,22.483z M50.269,18.268
		c0.268,0.145,0.054,0.264-0.472,0.435c-0.15,0.049-0.308,0.103-0.466,0.158c-0.521,0.183-0.618,0.062-0.222-0.287
		C49.507,18.225,50.002,18.123,50.269,18.268z M48.462,16.698c-0.146,0.146-0.292,0.289-0.437,0.432
		c-0.395,0.387-0.403,0.378-0.011-0.011c0.15-0.15,0.296-0.293,0.437-0.432C48.845,16.3,48.854,16.308,48.462,16.698z
		 M47.452,16.465c0.03-0.552,0.271-0.713,0.678-0.562c0.405,0.151,0.448,0.424,0.051,0.808c-0.035,0.034-0.07,0.067-0.105,0.101
		c-0.398,0.384-0.657,0.252-0.626-0.3C47.45,16.497,47.451,16.481,47.452,16.465z M46.716,19.571
		c0.127-0.297,0.239-0.576,0.337-0.825c0.053-0.133,0.098-0.268,0.138-0.403c0.065-0.227,0.424-0.728,0.819-1.113
		c0.191-0.187,0.386-0.376,0.583-0.568c0.396-0.386,1.585-0.91,1.36-0.406c-0.019,0.043-0.042,0.09-0.065,0.142
		c-0.231,0.502-0.545,1.275-0.941,1.66c-0.312,0.301-0.623,0.602-0.935,0.904c-0.396,0.384-0.957,0.821-1.217,1.024
		C46.535,20.188,46.523,20.023,46.716,19.571z M40.242,21.16c0.081-0.076,0.348,0.211,0.474,0.686
		c0.072,0.271,0.118,0.562,0.132,0.877c0.006,0.145,0.031,0.276,0.071,0.398c0.069,0.214-0.005,0.54-0.222,0.752
		c-0.217,0.212-0.303,0.193-0.225-0.054c0.047-0.146,0.084-0.297,0.108-0.456c0.064-0.419,0.038-0.81-0.06-1.17
		C40.378,21.662,40.161,21.236,40.242,21.16z M40.684,23.984c-0.247,0.243-0.253,0.237-0.007-0.006
		C40.923,23.735,40.93,23.741,40.684,23.984z M38.166,19.495c0.084-0.077,0.595-0.021,1.059,0.278
		c0.129,0.084,0.254,0.177,0.373,0.279c0.419,0.359,0.562,0.789,0.455,0.846c-0.107,0.056-0.49-0.234-0.966-0.514
		c-0.163-0.096-0.335-0.179-0.513-0.25c-0.514-0.203-0.879-0.304-0.767-0.376C37.92,19.685,38.082,19.572,38.166,19.495z
		 M37.594,21.827c-0.553-0.102-1.201,0.046-1.666,0.394c-0.442,0.331-0.589,0.339-0.406-0.183c0.189-0.54,0.541-1,1.064-1.091
		c0.557-0.096,1.017,0.122,1.36,0.505C38.315,21.864,38.137,21.928,37.594,21.827z M37.673,23.671
		c-0.037,0.11-0.091,0.216-0.161,0.323c-0.031,0.043-0.067,0.082-0.106,0.117c-0.065,0.059-0.198,0.095-0.288,0.076
		c-0.053-0.012-0.105-0.029-0.156-0.052c-0.444-0.174-0.664-0.631-0.688-1.079c-0.014-0.25,0.094-0.478,0.227-0.68
		c0.031-0.043,0.067-0.082,0.106-0.117c0.065-0.059,0.198-0.095,0.287-0.075c0.054,0.012,0.106,0.028,0.157,0.052
		c0.222,0.087,0.388,0.244,0.501,0.435C37.742,22.992,37.737,23.48,37.673,23.671z M36.303,24.515
		c0.243,0.065,0.501,0.078,0.739,0.039c0.364-0.06,0.72-0.18,1.008-0.375c0.458-0.309,0.632-0.315,0.44,0.202
		c-0.079,0.214-0.191,0.407-0.334,0.567c-0.369,0.411-1.343,0.429-1.787,0.102c-0.039-0.029-0.077-0.059-0.114-0.09
		C35.834,24.602,35.904,24.41,36.303,24.515z M34.438,20.594c0.452-0.71,1.182-1.15,1.991-1.317c0.541-0.112,0.832,0.082,0.631,0.27
		c-0.2,0.188-0.815,0.389-1.323,0.605c-0.366,0.156-0.706,0.369-1.009,0.625C34.308,21.135,34.141,21.06,34.438,20.594z
		 M12.151,45.249c0.011-0.133-0.001-0.26-0.043-0.356c-0.129-0.297,0.043-0.399,0.357-0.398c0.385,0.003,0.446,0.324,0.149,0.603
		C12.316,45.376,12.136,45.448,12.151,45.249z M48.938,27.697c-0.155,0.125-0.312,0.26-0.473,0.403
		c-1.797,1.597-4.476,1.169-6.254,2.641c-1.208,1.001-1.935,2.174-2.878,3.396c-2.862,3.711-7.368,6.105-11.515,8.045
		c-0.698,0.327-1.406,0.631-2.12,0.922c-0.512,0.208-0.557,0.118-0.141-0.245c0.382-0.333,0.762-0.718,1.136-1.165
		c0.239-0.286,0.476-0.664,0.684-1.081c0.246-0.495,0.057-0.618-0.349-0.243c-0.758,0.703-1.341,1.251-1.707,1.602
		c-0.398,0.383-0.471,0.525-0.879,0.897c-0.203,0.186-0.406,0.371-0.609,0.557c-0.408,0.372-1.16,0.827-1.683,1.007
		c-1.623,0.561-3.265,1.075-4.908,1.563c-0.574,0.17-1.248,0.588-1.94,0.958c-0.487,0.26-0.985,0.409-1.083,0.373
		c-0.098-0.036-0.255-0.005-0.359,0.09c-0.105,0.095-0.502,0.245-0.877,0.175c-0.22-0.041-0.43-0.127-0.629-0.273
		c-0.056-0.041-0.107-0.077-0.156-0.111c-0.087-0.06,0.174-0.405,0.584-0.774c0.302-0.272,0.603-0.544,0.905-0.816
		c0.41-0.37,0.871-0.63,1.03-0.583c0.126,0.036,0.227,0.063,0.292,0.073c2.907,0.469,6.771-1.069,8.378-3.589
		c0.647-1.015,1.076-2.046,1.235-3.039c0.087-0.545,0.187-1.118,0.335-1.268c0.148-0.15,0.148-0.162-0.001-0.024
		c-0.15,0.137-0.277-0.109-0.374-0.535c-0.097-0.426,0.083-1.053,0.49-1.426c0.043-0.04,0.087-0.08,0.131-0.12
		c0.406-0.373,0.459-0.836,0.092-0.976c-0.368-0.139-0.897-0.011-1.166,0.238c-0.268,0.249-0.684,0.216-0.966-0.034
		c-0.281-0.25-0.478-0.474-0.405-0.542c0.073-0.068,0.091-0.126,0.039-0.129c-0.051-0.004-0.135,0.034-0.186,0.085
		c-0.051,0.051-0.208,0.015-0.355-0.074c-0.087-0.053-0.176-0.105-0.27-0.156c-1.257-0.683-3.019-0.604-4.426-0.64
		c-0.346-0.009-1.274-0.014-1.767,0.12c-0.324,0.087-0.843,0.361-1.357,0.628c-0.49,0.254-0.615,0.162-0.268-0.181
		c0.348-0.342,0.392-0.669,0.101-0.743c-0.291-0.074-0.634-0.034-0.771,0.107C13.36,32.954,13.233,33,13.179,32.94
		c-0.031-0.034-0.07-0.065-0.118-0.093c-0.16-0.094-0.308-0.173-0.445-0.24c-0.25-0.123-0.351-0.316-0.215-0.456
		c0.137-0.14,0.321-0.282,0.415-0.318c0.055-0.021,0.111-0.044,0.17-0.069c0.275-0.115,0.461-0.239,0.591-0.37
		c0.273-0.275,0.533-0.473,0.812-0.31c0.278,0.163,0.398,0.4,0.257,0.545c-0.141,0.145-0.018,0.237,0.273,0.212
		c0.16-0.013,0.335-0.026,0.526-0.038c0.056-0.003,0.108-0.008,0.161-0.013c0.089-0.008,0.571,0.161,1.096,0.335
		c2.766,0.918,5.912,0.944,8.862,0.264c0.538-0.124,0.893-0.18,0.799-0.093c-0.093,0.087,0.254,0.187,0.776,0.188
		c0.523,0.002,1.273-0.336,1.677-0.711c0.091-0.084,0.181-0.167,0.271-0.251c0.405-0.376,1.133-0.882,1.605-1.167
		c1.084-0.654,1.893-1.355,2.454-2.177c0.312-0.456,0.794-1.159,1.175-1.512c0.38-0.353,1.021-0.443,1.471-0.308
		c0.271,0.081,0.552,0.133,0.838,0.149c0.033,0.002,0.067,0.001,0.104-0.002c0.057-0.005,0.554-0.024,1.086-0.174
		c0.624-0.175,1.183-0.484,1.64-0.9c0.369-0.34,0.723-0.672,1.071-1.003c0.4-0.38,0.9-0.5,1.188-0.392
		c0.163,0.062,0.346,0.096,0.546,0.1c0.073,0.002,0.145,0,0.217-0.006c0.119-0.008-0.106,0.288-0.503,0.673
		c-0.084,0.081-0.167,0.162-0.251,0.243c-0.397,0.384-0.385,0.397,0.028,0.03c0.132-0.117,0.264-0.234,0.397-0.352
		c0.414-0.366,0.824-0.679,0.915-0.704c0.092-0.025-0.125,0.29-0.471,0.722c-0.64,0.798-1.238,1.61-1.737,2.425
		c-0.085,0.138-0.106,0.262,0.001,0.394c1.06,1.297,2.854,1.139,4.395,0.625c0.524-0.175,1.004-0.29,1.11-0.222
		c0.105,0.068,0.355-0.059,0.546-0.263c0.19-0.205,0.751-0.561,1.239-0.818c0.815-0.43,1.6-0.915,2.303-1.521
		c0.58-0.5,1.049-1.141,1.533-1.755c0.343-0.434,0.741-0.62,0.831-0.427c0.09,0.193-0.14,0.677-0.517,1.081
		c-0.726,0.779-1.452,1.557-2.181,2.334C49.739,26.998,49.204,27.481,48.938,27.697z M51.727,26.453
		c-0.129,0.016-0.252,0.037-0.37,0.061c-0.203,0.041-0.05-0.234,0.339-0.627c0.411-0.416,0.803-0.812,1.175-1.19
		c0.388-0.393,0.826-0.666,0.982-0.622c0.157,0.043,0.357,0.182,0.438,0.32c0.082,0.138-0.137,0.535-0.482,0.882
		c-0.346,0.348-0.308,0.414,0.065,0.125c0.375-0.289,0.967-0.137,0.902,0.412C54.664,26.784,52.822,26.314,51.727,26.453z"/>
	<path d="M27.487,36.792c0.144-0.14,0.141-0.144-0.003-0.003C27.34,36.93,27.343,36.933,27.487,36.792z"/>
	<path d="M36.454,28.021c-0.616,0.602-1.229,1.202-1.841,1.799c-0.394,0.386-0.596,0.639-0.452,0.561
		c0.144-0.077,0.582-0.45,0.983-0.83c0.389-0.369,0.774-0.735,1.155-1.097c0.4-0.38,0.768-0.785,0.808-0.908
		C37.146,27.424,36.849,27.635,36.454,28.021z"/>
</g>
</svg>
