<?xml version="1.0" encoding="iso-8859-1"?>
<!-- Generator: Adobe Illustrator 17.0.2, SVG Export Plug-In . SVG Version: 6.00 Build 0)  -->
<!DOCTYPE svg PUBLIC "-//W3C//DTD SVG 1.1//EN" "http://www.w3.org/Graphics/SVG/1.1/DTD/svg11.dtd">
<svg version="1.1" id="Capa_1" xmlns="http://www.w3.org/2000/svg" xmlns:xlink="http://www.w3.org/1999/xlink" x="0px" y="0px"
	 width="64px" height="64px" viewBox="0 0 64 64" style="enable-background:new 0 0 64 64;" xml:space="preserve">
<g>
	<path style="fill:#010202;" d="M33.291,55.904c14.39,0.389,25.825-12.087,26.201-25.965C59.885,15.428,47.288,4.475,33.443,4.1
		C19.049,4.49,7.636,15.599,7.244,30.066C6.852,44.576,19.447,55.529,33.291,55.904z M17.244,47.997
		c2.49-3.997,4.962-8.007,7.425-12.022c0.031-0.051,0.041-0.108,0.063-0.162c0.515,0.413,1.055,0.879,1.612,1.361
		c-0.149,0.257-0.298,0.513-0.449,0.766c-0.92,1.549-1.822,3.109-2.713,4.675c-0.402,0.672-0.805,1.345-1.213,2.014
		c-1.049,1.583-2.102,3.162-3.159,4.741C18.271,48.934,17.746,48.477,17.244,47.997z M32.794,25.342
		c0.859,1.191,3.845,0.707,4.973,0.707c2.633,0,5.266,0,7.899,0c0.159,0,0.689,6.371-0.092,7.458
		c-3.876-0.054-8.77-0.936-12.336,0.541c-1.512,0.627-0.957,3.953-0.942,5.127c-1.18-0.878-2.357-1.756-3.536-2.634
		c-2.408-1.793-4.815-3.587-7.223-5.38c-1.582-1.179-2.317-1.206-0.609-2.477c2.33-1.736,4.661-3.472,6.992-5.207
		c1.192-0.889,2.871-2.61,4.385-3.406C32.565,21.798,31.703,23.827,32.794,25.342z M33.357,18.276
		c0.41-0.646,0.819-1.293,1.226-1.94c0.293-0.469,0.295-0.469,0.006,0.002c-0.396,0.646-0.791,1.291-1.188,1.938
		c-0.001,0.002-0.002,0.004-0.003,0.007C33.385,18.279,33.371,18.278,33.357,18.276z M40.646,36.051
		c-0.361,1.031-0.729,2.06-1.096,3.091c-0.185,0.521-0.572,1.323-0.869,1.789c-1.113,1.755-2.283,3.518-3.514,5.255
		c-0.32,0.45-0.377,0.415-0.123-0.074c1.361-2.613,2.738-5.219,4.16-7.805c0.428-0.775,0.855-1.551,1.285-2.326
		C40.757,35.498,40.827,35.529,40.646,36.051z M23.137,34.719c0.055,0.033,0.103,0.064,0.155,0.096
		c-0.023,0.029-0.052,0.048-0.072,0.081c-0.863,1.409-1.725,2.819-2.59,4.227c-0.289,0.471-0.301,0.464-0.025-0.015
		c0.828-1.438,1.66-2.871,2.5-4.301C23.121,34.779,23.123,34.747,23.137,34.719z M21.571,49.489
		c1.031-1.985,2.098-3.954,3.191-5.909c1.095-1.655,2.188-3.311,3.279-4.967c0.277,0.226,0.556,0.447,0.838,0.66
		c-1.527,2.367-3.091,4.711-4.725,7.011c-0.809,1.102-1.625,2.198-2.443,3.292C21.382,50.019,21.317,49.979,21.571,49.489z
		 M27.956,53.863c-2.023-0.466-3.939-1.211-5.717-2.19c1.374-1.766,2.706-3.557,4-5.376c1.443-1.96,2.862-3.936,4.238-5.938
		c0.741,0.435,1.49,0.772,2.24,0.944c0.452,0.104,1.065-0.178,1.254-0.605C34.947,38.488,32.869,35,36.132,35
		c0.844,0,1.689,0,2.532,0c-0.085,0.088-0.167,0.178-0.224,0.275c-3.549,6.112-7.025,12.268-10.443,18.455
		C27.973,53.775,27.973,53.818,27.956,53.863z M34.049,54.385c-0.201,0.011-0.402,0.025-0.605,0.031
		c-0.897,0.024-1.777-0.01-2.645-0.09c0.224-0.419,0.676-1.06,1.028-1.463c1.598-1.832,3.109-3.745,4.549-5.696
		c0.328-0.444,0.438-0.386,0.25,0.133c-0.855,2.357-1.715,4.712-2.574,7.067C34.05,54.373,34.051,54.379,34.049,54.385z
		 M36.726,52.947c1.49-4.103,2.979-8.207,4.449-12.316c0.186-0.52,0.58-1.316,0.877-1.783c0.75-1.181,1.478-2.375,2.197-3.576
		c0.058-0.096,0.08-0.185,0.098-0.271c0.367,0,0.734,0,1.102,0c-0.051,0.097-0.104,0.199-0.156,0.309
		c-2.857,5.875-5.656,11.781-8.477,17.677C36.577,53.483,36.538,53.466,36.726,52.947z M57.529,30.066
		c0.229,8.489-4.256,15.82-10.859,20.163c0.549-1.289,1.097-2.579,1.638-3.871c2.901-5.788,6.005-11.477,9.18-17.129
		C57.503,29.508,57.521,29.785,57.529,30.066z M56.436,23.269c-1.192,2.545-2.401,5.082-3.596,7.621
		c-2.488,5.293-4.719,10.703-6.973,16.103c-0.833,1.67-1.639,3.354-2.436,5.042c-1.545,0.722-3.167,1.292-4.844,1.694
		c5.426-11.326,10.756-22.706,16.568-33.825C55.659,20.985,56.087,22.108,56.436,23.269z M53.739,17.271
		c0.124,0.201,0.244,0.404,0.363,0.608c-1.986,3.743-3.907,7.521-5.797,11.315c-0.002-0.336-0.021-0.665-0.052-0.989
		C50.182,24.614,52.003,20.962,53.739,17.271z M52.034,16.291c-1.459,3.11-2.978,6.192-4.558,9.241
		c-0.147-0.23-0.311-0.434-0.498-0.587c0.014-0.031,0.03-0.055,0.044-0.088c0.139-0.33,0.275-0.661,0.412-0.992
		c0.213-0.51,0.619-1.307,0.904-1.778c1.188-1.956,2.385-3.905,3.59-5.852C52.22,15.766,52.269,15.791,52.034,16.291z
		 M47.944,10.803c0.645,0.503,1.262,1.039,1.852,1.603c-0.823,2.729-1.836,5.409-2.926,8.069c-0.708,1.369-1.433,2.729-2.164,4.086
		c-1.596,0-3.191,0-4.786,0c2.667-4.57,5.305-9.162,8.009-13.713C47.938,10.834,47.938,10.817,47.944,10.803z M43.809,8.188
		c0.62,0.31,1.223,0.647,1.81,1.006c-0.024,0.028-0.058,0.045-0.079,0.076c-0.979,1.425-1.953,2.852-2.924,4.281
		c-0.311,0.457-0.873,0.893-1.236,1.032c-0.299,0.114-0.543,0.241-0.623,0.325c-0.141,0.151-0.273,0.309-0.408,0.465
		c-0.221,0.262-0.197,0.074,0.053-0.418c1.129-2.205,2.248-4.414,3.367-6.623C43.792,8.285,43.793,8.235,43.809,8.188z
		 M41.352,8.926c-2.301,4.539-4.619,9.068-6.981,13.571c-0.003-0.695,0.091-1.513-0.006-2.377c2.295-3.751,4.595-7.5,6.913-11.237
		C41.569,8.413,41.602,8.434,41.352,8.926z M40.091,6.705c0.142,0.044,0.285,0.082,0.425,0.129c-0.046,0.05-0.102,0.093-0.138,0.15
		c-1.285,2.062-2.568,4.123-3.844,6.19c-0.291,0.47-0.293,0.468-0.008-0.006c1.229-2.054,2.408-4.136,3.508-6.262
		C40.069,6.84,40.073,6.772,40.091,6.705z M38.069,6.627c-2.186,4.327-4.724,8.469-7.333,12.572
		c-1.631,0.973-3.21,2.459-4.623,3.648c3.754-5.568,7.679-11.021,11.788-16.325C38.239,6.084,38.317,6.135,38.069,6.627z
		 M34.054,5.935c0.049-0.107,0.079-0.206,0.103-0.303c0.759,0.046,1.507,0.125,2.244,0.235c-0.058,0.053-0.125,0.101-0.17,0.159
		c-1.933,2.485-3.842,4.991-5.703,7.533c-0.326,0.445-0.385,0.411-0.135-0.081C31.663,10.987,32.886,8.475,34.054,5.935z
		 M24.884,7.695c0.093-0.17,0.187-0.342,0.279-0.513c0.065-0.024,0.134-0.046,0.2-0.07c-0.139,0.207-0.277,0.414-0.413,0.622
		C24.646,8.195,24.618,8.181,24.884,7.695z M16.113,12.984c-1.93,3.098-3.839,6.208-5.781,9.295
		C11.499,18.739,13.512,15.578,16.113,12.984z M9.207,29.94c-0.025-0.942,0.013-1.866,0.1-2.777
		c3.834-5.757,7.338-11.757,11.074-17.588c0.643-0.41,1.306-0.792,1.985-1.143c-4.285,7.716-8.697,15.362-13.065,23.032
		C9.256,30.957,9.221,30.449,9.207,29.94z M10.236,36.397c5.97-10.007,11.272-20.47,17.76-30.085
		c1.332-0.328,2.696-0.557,4.084-0.662c-0.061,0.092-0.119,0.185-0.165,0.287c-3.104,6.799-6.641,13.391-10.314,19.918
		c-1.898,1.221-3.81,2.676-3.942,3.988c-0.046,0.457,0.275,0.984,0.799,1.53c-2.102,3.357-4.138,6.753-6.098,10.192
		C11.474,39.93,10.761,38.194,10.236,36.397z M19.874,32.585c0.56,0.417,1.167,0.822,1.75,1.194
		c-2.281,3.858-4.517,7.749-6.702,11.67c-0.478-0.6-0.928-1.222-1.352-1.862C15.652,39.911,17.765,36.25,19.874,32.585z"/>
</g>
</svg>
