<?xml version="1.0" encoding="iso-8859-1"?>
<!-- Generator: Adobe Illustrator 17.0.2, SVG Export Plug-In . SVG Version: 6.00 Build 0)  -->
<!DOCTYPE svg PUBLIC "-//W3C//DTD SVG 1.1//EN" "http://www.w3.org/Graphics/SVG/1.1/DTD/svg11.dtd">
<svg version="1.1" id="Capa_1" xmlns="http://www.w3.org/2000/svg" xmlns:xlink="http://www.w3.org/1999/xlink" x="0px" y="0px"
	 width="64px" height="64px" viewBox="0 0 64 64" style="enable-background:new 0 0 64 64;" xml:space="preserve">
<g>
	<path d="M22.143,50.617c1.166-0.192,1.485-1.346,2.834-1.346c3.703,0,6.812,2.551,10.665,2.551c5.659,0,11.224,1.246,15.257-3.361
		c3.848-4.397,3.178-8.354,3.178-13.956c0-2.558,0.425-5.233-0.835-7.532c-0.95-1.732-3.661-2.762-5.725-3.193
		c-0.541-0.112-1.058-0.189-1.151-0.199c-0.05-0.005-0.106-0.008-0.17-0.008c-8.532,0,2.817-13.599-1.346-14.768
		c-3.087-0.866-10.255-1.495-11.735,2.059c-1.684,4.046-3.423,8.082-5.405,11.992c-0.442,0.873-2.588,4.976-3.952,3.155
		c-0.381-0.509-0.362-0.91-0.891-1.05c-1.439-0.381-2.419-0.397-3.898-0.397c-2.66,0-11.948-1.711-11.948,3.043
		c0,6.526,0,13.052,0,19.578c0,5.685,8.002,3.679,11.941,3.679C20.114,50.863,20.981,50.809,22.143,50.617z M52.146,38.024
		c0,0.552-0.037,1.034-0.083,1.079c-0.028,0.026-0.055,0.053-0.083,0.079c-0.418,0.406-0.794,0.772-1.128,1.09
		c-0.399,0.382-0.409,0.372-0.012-0.013c0.135-0.132,0.277-0.27,0.426-0.414c0.396-0.385,0.396-0.386-0.002-0.002
		c-0.139,0.133-0.279,0.267-0.419,0.403c-0.397,0.384-0.638,0.254-0.57-0.294c0.074-0.594,0.122-1.201,0.15-1.812
		c0.024-0.552,0.341-1.318,0.729-1.711c0.097-0.098,0.193-0.195,0.289-0.292c0.388-0.393,0.702-0.264,0.702,0.288
		C52.146,36.959,52.146,37.491,52.146,38.024z M52.138,31.3c0.005,0.121,0.008,0.243,0.008,0.367c0,0.638,0,1.276,0,1.915
		c0,0.552-0.312,1.319-0.698,1.715c-0.101,0.103-0.201,0.206-0.302,0.309c-0.386,0.396-0.705,0.268-0.729-0.283
		c-0.021-0.497-0.053-0.989-0.091-1.473c-0.044-0.55,0.221-1.314,0.607-1.709c0.161-0.165,0.322-0.329,0.482-0.493
		C51.802,31.253,52.129,31.098,52.138,31.3z M51.626,28.833c0.12,0.301-0.122,0.87-0.511,1.263c-0.126,0.127-0.251,0.253-0.377,0.38
		c-0.389,0.392-0.73,0.513-0.764,0.271c-0.021-0.148-0.042-0.294-0.064-0.437c-0.011-0.072-0.024-0.143-0.041-0.211
		c-0.027-0.116,0.258-0.526,0.646-0.919c0.055-0.056,0.11-0.111,0.165-0.167C51.069,28.62,51.506,28.533,51.626,28.833z
		 M43.794,24.58c0.193,0.026,0.383,0.045,0.578,0.058c0.551,0.035,1.445,0.078,1.985,0.195c1.811,0.394,3.286,1.195,4.294,2.393
		c0.356,0.423,0.476,0.794,0.35,0.768c-0.125-0.026-0.509,0.258-0.855,0.628c-0.347,0.371-0.824,0.359-1.166,0.075
		c-0.342-0.285-0.592-0.527-0.49-0.637c0.102-0.109-0.12-0.197-0.494-0.197c-0.374,0-1.112-0.11-1.659-0.186
		c-0.549-0.075-1.083-0.104-1.547-0.104c-0.798,0-1.596,0-2.393,0c-0.552,0-0.665-0.298-0.252-0.664
		c0.18-0.16,0.359-0.319,0.541-0.481c0.414-0.366,0.748-0.719,0.748-0.787c0-0.069-0.321,0.186-0.718,0.569
		c-0.229,0.223-0.458,0.444-0.688,0.667c-0.396,0.385-0.794,0.695-0.886,0.695c-0.056,0-0.112,0-0.168,0
		c-0.216,0-0.405-0.037-0.57-0.104c-0.299-0.122-0.15-0.641,0.249-1.022c0.488-0.466,0.967-0.924,1.438-1.374
		C42.491,24.69,43.247,24.505,43.794,24.58z M23.756,32.84c-0.108-0.541-0.165-0.71,0.374-0.833c3.278-0.75,6.045-2.779,7.969-5.535
		c1.427-2.044,2.373-4.598,3.408-6.857c0.39-0.853,3.497-6.675,2.463-3.229c-0.563,1.876-1.765,9.588-0.232,11.12
		c2.515,2.515,10.408-0.749,10.408,4.562c0,3.647,0.836,8.469-0.77,11.925c-0.232,0.501-0.771,1.223-1.21,1.558
		c-2.688,2.049-7.129,1.181-10.289,1.181c-2.783,0-4.71-2.137-7.376-2.419c-2.139-0.226-4.674-0.038-4.674-2.909
		c0-2.057,0-4.114,0-6.171C23.827,34.366,23.876,33.44,23.756,32.84z M39.98,23.556c0.212-0.198,0.425-0.396,0.638-0.594
		c0.404-0.377,0.766-0.227,0.977,0.284c0.049,0.117,0.104,0.229,0.167,0.331c0.286,0.473,0.402,0.985,0.007,1.371
		c-0.435,0.426-0.87,0.851-1.302,1.273c-0.395,0.386-0.958,0.31-1.078-0.229c-0.053-0.241-0.088-0.496-0.111-0.757
		C39.232,24.686,39.576,23.933,39.98,23.556z M39.433,21.403c0.004-0.03,0.009-0.06,0.014-0.091
		c0.083-0.546,0.489-1.292,0.895-1.667c0.177-0.164,0.357-0.33,0.539-0.498c0.406-0.375,0.642-0.24,0.562,0.307
		c-0.006,0.04-0.012,0.08-0.017,0.12c-0.077,0.547-0.434,1.298-0.84,1.673c-0.172,0.159-0.345,0.318-0.517,0.477
		C39.661,22.097,39.351,21.949,39.433,21.403z M41.826,24.979c-0.435,0.435-0.875,0.866-1.316,1.294
		c-0.397,0.384-0.401,0.38-0.007-0.007c0.457-0.45,0.9-0.886,1.314-1.294C42.211,24.584,42.217,24.59,41.826,24.979z M33.873,13.401
		c0.103-0.242,0.206-0.485,0.308-0.728c0.215-0.509,0.701-1.242,1.086-1.638c0.232-0.239,0.46-0.475,0.686-0.706
		c0.385-0.396,1.015-0.717,1.408-0.717c0.393,0,0.399,0.32,0.013,0.716c-1.065,1.093-2.129,2.185-3.193,3.277
		C33.795,14.002,33.659,13.91,33.873,13.401z M9.699,26.254c0.166-0.162,0.2-0.125,0.035,0.035
		C9.569,26.449,9.533,26.416,9.699,26.254z M9.758,26.31c0.221-0.214,0.413-0.394,0.431-0.4c0.017-0.007-0.169,0.181-0.415,0.42
		c-0.246,0.239-0.439,0.418-0.432,0.4C9.349,26.711,9.536,26.524,9.758,26.31z M15.436,49.938c-0.552,0.03-1.148-0.022-1.32-0.119
		c-0.171-0.099-0.385-0.117-0.495-0.017c-0.111,0.101-0.648,0.181-1.199,0.142c-0.003,0-0.005,0-0.008,0
		c-0.551-0.039-0.661-0.41-0.251-0.78c0.061-0.055,0.121-0.109,0.182-0.163c0.41-0.37,0.733-0.729,0.724-0.804
		c-0.005-0.044-0.009-0.089-0.009-0.135c0,0,0-0.275,0-0.614c0-0.34-0.328-0.31-0.731,0.067c-0.469,0.438-0.939,0.875-1.407,1.312
		c-0.404,0.377-1.186,0.55-1.572,0.154c-0.253-0.26-0.398-0.583-0.398-0.983c0-0.334,0-0.667,0-1c0-0.553,0.326-1.308,0.728-1.688
		c0.875-0.824,1.758-1.655,2.651-2.494c0.402-0.378,0.729-0.99,0.729-1.367c0-0.376-0.305-0.354-0.682,0.05
		c-0.911,0.976-1.825,1.949-2.741,2.921c-0.378,0.401-0.686,0.278-0.686-0.274c0-0.301,0-0.602,0-0.903
		c0-0.552,0.317-1.315,0.709-1.705c0.895-0.892,1.792-1.783,2.69-2.674c0.392-0.389,0.709-0.744,0.709-0.794
		s-0.316,0.228-0.706,0.619c-0.9,0.904-1.799,1.81-2.698,2.716c-0.389,0.393-0.704,0.398-0.704,0.015
		c0-0.384,0.312-1.008,0.698-1.393c0.233-0.233,0.466-0.466,0.699-0.697c0.666-0.658,1.332-1.315,1.999-1.971
		c0.393-0.388,0.712-0.995,0.712-1.356c0-0.361-0.311-0.331-0.695,0.065c-0.905,0.935-1.811,1.868-2.717,2.802
		c-0.385,0.396-0.696,0.684-0.696,0.641c0-0.025,0-0.051,0-0.077c0-0.272,0-0.545,0-0.817c0-0.452,0.311-1.14,0.695-1.536
		c0.916-0.947,1.825-1.885,2.717-2.806c0.384-0.396,0.696-1.165,0.696-1.718v-0.309c0-0.553-0.318-0.686-0.711-0.298
		c-0.89,0.88-1.787,1.766-2.686,2.655c-0.393,0.388-0.711,0.256-0.711-0.297c0-0.45,0-0.9,0-1.351c0-0.553,0.329-1.305,0.733-1.681
		c0.886-0.825,1.77-1.652,2.65-2.484c0.401-0.38,0.725-0.83,0.725-1.005c0-0.174-0.314,0.004-0.703,0.396
		c-0.9,0.91-1.802,1.819-2.703,2.729c-0.388,0.393-0.703,0.264-0.703-0.289c0-0.247,0-0.494,0-0.741
		c0-0.552,0.312-1.319,0.698-1.715c0.604-0.618,1.206-1.234,1.808-1.85c0.386-0.395,1.146-0.71,1.698-0.692
		c0.445,0.014,0.917,0.029,1.412,0.029c1.673,0,3.347,0,5.02,0c1.568,0,2.091,1.781,3.251,2.017
		c3.091,0.627,5.438-2.471,6.669-4.778c0.72-1.35,1.386-2.732,2.025-4.129c0.229-0.502,0.711-1.243,1.08-1.655
		c2.022-2.254,4.018-4.504,5.994-6.746c0.365-0.414,1.108-0.75,1.661-0.75c0.668,0,1.336,0,2.004,0c1.288,0,1.463,1.122,1.227,2.492
		c-0.094,0.544-0.533,1.293-0.921,1.687c-0.044,0.045-0.089,0.091-0.134,0.136c-0.388,0.394-0.801,0.944-0.923,1.229
		c-0.122,0.284,0.095,0.197,0.485-0.192c0.101-0.101,0.201-0.201,0.302-0.302c0.391-0.39,0.57-0.279,0.382,0.24
		c-0.268,0.742-0.519,1.38-0.632,1.757c-0.026,0.087-0.056,0.192-0.089,0.312c-0.048,0.173-0.419,0.61-0.834,0.974
		c-0.939,0.82,0.093-0.117-1.004,0.853c-0.051,0.048-0.107,0.102-0.165,0.157c-0.091,0.086-0.094-0.286-0.019-0.833
		c0.453-3.34,0.529-6.987-2.601-5.088c-2.011,1.222-3.229,4.498-4.243,7.306c-0.188,0.52-0.658,1.255-1.042,1.652
		c-0.264,0.273-0.825,0.83-3.424,3.325c-0.398,0.382-0.716,0.719-0.709,0.752c0.004,0.021,0.007,0.041,0.007,0.062
		c0,0.114,0.025,0.22,0.071,0.315c0.077,0.161,0.508-0.065,0.894-0.461c0.908-0.933,1.807-1.854,2.699-2.768
		c0.386-0.396,0.613-0.497,0.499-0.23c-0.072,0.168-0.145,0.329-0.217,0.478c-1.758,3.635-4.431,7.384-8.852,7.705
		c-0.292,0.021-1.082,0.257-1.098,0.654c-0.148,3.545-0.035,7.113-0.035,10.66c0,3.944,6.197,2.698,8.524,3.981
		c3.386,1.869,7.33,1.355,11.057,1.355c2.638,0,4.574-0.423,6.392-2.08c0.408-0.372,0.736-0.734,0.771-0.769
		c0.034-0.034,0.083-0.095,0.106-0.137c0.024-0.041,0.272-0.46,0.503-0.962c0.055-0.119,0.108-0.24,0.159-0.363
		c0.21-0.511,0.651-1.26,1.042-1.651c0.331-0.331,0.661-0.662,0.991-0.993c0.39-0.392,0.706-0.347,0.706,0.101
		c0,0.447-0.317,1.126-0.708,1.517c-1.279,1.277-2.558,2.555-3.838,3.83c-0.391,0.391-0.528,0.706-0.304,0.706
		c0.223,0,0.721-0.317,1.11-0.708c1.072-1.075,2.081-2.088,3.022-3.031c0.39-0.392,0.692-0.377,0.613,0.022
		c-0.078,0.399-0.497,1.03-0.888,1.421c-0.529,0.527-1.059,1.056-1.588,1.583c-0.391,0.391-0.46,0.702-0.161,0.646
		c0.299-0.057,0.844-0.449,1.225-0.835c0.381-0.386,0.503-0.29,0.232,0.19c-1.286,2.285-3.36,4.422-5.389,4.422
		c-2.511,0-5.022,0-7.534,0c-0.552,0-0.968-0.033-0.928-0.074c0.04-0.04-0.021-0.103-0.134-0.142
		c-0.114-0.038-0.268-0.008-0.346,0.071c-0.078,0.08-0.391,0.145-0.701,0.145c-0.186,0-0.373,0-0.56,0
		c-0.394,0-0.779-0.032-1.157-0.089c-0.546-0.083-0.721-0.469-0.403-0.799c0.319-0.331,0.223-0.759-0.231-0.905
		c-0.454-0.148-1.099,0.037-1.428,0.369c-0.329,0.331-1.015,0.442-1.529,0.239c-0.201-0.079-0.401-0.159-0.603-0.238
		c-0.514-0.202-0.841-0.456-0.724-0.581s-0.018-0.206-0.291-0.137c-0.273,0.068-0.905,0.021-1.44-0.115
		c-0.714-0.181-1.451-0.295-2.226-0.295c-0.62,0-1.996,0.075-2.565,0.622c-1.333,1.28-2.815,0.97-4.543,0.97
		C17.657,49.771,16.634,49.874,15.436,49.938z"/>
	<path d="M31.153,48.725c-0.128,0.131-0.125,0.134,0.004,0.004C31.285,48.598,31.281,48.594,31.153,48.725z"/>
</g>
</svg>
