<?xml version="1.0" encoding="iso-8859-1"?>
<!-- Generator: Adobe Illustrator 17.0.2, SVG Export Plug-In . SVG Version: 6.00 Build 0)  -->
<!DOCTYPE svg PUBLIC "-//W3C//DTD SVG 1.1//EN" "http://www.w3.org/Graphics/SVG/1.1/DTD/svg11.dtd">
<svg version="1.1" id="Capa_1" xmlns="http://www.w3.org/2000/svg" xmlns:xlink="http://www.w3.org/1999/xlink" x="0px" y="0px"
	 width="64px" height="64px" viewBox="0 0 64 64" style="enable-background:new 0 0 64 64;" xml:space="preserve">
<g>
	<path d="M29.954,35.342c5.62,2.642,9.701-2.081,10.677-7.297c1.003-5.359,2.651-15.057-0.833-19.816
		c-4.101-5.6-12.145-0.07-14.047,4.44c-0.046,0.108-0.01,0.185,0.076,0.237c0.131,0.079,0.22,0.97,0.121,2.07
		C25.356,21.612,23.639,32.373,29.954,35.342z M38.704,28.304c-0.206,1.243-0.643,2.941-1.415,4.329
		c-0.537,0.965-1.54,1.353-1.897,1.023c-0.357-0.33-1.06-0.218-1.611,0.295c-0.552,0.513-0.848,0.983-0.657,1.036
		c0.191,0.054-0.342,0.009-1.104-0.345c-0.41-0.191-0.845-0.447-1.303-0.777c-2.231-1.605-2.771-4.611-3.087-7.126
		c-0.004-0.032-0.007-0.064-0.009-0.097c-0.004-0.053,0.719-0.084,1.614-0.05c0.896,0.033,1.038,0.632,0.318,1.321
		c-0.72,0.689-1.233,1.538-1.126,1.89c0.108,0.352,0.838-0.012,1.608-0.804c0.268-0.274,0.534-0.549,0.801-0.822
		c0.77-0.791,2.288-1.378,3.391-1.315c0.891,0.051,1.781,0.097,2.673,0.133c1.104,0.044,1.958,0.338,1.904,0.685
		C38.771,27.888,38.738,28.097,38.704,28.304z M28.021,11.856c-0.019-0.033,0.062-0.247,0.202-0.476
		c0.141-0.229,0.745-0.885,1.333-1.476c0.588-0.591,1.778-1.631,2.796-2.061c2.289-0.968,4.788-0.701,6.21,2.038
		c0.779,1.503,0.847,3.46,0.977,5.106c0.24,3.064,0.089,6.208-0.269,9.303c-0.126,1.097-1.151,1.955-2.255,1.902
		c-0.888-0.042-1.774-0.092-2.662-0.143c-1.102-0.063-2.009-0.261-2.023-0.443c-0.015-0.183-0.168-0.191-0.348-0.02
		c-0.179,0.171-1.087,0.268-2.03,0.236c-0.569-0.019-1.138-0.033-1.708-0.039c-0.072,0-0.198,0.026-0.348,0.07
		c-0.188,0.055-0.423-0.781-0.449-1.885c-0.098-4.005,0.523-8.064,0.592-12.048C28.039,11.897,28.032,11.876,28.021,11.856z"/>
	<path d="M29.2,17.821c0.727-0.748,1.435-1.476,2.125-2.186c0.771-0.792,1.396-1.465,1.399-1.504
		c0.003-0.039-0.618,0.575-1.387,1.369c-0.656,0.678-1.381,1.426-2.134,2.204c-0.769,0.793-1.394,1.462-1.396,1.494
		C27.807,19.229,28.43,18.613,29.2,17.821z"/>
	<path d="M29.104,22.684c0.616-0.608,1.233-1.217,1.85-1.825c0.786-0.776,1.464-2.086,1.519-2.926
		c0.055-0.84-0.521-0.879-1.292-0.087c-0.693,0.712-1.387,1.424-2.08,2.136c-0.771,0.792-1.418,2.031-1.425,2.769
		C27.669,23.488,28.318,23.459,29.104,22.684z"/>
	<path d="M29.237,17.423c0.774-0.781,1.47-1.478,2.074-2.08c0.783-0.78,1.452-1.893,1.473-2.494c0.021-0.601-0.059-1.009-0.157-0.91
		c-0.1,0.099-0.141,0.065-0.083-0.072c0.057-0.136-0.363,0.185-0.94,0.716c-0.352,0.324-0.701,0.645-1.046,0.961
		c-0.419,0.413-0.844,0.83-1.269,1.248c-0.701,0.689-1.315,1.876-1.366,2.65C27.869,18.217,28.459,18.207,29.237,17.423z"/>
	<path d="M31.972,32.105c-0.755,0.753-1.277,1.451-1.165,1.55c0.113,0.1,0.796-0.374,1.521-1.053
		c0.727-0.679,1.242-1.369,1.157-1.543C33.4,30.886,32.727,31.352,31.972,32.105z"/>
	<path d="M33.862,44.351c0.444,0,0.892-0.021,1.34-0.072c3.493-0.393,7.696-2.017,9.602-5.104c2.284-3.7,1.216-9.374,1.152-13.456
		c-0.008-0.525-1.942-0.174-1.932,0.518c0.046,2.957,0.267,5.884,0.041,8.841c-0.498,6.533-7.684,10.042-13.727,7.461
		c-3.132-1.337-6.288-3.068-7.824-6.216c-1.494-3.064-0.626-7.331-0.565-10.604c0.01-0.509-1.919-0.18-1.932,0.518
		c-0.093,5.025-1.017,10.429,3.23,14.003c1.683,1.416,3.587,2.54,5.614,3.253c1.042,0.366,1.853,0.589,1.79,0.67
		c-0.04,0.054-0.065,0.109-0.065,0.171c0.001,1.273,0.011,2.543,0.101,3.808c0.078,1.102-0.025,2.038-0.236,2.235
		c-0.211,0.198-0.277,0.455-0.322,0.457c-0.025,0.002-0.052,0.004-0.081,0.01c-4.426,0.959-8.861,4.197-9.951,8.754
		c-0.11,0.461,0.564,0.596,0.873,0.56c7.187-0.848,14.483-0.256,21.584-1.839c0.44-0.098,1.01-0.52,0.728-1.011
		c-2.017-3.503-4.913-5.918-8.546-6.823c-1.071-0.268-1.923-0.377-1.886-0.443c0.023-0.044,0.035-0.088,0.027-0.134
		c-0.203-1.2-0.29-2.406-0.327-3.616C32.516,45.185,33.121,44.351,33.862,44.351z M22.333,58.747
		c-0.054,0.005,0.171-0.858,0.755-1.796c0.609-0.978,1.408-1.84,2.325-2.565c0.866-0.685,0.903-0.625,0.067,0.097
		c-0.858,0.74-1.616,1.574-2.187,2.457C22.692,57.866,22.387,58.742,22.333,58.747z M23.925,58.61
		c-0.742,0.056-0.72-0.53,0.05-1.323c1.066-1.1,2.116-2.182,3.145-3.24c0.77-0.792,1.799-1.597,2.312-1.755
		c0.312-0.096,0.625-0.179,0.938-0.247c0.211-0.046,0.373-0.12,0.489-0.211c0.235-0.181,0.482-0.456,0.77-0.443
		c0.286,0.013-0.106,0.678-0.876,1.471c-1.365,1.407-2.729,2.815-4.092,4.223C25.893,57.878,24.667,58.555,23.925,58.61z
		 M32.644,53.184c0.786-0.775,2.298-1.177,3.283-0.678c1.505,0.763,2.81,1.874,3.92,3.217c0.703,0.851,0.297,1.784-0.798,1.937
		c-3.213,0.449-6.461,0.564-9.711,0.683c-1.104,0.04-1.361-0.555-0.575-1.33C30.057,55.735,31.351,54.46,32.644,53.184z"/>
</g>
</svg>
