<?xml version="1.0" encoding="iso-8859-1"?>
<!-- Generator: Adobe Illustrator 17.0.2, SVG Export Plug-In . SVG Version: 6.00 Build 0)  -->
<!DOCTYPE svg PUBLIC "-//W3C//DTD SVG 1.1//EN" "http://www.w3.org/Graphics/SVG/1.1/DTD/svg11.dtd">
<svg version="1.1" id="Capa_1" xmlns="http://www.w3.org/2000/svg" xmlns:xlink="http://www.w3.org/1999/xlink" x="0px" y="0px"
	 width="64px" height="64px" viewBox="0 0 64 64" style="enable-background:new 0 0 64 64;" xml:space="preserve">
<g>
	<path d="M22.639,42.134c0.046-0.095,0.096-0.188,0.138-0.285c0.01-0.024,0.025-0.046,0.035-0.071
		c0.013-0.032,0.019-0.066,0.032-0.099c0.384-0.929,0.589-1.904,0.591-2.867v-1.521c0.068,0.207,0.137,0.43,0.179,0.145
		c-0.031-0.856-0.096-1.741-0.179-2.634v-9.698c0-2.273,1.669-3.334,3.727-2.365l6.858,3.223c0.054,0.049,0.113,0.094,0.165,0.145
		c1.467,1.435,2.355,3.538,2.169,5.618l0.006,3.095c-0.008,0.512,0.033,1.039-0.085,1.564c-0.112,0.517-0.379,1.028-0.813,1.357
		c-0.888,0.659-2.021,0.672-3.044,0.639c-1.025-0.043-2.058,0.132-3.02,0.495c-1.926,0.726-3.566,2.208-4.473,4.069
		c-0.917,1.848-1.074,4.109-0.229,6.022c0.614,1.439,1.793,2.606,3.212,3.262c2.639,2.258,6.816,2.091,9.722-0.52
		c1.752-1.582,2.671-3.725,2.683-5.81c0-0.016,0-12.922,0-19.748c0-1.212-0.474-2.538-1.213-3.677
		c-0.57-1.17-1.388-2.178-2.381-3.001c-0.785-0.66-1.7-0.992-2.501-1.37l-2.476-1.151c-1.653-0.78-3.309-1.582-4.967-2.404
		l-2.49-1.247c-0.822-0.386-1.643-0.977-2.666-0.978c-0.494-0.009-1.006,0.15-1.394,0.478c-0.389,0.325-0.637,0.785-0.765,1.256
		c-0.135,0.472-0.14,0.976-0.136,1.438l-0.009,1.414l-0.07,5.679l-0.11,5.708c0.021,0.926-0.222,1.785-0.93,2.155
		c-0.702,0.385-1.643,0.383-2.557,0.311c-2.036-0.155-4.089,0.503-5.728,1.761c-1.605,1.22-2.834,3.051-3.259,5.093
		c-0.443,2.032-0.06,4.296,1.239,6.032c1.243,1.72,3.336,2.797,5.422,2.917c0.195,0.014,0.391,0.013,0.585,0.012
		c0.884,0.191,1.811,0.21,2.733,0.058c-0.582,0.2-1.177,0.359-1.791,0.43c0.098,0.126,0.732,0.205,1.694,0.022
		c0.964-0.183,2.214-0.65,3.431-1.593C21.016,44.709,22.021,43.494,22.639,42.134z M37.801,31.859v4.682
		c0,2.274-1.545,2.856-3.818,2.753c-1.952-0.087-4.007,0.605-5.655,2.085c-2.908,2.617-3.506,6.757-1.532,9.619
		c-0.621-0.505-1.144-1.125-1.51-1.844c-0.948-1.789-0.885-4.02-0.025-5.856c0.854-1.845,2.477-3.328,4.38-4.016
		c0.961-0.351,1.944-0.484,2.994-0.423c0.556,0.016,1.163-0.003,1.756-0.132c0.593-0.121,1.239-0.408,1.711-0.929
		c0.464-0.531,0.675-1.209,0.722-1.819c0.04-0.641,0.013-1.11,0.023-1.673l0.004-3.242V30.86l-0.009-0.228
		c-0.004-0.132-0.011-0.268-0.035-0.432c-0.034-0.321-0.097-0.601-0.17-0.888c-0.148-0.57-0.37-1.112-0.643-1.623
		c-0.1-0.185-0.212-0.362-0.325-0.54C36.926,28.402,37.801,30.219,37.801,31.859z M11.452,34.312
		c-2.593,2.335-3.35,5.888-2.078,8.662c-0.673-0.848-1.085-1.852-1.19-2.927c-0.121-1.268,0.179-2.565,0.79-3.672
		c0.964-1.784,2.739-3.042,4.598-3.45C12.823,33.265,12.105,33.725,11.452,34.312z M20.618,15.386
		c0.019-0.427,0.06-0.707,0.148-0.956c0.087-0.25,0.212-0.423,0.329-0.51c0.17-0.131,0.435-0.175,0.845-0.059
		c-0.518,0.385-0.847,1.051-0.91,1.945C20.893,15.56,20.758,15.881,20.618,15.386z"/>
</g>
</svg>
