<?xml version="1.0" encoding="utf-8"?>
<!-- Generator: Adobe Illustrator 17.0.0, SVG Export Plug-In . SVG Version: 6.00 Build 0)  -->
<!DOCTYPE svg PUBLIC "-//W3C//DTD SVG 1.1//EN" "http://www.w3.org/Graphics/SVG/1.1/DTD/svg11.dtd">
<svg version="1.1" id="Capa_1" xmlns="http://www.w3.org/2000/svg" xmlns:xlink="http://www.w3.org/1999/xlink" x="0px" y="0px"
	 width="200px" height="200px" viewBox="0 0 200 200" enable-background="new 0 0 200 200" xml:space="preserve">
<g>
	<path d="M175.723,88.349c0.937-10.149,3.498-21.917,1.358-31.992c-0.417-1.961-2.101-2.922-3.826-2.959
		c-1.746-7.126-10.968-12.364-16.269-16.862c-7.898-6.701-15.611-14.09-23.989-20.243c0.792-2.315,0.044-5.233-2.97-6.174
		C98.685,0.337,65.686,0.395,33.517,5.98c-1.473,0.256-2.063,1.453-2.011,2.673c-1.558-0.079-3.173,0.919-3.352,3.031
		C26.77,27.981,14.776,185.133,29.846,185c0.165-0.002,0.299-0.06,0.453-0.082c0.375,0.527,0.896,0.962,1.649,1.147
		c23.112,5.702,47.31,7.823,70.992,9.516c20.42,1.46,48.422,5.357,67.684-3.325c2.115-0.953,2.318-3.12,1.478-4.85
		c3.273-3.016,0.762-10.106,0.341-13.637c-1.606-13.453-1.12-27.04-0.392-40.535C172.857,118.244,174.342,103.295,175.723,88.349z
		 M102.939,186.241c-23.436-1.421-46.693-5.091-70.117-6.471c-0.275-0.496-0.643-0.957-1.208-1.297
		c2.574,1.548,1.267-0.008,1.056-3.477c-0.31-5.084-0.013-10.255,0.101-15.341c0.321-14.211,0.205-28.424,0.202-42.638
		c-0.006-35.049,4.176-70.335,1.518-105.333c-0.004-0.039-0.023-0.064-0.027-0.103c30.928-0.308,60.688-1.662,90.72,6.913
		c0.111,0.294,0.274,0.598,0.496,0.908c6.061,8.493,14.762,15.202,22.649,21.931c3.979,3.395,7.953,6.795,11.865,10.269
		c3.041,2.702,4.944,5.185,8.628,6.023c-2.099,9.817-1.641,20.759-2.547,30.722c-1.498,16.453-3.087,32.893-3.883,49.399
		c-0.095,1.973,0.246,36.289,4.837,47.219C145.842,184.645,124.609,187.555,102.939,186.241z"/>
	<g>
		<path d="M99.013,51.579c0.067-0.028,0.119-0.032,0.185-0.058C99.194,51.51,99.148,51.523,99.013,51.579z"/>
		<path d="M101.665,88.103C101.653,88.106,101.785,88.178,101.665,88.103L101.665,88.103z"/>
		<path d="M105.31,86.039c-0.054-0.105-0.098-0.136-0.148-0.204c0.082-0.276,0.155-0.553,0.198-0.852
			c0.236-1.649-0.166-3.374-0.254-5.037c-0.237-4.429-0.265-8.875-0.19-13.31c0.062-3.727,2.297-18.289-5.718-15.114
			c0.025,0.064-1.996,1.226-2.492,2.071c-0.821,1.403-0.683,3.188-0.695,4.756c-0.038,4.598,0.025,9.193,0.26,13.784
			c0.208,4.033,0.756,8.131,1.998,11.981c0.434,1.342,1.194,2.69,2.45,3.425c0.614,0.36,0.854,0.505,0.946,0.564
			c0.013-0.004,0.199,0.078,1.058,0.522C104.268,89.422,106.493,87.692,105.31,86.039z"/>
	</g>
	<path d="M154.97,96.444c-9.847-14.562-29.574-48.022-49.816-47.508c-3.882,0.099-5.839,5.699-2.066,7.63
		c14.036,7.184,23.733,18.237,33.494,30.455c3.009,3.767,5.812,7.694,8.59,11.631c-0.299-0.423-9.231,8.562-11.683,11.037
		c-4.611-5.605-10.469-10.469-14.925-16.276c-5.406-7.045-10.171-14.536-14.923-22.027c-1.159-1.826-3.835-0.235-2.88,1.684
		c4.33,8.688,9.71,16.827,15.352,24.711c3.69,5.155,7.869,12.126,13.144,16.268c-3.861,3.937-7.715,7.881-11.5,11.887
		c-3.082-5.96-9.263-12.004-12.529-16.5c-3.77-5.193-7.954-12.607-12.98-17.936c2.042-0.419,4.121-0.581,6.21-0.596
		c3.068,5.469,6.398,10.666,10.158,15.765c2.858,3.875,7.576,13.004,13.41,12.146c2.062-0.303,2.262-3.444,0.567-4.335
		c-0.592-0.31-3.054-3.326-3.996-4.315c-2.783-2.918-5.338-6.045-7.949-9.115c-2.978-3.501-6.021-6.882-9.089-10.249
		c1.767-0.58,2.177-3.436,0.388-4.424c-33.866-18.702-61.36,38.34-49.566,65c1.555,3.514,6.288,2.54,8.084,0
		c5.237-7.409,10.744-14.492,17.004-21.065c5.847-6.139,12.2-8.484,18.97-12.002c-0.908,11.471-1.066,30.224,8.163,28.156
		c0.215-0.048,0.363-0.184,0.552-0.268c1.173,0.608,2.666,0.595,3.978-0.588c15.521-14.008,30.294-28.745,45.106-43.493
		C155.655,100.704,156.136,98.169,154.97,96.444z M58.145,138.464c-0.582-4.014-0.354-8.091,0.46-12.092
		c0.793,2.432,1.741,4.947,3.527,6.597c0.017,0.016,0.04,0.023,0.057,0.038C60.754,134.88,59.398,136.721,58.145,138.464z
		 M65.56,128.764c-0.595-1.646-1.483-3.15-2.312-4.819c-0.837-1.684-1.587-3.41-2.312-5.145c0.575-1.396,1.247-2.757,1.961-4.099
		c0.712,4.633,2.006,9.407,4.197,12.235C66.577,127.543,66.063,128.152,65.56,128.764z M70.962,122.618
		c-1.128-1.976-2.254-5.002-2.622-6.031c-0.856-2.402-1.51-4.892-2.006-7.412c1.607-2.233,3.409-4.328,5.359-6.255
		c0.939,2.136,1.858,4.275,2.924,6.356c0.897,1.752,2.285,4.464,4.094,6.232C76.047,117.566,73.447,119.999,70.962,122.618z
		 M83.324,112.405c-1.02-0.998-2.143-1.943-3.032-3.114c-1.888-2.488-3.418-5.269-5.016-7.946c-0.126-0.21-0.357-0.603-0.655-1.081
		c1.139-0.954,2.329-1.826,3.544-2.658c1.862,2.735,3.72,5.473,5.599,8.196c1.006,1.458,2.014,3.246,3.191,4.845
		C85.74,111.127,84.529,111.716,83.324,112.405z M97.381,109.764c-1.457-0.397-2.932-0.521-4.411-0.456
		c-1.437-2.27-3.603-4.437-5.333-6.494c-2.038-2.423-4.05-4.866-6.069-7.305c1.664-0.925,3.381-1.717,5.133-2.388
		c3.356,5.528,7.224,10.875,10.956,16.203C97.565,109.472,97.447,109.607,97.381,109.764z M106.437,138.109
		c-0.021-0.133-0.039-0.266-0.06-0.399c-0.459-2.842-0.693-5.698-0.892-8.569c-0.179-2.584-0.294-5.173-0.424-7.762
		c2.117,3.78,4.616,7.84,7.373,10.28C110.437,133.811,108.414,135.937,106.437,138.109z"/>
	<path d="M138.9,94.253c-0.349-0.632-0.867-0.998-1.432-1.229c-0.204-0.219-0.484-0.51-0.945-1.004
		c-1.099-1.175-2.315-2.253-3.416-3.436c-3.338-3.583-6.566-7.266-9.789-10.951c-3.206-3.665-6.399-7.338-9.506-11.088
		c-1.01-1.219-2.027-2.431-3.042-3.646c-0.859-1.027-1.256-1.215-1.504-1.072c-0.034-0.451-0.294-0.898-0.833-1.116
		c-0.404-0.164-0.744-0.064-1.124,0.104c-0.405,0.178-0.583,0.663-0.611,1.067c-0.079,1.102-0.153,0.888,0.295,1.964
		c0.821,1.971,2.053,3.691,3.285,5.426c4.122,5.803,8.452,11.461,12.856,17.052c3.11,3.947,6.176,8.729,10.095,11.908
		C136.457,100.848,141.25,98.522,138.9,94.253z"/>
</g>
</svg>
