<?xml version="1.0" encoding="iso-8859-1"?>
<!-- Generator: Adobe Illustrator 17.0.2, SVG Export Plug-In . SVG Version: 6.00 Build 0)  -->
<!DOCTYPE svg PUBLIC "-//W3C//DTD SVG 1.1//EN" "http://www.w3.org/Graphics/SVG/1.1/DTD/svg11.dtd">
<svg version="1.1" id="Capa_1" xmlns="http://www.w3.org/2000/svg" xmlns:xlink="http://www.w3.org/1999/xlink" x="0px" y="0px"
	 width="64px" height="64px" viewBox="0 0 64 64" style="enable-background:new 0 0 64 64;" xml:space="preserve">
<g>
	<path d="M25.586,53.353c6.932-0.271,13.47-2.402,16.455-9.148c2.342-5.292,1.757-11.767-2.663-15.309
		c-0.862-0.69-1.553-1.14-1.43-1.229c0.084-0.061,0.147-0.128,0.18-0.203c0.902-2.039,9.715-19.41,1.407-18.852
		c-2.907,0.195-4.58,3.836-5.769,6.025c-0.928,1.708-1.766,3.477-2.537,5.273c-0.436,1.015-1.156,1.059-1.646,0.092
		c-0.296-0.583-0.597-1.164-0.903-1.742c-1.679-3.169-3.685-7.501-6.906-9.376c-1.827-1.063-3.451,0.935-3.643,2.547
		c-0.38,3.191,2.328,6.908,3.611,9.649c0.709,1.514,1.405,3.033,2.091,4.557c0.454,1.007,0.151,2.708,0.649,3.694
		c0.785,1.553,3.482,3.116,5.628,4.171c0.991,0.487,1.011,1.276,0.238,2.065c-0.538,0.55-0.983,1.175-1.346,1.854
		c-0.522,0.974-0.889,0.956-1.193-0.107c-0.915-3.199-2.803-6.652-4.036-7.916c-1.472-1.509-3.03-1.793-4.945-0.823
		c-1.689,0.856-2.67,2.332-2.999,4.026c-0.211,1.085-1.003,2.208-1.859,2.906c-1.75,1.428-2.689,4.064-2.412,6.491
		C12.403,49.381,18.38,53.635,25.586,53.353z M33.017,19.886c0.011-0.01,0.017-0.014,0.028-0.025
		c0.366-0.375,0.61-0.782,0.546-0.911c-0.029-0.059-0.087-0.079-0.151-0.078c1.841-4.355,4.433-9.758,5.779-9.226
		c4.59,1.812,0.432,11-1.879,15.77c-0.482,0.994-1.7,1.445-2.758,1.127c-0.015-0.004-0.03-0.009-0.045-0.013
		c0.172-0.026,0.322-0.08,0.41-0.162c0.181-0.167-0.172-0.357-0.785-0.303c-0.234,0.02-0.424,0.068-0.585,0.117
		c-0.747-0.336-1.394-0.798-1.605-1.239c0.127-0.076,0.265-0.175,0.412-0.313c0.394-0.369,0.654-0.795,0.582-0.951
		c-0.072-0.157-0.455,0.011-0.846,0.382c-0.112,0.106-0.208,0.215-0.293,0.323c-0.082-0.678,0.038-1.628,0.345-2.408
		C32.414,21.366,32.702,20.65,33.017,19.886z M20.771,10.139c0.028,0.02,0.053,0.045,0.08,0.066
		c-0.313,0.138-0.555,0.413-0.707,0.708C20.309,10.355,20.633,10.038,20.771,10.139z M24.768,22.955
		c0.149-0.051,0.305-0.135,0.458-0.286c0.413-0.408,0.615-1.029,0.452-1.389c-0.163-0.36-0.628-0.311-1.035,0.109
		c-0.152,0.157-0.264,0.344-0.35,0.532c-0.169-0.365-0.335-0.732-0.505-1.097c0.119-0.118,0.253-0.254,0.406-0.411
		c0.405-0.417,0.728-0.766,0.721-0.78c-0.006-0.014-0.34,0.313-0.745,0.73c-0.152,0.157-0.285,0.296-0.401,0.42
		c-0.031-0.066-0.06-0.132-0.091-0.197c0.132-0.089,0.276-0.203,0.429-0.358c0.407-0.412,0.607-1.024,0.443-1.367
		c-0.163-0.343-0.629-0.293-1.04,0.111c-0.153,0.15-0.272,0.308-0.372,0.461c-0.376-0.8-0.757-1.598-1.139-2.395
		c0.113,0.111,0.501-0.103,0.912-0.515c0.434-0.436,0.722-0.921,0.645-1.085c-0.077-0.164-0.497,0.063-0.937,0.504
		c-0.414,0.415-0.682,0.858-0.644,1.042c-0.214-0.447-0.423-0.897-0.638-1.343c-0.169-0.349-0.351-0.751-0.529-1.17
		c0.185,0.084,0.543-0.077,0.908-0.442c0.453-0.453,0.733-1.031,0.641-1.295c-0.093-0.264-0.536-0.113-1,0.341
		c-0.379,0.372-0.634,0.82-0.662,1.119c-0.305-0.756-0.57-1.572-0.639-2.37c0-0.004,0-0.008,0-0.012
		c0.164,0.179,0.537,0.077,0.931-0.306c0.22-0.214,0.36-0.537,0.4-0.818c0.443,0.431,0.841,0.915,1.224,1.394
		c2.449,3.066,4.38,6.685,6.085,10.336c0.468,1,0.828,1.85,0.844,1.885c0.015,0.036,0.186,0.371,0.359,0.761
		c0.174,0.391-0.581,0.643-1.667,0.789c-0.474,0.063-0.965,0.004-1.409-0.16c0.363-0.427,0.593-0.85,0.52-1.01
		c-0.086-0.188-0.493-0.016-0.91,0.384c-0.095,0.091-0.18,0.185-0.257,0.279c-0.287-0.214-0.528-0.485-0.681-0.822
		C25.254,24.002,25.008,23.48,24.768,22.955z M27.623,44.403c0.015,0.494,0.047,0.981,0.097,1.456
		c0.08,0.774,2.019,0.322,1.932-0.518c-0.221-2.135-0.163-4.749,0.69-6.898c0.225-0.113,0.512-0.327,0.811-0.626
		c0.548-0.548,0.956-1.106,0.91-1.245c-0.033-0.1-0.062-0.185-0.085-0.251c-0.008-0.025-0.018-0.05-0.026-0.075
		c-0.013-0.036-0.311,0.197-0.688,0.532c0.57-0.774,1.312-1.412,2.262-1.848c-0.01,0.025-0.037,0.064-0.032,0.076
		c0.039,0.109,0.269-0.021,0.547-0.258c0.042-0.036,0.105-0.09,0.161-0.139c0.051-0.037,0.1-0.08,0.148-0.128
		c0.306-0.268,0.709-0.631,1.029-0.959c0.447-0.457,0.743-0.856,0.66-0.891c-0.083-0.034-0.703,0.44-1.384,1.058
		c-0.049,0.045-0.09,0.086-0.137,0.131c-0.037-0.04-0.086-0.075-0.154-0.105c-0.7-0.305-3.031-1.166-5.014-2.269
		c-0.043-0.094-0.159-0.292-0.313-0.509c-0.208-0.292-0.486-0.43-0.602-0.322c-0.074,0.069-0.032,0.199,0.081,0.336
		c-0.518-0.328-0.982-0.672-1.355-1.025c0.058-0.029,0.116-0.055,0.172-0.107c0.16-0.15,0.243-0.316,0.188-0.372
		c-0.034-0.034-0.067-0.068-0.104-0.099c-0.019-0.016-0.036-0.027-0.053-0.039c-0.03-0.02-0.178,0.086-0.332,0.24
		c-0.049,0.049-0.071,0.101-0.1,0.152c-0.003-0.003-0.007-0.007-0.011-0.01c-0.749-0.812-0.423-1.863-0.283-1.996
		c0.14-0.132,0.955-0.726,2.059-0.703c0.085,0.001,0.171,0.005,0.258,0.009c1.103,0.056,2.087,0.332,2.24,0.357
		c0.152,0.025,0.913,0.147,1.687,0.352c0.648,0.171,1.155,0.321,1.398,0.385c10.039,2.607,8.463,16.718,1.352,21.634
		c-2.159,1.493-4.702,2.321-7.281,2.543c0.115-0.031,0.058-0.076-0.195-0.123c-0.36-0.067-0.721-0.062-0.809,0.027
		c-0.078,0.079-0.091,0.136-0.05,0.151c-1.318,0.029-2.63-0.101-3.895-0.381c0.563,0.043,1.081-0.067,1.264-0.261
		c0.237-0.253,0.097-0.6-0.3-0.801c-0.398-0.202-0.88-0.444-1.09-0.52c-0.21-0.076-0.671,0.137-1.034,0.481
		c-0.293,0.278-0.16,0.65,0.287,0.882c-2.883-0.812-5.44-2.429-7.089-4.773c0.144-0.089,0.308-0.216,0.476-0.387
		c0.391-0.398,0.648-0.814,0.576-0.933c-0.071-0.119-0.457,0.089-0.863,0.466c-0.179,0.166-0.322,0.337-0.427,0.492
		c-0.334-0.519-0.625-1.072-0.867-1.657c0.192-0.013,0.425-0.118,0.653-0.323c0.426-0.383,0.662-0.968,0.552-1.313
		c-0.109-0.345-0.539-0.294-0.982,0.119c-0.229,0.214-0.408,0.474-0.514,0.721c-0.416-1.294-0.612-2.725-0.515-4.296
		c0.006-0.101,0.02-0.2,0.032-0.3c0.121,0.036,0.301-0.032,0.506-0.224c0.236-0.222,0.472-0.443,0.712-0.668
		c0.121-0.125,0.241-0.248,0.361-0.372c0.199-0.205,0.521-1.298,1.198-2.171c0.054-0.069,0.115-0.13,0.172-0.195
		c0.526-0.063,1.102,0.021,1.718,0.304c1.703,0.782,3.928,4.346,4.787,5.994c0.077,0.148,0.139,0.285,0.19,0.414
		c0.092,0.234,0.086,0.488,0.099,0.564c0.013,0.076-0.062,1.322-1.162,1.226c-0.807-0.07-1.808-0.574-2.388-1.333
		c-0.702-0.917-1.293-1.97-1.81-3c-0.379-0.757-2.273-0.164-1.932,0.518c1.377,2.746,4.075,7.774,7.696,5.37
		c0.432-0.287,0.759-0.614,0.996-0.972c0.427-0.646,1.089-1.201,1.802-1.384C27.218,43.429,27.599,43.597,27.623,44.403z
		 M17.787,32.527c0.377-2.291,1.72-4.502,3.923-2.638c2.158,1.827,3.249,4.797,4.141,7.383c0.201,0.582,0.837,2.473,0.812,3.822
		c-0.113,0.044-0.25,0.131-0.394,0.264c-0.246,0.228-0.424,0.453-0.468,0.573c-0.481-0.23-1.038-0.803-1.309-1.352
		c-0.506-1.025-1.237-2.033-2.035-2.922c0.22-0.004,0.473-0.101,0.701-0.31c0.395-0.362,0.521-0.864,0.273-1.111
		c-0.249-0.247-0.754-0.164-1.117,0.174c-0.23,0.214-0.345,0.482-0.353,0.722c-1.108-1.129-2.284-2-3.154-2.327
		c-0.153-0.058-0.303-0.101-0.452-0.142c0.322-0.163,0.589-0.305,0.725-0.446c0.361-0.373,0.613-0.683,0.561-0.695
		c-0.052-0.011-0.123-0.27-0.128-0.581c-0.004-0.312-0.622,0.068-1.405,0.847c-0.082,0.082-0.158,0.158-0.241,0.239
		C17.75,33.64,17.692,33.107,17.787,32.527z M15.775,36.111c-0.536,0.533-1.092,1.087-1.616,1.608
		c-0.029,0.031-0.058,0.061-0.086,0.092C14.465,37.036,15.05,36.42,15.775,36.111z"/>
	<path d="M20.534,41.917c0.314-0.318,0.539-0.619,0.504-0.671c-0.036-0.052-0.307,0.13-0.607,0.408
		c-0.3,0.278-0.527,0.579-0.505,0.671C19.949,42.417,20.221,42.234,20.534,41.917z"/>
	<path d="M34.162,20.574c0.037-0.091-0.398,0.309-0.973,0.892c-0.575,0.583-0.604,0.657-0.066,0.166S34.125,20.666,34.162,20.574z"
		/>
	<path d="M36.838,12.944c0.793-0.769,1.449-1.421,1.469-1.455c0.02-0.034-0.602,0.567-1.388,1.343
		c-0.146,0.144-0.291,0.287-0.437,0.431c-0.786,0.776-0.779,0.783,0.014,0.014C36.61,13.166,36.724,13.055,36.838,12.944z"/>
	<path d="M19.956,40.213c0.163-0.149,0.187-0.466,0.054-0.708c-0.081-0.146-0.16-0.293-0.233-0.44
		c-0.015-0.029-0.035-0.053-0.057-0.074c-0.038-0.037-0.092,0.285-0.088,0.715C19.636,40.136,19.794,40.363,19.956,40.213z"/>
	<path d="M32.371,32.355c0.018,0.035,0.246-0.14,0.511-0.391c0.265-0.251,0.446-0.47,0.404-0.489
		c-0.042-0.019-0.272,0.156-0.512,0.391C32.534,32.101,32.354,32.32,32.371,32.355z"/>
	<path d="M24.017,38.341c-0.273,0.25-0.477,0.457-0.456,0.462c0.02,0.005,0.241-0.198,0.493-0.453
		C24.306,38.095,24.29,38.091,24.017,38.341z"/>
	<path d="M35.269,17.585c0.118-0.12,0.308-0.439,0.427-0.713c0.119-0.274-0.021-0.268-0.315,0.014
		c-0.294,0.282-0.485,0.601-0.429,0.714C35.009,17.712,35.151,17.706,35.269,17.585z"/>
	<path d="M30.256,45.234c0.328-0.018,0.719-0.286,0.894-0.474c0.176-0.188,0.322-0.361,0.329-0.386
		c0.004-0.015,0.008-0.031,0.006-0.047c-0.027-0.257-0.049-0.522-0.066-0.792c-0.028-0.438-0.053-0.793-0.076-0.792
		c-0.022,0-0.09,0.659-0.517,1.304c-0.237,0.358-0.565,0.685-0.996,0.972c-0.024,0.016-0.046,0.027-0.069,0.039
		C29.723,45.077,29.928,45.251,30.256,45.234z"/>
	<path d="M20.492,50.185c0.314-0.314,0.306-0.321-0.01-0.009C20.166,50.489,20.178,50.5,20.492,50.185z"/>
	<path d="M18.448,48.647c-0.389,0.357-0.465,0.85-0.154,1.082c0.311,0.232,0.874,0.105,1.242-0.264
		c0.369-0.369,0.422-0.833,0.132-1.053C19.377,48.194,18.838,48.29,18.448,48.647z"/>
</g>
</svg>
