<?xml version="1.0" encoding="iso-8859-1"?>
<!-- Generator: Adobe Illustrator 17.0.2, SVG Export Plug-In . SVG Version: 6.00 Build 0)  -->
<!DOCTYPE svg PUBLIC "-//W3C//DTD SVG 1.1//EN" "http://www.w3.org/Graphics/SVG/1.1/DTD/svg11.dtd">
<svg version="1.1" id="Capa_1" xmlns="http://www.w3.org/2000/svg" xmlns:xlink="http://www.w3.org/1999/xlink" x="0px" y="0px"
	 width="64px" height="64px" viewBox="0 0 64 64" style="enable-background:new 0 0 64 64;" xml:space="preserve">
<g>
	<path d="M36.959,31.273c-0.552,0.036-1.419-0.137-1.488-0.685c-0.135-1.079,0.294-2.922,0.232-3.419
		c-0.155-1.256-0.474-2.259-1.094-3.347c-1.078-1.894-3.447-2.638-5.478-2.667c-1.964-0.028-3.683,0.893-5.122,2.141
		c-0.904,0.784-1.42,1.961-1.819,3.05c-0.957,2.608-0.349,2.073-3.083,0.972c-3.975-1.601-12.809,1.612-9.307,7.155
		c1.037,1.64,2.319,2.7,3.896,3.78c2.41,1.652-1.191,4.399-1.897,5.72c-1.35,2.525,0.107,5.293,2.021,6.966
		c1.752,1.533,4.129,1.868,6.357,1.724c1.262-0.081,2.467-0.682,3.545-1.276c2.038-1.125,2.224,1.233,3.666,2.267
		c2.433,1.744,5.012,2.366,7.88,1.419c2.148-0.71,4.318-3.412,3.693-5.78c-0.172-0.649-2.468-4.667-0.585-4.76
		c1.362-0.067,2.688-0.615,3.854-1.275c1.836-1.041,2.913-2.857,3.367-4.863C46.837,32.928,41.292,30.988,36.959,31.273z
		 M33.74,27.967c-0.028,0.532-0.431,1.265-0.836,1.64c-0.426,0.396-0.852,0.792-1.279,1.188c-0.404,0.376-0.672,0.493-0.585,0.264
		c0.05-0.132,0.104-0.269,0.165-0.412c0.153-0.359,0.35-0.793,0.538-1.265c0.206-0.512,0.439-1.033,0.562-1.147
		c0.122-0.114,0.062-0.021,0.473-0.391c0.057-0.051,0.117-0.106,0.183-0.165C33.369,27.309,33.768,27.435,33.74,27.967z
		 M17.983,29.288c0.253-0.119,0.49-0.229,0.524-0.263c0.033-0.035,0.168-0.009,0.299,0.056c0.077,0.038,0.154,0.078,0.232,0.125
		c1.43,0.865,0.926,0.763,2.258,1.113c1.883,0.494,2.402-1.768,2.559-3.046c0.004-0.029,0.01-0.055,0.016-0.081
		c0.011-0.044,0.337-0.396,0.729-0.784c1.026-1.013,2.053-2.026,3.079-3.039c0.393-0.388,1.163-0.737,1.709-0.656
		c0.45,0.066,0.893,0.194,1.317,0.385c0.504,0.226,0.855,0.508,0.843,0.52c-0.012,0.012-0.004,0.016,0.018,0.011
		c0.022-0.005,0.41,0.248,0.78,0.659c0.281,0.313,0.532,0.67,0.746,1.071c0.261,0.487,0.142,1.167-0.176,1.476
		c-0.316,0.308-0.482,0.109-0.534-0.441c-0.076-0.793-0.456-1.493-1.376-1.932c-4.021-1.921-4.911,1.465-5.707,4.517
		c-0.14,0.534-0.356,1.059-0.476,1.174c-0.12,0.115-0.159,0.248-0.086,0.296c0.072,0.048,0.01,0.518-0.21,1.025
		c-0.151,0.351-0.322,0.656-0.52,0.896c-0.352,0.426-0.756,0.486-0.682,0.411c0.073-0.076-0.011-0.259-0.193-0.404
		c-0.183-0.145-0.446-0.147-0.581-0.012c-0.136,0.135-0.608-0.018-1.049-0.35c-0.903-0.68-1.979-1.5-3.064-2.079
		C17.951,29.675,17.73,29.406,17.983,29.288z M18.572,31.935c0.964,0.759,1.776,1.544,2.928,2.176
		c0.037,0.021,0.078,0.036,0.122,0.048c0.07,0.02,0.165,0.037,0.206,0.052c0.022,0.008,0.046,0.016,0.076,0.021
		c2.208,0.339,3.685-0.532,4.501-2.302c0.23-0.501,0.397-1.252,0.46-1.64c0.064-0.388,0.029-1.155,0.123-1.699
		c0.163-0.949,0.885-0.916,2.165,0.099c0.433,0.343,0.589,1.069,0.344,1.563c-0.261,0.525-0.531,1.048-0.693,1.611
		c-0.507,1.761-0.471,2.76,0.553,4.252c0.502,0.731,2.025,0.724,2.702,0.612c0.73-0.121,1.356-0.236,2.017-0.372
		c0.541-0.111,1.177,0.192,1.423,0.687c0.124,0.25,0.248,0.5,0.373,0.75c0.245,0.495-0.002,0.865-0.554,0.834
		c-0.556-0.031-1.111-0.057-1.668-0.078c-3.124-0.14-5.01,1.806-3.743,4.849c0.352,0.845,1.129,1.758,1.662,2.492
		c0.25,0.416,0.499,0.832,0.748,1.248c0.284,0.474,0.225,1.205-0.214,1.541c-0.961,0.736-1.622,0.482-1.984-0.763
		c-0.155-0.53-0.379-1.388-0.583-1.901c-0.546-1.371-1.115-2.873-2.378-3.646c-3.109-1.902-5.806,1.547-7.407,3.658
		c-2.015,2.655-1.762-2.659-0.142-3.752c0.699-0.472,1.529-0.981,2.114-1.6c1.116-1.183,0.988-2.481,0.357-3.805
		c-0.486-1.021-2.318-1.543-3.301-1.958c-0.18-0.069-0.358-0.139-0.537-0.208c-0.297-0.115-0.987-0.265-1.502-0.463
		c-1.183-0.456-1.108-1.225,0.221-2.307C17.389,31.586,18.138,31.594,18.572,31.935z M35.552,40.688
		c-0.71,0.712-1.424,1.43-2.138,2.149c-0.389,0.392-0.807,0.266-0.766-0.285c0.109-1.459,1.121-2.684,2.967-2.574
		c0.104,0.006,0.211,0.009,0.321,0.009C36.114,39.988,35.941,40.297,35.552,40.688z M14.104,35.332
		c-0.291,0.301-0.75,0.375-1.011,0.15c-0.262-0.225-0.229-0.661,0.058-0.956s0.7-0.316,0.97-0.099
		C14.39,34.644,14.394,35.032,14.104,35.332z M13.574,31.126c-0.079,0.186-0.143,0.359-0.193,0.525
		c-0.09,0.295-0.448,0.858-0.842,1.246c-0.068,0.067-0.136,0.134-0.204,0.201c-0.393,0.388-0.944,0.309-1.07-0.229
		c-0.08-0.34-0.107-0.682-0.087-1.017c0.034-0.551,0.524-1.286,0.924-1.667c0.382-0.364,0.764-0.729,1.145-1.095
		c0.398-0.383,1.146-0.849,1.695-0.914c0.385-0.046,0.791-0.049,1.216-0.002c0.549,0.062,0.789,0.383,0.553,0.615
		c-0.235,0.232-0.89,0.355-1.415,0.524C14.614,29.532,14.019,30.087,13.574,31.126z M13.243,46.671
		c-0.36-2.696,2.865-4.989,4.392-7.16c0.097-0.137,0.084-0.359-0.025-0.485c-0.027-0.031-0.057-0.06-0.086-0.089
		c-0.049-0.047,0.003-0.18,0.114-0.294c0.11-0.114,0.023-0.337-0.19-0.508c-0.212-0.171-0.457-0.239-0.554-0.143
		c-0.098,0.097-0.517-0.116-0.96-0.444c-0.235-0.173-0.474-0.341-0.714-0.508c-0.454-0.314-0.63-0.757-0.393-0.992
		c0.237-0.234,0.357-0.56,0.281-0.735c-0.076-0.175-0.042-0.272,0.064-0.211c0.061,0.036,0.125,0.071,0.193,0.106
		c1.342,0.696,2.8,1.095,4.147,1.808c3.763,1.992-2.522,5.263-3.252,6.02c-0.619,0.643-0.971,1.381-1.103,2.112
		c-0.099,0.544-0.375,1.3-0.778,1.677c-0.043,0.039-0.085,0.079-0.128,0.119C13.85,47.321,13.316,47.218,13.243,46.671z
		 M14.703,49.253c-0.143-0.142-0.279-0.288-0.408-0.435c-0.026-0.03-0.048-0.06-0.069-0.09c-0.036-0.052,0.229-0.361,0.593-0.691
		c0.365-0.331,0.804-0.311,1.07-0.025c0.267,0.286,0.257,0.716-0.102,1.048C15.43,49.391,14.936,49.486,14.703,49.253z
		 M36.899,52.65c-0.484,1.333-1.974,2.108-5.314,1.402c-0.124-0.026-0.242-0.06-0.357-0.097c-0.194-0.063-0.232-0.246-0.087-0.396
		c0.144-0.151,0.066-0.524-0.141-0.857c-0.126-0.202-0.241-0.409-0.341-0.623c-0.015-0.032-0.029-0.061-0.045-0.088
		c-0.026-0.048-0.298,0.163-0.606,0.473c-0.308,0.311-0.911,0.285-1.293-0.114c-0.887-0.928-1.592-2.059-2.488-3.033
		c-0.331-0.359-0.9-0.257-1.3-0.098c-1.691,0.676-1.039,0.612-3.018,1.704c-1.887,1.041-3.916,0.625-5.573-0.382
		c-0.472-0.287-0.529-0.866-0.168-1.232c0.36-0.365,1.078-0.479,1.631-0.482c0.519-0.003,1.095-0.148,1.717-0.479
		c0.762-0.405,1.3-1.196,1.826-1.845c0.492-0.673,1.008-1.328,1.548-1.963c1.223-1.494,2.18-1.562,2.93-1.012
		c0.445,0.327,0.354,1.029-0.053,1.403c-1.28,1.181-2.244,2.08-2.766,2.581c-0.398,0.383-0.473,0.526-0.881,0.898
		c-0.023,0.021-0.047,0.044-0.071,0.065c-0.407,0.372-0.558,0.853-0.293,1.012c0.265,0.159,0.828-0.098,1.218-0.489
		c1.053-1.056,2.151-2.159,3.279-3.29c0.391-0.391,0.913-0.31,1.127,0.199c0.257,0.613,0.456,1.188,0.608,1.546
		c0.818,1.929,1.685,4.013,3.983,4.132c0.623,0.032,1.424-0.34,2.014-0.86c0.414-0.366,0.942-1.091,1.327-1.487
		c0.101-0.104,0.203-0.209,0.306-0.315c0.384-0.396,0.874-0.305,1.047,0.22c0.104,0.319,0.195,0.642,0.266,0.963
		c0.118,0.539-0.118,1.261-0.444,1.595c-0.325,0.335-0.56,0.623-0.525,0.645c0.021,0.013,0.043,0.026,0.065,0.037
		c0.046,0.021,0.094,0.035,0.142,0.045c0.081,0.017,0.319-0.151,0.532-0.367C36.911,51.846,37.089,52.131,36.899,52.65z
		 M34.701,46.247c0.205-0.207,0.384-0.349,0.398-0.315c0.009,0.02,0.018,0.04,0.031,0.06c0.082,0.12,0.168,0.253,0.257,0.398
		c0.138,0.224,0.048,0.604-0.19,0.844c-0.238,0.239-0.507,0.19-0.631-0.098C34.444,46.849,34.495,46.454,34.701,46.247z
		 M43.718,38.279c-0.015,0.227-0.355,0.727-0.744,1.12c-0.244,0.246-0.488,0.492-0.73,0.736c-0.389,0.392-0.409,0.713-0.047,0.69
		c0.362-0.023,0.385,0.294-0.041,0.646c-1.507,1.245-3.846,1.65-5.861,2.096c-0.602,0.133-1.122,0.604-1.316,1.168
		c-0.181,0.522-0.147,1.15-0.35,1.363c-0.202,0.213-0.381,0.356-0.4,0.318c-0.011-0.023-0.022-0.046-0.034-0.07
		c-0.104-0.207-0.219-0.406-0.347-0.598c-0.21-0.319-0.105-0.883,0.271-1.287c0.046-0.049,0.093-0.099,0.139-0.148
		c0.377-0.404,0.664-0.785,0.642-0.852c-0.015-0.04-0.027-0.081-0.039-0.122c-0.301-1.063,0.639-2.526,1.738-2.628
		c0.17-0.016,0.347-0.026,0.527-0.032c0.292-0.009,0.746-0.237,1.013-0.522c0.267-0.286,0.345-0.488,0.174-0.469
		c-0.17,0.019,0.13-0.069,0.648-0.262c1.068-0.397,1.973-0.99,2.301-1.727c0.224-0.505,0.093-0.987,0.104-1
		c0.012-0.012,0.011-0.021-0.004-0.019c-0.014,0.003-0.155-0.438-0.509-0.862c-0.285-0.342-0.692-0.698-1.242-1.067
		c-1.118-0.749-3.394-0.301-5.379-0.116c-0.55,0.052-0.804-0.118-0.565-0.345c0.239-0.227,0.46-0.505,0.497-0.62
		c0.037-0.115-0.215,0.071-0.565,0.414c-0.351,0.343-1.089,0.644-1.63,0.534c-0.315-0.064-0.588-0.168-0.807-0.326
		c-0.447-0.323-0.198-1.127,0.207-1.502c0.438-0.406,0.875-0.812,1.312-1.218c0.405-0.375,0.674-0.2,0.922,0.293
		c0.114,0.225,0.286,0.411,0.536,0.549c0.484,0.266,1.069,0.288,1.209,0.292c0.073,0.002,0.157-0.004,0.253-0.02
		c3.355-0.564,6.8,0.218,7.82,3.251c0.177,0.523,0.185,0.942,0.126,0.906c-0.058-0.036-0.417,0.27-0.796,0.671
		c-0.809,0.857-1.604,1.7-2.388,2.529c-0.379,0.401-0.591,0.732-0.474,0.739c0.118,0.007,0.527-0.305,0.916-0.697
		c0.74-0.747,1.466-1.48,2.175-2.196c0.389-0.392,0.722-0.558,0.735-0.368c0.008,0.113,0.013,0.228,0.014,0.346
		C43.729,38.009,43.726,38.146,43.718,38.279z"/>
	<path d="M54.255,16.153c-1.465-0.099-1.188-2.947-2.072-3.951c-0.631-0.716-1.729-0.798-2.605-0.789
		c-0.784,0.008-1.852,0.339-2.473,0.823c-0.771,0.602-1.325,2.124-2.272,1.947c-1.97-0.367-4.646,0.361-5.329,2.447
		c-0.613,1.869,3.316,3.135,2.032,4.763c-0.83,1.053-1.597,2.401-0.593,3.674c0.896,1.136,2.006,1.573,3.427,1.619
		c1.69,0.055,2.271-0.902,3.818,0.502c1.358,1.233,4.579,1.21,5.755-0.357c0.355-0.471,0.813-0.955,0.732-1.622
		c-0.136-1.107-0.853-2.349,0.673-2.856c0.9-0.299,1.565-0.953,2.088-1.709C59.117,18.212,56.451,16.221,54.255,16.153z
		 M52.691,16.97c0.092,0.013,0.202,0.027,0.246,0.031c0.024,0.002,0.052,0.004,0.081,0.005c0.696,0.022,1.314,0.279,1.802,0.669
		c0.432,0.345,0.614,0.793,0.545,0.862c-0.068,0.069-0.223-0.182-0.523-0.395c-0.153-0.109-0.353-0.203-0.604-0.277
		c-0.577-0.169-1.163,0.012-1.705,0.11c-0.543,0.099-0.766-0.256-0.496-0.532C52.306,17.167,52.599,16.958,52.691,16.97z
		 M54.665,20.064c-0.049,0.042-0.055,0.034-0.007-0.007C54.707,20.015,54.714,20.022,54.665,20.064z M50.927,15.927
		c0.177-0.523,0.367-0.482,0.484,0.057c0.038,0.171,0.092,0.325,0.182,0.458c0.309,0.458,0.613,0.695,0.326,0.955
		c-0.287,0.259-0.653,0.389-0.779,0.248c-0.068-0.077-0.135-0.169-0.198-0.278C50.678,16.913,50.761,16.417,50.927,15.927z
		 M49.352,12.65c0.067-0.063,0.205-0.099,0.302-0.064c0.098,0.035,0.037,0.079-0.129,0.109
		C49.359,12.726,49.283,12.713,49.352,12.65z M44.573,15.46c0.836-0.053,1.589-0.093,1.892-0.246
		c0.137-0.069,0.253-0.15,0.356-0.241c0.179-0.157,0.3-0.312,0.314-0.305c0.015,0.008,0.103-0.057,0.196-0.144
		c0.094-0.086,0.023,0.267-0.182,0.779c-0.088,0.217-0.179,0.429-0.272,0.615c-0.247,0.494-1.001,0.327-1.483,0.058
		c-0.271-0.151-0.55-0.27-0.829-0.348C44.033,15.479,44.022,15.495,44.573,15.46z M41.782,17.048
		c-0.022,0.053-0.038,0.103-0.05,0.152c-0.02,0.086-0.105,0.037-0.184-0.122c-0.046-0.095-0.087-0.193-0.12-0.296
		c-0.023-0.073-0.034-0.141-0.034-0.205c-0.001-0.115,0.151-0.317,0.299-0.455c0.146-0.138,0.594-0.385,1.021-0.468
		c0.427-0.082,0.305-0.057-0.13,0.284C42.271,16.183,41.997,16.546,41.782,17.048z M43.767,24.802
		c-0.191,0.174-0.718,0.089-0.987-0.348c-0.271-0.437-0.068-0.468,0.406-0.221C43.66,24.48,43.958,24.627,43.767,24.802z
		 M43.629,21.207c-0.409,0.371-0.657,0.539-0.547,0.374c0.066-0.099,0.139-0.195,0.216-0.287c0.69-0.817,0.631-1.397,0.272-1.918
		c-0.314-0.455-0.662-0.748-0.643-0.766c0.02-0.018,0.131,0.002,0.248,0.046c0.077,0.028,0.149,0.055,0.214,0.08
		C45.355,19.498,44.571,20.351,43.629,21.207z M52.352,25.866c-0.202,0.481-0.513,0.783-0.551,0.749
		c-0.038-0.033-0.167,0.044-0.291,0.174c-0.123,0.13-0.563,0.294-0.921,0.123c-0.358-0.171-0.627-0.434-0.671-0.472
		c-0.044-0.038,0.057-0.214,0.224-0.393c0.168-0.179,0.055-0.36-0.24-0.293c-0.295,0.067-0.616,0.069-0.757-0.045
		c-0.085-0.068-0.176-0.128-0.277-0.174c-0.605-0.274-1.062-0.363-1.742-0.25c-0.771,0.128-1.39,0.354-2.029,0.372
		c-0.552,0.015-0.815-0.328-0.61-0.532s0.331-0.433,0.298-0.517s0.283-0.191,0.652-0.387c0.225-0.119,0.423-0.277,0.579-0.477
		c1.819-2.325,1.826,0.475,2.955,1.55c0.658,0.626,1.497,0.453,2.296,0.152c0.186-0.07,0.441-0.211,0.677-0.394
		c0.342-0.267,0.56-0.466,0.609-0.33C52.604,24.86,52.556,25.384,52.352,25.866z M52.579,21.315
		c-0.087,0.087-0.175,0.174-0.262,0.262c-0.391,0.391-0.741,0.662-0.783,0.605c-0.024-0.034-0.05-0.069-0.074-0.104
		c-0.65-0.934,0.059-1.26,0.831-1.385C52.837,20.604,52.97,20.924,52.579,21.315z M51.554,19.819
		c-0.492,0.072-0.975,0.32-1.378,0.599c-0.528,0.365-0.745,0.753-0.774,1.152c-0.041,0.551-0.049,0.576-0.546,0.334
		c-0.316-0.154-0.706-0.246-1.211-0.263c-1.102-0.038-2.014,0.502-2.701,1.31c-0.065,0.073-0.121,0.135-0.169,0.189
		c-0.092,0.104-0.694-0.174-0.43-0.659c0.239-0.437,0.903-0.855,1.256-1.186c0.406-0.382,0.779-0.81,0.803-1.41
		c0.028-0.762-0.133-1.202-0.734-1.646c-0.164-0.121-0.393-0.216-0.629-0.3c-0.363-0.129-0.767-0.538-1.125-0.958
		c-0.093-0.108-0.173-0.202-0.215-0.261c-0.322-0.448,1.093,0.746,1.64,0.828c0.693,0.103,1.387-0.063,2.109-0.35
		c0.512-0.204,0.882-0.539,1.218-0.962c0.168-0.212,0.237-0.759,0.316-1.314c0.078-0.547,0.464-0.579,0.405-0.029
		c-0.12,1.124-1.086,2.496-0.077,3.49c1.101,1.083,3.393-0.134,3.957,0.969C53.531,19.867,51.896,19.77,51.554,19.819z
		 M55.693,20.806c-0.268,0.5-0.771,0.931-1.57,1.197c-0.12,0.04-0.233,0.081-0.34,0.123c-0.185,0.072-0.56-0.31-0.386-0.833
		c0.017-0.047,0.034-0.094,0.055-0.14c0.225-0.504,0.688-0.757,0.732-0.779c0.027-0.013,0.054-0.027,0.08-0.042
		c0.204-0.095,0.426-0.155,0.66-0.143c0.108,0.006,0.217,0.012,0.326,0.018c0.181,0.01,0.408-0.066,0.506-0.171
		C55.854,19.93,55.954,20.319,55.693,20.806z"/>
	<path d="M19.235,40.456c0.403-0.377,0.708-0.695,0.68-0.71c-0.029-0.016-0.367,0.289-0.757,0.68
		c-0.246,0.247-0.497,0.498-0.753,0.756c-0.391,0.391-0.379,0.403,0.024,0.026C18.697,40.958,18.966,40.707,19.235,40.456z"/>
	<path d="M29.519,51.471c-0.148,0.15-0.145,0.154,0.004,0.004C29.67,51.325,29.666,51.32,29.519,51.471z"/>
</g>
</svg>
