<?xml version="1.0" encoding="iso-8859-1"?>
<!-- Generator: Adobe Illustrator 16.0.0, SVG Export Plug-In . SVG Version: 6.00 Build 0)  -->
<!DOCTYPE svg PUBLIC "-//W3C//DTD SVG 1.1//EN" "http://www.w3.org/Graphics/SVG/1.1/DTD/svg11.dtd">
<svg version="1.1" id="Capa_1" xmlns="http://www.w3.org/2000/svg" xmlns:xlink="http://www.w3.org/1999/xlink" x="0px" y="0px"
	 width="54.77px" height="54.77px" viewBox="0 0 54.77 54.77" style="enable-background:new 0 0 54.77 54.77;" xml:space="preserve"
	>
<g>
	<g>
		<path d="M24.955,32.029c-1.51-1.159-3.538-1.67-5.287-2.371c-3.707-1.486-7.414-2.972-11.121-4.458
			c-3.684-1.477-7.005-2.784-7.337,2.412c-0.402,6.302-0.803,12.603-1.205,18.903c-0.124,1.937,2.053,2.683,3.609,1.91
			c1.129-0.561,2.182-1.388,3.244-2.064c0.943-0.6,5.668,3.901,7.055,4.648c8.814,4.737,19.931,4.895,28.423-0.774
			c15.137-10.103,16.732-31.2,3.246-43.429C32.075-5.44,10.709,0.501,2.841,15.922c-0.031,0.041-0.051,0.087-0.072,0.134
			c-0.006,0.012-0.013,0.023-0.02,0.036c-0.105,0.21-0.101,0.378-0.03,0.508c0.085,2.245,2.079,2.658,3.995,3.542
			c2.295,1.06,5.163,3.155,7.803,2.989c0.737-0.046,1.475-0.737,1.804-1.351c2.527-4.706,6.811-7.296,12.248-7.021
			c8.815,0.447,13.118,10.207,10.377,17.687c-1.551,4.232-5.702,6.858-9.979,7.515c-0.931-0.009-1.86-0.016-2.79-0.023
			c-2.092-0.186-3.924-0.975-5.498-2.364c0.606-0.386,1.213-0.771,1.82-1.156C23.517,35.77,27.135,33.702,24.955,32.029z
			 M17.992,30.796c0.295,0.118,0.59,0.235,0.885,0.354c-0.31,0.068-0.607,0.25-0.783,0.536c-0.992,1.621-1.983,3.242-2.978,4.861
			c-0.289,0.471-0.3,0.463-0.024-0.017c0.944-1.64,1.897-3.272,2.857-4.899C18.12,31.342,18.115,31.039,17.992,30.796z
			 M3.292,25.623c0.014-0.216,0.954,0.008,2.333,0.454c-0.194,0.098-0.37,0.234-0.479,0.426c-0.719,1.26-1.435,2.521-2.15,3.781
			C3.094,28.73,3.193,27.176,3.292,25.623z M2.437,47.092c-0.498-0.847-0.17-5.378-0.164-5.483c0.09-1.415,0.18-2.829,0.271-4.244
			c1.972-3.158,3.869-6.369,5.717-9.613c0.138-0.242,0.155-0.504,0.074-0.731c1.65,0.604,3.449,1.301,4.983,1.906
			c-0.312,0.067-0.61,0.247-0.787,0.53C8.95,35.212,5.582,41.094,2.437,47.092z M7.82,44.489c-0.718,0.045-1.414,0.315-2.083,0.684
			c2.786-5.03,5.661-10.021,8.535-15.012c0.168-0.293,0.158-0.601,0.028-0.846c1.327,0.527,2.326,0.935,2.636,1.059
			c0.031,0.013,0.062,0.023,0.093,0.036c-0.308,0.069-0.603,0.254-0.774,0.542c-2.664,4.503-5.264,9.052-7.796,13.636
			C8.252,44.52,8.04,44.476,7.82,44.489z M53.006,26.059c0.193,2.453-0.022,4.852-0.559,7.156c-1.232,2.82-2.479,5.636-3.739,8.446
			c-2.173,3.188-5.048,5.907-8.392,7.938c0.835-1.935,1.663-3.873,2.477-5.816c3.182-6.344,6.601-12.569,10.094-18.757
			C52.928,25.37,52.979,25.713,53.006,26.059z M52.391,22.083c0.005,0.023,0.012,0.045,0.017,0.067
			C52.314,22.298,52.308,22.274,52.391,22.083z M48.646,13.8c0.056-0.12,0.092-0.257,0.114-0.4c0.168,0.264,0.318,0.537,0.479,0.807
			c-0.069,0.061-0.137,0.132-0.192,0.234c-2.5,4.682-4.891,9.423-7.241,14.186c0.03-0.448,0.041-0.897,0.029-1.348
			C44.261,22.872,46.518,18.364,48.646,13.8z M46.415,13.66c0.291-0.47,0.339-0.444,0.104,0.056
			c-1.633,3.482-3.35,6.922-5.137,10.326c-0.072-0.291-0.148-0.58-0.238-0.866c0.258-0.63,0.515-1.26,0.775-1.887
			c0.214-0.51,0.618-1.306,0.904-1.777C44.013,17.555,45.21,15.606,46.415,13.66z M19.371,5.121
			c0.326-0.593,0.649-1.189,0.974-1.782c0.096-0.176,0.109-0.312,0.086-0.424c0.274-0.082,0.546-0.17,0.823-0.242
			c-0.185,0.15-0.355,0.312-0.466,0.475c-0.457,0.667-0.907,1.338-1.353,2.012C19.131,5.62,19.105,5.604,19.371,5.121z M5.89,18.007
			c-0.724-0.518-1.206-1.103-1.219-1.756c2.052-4.048,4.966-7.353,8.415-9.778C10.632,10.277,8.283,14.158,5.89,18.007z M7.457,18.9
			c2.976-4.763,5.859-9.595,8.951-14.276c0.042-0.063,0.054-0.108,0.079-0.161c0.527-0.26,1.06-0.503,1.604-0.726
			c-0.111,0.127-0.206,0.257-0.275,0.382c-2.86,5.185-5.785,10.334-8.723,15.476C8.546,19.383,7.989,19.152,7.457,18.9z
			 M19.127,15.941c-1.613,1.023-2.835,2.603-3.891,4.153c-1.296,1.902-1.516,1.451-3.046,0.703
			c3.486-6.178,7.024-12.315,11.025-18.119c0.128-0.185,0.153-0.336,0.124-0.455c1.235-0.214,2.494-0.327,3.768-0.356
			c-0.096,0.166-0.213,0.396-0.327,0.65c-1.927,4.28-4.033,8.477-6.235,12.626C20.061,15.39,19.584,15.651,19.127,15.941z
			 M24.88,10.903c1.398-2.745,2.741-5.517,4.015-8.322c0.123-0.271,0.102-0.517-0.017-0.695c1.061,0.049,2.125,0.167,3.195,0.351
			c-0.325,0.106-0.629,0.288-0.815,0.528c-2.119,2.709-4.21,5.443-6.244,8.221C24.687,11.43,24.629,11.395,24.88,10.903z
			 M27.298,13.308c-0.682,0.036-1.363,0.115-2.039,0.238c2.316-3.244,4.688-6.45,7.128-9.601c0.338-0.437,0.418-0.387,0.168,0.105
			C30.955,7.217,29.163,10.283,27.298,13.308z M31.012,10.594c1.354-2.262,2.649-4.555,3.843-6.904
			c0.154-0.305,0.108-0.616-0.062-0.852c0.12,0.033,0.239,0.054,0.358,0.089c0.327,0.097,0.64,0.219,0.96,0.328
			c-0.352,0.062-0.688,0.25-0.872,0.547c-1.41,2.263-2.819,4.526-4.219,6.796C30.729,11.069,30.729,11.068,31.012,10.594z
			 M31.259,13.62c1.496-2.438,2.996-4.878,4.504-7.312c0.291-0.469,0.324-0.45,0.074,0.043c-1.266,2.495-2.537,4.988-3.815,7.477
			C31.769,13.753,31.516,13.677,31.259,13.62z M35.865,12.007c-0.298,0.114-0.542,0.241-0.622,0.325
			c-0.141,0.151-0.274,0.309-0.408,0.465c-0.221,0.262-0.197,0.072,0.054-0.419c1.227-2.401,2.446-4.806,3.665-7.211
			c0.161-0.319,0.118-0.674-0.058-0.951c0.938,0.445,1.836,0.954,2.697,1.513c-0.31,0.021-0.611,0.164-0.797,0.434
			c-1.104,1.601-2.201,3.205-3.294,4.812C36.791,11.432,36.229,11.868,35.865,12.007z M37.881,17.444
			c-0.169-0.186-0.351-0.349-0.526-0.522c1.782-3.07,3.566-6.139,5.385-9.188c0.151-0.254,0.177-0.556,0.107-0.833
			c0.7,0.544,1.377,1.117,2.015,1.732c-0.155,0.07-0.287,0.214-0.354,0.448c-0.86,2.988-1.962,5.914-3.15,8.816
			c-0.445,0.859-0.901,1.712-1.359,2.565C39.416,19.385,38.717,18.363,37.881,17.444z M50.177,16.311
			c0.034-0.065,0.052-0.147,0.077-0.223c0.509,1.038,0.951,2.107,1.327,3.203c-1.399,3.017-2.839,6.018-4.253,9.023
			c-2.488,5.293-4.719,10.704-6.973,16.104c-1.138,2.276-2.24,4.572-3.311,6.885c-1.52,0.643-3.096,1.1-4.702,1.381
			C38.188,40.508,43.891,28.252,50.177,16.311z M35.155,39.214c0.807-0.5,1.586-1.082,2.34-1.753
			c-2.073,4.312-4.128,8.634-6.192,12.947c-0.238,0.499-0.279,0.482-0.091-0.036c1.306-3.593,2.604-7.188,3.896-10.785
			C35.168,39.417,35.173,39.302,35.155,39.214z M29.531,43.536c0.304-0.584,0.61-1.167,0.917-1.75
			c0.173-0.327,0.114-0.545-0.097-0.629c0.528-0.114,1.042-0.262,1.547-0.427c-0.318,0.234-0.618,0.511-0.796,0.774
			c-0.475,0.704-0.957,1.405-1.451,2.104C29.332,44.06,29.275,44.026,29.531,43.536z M30.862,44.592
			c0.328-0.444,0.438-0.387,0.249,0.132c-1.007,2.773-2.02,5.546-3.029,8.318c-1.12-0.002-2.241-0.073-3.354-0.216
			c0.155-0.3,0.31-0.6,0.464-0.899c0.253-0.491,0.757-1.224,1.121-1.64C27.911,48.457,29.422,46.544,30.862,44.592z M22.515,40.842
			c1.729,0.549,3.621,0.76,4.935,0.692c0.331-0.017,0.651-0.054,0.973-0.086c-0.394,0.175-0.771,0.461-0.958,0.792
			c-1.892,3.348-3.767,6.703-5.622,10.069c-0.918-0.211-1.825-0.46-2.714-0.754c-1.213-0.401-2.365-0.939-3.472-1.562
			c0.29-0.088,0.538-0.207,0.646-0.345c1.527-1.94,2.994-3.92,4.422-5.928c0.549-0.746,1.093-1.496,1.634-2.248
			C22.512,41.261,22.555,41.04,22.515,40.842z M21.222,40.347c-0.214,0.085-0.412,0.22-0.547,0.419
			c-0.668,0.987-1.343,1.97-2.034,2.943c-0.81,1.102-1.625,2.197-2.443,3.292c-0.331,0.442-0.396,0.402-0.142-0.087
			c1.031-1.985,2.098-3.954,3.192-5.909c0.176-0.268,0.352-0.532,0.527-0.799c0.123-0.188,0.2-0.37,0.243-0.535
			C20.385,39.923,20.788,40.148,21.222,40.347z M21.683,33.131c-0.43,0.752-0.862,1.498-1.301,2.233
			c-0.238,0.401-0.467,0.81-0.703,1.212c-0.498,0.376-0.888,0.688-1.007,0.87c-0.17,0.261-0.218,0.477-0.064,0.757
			c0.02,0.035,0.046,0.067,0.067,0.104c-0.334,0.578-0.676,1.152-1.006,1.733c-0.402,0.672-0.805,1.345-1.213,2.014
			c-1.304,1.97-2.614,3.933-3.927,5.895c-0.362-0.268-0.721-0.539-1.074-0.816c-0.16-0.126-0.329-0.292-0.502-0.471
			c2.967-4.752,5.907-9.519,8.834-14.296c0.176-0.285,0.174-0.588,0.053-0.829c0.836,0.336,1.672,0.671,2.509,1.006
			C22.101,32.636,21.851,32.839,21.683,33.131z"/>
	</g>
</g>
<g>
</g>
<g>
</g>
<g>
</g>
<g>
</g>
<g>
</g>
<g>
</g>
<g>
</g>
<g>
</g>
<g>
</g>
<g>
</g>
<g>
</g>
<g>
</g>
<g>
</g>
<g>
</g>
<g>
</g>
</svg>
