<?xml version="1.0" encoding="iso-8859-1"?>
<!-- Generator: Adobe Illustrator 17.0.2, SVG Export Plug-In . SVG Version: 6.00 Build 0)  -->
<!DOCTYPE svg PUBLIC "-//W3C//DTD SVG 1.1//EN" "http://www.w3.org/Graphics/SVG/1.1/DTD/svg11.dtd">
<svg version="1.1" id="Capa_1" xmlns="http://www.w3.org/2000/svg" xmlns:xlink="http://www.w3.org/1999/xlink" x="0px" y="0px"
	 width="64px" height="64px" viewBox="0 0 64 64" style="enable-background:new 0 0 64 64;" xml:space="preserve">
<g>
	<path style="fill:#010202;" d="M11.764,28.691c-5.515,0-1.02,4.897,0.488,6.554c5.003,5.495,10.007,10.991,15.01,16.486
		c1.888,2.075,4.149,5.653,6.953,2.574c6.249-6.863,12.499-13.726,18.748-20.589c0.784-0.861,3.824-3.928,1.079-4.745
		c-3.142-0.936-7.012-0.336-10.315-0.289c-0.971-1.232,3.158-15.561,3.585-17.462c0.971-4.328-7.297-2.858-9.488-2.858
		c-6.29,0-12.581,0-18.871,0c-4.823,0-0.619,10.447-0.174,12.434c0.587,2.619,1.174,5.238,1.761,7.857
		C20.503,28.493,12.923,28.691,11.764,28.691z M19.578,40.483c2.075-3.606,4.18-7.191,6.352-10.728
		c2.476-4.034,5.091-7.984,7.597-11.994c0.292-0.468,0.294-0.469,0.005,0.002C28.88,25.339,24.257,32.933,19.6,40.507
		C19.593,40.5,19.585,40.491,19.578,40.483z M23.703,45.014c0.001-0.003,0.002-0.005,0.004-0.008
		c4.074-6.161,8.126-12.337,12.21-18.493c0.306-0.461,0.377-0.423,0.151,0.081c-0.471,1.052-0.964,2.092-1.483,3.119
		c-3.229,5.465-6.563,10.862-10.169,16.085C24.179,45.537,23.94,45.275,23.703,45.014z M35.569,48.726
		c-0.35,0.965-0.702,1.929-1.054,2.893c-0.824,1.021-2.281,2.766-2.721,2.283c-0.123-0.135-0.246-0.271-0.369-0.406
		c1.354-1.591,2.656-3.229,3.895-4.904C35.648,48.149,35.758,48.207,35.569,48.726z M34.11,47.611
		c-0.32,0.451-0.377,0.416-0.122-0.074c1.36-2.613,2.737-5.219,4.16-7.804c0.427-0.775,0.856-1.551,1.284-2.326
		c0.268-0.483,0.339-0.452,0.156,0.07c-0.361,1.032-0.728,2.061-1.095,3.091c-0.185,0.52-0.573,1.323-0.869,1.789
		C36.511,44.112,35.342,45.875,34.11,47.611z M51.709,30.184c0.596,0,0.913,0.14,1.045,0.366c-0.147,0.132-0.277,0.305-0.365,0.49
		c-0.202,0.426-0.403,0.851-0.603,1.277c-0.115,0.245-0.225,0.494-0.339,0.739c-0.581,0.636-1.174,1.195-1.396,1.439
		c-1.847,2.027-3.692,4.055-5.539,6.083c1.536-3.192,3.082-6.38,4.656-9.552c0.198-0.4,0.063-0.728-0.284-0.842
		C49.825,30.184,50.767,30.184,51.709,30.184z M43.962,31.297c0.031-0.079,0.062-0.158,0.093-0.237
		c0.166-0.419,0.123-0.76-0.069-0.876c0.475,0,0.949,0,1.425,0c-0.464,0.114-0.933,0.435-1.143,0.828
		c-0.061,0.114-0.122,0.228-0.184,0.341C43.822,31.839,43.761,31.811,43.962,31.297z M46.448,31.008
		c0.213-0.391,0.092-0.71-0.248-0.824c0.653,0,1.307,0,1.96,0c-0.462,0.115-0.922,0.441-1.121,0.841
		c-2.388,4.808-4.714,9.651-7.03,14.498c-0.632,0.694-1.263,1.388-1.894,2.081c0.669-1.848,1.34-3.695,2.004-5.545
		c0.187-0.52,0.581-1.318,0.878-1.784C42.921,37.253,44.726,34.154,46.448,31.008z M42.655,23.351
		c-0.344,1.531-1.647,4.317-0.881,5.887c-4.288,7.217-8.469,14.5-12.56,21.831c-0.768-0.845-1.538-1.689-2.307-2.534
		c-0.429-0.471-0.857-0.942-1.286-1.413c4.182-5.711,8.172-11.568,11.321-17.848c2.394-4.058,4.748-8.143,7.123-12.214
		C43.596,19.157,43.126,21.254,42.655,23.351z M40.214,9.855c1.062,0,3.65-0.498,4.713,0.214c-0.108,0.147-0.244,0.34-0.393,0.557
		c-0.995,1.447-1.986,2.898-2.975,4.351c-0.311,0.457-0.872,0.892-1.236,1.032c-0.298,0.114-0.542,0.241-0.622,0.326
		c-0.141,0.151-0.275,0.308-0.408,0.465c-0.221,0.261-0.198,0.072,0.054-0.42c0.968-1.893,1.932-3.79,2.893-5.686
		c0.25-0.493,0.005-0.892-0.548-0.892h-0.117c-0.553,0-1.202,0.399-1.452,0.892C36.166,18.5,32.181,26.293,27.945,33.94
		c-1.025,1.83-2.049,3.651-3.106,5.426c-0.829,1.396-1.64,2.803-2.444,4.212c-0.514-0.564-1.027-1.128-1.541-1.692
		c6.403-10.399,12.725-20.851,19.155-31.234c0.232-0.375,0.134-0.684-0.192-0.796C39.949,9.855,40.082,9.855,40.214,9.855z
		 M39.112,9.855c-0.467,0.113-0.948,0.421-1.181,0.796c-0.818,1.316-1.639,2.631-2.453,3.949c-0.291,0.47-0.293,0.468-0.009-0.005
		c0.774-1.293,1.528-2.598,2.256-3.916c0.215-0.39,0.093-0.71-0.247-0.824C38.023,9.855,38.567,9.855,39.112,9.855z M33.987,9.855
		c-0.47,0.11-0.967,0.397-1.229,0.742c-1.106,1.455-2.203,2.915-3.285,4.389c-0.326,0.445-0.385,0.41-0.134-0.081
		c0.71-1.394,1.405-2.794,2.085-4.201c0.195-0.403,0.054-0.732-0.297-0.848C32.08,9.855,33.034,9.855,33.987,9.855z M23.56,9.855
		c-0.079,0.013-0.139,0.028-0.149,0.044c-0.036,0.054-0.04,0.054-0.011,0c0.009-0.016-0.033-0.031-0.098-0.044
		C23.389,9.855,23.475,9.855,23.56,9.855z M18.706,11.964c0.279-0.441,0.559-0.883,0.843-1.323c0.238-0.37,0.253-0.674,0.076-0.786
		c0.794,0,1.588,0,2.381,0c-0.465,0.114-0.937,0.433-1.152,0.821c-0.562,1.01-1.125,2.019-1.691,3.027
		C18.999,13.171,18.817,12.552,18.706,11.964z M20.456,18.159c1.483-2.536,2.994-5.051,4.575-7.517
		c0.237-0.37,0.146-0.675-0.175-0.787c1.375,0,2.751,0,4.126,0c0.473,0,0.944,0,1.416,0c-0.46,0.115-0.916,0.445-1.11,0.849
		c-2.249,4.683-4.685,9.276-7.205,13.83C21.67,22.427,21.013,20.06,20.456,18.159z M21.223,29.967
		c-0.133,0.094-0.289,0.163-0.484,0.163c0,0-0.04,0-0.1,0C20.838,30.085,21.031,30.028,21.223,29.967z M21.335,29.928
		c0.162-0.055,0.33-0.099,0.485-0.167c0.426-0.19,0.623-0.774,0.66-1.609c3.914-5.995,8.041-11.851,12.363-17.554
		c0.262-0.345,0.201-0.632-0.101-0.742c0.674,0,1.347,0,2.021,0c-0.463,0.114-0.931,0.435-1.144,0.827
		c-4.211,7.743-9.375,14.983-13.89,22.548c-1.157,1.939-2.298,3.892-3.432,5.848c-0.489-0.539-0.979-1.077-1.47-1.615
		c0.985-1.708,1.972-3.416,2.952-5.125C20.29,31.529,20.818,30.732,21.335,29.928z M18.447,31c-0.265,0.465-0.529,0.931-0.797,1.395
		c-0.742,1.181-1.468,2.373-2.19,3.565c-1.026-1.128-2.054-2.256-3.081-3.385c-0.029-0.032-0.053-0.06-0.08-0.091
		c0.283-0.494,0.566-0.989,0.848-1.485c0.204-0.36,0.127-0.669-0.157-0.801c0.193-0.009,0.398-0.015,0.628-0.015
		c1.688,0,3.694,0.27,5.552,0.149C18.874,30.492,18.602,30.726,18.447,31z"/>
</g>
</svg>
