<?xml version="1.0" encoding="iso-8859-1"?>
<!-- Generator: Adobe Illustrator 17.0.2, SVG Export Plug-In . SVG Version: 6.00 Build 0)  -->
<!DOCTYPE svg PUBLIC "-//W3C//DTD SVG 1.1//EN" "http://www.w3.org/Graphics/SVG/1.1/DTD/svg11.dtd">
<svg version="1.1" id="Capa_1" xmlns="http://www.w3.org/2000/svg" xmlns:xlink="http://www.w3.org/1999/xlink" x="0px" y="0px"
	 width="64px" height="64px" viewBox="0 0 64 64" style="enable-background:new 0 0 64 64;" xml:space="preserve">
<g>
	<path style="fill:#010202;" d="M10.2,25.616c0.282,1.21,0.392,4.117,2.19,4.185c0.853,0.032,5.368-2.389,4.782-2.975
		c2.409,2.411,4.818,4.822,7.227,7.233c1.804,1.806,1.688,3.393,1.688,5.812c0,4.04,0,8.079,0,12.119
		c0,1.542-0.601,4.491,0.002,5.949c1.06,2.565,4.689,1.625,6.988,1.625c2.632,0,4.05-0.578,4.05-3.386c0-5.227,0-10.453,0-15.68
		c0-4.505,0.773-5.749,4.031-9.01c1.611-1.614,3.223-3.227,4.835-4.841c-0.83,0.831,3.276,2.984,3.944,3.158
		c2.445,0.635,2.819-3.111,3.149-4.53c1.033-4.44,2.066-8.879,3.099-13.319c0.817-3.508-5.14-1.463-6.341-1.183
		c-4.203,0.98-8.406,1.96-12.609,2.94c-0.198,0.046-0.341,0.117-0.459,0.195c-0.003,0.002-0.007,0.003-0.01,0.004
		c-2.617,1.413-0.476,3.346,0.954,4.774c2.031,2.03-3.944,6.227-5.417,7.701c-0.853,0.854-0.733,0.235-1.674-0.707
		c-1.307-1.308-2.613-2.616-3.92-3.924c-0.941-0.942-2.601-1.965-1.258-3.31c0.888-0.889,1.477-1.384,1.906-2.173
		c0.146-0.178,0.24-0.386,0.277-0.608c0.076-0.204,0.147-0.422,0.212-0.674c0.507-1.964-13.368-4.149-14.724-4.465
		c-4.577-1.067-6.509-0.333-5.359,4.608C8.574,18.628,9.387,22.122,10.2,25.616z M35.192,57.556c0,0.749-0.548,0.957-1.232,0.984
		c0.142-0.095,0.271-0.2,0.368-0.312c0.295-0.339,0.575-0.69,0.864-1.036C35.192,57.313,35.192,57.435,35.192,57.556z
		 M35.192,50.684c-1.393,2.469-2.784,4.939-4.157,7.419c-0.058,0.105-0.083,0.202-0.095,0.295c-2.795-0.142-2.917-0.999-2.917-4.153
		c0-0.58,0-1.161,0-1.742c0.066-0.009,0.139-0.048,0.22-0.16c0.152-0.208,0.304-0.417,0.453-0.626
		c2.248-3.055,4.433-6.156,6.481-9.333c0.008,0.322,0.014,0.641,0.014,0.956C35.192,45.788,35.192,48.235,35.192,50.684z
		 M35.093,38.7c-2.167,3.542-4.394,7.044-6.738,10.472c-0.126,0.184-0.237,0.432-0.331,0.692c0-0.761,0-1.522,0-2.283
		c0.09-0.02,0.195-0.094,0.315-0.275c2.291-3.468,4.581-6.936,6.87-10.405C35.137,37.492,35.102,38.093,35.093,38.7z M39.582,30.587
		c-0.126,0.282-0.268,0.556-0.397,0.835c-0.259,0.218-0.532,0.446-0.811,0.684c0.353-0.533,0.703-1.068,1.057-1.601
		C39.736,30.045,39.808,30.082,39.582,30.587z M50.491,28.34c0.003-0.011-0.041-0.058-0.107-0.123
		c0.068-0.124,0.146-0.259,0.229-0.4C50.572,27.991,50.532,28.165,50.491,28.34z M53.445,11.013
		c0.093-0.021,0.186-0.044,0.278-0.065c0.06-0.014,0.107,0.01,0.144,0.062c-0.044,0.152-0.084,0.317-0.114,0.5
		c-0.814,4.963-2.508,9.705-4.424,14.385c-0.135,0.26-0.273,0.519-0.412,0.777c-0.047,0.088-0.07,0.191-0.087,0.295
		c-1.065-0.767-2.358-1.537-2.97-1.373c-0.448,0.12-0.871,0.339-1.282,0.598c2.877-4.96,5.752-9.923,8.75-14.809
		C53.419,11.235,53.446,11.116,53.445,11.013z M46.678,12.591c1.141-0.267,2.282-0.533,3.423-0.799
		c-0.142,0.125-0.269,0.256-0.36,0.387c-1.566,2.257-3.124,4.52-4.668,6.792c-0.31,0.456-0.872,0.892-1.236,1.031
		c-0.298,0.114-0.542,0.241-0.622,0.326c-0.141,0.151-0.275,0.308-0.409,0.465c-0.221,0.261-0.198,0.073,0.054-0.419
		c1.253-2.452,2.499-4.909,3.743-7.365C46.69,12.839,46.7,12.705,46.678,12.591z M39.738,17.309
		c0.604-1.034,1.195-2.076,1.768-3.127c0.089-0.164,0.104-0.294,0.089-0.405c0.195-0.045,0.39-0.091,0.585-0.136
		c-0.15,0.138-0.286,0.281-0.377,0.428c-0.677,1.089-1.355,2.178-2.03,3.268c-0.157,0.254-0.242,0.527-0.26,0.761
		c-0.106-0.121-0.214-0.245-0.324-0.372C39.399,17.688,39.599,17.547,39.738,17.309z M37.656,15.468
		c0.06-0.06,0.121-0.118,0.181-0.196c0.108-0.142,0.217-0.285,0.326-0.427c0.089-0.117,0.161-0.223,0.218-0.319
		c0.368-0.086,0.736-0.172,1.104-0.258c-0.158,0.152-0.299,0.312-0.389,0.476c-0.227,0.416-0.456,0.83-0.688,1.243
		c-0.101,0.179-0.139,0.387-0.147,0.595C37.976,16.185,37.754,15.803,37.656,15.468z M39.47,21.216
		c0.044-0.072,0.063-0.115,0.09-0.168c0.433-0.41,1.127-1.099,0.975-1.598c0.062-0.078,0.131-0.178,0.219-0.32
		c0.991-1.61,1.984-3.219,2.979-4.827c0.291-0.469,0.325-0.45,0.075,0.043c-4.012,7.921-8.055,15.83-12.35,23.588
		c-1.025,1.83-2.049,3.651-3.105,5.426c-0.096,0.162-0.19,0.325-0.284,0.488c-0.017,0.029-0.031,0.077-0.046,0.114
		c0-0.611,0-1.223,0-1.834c0-0.755,0.068-1.601,0.121-2.458c0.052-0.052,0.107-0.11,0.165-0.206
		C32.032,33.382,35.739,27.292,39.47,21.216z M33.517,27.296c0.077-0.049,0.154-0.098,0.231-0.151
		c-1.813,2.958-3.627,5.917-5.438,8.876c-0.084,0.138-0.161,0.31-0.231,0.494c-0.019-0.112-0.032-0.228-0.057-0.336
		c-0.004-0.017-0.01-0.032-0.014-0.049c0.084-0.136,0.182-0.295,0.293-0.482c0.378-0.634,0.757-1.269,1.143-1.898
		C30.774,31.581,32.145,29.438,33.517,27.296z M31.062,27.957c-0.01,0.016-0.019,0.028-0.029,0.044
		c-1.213,1.887-2.424,3.775-3.612,5.674c-0.123,0.198-0.223,0.381-0.301,0.538c-0.411-0.603-0.918-1.175-1.464-1.72
		c0.115-0.065,0.221-0.155,0.305-0.284c1.126-1.728,2.272-3.441,3.433-5.146C29.903,27.52,30.434,27.856,31.062,27.957z
		 M27.477,25.097c-1.008,1.867-2.031,3.727-3.07,5.579c-0.088,0.157-0.124,0.34-0.137,0.526c-0.677-0.604-1.343-1.178-1.897-1.733
		c-0.444-0.444-1.013-1.175-1.651-1.889c0.112-0.07,0.215-0.164,0.293-0.302c1.003-1.768,2.018-3.528,3.044-5.279
		C25.169,23.252,26.754,24.424,27.477,25.097z M23.285,14.253c0.395,0.092,0.791,0.184,1.186,0.276
		c-0.025,0.036-0.061,0.064-0.082,0.102c-1.968,3.535-3.959,7.057-5.963,10.573c-0.089,0.156-0.142,0.293-0.177,0.418
		c-0.197-0.067-0.394-0.113-0.592-0.12c-0.506-0.019-1.231,0.435-1.968,0.972c2.519-4.043,4.978-8.13,7.559-12.129
		C23.267,14.315,23.269,14.284,23.285,14.253z M17.613,12.932c1.292,0.301,2.583,0.602,3.875,0.903
		c-0.023,0.029-0.055,0.051-0.075,0.081c-2.856,4.396-5.553,8.907-8.338,13.353c-0.122,0.195-0.228,0.372-0.316,0.523
		c-0.359-1.544-0.719-3.088-1.078-4.632c0.107-0.027,0.221-0.112,0.328-0.304c1.833-3.281,3.711-6.54,5.566-9.812
		C17.597,13.005,17.597,12.969,17.613,12.932z M13.6,12.314c0.05-0.099,0.098-0.192,0.145-0.284
		c0.683,0.159,1.365,0.318,2.048,0.477c-0.025,0.036-0.062,0.064-0.083,0.101c-1.432,2.532-2.881,5.055-4.316,7.584
		c-0.109,0.192-0.185,0.445-0.239,0.708c-0.221-0.95-0.442-1.9-0.663-2.851c0.101-0.033,0.206-0.119,0.304-0.309
		C11.736,15.934,12.676,14.128,13.6,12.314z M10.079,11.176c0.581,0.135,1.161,0.271,1.742,0.406
		c-0.146,0.243-0.331,0.537-0.51,0.812c-0.423,0.649-0.838,1.303-1.247,1.96c-0.175,0.282-0.283,0.689-0.322,1.087
		C9.155,13.322,8.666,10.847,10.079,11.176z"/>
</g>
</svg>
