<?xml version="1.0" encoding="iso-8859-1"?>
<!-- Generator: Adobe Illustrator 17.0.2, SVG Export Plug-In . SVG Version: 6.00 Build 0)  -->
<!DOCTYPE svg PUBLIC "-//W3C//DTD SVG 1.1//EN" "http://www.w3.org/Graphics/SVG/1.1/DTD/svg11.dtd">
<svg version="1.1" id="Capa_1" xmlns="http://www.w3.org/2000/svg" xmlns:xlink="http://www.w3.org/1999/xlink" x="0px" y="0px"
	 width="64px" height="64px" viewBox="0 0 64 64" style="enable-background:new 0 0 64 64;" xml:space="preserve">
<g>
	<path d="M15.594,40.034c0.069,0.056,0.201,0.133,0.293,0.166c0.092,0.033,0.594,0.203,1.141,0.275
		c2.93,0.387,6.653-1.684,9.191-2.516c1.72-0.564,3.038-1.097,4.175-2.619c1.377-1.841-0.616-3.759-2.306-4.371
		c-2.016-0.73-4.033-1.46-6.049-2.191c-1.349-0.488-3.017-1.414-4.513-1.281c-2.475,0.22-3.138,2.824-3.272,4.82
		c-0.143,2.114-0.588,4.955,0.598,6.828C15.148,39.612,15.525,39.978,15.594,40.034z M16.205,32.146
		c0.009-0.327,0.034-0.662,0.082-0.985c0.08-0.541,0.475-1.207,0.771-1.512c0.296-0.305,0.783-0.612,1.086-0.575
		c0.164,0.021,0.342,0.063,0.535,0.133c0.067,0.024,0.134,0.048,0.201,0.073c0.111,0.04-0.11,0.394-0.495,0.79
		c-0.497,0.513-0.994,1.026-1.491,1.539c-0.384,0.396-0.694,0.677-0.692,0.627C16.203,32.205,16.204,32.175,16.205,32.146z
		 M18.861,32.41c-0.702,0.678-1.363,1.317-1.84,1.774c-0.398,0.382-0.791,0.75-0.87,0.829c-0.079,0.079-0.134-0.171-0.11-0.559
		s0.369-1.016,0.762-1.403c0.881-0.869,1.762-1.737,2.642-2.605c0.393-0.388,1.133-0.55,1.652-0.362
		c1.762,0.638,3.524,1.276,5.286,1.915c0.294,0.106,0.588,0.213,0.883,0.319c2.07,0.75,1.639,3.425-0.237,4.04
		c-0.998,0.327-1.997,0.654-2.996,0.982c-1.342,0.44-3.992,1.898-5.827,1.9c-0.552,0-1.09-0.274-1.213-0.402
		c-0.124-0.127-0.027-0.415,0.2-0.628c0.136-0.128,0.273-0.256,0.411-0.386c0.638-0.66,1.274-1.313,1.91-1.967
		c0.385-0.396,0.697-1.051,0.707-1.462c0.009-0.411-0.294-0.429-0.685-0.039c-0.865,0.86-1.717,1.708-2.549,2.535
		c-0.117,0.126-0.234,0.252-0.352,0.377c-0.195,0.208-0.497-0.053-0.566-0.601c-0.014-0.107-0.025-0.216-0.034-0.326
		c-0.046-0.551,0.288-1.314,0.679-1.705c0.72-0.717,1.439-1.434,2.165-2.151c0.117-0.128,0.234-0.257,0.352-0.385
		C19.424,31.887,19.259,32.026,18.861,32.41z"/>
	<path d="M34.513,26.179c0.608-5.04-0.076-10.536-0.113-15.618c-0.046-6.399-10.722-2.9-14.474-0.315
		c-0.455,0.313-0.805,0.637-0.83,0.661c-0.014,0.014-0.028,0.028-0.042,0.043c-0.072,0.074-0.125,0.14-0.162,0.201
		c-0.075,0.122-0.23,0.684-0.173,1.233c0.134,1.294,1.275,2.397,2.066,3.598c1.853,2.817,3.706,5.633,5.559,8.449
		c0.925,1.406,2.044,3.904,3.677,4.638C32.445,30.158,34.211,28.684,34.513,26.179z M20.672,11.723
		c0.007-0.192,0.406-0.625,0.88-0.908c0.007-0.004,0.014-0.009,0.022-0.013c0.475-0.282,0.559-0.165,0.167,0.225
		c-0.113,0.112-0.227,0.225-0.34,0.338C21.009,11.754,20.666,11.915,20.672,11.723z M32.278,27.278
		c-0.201,0.223-0.332,0.026-0.135-0.158C32.339,26.936,32.479,27.055,32.278,27.278z M31.929,26.668
		c-0.349,0.346-1.029,0.415-1.448,0.054c-0.127-0.11-0.25-0.224-0.364-0.335c-0.394-0.387-0.353-1.075,0.029-1.474
		c0.348-0.362,0.696-0.722,1.043-1.08c0.385-0.396,0.615-0.84,0.514-0.994c-0.101-0.153-0.505,0.032-0.903,0.415
		c-0.327,0.313-0.682,0.653-1.064,1.019c-0.399,0.382-0.969,0.317-1.272-0.144c-0.16-0.243-0.32-0.486-0.479-0.729
		c-0.304-0.461-0.232-1.15,0.162-1.538c0.352-0.347,0.704-0.694,1.056-1.041c0.393-0.388,0.542-0.961,0.332-1.28
		c-0.21-0.319-0.692-0.258-1.077,0.139c-0.348,0.358-0.696,0.717-1.043,1.075c-0.384,0.396-0.769,0.608-0.857,0.474
		c-0.054-0.082-0.107-0.163-0.161-0.244c-0.035-0.053-0.077-0.114-0.126-0.182c-0.071-0.099-0.095-0.214-0.05-0.26
		c0.026-0.026,0.052-0.053,0.082-0.083c0.548-0.563,1.076-1.106,1.592-1.637c0.385-0.396,0.69-0.727,0.682-0.74
		c-0.008-0.013-0.327,0.298-0.711,0.695c-0.354,0.365-0.708,0.73-1.058,1.091c-0.384,0.397-0.717,0.69-0.743,0.656
		c-0.026-0.034,0.267-0.381,0.654-0.775c0.372-0.378,0.729-0.741,1.069-1.086c0.388-0.393,0.541-0.958,0.341-1.261
		c-0.199-0.303-0.682-0.235-1.075,0.152c-0.385,0.378-0.77,0.756-1.156,1.135c-0.394,0.387-0.99,0.35-1.328-0.087
		c-0.046-0.06-0.093-0.121-0.141-0.182c-0.337-0.438-0.291-1.114,0.099-1.506c0.423-0.425,0.846-0.85,1.268-1.275
		c0.39-0.392,0.628-0.828,0.533-0.972c-0.095-0.145-0.489,0.055-0.878,0.447c-0.432,0.434-0.863,0.869-1.294,1.303
		c-0.389,0.392-0.97,0.351-1.287-0.102c-0.004-0.005-0.008-0.011-0.012-0.017c-0.316-0.453-0.246-1.146,0.143-1.539
		c0.431-0.435,0.862-0.87,1.292-1.303c0.389-0.392,0.671-0.751,0.631-0.805c-0.023-0.032-0.048-0.064-0.076-0.095
		c-0.09-0.097-0.159-0.195-0.21-0.296c-0.092-0.179-0.435-0.031-0.83,0.356c-0.44,0.432-0.883,0.865-1.327,1.3
		c-0.394,0.387-0.883,0.422-1.072,0.068c-0.188-0.354,0-0.964,0.396-1.349c0.982-0.955,1.973-1.921,2.985-2.906
		c0,0,0.165-0.155,0.369-0.346c0.204-0.191,0.793-0.49,1.326-0.636c0.218-0.06,0.436-0.115,0.653-0.164
		c0.539-0.123,0.903-0.108,0.804-0.011c-0.099,0.096,0.015,0.082,0.258-0.022c0.145-0.062,0.293-0.12,0.448-0.172
		c0.033-0.011,0.065-0.02,0.098-0.03c0.054-0.015,0.546-0.073,1.097-0.029c1.511,0.122,2.598,0.857,2.61,2.669
		c0.011,1.544,0.022,3.088,0.034,4.633c0.022,3.139,0.045,6.279,0.068,9.418C32.557,25.594,32.277,26.321,31.929,26.668z"/>
	<path d="M31.229,38.481c-2.113,0.884-3.377,2.607-4.849,4.278c-1.701,1.931-7.229,6.454-3.111,8.937
		c1.304,0.786,3.188,1.052,4.638,1.519c2.46,0.793,4.278,1.173,6.26-0.869c0.054-0.056,0.095-0.108,0.127-0.158
		c0.059-0.095,0.28-0.592,0.392-1.132c0.25-1.209,0.081-2.627,0.109-3.758c0.05-1.993,0.101-3.987,0.151-5.98
		C34.997,39.285,33.26,37.632,31.229,38.481z M32.928,44.159c-0.041,1.626-0.082,3.252-0.123,4.878
		c-0.015,0.594,0.045,1.273-0.032,1.908c-0.066,0.548-0.458,1.146-0.744,1.289c-0.286,0.143-0.419,0.05-0.26-0.113
		c0.159-0.164-0.111-0.425-0.604-0.584c-0.493-0.159-1.098-0.081-1.351,0.175c-0.253,0.255-0.886,0.327-1.403,0.132
		c-0.137-0.052-0.271-0.104-0.402-0.154c-0.516-0.198-0.689-0.635-0.368-0.986c0.321-0.35,0.542-0.707,0.492-0.804
		c-0.03-0.058-0.058-0.117-0.081-0.179c-0.048-0.124-0.092-0.267-0.128-0.402c-0.06-0.226-0.107-0.534-0.103-0.684
		c0.002-0.104,0.011-0.203,0.019-0.271c0.01-0.079,0.02-0.155,0.026-0.23c0.065-0.365,0.192-0.673,0.394-0.919l0.922-1.047
		c0.365-0.415,0.341-0.438-0.055-0.053c-1.242,1.207-2.497,2.409-3.759,3.61c-0.4,0.381-1.093,0.462-1.331,0.019
		c-0.237-0.444-0.223-0.891-0.199-0.916c0.023-0.025,0.023-0.026,0-0.002c-0.024,0.024-0.051-0.021-0.062-0.101
		c-0.006-0.045-0.011-0.092-0.011-0.145c0.012-0.946,1.158-1.847,1.726-2.491c1.055-1.197,2.109-2.395,3.164-3.592
		c0.485-0.551,3.167-4.147,4.237-1.76C33.285,41.615,32.951,43.246,32.928,44.159z"/>
	<path d="M44.495,21.426c-2.725,1.292-4.983,4.716-6.863,7.012c-1.129,1.378-0.796,3.787,0.961,4.459
		c1.697,0.65,3.107,0.383,4.825,0.087c3.029-0.521,9.054-0.199,9.475-4.175c0.002-0.023-0.001-0.041-0.006-0.059
		c-0.008-0.032-0.013-0.071-0.008-0.086c0.003-0.009,0.006-0.018,0.005-0.028C52.655,25.544,47.935,19.795,44.495,21.426z
		 M47.172,23.525c1.474,1.034,2.91,3.04,3.497,4.555c0.2,0.515,0.265,1.429,0.039,1.932c-0.312,0.693-0.901,0.583-1.956,0.764
		c-1.391,0.239-2.782,0.479-4.172,0.718c-0.142,0.024-0.283,0.049-0.425,0.073c-0.235,0.041-0.44,0.062-0.459,0.05
		c-0.019-0.012-0.049-0.008-0.068,0.012c-0.019,0.019-0.393,0.097-0.836,0.173c-0.267,0.046-0.534,0.092-0.801,0.138
		c-0.6,0.103-1.142,0.056-1.595-0.101c-0.522-0.181-0.534-0.836-0.147-1.23c0.473-0.482,0.945-0.964,1.418-1.448
		c0.386-0.395,0.365-0.415-0.045-0.045c-0.502,0.453-1,0.903-1.494,1.35c-0.41,0.371-1.055,0.306-1.113-0.243
		c-0.062-0.588,0.158-1.262,0.751-1.92c1.474-1.634,2.947-3.268,4.421-4.903c0.282-0.312,0.602-0.484,0.946-0.543
		c0.544-0.093,0.663,0.413,0.267,0.798c-0.52,0.504-1.04,1.009-1.56,1.511c-0.397,0.384-0.385,0.396,0.028,0.029
		c0.553-0.491,1.117-0.991,1.687-1.496C45.967,23.334,46.72,23.208,47.172,23.525z"/>
	<path d="M43.411,37.216c-3.386-0.926-7.532-0.31-5,4.019c0.997,1.704,1.993,3.409,2.99,5.113c0.703,1.201,1.3,2.912,2.602,3.571
		c1.231,0.624,3.383,0.307,4.342-0.679c1.68-1.729,4.033-4.782,4.273-7.26c0.004-0.041-0.016-0.068-0.019-0.105
		c0-0.023,0.013-0.043,0.01-0.068C52.14,38.32,46.083,37.947,43.411,37.216z M39.602,38.859c-0.02-0.482,0.255-0.82,1.142-0.765
		c0.112,0.007,0.225,0.021,0.338,0.038c0.186,0.028,0.028,0.385-0.352,0.786c-0.054,0.057-0.107,0.113-0.16,0.169
		C40.19,39.488,39.625,39.411,39.602,38.859z M41.201,40.231c-0.389,0.392-0.83,0.499-0.978,0.237
		c-0.148-0.262,0.058-0.799,0.447-1.191c0.105-0.106,0.21-0.212,0.315-0.317c0.389-0.393,0.965-0.649,1.285-0.558
		c0.319,0.091,0.26,0.492-0.128,0.884C41.826,39.602,41.512,39.918,41.201,40.231z M50.408,43.203
		c-0.559,1.629-1.921,3.996-3.312,5.003c-0.447,0.324-0.575,0.123-0.185-0.268c0.138-0.138,0.275-0.276,0.412-0.413
		c0.391-0.391,0.639-0.824,0.555-0.968c-0.085-0.144-0.47,0.057-0.862,0.446c-0.301,0.299-0.602,0.598-0.903,0.897
		c-0.392,0.389-0.96,0.613-1.194,0.396c-0.234-0.217-0.051-0.76,0.341-1.149c0.388-0.385,0.776-0.771,1.165-1.157
		c0.392-0.389,0.589-0.91,0.441-1.162c-0.147-0.253-0.589-0.146-0.986,0.238c-0.389,0.375-0.783,0.755-1.179,1.139
		c-0.397,0.384-0.945,0.308-1.224-0.168c-0.049-0.084-0.098-0.167-0.147-0.252c-0.279-0.477-0.19-1.182,0.197-1.575l1.167-1.184
		c0.388-0.393,0.651-0.799,0.589-0.906c-0.063-0.107-0.427,0.126-0.812,0.521c-0.388,0.397-0.776,0.795-1.164,1.193
		c-0.386,0.396-0.925,0.329-1.204-0.148c-0.111-0.19-0.223-0.381-0.334-0.571c-0.279-0.477-0.192-1.185,0.192-1.581
		c0.39-0.401,0.787-0.81,1.192-1.227c0.385-0.396,0.615-0.885,0.541-1.104c-0.074-0.219-0.046-0.384,0.035-0.358
		c0.05,0.015,0.1,0.03,0.148,0.043c1.665,0.456,5.171,0.765,6.386,2.437C50.59,41.772,50.587,42.681,50.408,43.203z"/>
</g>
</svg>
