<?xml version="1.0" encoding="UTF-8" standalone="no"?>
<!-- Created with Inkscape (http://www.inkscape.org/) -->

<svg
   xmlns:dc="http://purl.org/dc/elements/1.1/"
   xmlns:cc="http://creativecommons.org/ns#"
   xmlns:rdf="http://www.w3.org/1999/02/22-rdf-syntax-ns#"
   xmlns:svg="http://www.w3.org/2000/svg"
   xmlns="http://www.w3.org/2000/svg"
   xmlns:sodipodi="http://sodipodi.sourceforge.net/DTD/sodipodi-0.dtd"
   xmlns:inkscape="http://www.inkscape.org/namespaces/inkscape"
   width="265.18542"
   height="2.8249347"
   id="svg6366"
   version="1.1"
   inkscape:version="0.48.5 r10040"
   sodipodi:docname="MenuFooter.svg">
  <defs
     id="defs6368" />
  <sodipodi:namedview
     id="base"
     pagecolor="#ffffff"
     bordercolor="#666666"
     borderopacity="1.0"
     inkscape:pageopacity="0.0"
     inkscape:pageshadow="2"
     inkscape:zoom="2.8"
     inkscape:cx="134.02506"
     inkscape:cy="-76.338959"
     inkscape:document-units="px"
     inkscape:current-layer="layer1"
     showgrid="false"
     fit-margin-top="0"
     fit-margin-left="0"
     fit-margin-right="0"
     fit-margin-bottom="0"
     inkscape:window-width="1680"
     inkscape:window-height="1027"
     inkscape:window-x="1912"
     inkscape:window-y="-8"
     inkscape:window-maximized="1" />
  <metadata
     id="metadata6371">
    <rdf:RDF>
      <cc:Work
         rdf:about="">
        <dc:format>image/svg+xml</dc:format>
        <dc:type
           rdf:resource="http://purl.org/dc/dcmitype/StillImage" />
        <dc:title></dc:title>
      </cc:Work>
    </rdf:RDF>
  </metadata>
  <g
     inkscape:label="Layer 1"
     inkscape:groupmode="layer"
     id="layer1"
     transform="translate(-95.97872,30.92932)">
    <g
       id="g5132"
       transform="matrix(1.25,0,0,-3.5399047,361.02822,-33.69725)"
       style="fill:#ffffff;fill-opacity:1"
       inkscape:export-filename="C:\dev3\simsip-line\Simsip.LineRunner.Content\Content\Images\MenuFooter.png"
       inkscape:export-xdpi="203.6311"
       inkscape:export-ydpi="203.6311">
      <path
         inkscape:connector-curvature="0"
         d="m 0,0 c 0.695,-2.289 -2.119,-1.061 -3.412,-1.367 l -4.092,0 -57.266,0 c -0.5,0.638 -1.244,1.035 -2.044,1.367 -0.129,0.582 0.258,0.646 0.679,0.68 C -43.866,-0.93 -23.425,0.283 0,0"
         style="fill:#ffffff;fill-opacity:1;fill-rule:nonzero;stroke:none"
         id="path5134" />
    </g>
    <g
       id="g5164"
       transform="matrix(1.25,0,0,-3.5399047,270.68759,-33.69725)"
       style="fill:#ffffff;fill-opacity:1"
       inkscape:export-filename="C:\dev3\simsip-line\Simsip.LineRunner.Content\Content\Images\MenuFooter.png"
       inkscape:export-xdpi="203.6311"
       inkscape:export-ydpi="203.6311">
      <path
         inkscape:connector-curvature="0"
         d="m 0,0 c 1.553,-0.494 5.321,1.229 4.771,-1.367 l -27.266,0 c -4.812,0.582 -6.809,-0.09 -12.275,0 l -6.817,0 C -43.139,-0.865 -46.906,-2.596 -46.364,0 L 0,0 z"
         style="fill:#ffffff;fill-opacity:1;fill-rule:nonzero;stroke:none"
         id="path5166" />
    </g>
    <g
       id="g5180"
       transform="matrix(1.25,0,0,-3.5399047,208.47697,-33.69725)"
       style="fill:#ffffff;fill-opacity:1"
       inkscape:export-filename="C:\dev3\simsip-line\Simsip.LineRunner.Content\Content\Images\MenuFooter.png"
       inkscape:export-xdpi="203.6311"
       inkscape:export-ydpi="203.6311">
      <path
         inkscape:connector-curvature="0"
         d="M 0,0 C -1.497,-2.086 -4.367,0.783 0,0"
         style="fill:#ffffff;fill-opacity:1;fill-rule:nonzero;stroke:none"
         id="path5182" />
    </g>
    <g
       id="g5184"
       transform="matrix(1.25,0,0,-3.5399047,203.36221,-33.69725)"
       style="fill:#ffffff;fill-opacity:1"
       inkscape:export-filename="C:\dev3\simsip-line\Simsip.LineRunner.Content\Content\Images\MenuFooter.png"
       inkscape:export-xdpi="203.6311"
       inkscape:export-ydpi="203.6311">
      <path
         inkscape:connector-curvature="0"
         d="M 0,0 C -0.017,-0.664 -0.834,-0.525 -1.366,-0.68 -1.343,-0.018 -0.525,-0.154 0,0"
         style="fill:#ffffff;fill-opacity:1;fill-rule:nonzero;stroke:none"
         id="path5186" />
    </g>
    <g
       id="g5188"
       transform="matrix(1.25,0,0,-3.5399047,199.09709,-33.69725)"
       style="fill:#ffffff;fill-opacity:1"
       inkscape:export-filename="C:\dev3\simsip-line\Simsip.LineRunner.Content\Content\Images\MenuFooter.png"
       inkscape:export-xdpi="203.6311"
       inkscape:export-ydpi="203.6311">
      <path
         inkscape:connector-curvature="0"
         d="m 0,0 c 0.42,-2.693 -3.744,-0.801 -5.45,-1.367 l -6.138,0 C -9.501,0.865 -4.035,-0.283 0,0"
         style="fill:#ffffff;fill-opacity:1;fill-rule:nonzero;stroke:none"
         id="path5190" />
    </g>
    <g
       id="g5200"
       transform="matrix(1.25,0,0,-3.5399047,180.34709,-33.69725)"
       style="fill:#ffffff;fill-opacity:1"
       inkscape:export-filename="C:\dev3\simsip-line\Simsip.LineRunner.Content\Content\Images\MenuFooter.png"
       inkscape:export-xdpi="203.6311"
       inkscape:export-ydpi="203.6311">
      <path
         inkscape:connector-curvature="0"
         d="M 0,0 C 0.42,-2.693 -3.743,-0.801 -5.45,-1.367 -5.871,1.326 -1.706,-0.559 0,0"
         style="fill:#ffffff;fill-opacity:1;fill-rule:nonzero;stroke:none"
         id="path5202" />
    </g>
    <g
       id="g5204"
       transform="matrix(1.25,0,0,-3.5399047,171.82659,-33.69725)"
       style="fill:#ffffff;fill-opacity:1"
       inkscape:export-filename="C:\dev3\simsip-line\Simsip.LineRunner.Content\Content\Images\MenuFooter.png"
       inkscape:export-xdpi="203.6311"
       inkscape:export-ydpi="203.6311">
      <path
         inkscape:connector-curvature="0"
         d="M 0,0 C 0.606,-2.111 -3.437,-1.398 -5.449,-1.367 -7.423,-1.326 -10.859,-2.096 -10.221,0 -7.311,-0.438 -3.832,-0.486 0,0"
         style="fill:#ffffff;fill-opacity:1;fill-rule:nonzero;stroke:none"
         id="path5206" />
    </g>
    <g
       id="g5212"
       transform="matrix(1.25,0,0,-3.5399047,153.07659,-31.291163)"
       style="fill:#ffffff;fill-opacity:1"
       inkscape:export-filename="C:\dev3\simsip-line\Simsip.LineRunner.Content\Content\Images\MenuFooter.png"
       inkscape:export-xdpi="203.6311"
       inkscape:export-ydpi="203.6311">
      <path
         inkscape:connector-curvature="0"
         d="M 0,0 C -0.218,1.197 3.825,1.213 2.726,-0.688 1.303,-0.971 0.922,-0.219 0,0"
         style="fill:#ffffff;fill-opacity:1;fill-rule:nonzero;stroke:none"
         id="path5214" />
    </g>
    <g
       id="g5216"
       transform="matrix(1.25,0,0,-3.5399047,149.67084,-33.69725)"
       style="fill:#ffffff;fill-opacity:1"
       inkscape:export-filename="C:\dev3\simsip-line\Simsip.LineRunner.Content\Content\Images\MenuFooter.png"
       inkscape:export-xdpi="203.6311"
       inkscape:export-ydpi="203.6311">
      <path
         inkscape:connector-curvature="0"
         d="M 0,0 C 2.346,-1.764 -3.51,-1.65 0,0"
         style="fill:#ffffff;fill-opacity:1;fill-rule:nonzero;stroke:none"
         id="path5218" />
    </g>
    <g
       id="g5220"
       transform="matrix(1.25,0,0,-3.5399047,146.26497,-33.69725)"
       style="fill:#ffffff;fill-opacity:1"
       inkscape:export-filename="C:\dev3\simsip-line\Simsip.LineRunner.Content\Content\Images\MenuFooter.png"
       inkscape:export-xdpi="203.6311"
       inkscape:export-ydpi="203.6311">
      <path
         inkscape:connector-curvature="0"
         d="M 0,0 C -0.219,-2.047 -4.205,-1.342 -6.816,-1.367 -9.332,-1.383 -13.682,-2.313 -13.642,0 -9.105,-0.227 -4.488,-0.518 0,0"
         style="fill:#ffffff;fill-opacity:1;fill-rule:nonzero;stroke:none"
         id="path5222" />
    </g>
    <g
       id="g5228"
       transform="matrix(1.25,0,0,-3.5399047,127.51497,-31.291163)"
       style="fill:#ffffff;fill-opacity:1"
       inkscape:export-filename="C:\dev3\simsip-line\Simsip.LineRunner.Content\Content\Images\MenuFooter.png"
       inkscape:export-xdpi="203.6311"
       inkscape:export-ydpi="203.6311">
      <path
         inkscape:connector-curvature="0"
         d="m 0,0 c -1.625,-2.037 -3.986,0.023 -6.137,0 -5.466,-0.08 -12.833,0.031 -19.092,-0.688 0.285,2.483 3.599,1.293 5.451,1.368 C -14.175,0.898 -5.216,1.043 0,0"
         style="fill:#ffffff;fill-opacity:1;fill-rule:nonzero;stroke:none"
         id="path5230" />
    </g>
  </g>
</svg>
