<?xml version="1.0" encoding="UTF-8" standalone="no"?>
<!-- Created with Inkscape (http://www.inkscape.org/) -->

<svg
   xmlns:dc="http://purl.org/dc/elements/1.1/"
   xmlns:cc="http://creativecommons.org/ns#"
   xmlns:rdf="http://www.w3.org/1999/02/22-rdf-syntax-ns#"
   xmlns:svg="http://www.w3.org/2000/svg"
   xmlns="http://www.w3.org/2000/svg"
   xmlns:sodipodi="http://sodipodi.sourceforge.net/DTD/sodipodi-0.dtd"
   xmlns:inkscape="http://www.inkscape.org/namespaces/inkscape"
   width="228.39838"
   height="3.5843203"
   id="svg5759"
   version="1.1"
   inkscape:version="0.48.5 r10040"
   sodipodi:docname="MenuHeader.svg">
  <defs
     id="defs5761" />
  <sodipodi:namedview
     id="base"
     pagecolor="#ffffff"
     bordercolor="#666666"
     borderopacity="1.0"
     inkscape:pageopacity="0.0"
     inkscape:pageshadow="2"
     inkscape:zoom="3.959798"
     inkscape:cx="79.66993"
     inkscape:cy="12.715071"
     inkscape:document-units="px"
     inkscape:current-layer="layer1"
     showgrid="false"
     fit-margin-top="0"
     fit-margin-left="0"
     fit-margin-right="0"
     fit-margin-bottom="0"
     inkscape:window-width="1680"
     inkscape:window-height="1027"
     inkscape:window-x="1912"
     inkscape:window-y="-8"
     inkscape:window-maximized="1" />
  <metadata
     id="metadata5764">
    <rdf:RDF>
      <cc:Work
         rdf:about="">
        <dc:format>image/svg+xml</dc:format>
        <dc:type
           rdf:resource="http://purl.org/dc/dcmitype/StillImage" />
        <dc:title></dc:title>
      </cc:Work>
    </rdf:RDF>
  </metadata>
  <g
     inkscape:label="Layer 1"
     inkscape:groupmode="layer"
     id="layer1"
     transform="translate(-277.22938,-254.42736)">
    <g
       id="g5344"
       transform="matrix(1.25,0,0,-2.7899292,499.65401,252.30543)"
       style="fill:#ffffff;fill-opacity:1"
       inkscape:export-filename="C:\dev3\simsip-line\Simsip.LineRunner.Content\Content\Images\MenuHeader.png"
       inkscape:export-xdpi="236.42999"
       inkscape:export-ydpi="236.42999">
      <path
         inkscape:connector-curvature="0"
         d="M 0,0 C 1.602,-0.219 2.563,-1.084 4.779,-0.688 2.265,-2.264 -3.17,-0.922 -6.816,-1.367 -6.913,1.455 -2.069,-0.654 0,0"
         style="fill:#ffffff;fill-opacity:1;fill-rule:nonzero;stroke:none"
         id="path5346" />
    </g>
    <g
       id="g5348"
       transform="matrix(1.25,0,0,-2.7899292,488.57614,254.22351)"
       style="fill:#ffffff;fill-opacity:1"
       inkscape:export-filename="C:\dev3\simsip-line\Simsip.LineRunner.Content\Content\Images\MenuHeader.png"
       inkscape:export-xdpi="236.42999"
       inkscape:export-ydpi="236.42999">
      <path
         inkscape:connector-curvature="0"
         d="M 0,0 C 0.308,0.996 0.599,-0.064 1.367,0 1.197,-0.857 0.009,-0.688 0,0"
         style="fill:#ffffff;fill-opacity:1;fill-rule:nonzero;stroke:none"
         id="path5350" />
    </g>
    <g
       id="g5352"
       transform="matrix(1.25,0,0,-2.7899292,482.61426,256.11955)"
       style="fill:#ffffff;fill-opacity:1"
       inkscape:export-filename="C:\dev3\simsip-line\Simsip.LineRunner.Content\Content\Images\MenuHeader.png"
       inkscape:export-xdpi="236.42999"
       inkscape:export-ydpi="236.42999">
      <path
         inkscape:connector-curvature="0"
         d="M 0,0 C 0.16,1.197 1.172,1.553 2.725,1.367 2.563,0.162 1.552,-0.193 0,0"
         style="fill:#ffffff;fill-opacity:1;fill-rule:nonzero;stroke:none"
         id="path5354" />
    </g>
    <g
       id="g5356"
       transform="matrix(1.25,0,0,-2.7899292,479.20726,254.22351)"
       style="fill:#ffffff;fill-opacity:1"
       inkscape:export-filename="C:\dev3\simsip-line\Simsip.LineRunner.Content\Content\Images\MenuHeader.png"
       inkscape:export-xdpi="236.42999"
       inkscape:export-ydpi="236.42999">
      <path
         inkscape:connector-curvature="0"
         d="M 0,0 C -0.308,-0.986 -0.599,0.072 -1.367,0 -1.197,0.857 -0.008,0.688 0,0"
         style="fill:#ffffff;fill-opacity:1;fill-rule:nonzero;stroke:none"
         id="path5358" />
    </g>
    <g
       id="g5360"
       transform="matrix(1.25,0,0,-2.7899292,472.38476,254.22351)"
       style="fill:#ffffff;fill-opacity:1"
       inkscape:export-filename="C:\dev3\simsip-line\Simsip.LineRunner.Content\Content\Images\MenuHeader.png"
       inkscape:export-xdpi="236.42999"
       inkscape:export-ydpi="236.42999">
      <path
         inkscape:connector-curvature="0"
         d="M 0,0 C -0.219,1.205 3.824,1.221 2.732,-0.68 1.302,-0.971 0.922,-0.209 0,0"
         style="fill:#ffffff;fill-opacity:1;fill-rule:nonzero;stroke:none"
         id="path5362" />
    </g>
    <g
       id="g5364"
       transform="matrix(1.25,0,0,-2.7899292,451.07864,254.22351)"
       style="fill:#ffffff;fill-opacity:1"
       inkscape:export-filename="C:\dev3\simsip-line\Simsip.LineRunner.Content\Content\Images\MenuHeader.png"
       inkscape:export-xdpi="236.42999"
       inkscape:export-ydpi="236.42999">
      <path
         inkscape:connector-curvature="0"
         d="M 0,0 C 5.264,1.689 10.172,-0.113 15.686,0.688 12.266,-1.707 4.908,-0.016 0,0"
         style="fill:#ffffff;fill-opacity:1;fill-rule:nonzero;stroke:none"
         id="path5366" />
    </g>
    <g
       id="g5372"
       transform="matrix(1.25,0,0,-2.7899292,450.22901,252.30543)"
       style="fill:#ffffff;fill-opacity:1"
       inkscape:export-filename="C:\dev3\simsip-line\Simsip.LineRunner.Content\Content\Images\MenuHeader.png"
       inkscape:export-xdpi="236.42999"
       inkscape:export-ydpi="236.42999">
      <path
         inkscape:connector-curvature="0"
         d="m 0,0 c 0.113,-1.479 -2.418,-0.314 -3.412,-0.688 -4.076,-0.994 -8.693,0.106 -13.633,-0.679 -1.221,-0.088 -1.439,0.834 -2.726,0.679 3.875,1.586 10.674,0.235 15.679,0.688 L 0,0 z"
         style="fill:#ffffff;fill-opacity:1;fill-rule:nonzero;stroke:none"
         id="path5374" />
    </g>
    <g
       id="g5380"
       transform="matrix(1.25,0,0,-2.7899292,411.88188,252.30543)"
       style="fill:#ffffff;fill-opacity:1"
       inkscape:export-filename="C:\dev3\simsip-line\Simsip.LineRunner.Content\Content\Images\MenuHeader.png"
       inkscape:export-xdpi="236.42999"
       inkscape:export-ydpi="236.42999">
      <path
         inkscape:connector-curvature="0"
         d="M 0,0 C 3.113,-0.299 7.504,0.688 9.541,-0.688 4.544,-2.176 -5.07,-0.314 -9.55,-1.367 -10.196,1.1 -6.865,-0.42 -5.459,0 L 0,0 z"
         style="fill:#ffffff;fill-opacity:1;fill-rule:nonzero;stroke:none"
         id="path5382" />
    </g>
    <g
       id="g5396"
       transform="matrix(1.25,0,0,-2.7899292,391.42288,252.30543)"
       style="fill:#ffffff;fill-opacity:1"
       inkscape:export-filename="C:\dev3\simsip-line\Simsip.LineRunner.Content\Content\Images\MenuHeader.png"
       inkscape:export-xdpi="236.42999"
       inkscape:export-ydpi="236.42999">
      <path
         inkscape:connector-curvature="0"
         d="m 0,0 c 1.205,-0.162 3.413,0.68 2.726,-1.367 -12.607,1.084 -21.242,-0.461 -34.77,0.679 0.146,0.77 0.761,1.061 1.366,1.368 2.207,0.396 3.17,-0.469 4.771,-0.68 2.879,-0.023 4.407,1.318 6.817,0 2.304,0.785 2.91,-0.484 4.091,0.68 1.286,0.152 1.505,-0.768 2.726,-0.68 L -4.091,0 0,0 z"
         style="fill:#ffffff;fill-opacity:1;fill-rule:nonzero;stroke:none"
         id="path5398" />
    </g>
    <g
       id="g5408"
       transform="matrix(1.25,0,0,-2.7899292,345.40476,250.40912)"
       style="fill:#ffffff;fill-opacity:1"
       inkscape:export-filename="C:\dev3\simsip-line\Simsip.LineRunner.Content\Content\Images\MenuHeader.png"
       inkscape:export-xdpi="236.42999"
       inkscape:export-ydpi="236.42999">
      <path
         inkscape:connector-curvature="0"
         d="m 0,0 c 2.159,0.113 2.279,-1.811 4.771,-1.367 -0.146,-0.76 -0.752,-1.059 -1.359,-1.358 -4.666,1.827 -9.121,0.088 -13.641,1.358 -6.202,-1.528 -11.304,0.306 -17.045,-0.68 -0.639,2.92 1.747,1.149 3.412,1.367 5.49,0.713 13.576,1.424 18.404,0 C -3.825,-0.275 -2.346,0.299 0,0"
         style="fill:#ffffff;fill-opacity:1;fill-rule:nonzero;stroke:none"
         id="path5410" />
    </g>
    <g
       id="g5416"
       transform="matrix(1.25,0,0,-2.7899292,308.75438,250.40912)"
       style="fill:#ffffff;fill-opacity:1"
       inkscape:export-filename="C:\dev3\simsip-line\Simsip.LineRunner.Content\Content\Images\MenuHeader.png"
       inkscape:export-xdpi="236.42999"
       inkscape:export-ydpi="236.42999">
      <path
         inkscape:connector-curvature="0"
         d="m 0,0 c 0.631,-3.082 -4.899,-2.256 -6.137,-1.367 -5.595,-0.768 -13.309,-0.549 -19.083,0 C -17.757,1.277 -7.932,-1.584 0,0"
         style="fill:#ffffff;fill-opacity:1;fill-rule:nonzero;stroke:none"
         id="path5418" />
    </g>
  </g>
</svg>
